<?xml version="1.0" encoding="UTF-8" standalone="no"?>
<svg width="311px" height="85px" viewBox="0 0 311 85" version="1.1" xmlns="http://www.w3.org/2000/svg" xmlns:xlink="http://www.w3.org/1999/xlink">
    <!-- Generator: Sketch 3.7.2 (28276) - http://www.bohemiancoding.com/sketch -->
    <title>AREA Logo</title>
    <desc>Created with Sketch.</desc>
    <defs>
        <polygon id="path-1" points="6.23469923e-21 0.289243903 6.23469923e-21 62.8002643 139.051479 62.8002643 139.051479 0.289243903 0 0.289243903"></polygon>
    </defs>
    <g id="Symbols" stroke="none" stroke-width="1" fill="none" fill-rule="evenodd">
        <g id="AREA-Logo">
            <polygon id="Rectangle-114-Copy-2" fill="#FFFFFF" points="0 0 311 0 290.024106 85 0 85"></polygon>
            <g id="Logo" transform="translate(125.660000, 10.100000)">
                <text id="ANNUAL-REA" font-family="MuseoSans-900, Museo Sans" font-size="6.73739749" font-weight="bold" fill="#1B2A38">
                    <tspan x="65.4451421" y="54.1010421">ANNUAL REA</tspan>
                </text>
                <g id="Group-9" transform="translate(0.000000, 0.171226)">
                    <mask id="mask-2" fill="white">
                        <use xlink:href="#path-1"></use>
                    </mask>
                    <g id="Clip-1"></g>
                    <text id="EXCELLENCE-AWARDS" mask="url(#mask-2)" font-family="MuseoSans-900, Museo Sans" font-size="6.73739749" font-weight="bold">
                        <tspan x="65.4451421" y="60.4426364" fill="#1B2A38">EXCELLENCE</tspan>
                        <tspan x="108.234353" y="60.4426364" fill="#1B2B39"> </tspan>
                        <tspan x="109.777218" y="60.4426364" fill="#D41633">AWARDS</tspan>
                    </text>
                    <path d="M88.9648508,26.4099384 C88.9648508,23.6081757 87.0947898,22.4128123 83.3638686,22.4128123 C82.578121,22.4128123 80.7140405,22.4896801 80.0414626,22.5605642 L80.0414626,30.9630903 C80.6404342,30.9999132 82.7313142,31.0767811 83.3638686,31.0767811 C87.2084196,31.0767811 88.9648508,30.0319312 88.9648508,26.7450268 L88.9648508,26.4099384 Z M94.5626127,46.0172137 L90.0086807,46.0172137 C89.5974053,46.0172137 89.4501926,45.6425406 89.2624964,45.2674073 L83.8892339,35.2980666 L83.3638686,35.2980666 C82.3936451,35.2980666 80.9012766,35.1843759 80.0414626,35.147553 L80.0414626,45.2674073 C80.0414626,45.6821252 79.743817,46.0172137 79.3320816,46.0172137 L75.6016204,46.0172137 C75.1931052,46.0172137 74.8554362,45.6821252 74.8554362,45.2674073 L74.8554362,19.5742267 C74.8554362,18.8276424 75.3002945,18.5661998 76.049699,18.455731 C77.9906061,18.1514818 80.6404342,17.9673673 83.3638686,17.9673673 C89.1120635,17.9673673 94.1172944,20.0225456 94.1172944,26.4099384 L94.1172944,26.7450268 C94.1172944,30.702108 92.1336036,33.1687822 89.0784806,34.3641457 L94.937085,45.2674073 C95.0106913,45.381098 95.0106913,45.492027 95.0106913,45.5656728 C95.0106913,45.8298771 94.8634786,46.0172137 94.5626127,46.0172137 L94.5626127,46.0172137 Z" id="Fill-2" fill="#1B2A38" mask="url(#mask-2)"></path>
                    <path d="M112.891511,45.7929162 C111.696788,45.977491 110.238462,46.3153411 105.80138,46.3153411 C100.946582,46.3153411 97.1760977,45.0095089 97.1760977,38.658939 L97.1760977,25.626393 C97.1760977,19.2762834 100.946582,17.9672292 105.80138,17.9672292 C110.238462,17.9672292 111.696788,18.3050793 112.891511,18.4896541 C113.450459,18.566522 113.634475,18.7506365 113.634475,19.2762834 L113.634475,21.6660898 C113.634475,22.074824 113.300026,22.4126742 112.891511,22.4126742 L105.276475,22.4126742 C103.111529,22.4126742 102.325321,23.1592585 102.325321,25.626393 L102.325321,29.6571201 L112.442972,29.6571201 C112.854707,29.6571201 113.189156,29.9954305 113.189156,30.4069264 L113.189156,33.0949983 C113.189156,33.5005106 112.854707,33.8415827 112.442972,33.8415827 L102.325321,33.8415827 L102.325321,38.658939 C102.325321,41.1228515 103.111529,41.8694358 105.276475,41.8694358 L112.891511,41.8694358 C113.300026,41.8694358 113.634475,42.2045243 113.634475,42.6192422 L113.634475,45.0095089 C113.634475,45.5287118 113.450459,45.7192703 112.891511,45.7929162" id="Fill-3" fill="#1B2A38" mask="url(#mask-2)"></path>
                    <path d="M127.40852,22.9342246 C127.294891,22.4886674 127.187241,22.3381538 126.812769,22.3381538 C126.438297,22.3381538 126.327427,22.4886674 126.217018,22.9342246 L123.527166,34.025283 L130.098372,34.025283 L127.40852,22.9342246 Z M137.489368,46.016201 L133.531187,46.016201 C133.196739,46.016201 132.895873,45.7183958 132.821806,45.3805457 L131.105399,38.2866134 L122.52014,38.2866134 L120.800511,45.3805457 C120.729665,45.7183958 120.428799,46.016201 120.094351,46.016201 L116.13617,46.016201 C115.764458,46.016201 115.466812,45.7552187 115.466812,45.3805457 C115.466812,45.3432625 115.503615,45.266855 115.503615,45.1927489 L121.623522,21.7761443 C122.52014,18.3042048 125.206771,17.9663547 126.812769,17.9663547 C128.415547,17.9663547 131.105399,18.3042048 132.002016,21.7761443 L138.121923,45.1927489 C138.121923,45.266855 138.158726,45.3432625 138.158726,45.3805457 C138.158726,45.7552187 137.86108,46.016201 137.489368,46.016201 L137.489368,46.016201 Z" id="Fill-4" fill="#1B2A38" mask="url(#mask-2)"></path>
                    <path d="M62.1536507,22.9342246 C62.0400209,22.4886674 61.9323716,22.3381538 61.5578994,22.3381538 C61.1834272,22.3381538 61.0725576,22.4886674 60.9621481,22.9342246 L58.2722966,34.025283 L64.8435023,34.025283 L62.1536507,22.9342246 Z M72.2344985,46.016201 L68.2763178,46.016201 C67.941869,46.016201 67.6410031,45.7183958 67.5669367,45.3805457 L65.850529,38.2866134 L57.2652699,38.2866134 L55.5456418,45.3805457 C55.4747957,45.7183958 55.1739298,46.016201 54.839481,46.016201 L50.8813003,46.016201 C50.5095883,46.016201 50.2119427,45.7552187 50.2119427,45.3805457 C50.2119427,45.3432625 50.2487458,45.266855 50.2487458,45.1927489 L56.3686527,21.7761443 C57.2652699,18.3042048 59.9519011,17.9663547 61.5578994,17.9663547 C63.1606774,17.9663547 65.850529,18.3042048 66.7471461,21.7761443 L72.867053,45.1927489 C72.867053,45.266855 72.9038562,45.3432625 72.9038562,45.3805457 C72.9038562,45.7552187 72.6062105,46.016201 72.2344985,46.016201 L72.2344985,46.016201 Z" id="Fill-5" fill="#1B2A38" mask="url(#mask-2)"></path>
                    <path d="M59.392401,54.585535 C59.392401,57.0047997 57.3318836,58.9729839 54.7989055,58.9729839 L8.60080843,58.9729839 C6.06783037,58.9729839 4.00731298,57.0047997 4.00731298,54.585535 L4.00731298,8.50397328 C4.00731298,6.08470855 6.06783037,4.11652438 8.60080843,4.11652438 L54.7989055,4.11652438 C57.3318836,4.11652438 59.392401,6.08470855 59.392401,8.50397328 L59.392401,12.2368951 L63.399806,12.2368951 L63.399806,8.50397328 C63.399806,3.97429592 59.5414538,0.289243903 54.7989055,0.289243903 L8.60080843,0.289243903 C3.85826015,0.289243903 -9.20079206e-05,3.97429592 -9.20079206e-05,8.50397328 L-9.20079206e-05,54.585535 C-9.20079206e-05,59.1152123 3.85826015,62.8002643 8.60080843,62.8002643 L54.7989055,62.8002643 C59.5414538,62.8002643 63.399806,59.1152123 63.399806,54.585535 L63.399806,51.3110583 L59.392401,51.3110583 L59.392401,54.585535 Z" id="Fill-6" fill="#D51632" mask="url(#mask-2)"></path>
                    <path d="M16.7858331,31.5566755 C16.7398291,39.6411439 23.383261,46.2287612 31.6202701,46.2720282 C39.8600395,46.3162156 46.5706372,39.7967207 46.6138809,31.7131729 C46.6585047,23.6305457 40.0182931,17.0443092 31.780824,17.0019628 L31.6957166,17.0019628 C23.4968908,17.0019628 16.8290768,23.5025861 16.7858331,31.5566755" id="Fill-7" fill="#D51632" mask="url(#mask-2)"></path>
                    <path d="M36.567674,30.5644824 L36.567674,38.3520661 L26.8323159,38.3520661 L26.8323159,30.5644824 L24.2708154,30.5644824 L31.7009151,23.3094499 L39.1300946,30.5644824 L36.567674,30.5644824 Z M41.4795169,29.6282601 L41.4795169,29.626419 L32.6205342,20.9665927 C32.3918946,20.7244822 32.0648064,20.573048 31.7009151,20.573048 L31.699995,20.573048 C31.3365637,20.573048 31.0080954,20.7244822 30.7808359,20.9665927 L21.9204731,29.626419 L21.9204731,29.6282601 C21.5777436,29.9665705 21.3675055,30.4323802 21.3675055,30.9474406 C21.3675055,31.9812436 22.2194988,32.8221867 23.2734496,32.8249484 L24.4934746,32.8240278 C24.4934746,32.8240278 24.4907144,39.3982968 24.4907144,39.413026 C24.4907144,40.0905674 25.0473623,40.639689 25.7351215,40.6447521 L37.6657886,40.6447521 C38.3535478,40.639689 38.9092756,40.0905674 38.9092756,39.413026 C38.9092756,39.3982968 38.9065154,32.8240278 38.9065154,32.8240278 L40.1265404,32.8249484 C41.1804912,32.8221867 42.0343247,31.9812436 42.0343247,30.9474406 C42.0343247,30.4323802 41.8222464,29.9665705 41.4795169,29.6282601 L41.4795169,29.6282601 Z" id="Fill-8" fill="#FFFFFF" mask="url(#mask-2)"></path>
                </g>
            </g>
        </g>
    </g>
</svg>