<?xml version="1.0" encoding="utf-8"?>
<!-- Generator: Adobe Illustrator 19.1.0, SVG Export Plug-In . SVG Version: 6.00 Build 0)  -->
<svg version="1.1" id="Layer_1" xmlns="http://www.w3.org/2000/svg" xmlns:xlink="http://www.w3.org/1999/xlink" x="0px" y="0px"
	 viewBox="0 0 881.6 240.9" style="enable-background:new 0 0 881.6 240.9;" xml:space="preserve">
<style type="text/css">
	.st0{fill-rule:evenodd;clip-rule:evenodd;fill:#FFFFFF;}
	.st1{fill:#1C2B39;}
	.st2{fill:#D41633;}
	.st3{fill:#FFFFFF;}
</style>
<polygon class="st0" points="0,0 881.6,0 822.1,240.9 0,240.9 "/>
<g>
	<g>
		<path class="st1" d="M551.4,184.6h-4.3l-0.8,2.9h-3.5l4.7-13.8h3.5l4.7,13.8h-3.5L551.4,184.6z M549.3,176.9c0,0-0.3,1.5-0.6,2.4
			l-0.8,2.7h2.7l-0.8-2.7C549.6,178.4,549.3,176.9,549.3,176.9L549.3,176.9z"/>
		<path class="st1" d="M557.3,173.7h3.4l3.8,6.4c0.5,0.9,1.2,2.4,1.2,2.4h0c0,0-0.2-1.5-0.2-2.4v-6.4h3.4v13.8h-3.4l-3.8-6.4
			c-0.5-0.9-1.2-2.4-1.2-2.4h0c0,0,0.2,1.5,0.2,2.4v6.4h-3.4V173.7z"/>
		<path class="st1" d="M572.2,173.7h3.4l3.8,6.4c0.5,0.9,1.2,2.4,1.2,2.4h0c0,0-0.2-1.5-0.2-2.4v-6.4h3.4v13.8h-3.4l-3.8-6.4
			c-0.5-0.9-1.2-2.4-1.2-2.4h0c0,0,0.2,1.5,0.2,2.4v6.4h-3.4V173.7z"/>
		<path class="st1" d="M586.9,173.7h3.4v8.7c0,1.4,0.9,2.2,2.4,2.2c1.4,0,2.4-0.8,2.4-2.2v-8.7h3.4v8.7c0,3.1-2.3,5.3-5.7,5.3
			c-3.5,0-5.8-2.2-5.8-5.3V173.7z"/>
		<path class="st1" d="M608.4,184.6h-4.3l-0.8,2.9h-3.5l4.7-13.8h3.5l4.7,13.8h-3.5L608.4,184.6z M606.2,176.9c0,0-0.3,1.5-0.6,2.4
			l-0.8,2.7h2.7l-0.8-2.7C606.5,178.4,606.2,176.9,606.2,176.9L606.2,176.9z"/>
		<path class="st1" d="M614.2,173.7h3.4v10.9h5.6v2.9h-9V173.7z"/>
		<path class="st1" d="M629.5,173.7h4.8c1.4,0,2.1,0.1,2.7,0.3c1.6,0.6,2.5,2,2.5,4c0,1.5-0.7,3.1-2.1,3.8v0c0,0,0.2,0.3,0.5,0.8
			l2.7,4.8h-3.8l-2.4-4.6h-1.6v4.6h-3.4V173.7z M634.3,180c1.1,0,1.8-0.6,1.8-1.7c0-1-0.4-1.7-2.1-1.7h-1.1v3.4H634.3z"/>
		<path class="st1" d="M642.7,173.7h8.6v2.9h-5.3v2.5h4.2v2.9h-4.2v2.6h5.5v2.9h-8.9V173.7z"/>
		<path class="st1" d="M660.9,184.6h-4.3l-0.8,2.9h-3.5l4.7-13.8h3.5l4.7,13.8h-3.5L660.9,184.6z M658.8,176.9c0,0-0.3,1.5-0.6,2.4
			l-0.8,2.7h2.7l-0.8-2.7C659.1,178.4,658.8,176.9,658.8,176.9L658.8,176.9z"/>
		<path class="st1" d="M544.5,192.3h8.6v2.9h-5.3v2.5h4.2v2.9h-4.2v2.6h5.5v2.9h-8.9V192.3z"/>
		<path class="st1" d="M558.7,199.2l-4.2-6.9h3.8l1.5,2.8c0.5,0.9,0.8,1.8,0.8,1.8h0c0,0,0.4-0.9,0.8-1.8l1.5-2.8h3.8l-4.2,6.9
			l4.2,6.8h-3.8l-1.6-2.9c-0.5-0.9-0.8-1.7-0.8-1.7h0c0,0-0.4,0.8-0.8,1.7l-1.6,2.9h-3.7L558.7,199.2z"/>
		<path class="st1" d="M575.2,192.1c3.4,0,5.2,1.9,5.2,1.9l-1.6,2.5c0,0-1.5-1.4-3.5-1.4c-2.6,0-3.9,1.9-3.9,3.9
			c0,2,1.3,4.1,3.9,4.1c2.1,0,3.7-1.7,3.7-1.7l1.7,2.5c0,0-1.9,2.3-5.6,2.3c-4.3,0-7.2-3.1-7.2-7.2
			C567.9,195.2,571,192.1,575.2,192.1z"/>
		<path class="st1" d="M582.8,192.3h8.6v2.9h-5.3v2.5h4.2v2.9h-4.2v2.6h5.5v2.9h-8.9V192.3z"/>
		<path class="st1" d="M594.1,192.3h3.4v10.9h5.6v2.9h-9V192.3z"/>
		<path class="st1" d="M605,192.3h3.4v10.9h5.6v2.9h-9V192.3z"/>
		<path class="st1" d="M615.8,192.3h8.6v2.9h-5.3v2.5h4.2v2.9h-4.2v2.6h5.5v2.9h-8.9V192.3z"/>
		<path class="st1" d="M627.2,192.3h3.4l3.8,6.4c0.5,0.9,1.2,2.4,1.2,2.4h0c0,0-0.2-1.5-0.2-2.4v-6.4h3.4v13.8h-3.4l-3.8-6.4
			c-0.5-0.9-1.2-2.4-1.2-2.4h0c0,0,0.2,1.5,0.2,2.4v6.4h-3.4V192.3z"/>
		<path class="st1" d="M648.3,192.1c3.4,0,5.2,1.9,5.2,1.9l-1.6,2.5c0,0-1.5-1.4-3.5-1.4c-2.6,0-3.9,1.9-3.9,3.9
			c0,2,1.3,4.1,3.9,4.1c2.1,0,3.7-1.7,3.7-1.7l1.7,2.5c0,0-1.9,2.3-5.6,2.3c-4.3,0-7.2-3.1-7.2-7.2
			C641.1,195.2,644.2,192.1,648.3,192.1z"/>
		<path class="st1" d="M655.9,192.3h8.6v2.9h-5.3v2.5h4.2v2.9h-4.2v2.6h5.5v2.9h-8.9V192.3z"/>
		<path class="st2" d="M678.6,203.2h-4.3l-0.8,2.9H670l4.7-13.8h3.5l4.7,13.8h-3.5L678.6,203.2z M676.4,195.4c0,0-0.3,1.5-0.6,2.4
			l-0.8,2.7h2.7l-0.8-2.7C676.8,196.9,676.5,195.4,676.4,195.4L676.4,195.4z"/>
		<path class="st2" d="M683.2,192.3h3.5l1.7,8.6c0.2,0.8,0.2,1.4,0.2,1.4h0c0,0,0-0.6,0.2-1.4l2.1-8.6h2.7l2.1,8.6
			c0.2,0.8,0.2,1.4,0.2,1.4h0c0,0,0-0.6,0.2-1.4l1.9-8.6h3.5l-3.5,13.8h-3.8l-1.7-7c-0.2-0.9-0.3-1.6-0.3-1.6h0c0,0-0.1,0.7-0.3,1.6
			l-1.7,7h-3.8L683.2,192.3z"/>
		<path class="st2" d="M710.6,203.2h-4.3l-0.8,2.9H702l4.7-13.8h3.5l4.7,13.8h-3.5L710.6,203.2z M708.4,195.4c0,0-0.3,1.5-0.6,2.4
			l-0.8,2.7h2.7l-0.8-2.7C708.8,196.9,708.5,195.4,708.4,195.4L708.4,195.4z"/>
		<path class="st2" d="M716.5,192.3h4.8c1.4,0,2.1,0.1,2.7,0.3c1.6,0.6,2.5,2,2.5,4c0,1.5-0.7,3.1-2.1,3.8v0c0,0,0.2,0.3,0.5,0.8
			l2.7,4.8h-3.8l-2.4-4.6h-1.6v4.6h-3.4V192.3z M721.3,198.5c1.1,0,1.8-0.6,1.8-1.7c0-1-0.4-1.7-2.1-1.7h-1.1v3.4H721.3z"/>
		<path class="st2" d="M729.7,192.3h4.9c4.3,0,7.1,2.5,7.1,6.9c0,4.3-2.8,6.9-7.1,6.9h-4.9V192.3z M734.4,203.2c2.3,0,3.8-1.4,3.8-4
			c0-2.6-1.5-4-3.8-4H733v8H734.4z"/>
		<path class="st2" d="M744.8,201.8c0,0,1.6,1.4,3.3,1.4c0.7,0,1.4-0.3,1.4-1.1c0-1.6-6.2-1.6-6.2-5.8c0-2.5,2.1-4.2,4.9-4.2
			c3,0,4.4,1.6,4.4,1.6l-1.4,2.8c0,0-1.4-1.2-3-1.2c-0.7,0-1.5,0.3-1.5,1.1c0,1.7,6.2,1.4,6.2,5.8c0,2.3-1.8,4.3-4.9,4.3
			c-3.2,0-5-2-5-2L744.8,201.8z"/>
	</g>
	<g>
		<path class="st1" d="M626,158.9h-13c-1.2,0-1.6-1.1-2.1-2.1l-15.3-28.4H594c-2.8,0-7-0.3-9.5-0.4v28.9c0,1.2-0.8,2.1-2,2.1h-10.6
			c-1.2,0-2.1-1-2.1-2.1V83.5c0-2.1,1.3-2.9,3.4-3.2c5.5-0.9,13.1-1.4,20.9-1.4c16.4,0,30.7,5.9,30.7,24.1v1
			c0,11.3-5.7,18.3-14.4,21.7l16.7,31.1c0.2,0.3,0.2,0.6,0.2,0.8C627.2,158.4,626.8,158.9,626,158.9 M610,103c0-8-5.3-11.4-16-11.4
			c-2.2,0-7.6,0.2-9.5,0.4v24c1.7,0.1,7.7,0.3,9.5,0.3c11,0,16-3,16-12.4V103z"/>
		<path class="st1" d="M678.3,158.3c-3.4,0.5-7.6,1.5-20.2,1.5c-13.8,0-24.6-3.7-24.6-21.8v-37.2c0-18.1,10.8-21.8,24.6-21.8
			c12.7,0,16.8,1,20.2,1.5c1.6,0.2,2.1,0.7,2.1,2.2v6.8c0,1.2-1,2.1-2.1,2.1h-21.7c-6.2,0-8.4,2.1-8.4,9.2v11.5H677
			c1.2,0,2.1,1,2.1,2.1v7.7c0,1.2-1,2.1-2.1,2.1h-28.9v13.7c0,7,2.2,9.2,8.4,9.2h21.7c1.2,0,2.1,1,2.1,2.1v6.8
			C680.4,157.5,679.8,158.1,678.3,158.3"/>
		<path class="st1" d="M748.4,158.9h-11.3c-1,0-1.8-0.8-2-1.8l-4.9-20.2h-24.5l-4.9,20.2c-0.2,1-1.1,1.8-2,1.8h-11.3
			c-1.1,0-1.9-0.7-1.9-1.8c0-0.1,0.1-0.3,0.1-0.5l17.5-66.8c2.6-9.9,10.2-10.9,14.8-10.9c4.6,0,12.2,1,14.8,10.9l17.5,66.8
			c0,0.2,0.1,0.4,0.1,0.5C750.3,158.2,749.5,158.9,748.4,158.9 M719.7,93.1c-0.3-1.3-0.6-1.7-1.7-1.7c-1.1,0-1.4,0.4-1.7,1.7
			l-7.7,31.6h18.7L719.7,93.1z"/>
		<path class="st1" d="M562.3,158.9H551c-1,0-1.8-0.8-2-1.8l-4.9-20.2h-24.5l-4.9,20.2c-0.2,1-1.1,1.8-2,1.8h-11.3
			c-1.1,0-1.9-0.7-1.9-1.8c0-0.1,0.1-0.3,0.1-0.5L517,89.8c2.6-9.9,10.2-10.9,14.8-10.9c4.6,0,12.2,1,14.8,10.9l17.5,66.8
			c0,0.2,0.1,0.4,0.1,0.5C564.2,158.2,563.3,158.9,562.3,158.9 M533.5,93.1c-0.3-1.3-0.6-1.7-1.7-1.7c-1.1,0-1.4,0.4-1.7,1.7
			l-7.7,31.6h18.7L533.5,93.1z"/>
	</g>
	<g>
		<path class="st2" d="M525.6,183.4c0,6.9-5.9,12.5-13.1,12.5H380.7c-7.2,0-13.1-5.6-13.1-12.5V52c0-6.9,5.9-12.5,13.1-12.5h131.8
			c7.2,0,13.1,5.6,13.1,12.5v10.6h11.4V52c0-12.9-11-23.4-24.5-23.4H380.7c-13.5,0-24.5,10.5-24.5,23.4v131.4
			c0,12.9,11,23.4,24.5,23.4h131.8c13.5,0,24.5-10.5,24.5-23.4V174h-11.4V183.4z"/>
	</g>
	<path class="st2" d="M404.1,117.7c-0.1,23.1,18.8,41.8,42.3,42c23.5,0.1,42.7-18.5,42.8-41.5c0.1-23-18.8-41.8-42.3-41.9h-0.2
		C423.2,76.2,404.2,94.7,404.1,117.7"/>
	<path class="st3" d="M474.5,112.2L474.5,112.2l-25.3-24.7c-0.7-0.7-1.6-1.1-2.6-1.1h0c-1,0-2,0.4-2.6,1.1l-25.3,24.7v0
		c-1,1-1.6,2.3-1.6,3.8c0,2.9,2.4,5.3,5.4,5.4l3.5,0c0,0,0,18.7,0,18.8c0,1.9,1.6,3.5,3.6,3.5h34c2,0,3.5-1.6,3.5-3.5
		c0,0,0-18.8,0-18.8l3.5,0c3,0,5.4-2.4,5.4-5.4C476.1,114.5,475.5,113.2,474.5,112.2 M460.5,114.9v22.2h-27.8v-22.2h-7.3l21.2-20.7
		l21.2,20.7H460.5z"/>
</g>
</svg>
