<?xml version="1.0" encoding="utf-8"?>
<!-- Generator: Adobe Illustrator 19.1.0, SVG Export Plug-In . SVG Version: 6.00 Build 0)  -->
<svg class="building-1" version="1.1" id="Layer_1" xmlns="http://www.w3.org/2000/svg" xmlns:xlink="http://www.w3.org/1999/xlink" x="0px" y="0px"
	 viewBox="0 0 100 100" style="enable-background:new 0 0 100 100;" xml:space="preserve">
<style type="text/css">
	.st0{fill:none;stroke:#2E506D;stroke-miterlimit:10;}
</style>
<line class="st0" x1="53.6" y1="65.7" x2="53.6" y2="63"/>
<line class="st0" x1="56.2" y1="65.7" x2="56.2" y2="63"/>
<line class="st0" x1="58.9" y1="65.7" x2="58.9" y2="63"/>
<line class="st0" x1="53.6" y1="70.3" x2="53.6" y2="67.6"/>
<line class="st0" x1="56.2" y1="70.3" x2="56.2" y2="67.6"/>
<line class="st0" x1="58.9" y1="70.3" x2="58.9" y2="67.6"/>
<line class="st0" x1="53.6" y1="74.5" x2="53.6" y2="71.8"/>
<line class="st0" x1="56.2" y1="74.5" x2="56.2" y2="71.8"/>
<line class="st0" x1="58.9" y1="74.5" x2="58.9" y2="71.8"/>
<line class="st0" x1="53.6" y1="79.1" x2="53.6" y2="76.4"/>
<line class="st0" x1="56.2" y1="79.1" x2="56.2" y2="76.4"/>
<line class="st0" x1="58.9" y1="79.1" x2="58.9" y2="76.4"/>
<line class="st0" x1="53.6" y1="83.4" x2="53.6" y2="80.8"/>
<line class="st0" x1="56.2" y1="83.4" x2="56.2" y2="80.8"/>
<line class="st0" x1="58.9" y1="83.4" x2="58.9" y2="80.8"/>
<line class="st0" x1="53.6" y1="87.8" x2="53.6" y2="85.1"/>
<line class="st0" x1="56.2" y1="87.8" x2="56.2" y2="85.1"/>
<line class="st0" x1="58.9" y1="87.8" x2="58.9" y2="85.1"/>
<line class="st0" x1="53.6" y1="92.2" x2="53.6" y2="89.5"/>
<line class="st0" x1="56.2" y1="92.2" x2="56.2" y2="89.5"/>
<line class="st0" x1="58.9" y1="92.2" x2="58.9" y2="89.5"/>
<line class="st0" x1="53.6" y1="34.5" x2="53.6" y2="31.8"/>
<line class="st0" x1="56.2" y1="34.5" x2="56.2" y2="31.8"/>
<line class="st0" x1="58.9" y1="34.5" x2="58.9" y2="31.8"/>
<line class="st0" x1="53.6" y1="39.1" x2="53.6" y2="36.4"/>
<line class="st0" x1="56.2" y1="39.1" x2="56.2" y2="36.4"/>
<line class="st0" x1="58.9" y1="39.1" x2="58.9" y2="36.4"/>
<line class="st0" x1="53.6" y1="25.3" x2="53.6" y2="22.7"/>
<line class="st0" x1="56.2" y1="25.3" x2="56.2" y2="22.7"/>
<line class="st0" x1="58.9" y1="25.3" x2="58.9" y2="22.7"/>
<line class="st0" x1="53.6" y1="29.9" x2="53.6" y2="27.2"/>
<line class="st0" x1="56.2" y1="29.9" x2="56.2" y2="27.2"/>
<line class="st0" x1="58.9" y1="29.9" x2="58.9" y2="27.2"/>
<line class="st0" x1="53.6" y1="43.3" x2="53.6" y2="40.6"/>
<line class="st0" x1="56.2" y1="43.3" x2="56.2" y2="40.6"/>
<line class="st0" x1="58.9" y1="43.3" x2="58.9" y2="40.6"/>
<line class="st0" x1="53.6" y1="47.9" x2="53.6" y2="45.2"/>
<line class="st0" x1="56.2" y1="47.9" x2="56.2" y2="45.2"/>
<line class="st0" x1="58.9" y1="47.9" x2="58.9" y2="45.2"/>
<line class="st0" x1="53.6" y1="52.3" x2="53.6" y2="49.6"/>
<line class="st0" x1="56.2" y1="52.3" x2="56.2" y2="49.6"/>
<line class="st0" x1="58.9" y1="52.3" x2="58.9" y2="49.6"/>
<line class="st0" x1="53.6" y1="56.6" x2="53.6" y2="53.9"/>
<line class="st0" x1="56.2" y1="56.6" x2="56.2" y2="53.9"/>
<line class="st0" x1="58.9" y1="56.6" x2="58.9" y2="53.9"/>
<line class="st0" x1="53.6" y1="61" x2="53.6" y2="58.3"/>
<line class="st0" x1="56.2" y1="61" x2="56.2" y2="58.3"/>
<line class="st0" x1="58.9" y1="61" x2="58.9" y2="58.3"/>
<line class="st0" x1="69.6" y1="64.9" x2="82.9" y2="64.9"/>
<line class="st0" x1="69.6" y1="67" x2="83.3" y2="67"/>
<line class="st0" x1="69.6" y1="62.7" x2="82.6" y2="62.7"/>
<line class="st0" x1="69.6" y1="60.6" x2="82.2" y2="60.6"/>
<line class="st0" x1="69.6" y1="58.5" x2="81.5" y2="58.5"/>
<line class="st0" x1="69.6" y1="69.1" x2="83.6" y2="69.1"/>
<line class="st0" x1="69.6" y1="71.2" x2="84" y2="71.2"/>
<line class="st0" x1="69.6" y1="52.2" x2="80.1" y2="52.2"/>
<line class="st0" x1="69.6" y1="45.8" x2="79" y2="45.8"/>
<line class="st0" x1="69.6" y1="50" x2="79.7" y2="50"/>
<line class="st0" x1="69.6" y1="47.9" x2="79.4" y2="47.9"/>
<line class="st0" x1="69.6" y1="43.7" x2="78.6" y2="43.7"/>
<line class="st0" x1="69.6" y1="54.3" x2="80.8" y2="54.3"/>
<line class="st0" x1="69.6" y1="56.4" x2="81.1" y2="56.4"/>
<line class="st0" x1="69.6" y1="92.4" x2="88.3" y2="92.4"/>
<line class="st0" x1="69.6" y1="90.2" x2="87.9" y2="90.2"/>
<line class="st0" x1="69.6" y1="88.1" x2="87.5" y2="88.1"/>
<line class="st0" x1="69.6" y1="81.8" x2="86.2" y2="81.8"/>
<line class="st0" x1="69.6" y1="75.4" x2="84.9" y2="75.4"/>
<line class="st0" x1="69.6" y1="79.7" x2="85.8" y2="79.7"/>
<line class="st0" x1="69.6" y1="77.5" x2="85.4" y2="77.5"/>
<line class="st0" x1="69.6" y1="73.3" x2="84.5" y2="73.3"/>
<line class="st0" x1="69.6" y1="83.9" x2="86.6" y2="83.9"/>
<line class="st0" x1="69.6" y1="86" x2="87" y2="86"/>
<line class="st0" x1="40.1" y1="64.9" x2="42.7" y2="64.9"/>
<line class="st0" x1="40.1" y1="67" x2="42.7" y2="67"/>
<line class="st0" x1="40.1" y1="62.7" x2="42.7" y2="62.7"/>
<line class="st0" x1="40.1" y1="60.6" x2="42.7" y2="60.6"/>
<line class="st0" x1="40.1" y1="58.5" x2="42.7" y2="58.5"/>
<line class="st0" x1="40.1" y1="69.1" x2="42.7" y2="69.1"/>
<line class="st0" x1="40.1" y1="71.2" x2="42.7" y2="71.2"/>
<line class="st0" x1="40.1" y1="52.2" x2="42.7" y2="52.2"/>
<line class="st0" x1="40.1" y1="45.8" x2="42.7" y2="45.8"/>
<line class="st0" x1="40.1" y1="50.1" x2="42.7" y2="50.1"/>
<line class="st0" x1="40.1" y1="48" x2="42.7" y2="48"/>
<line class="st0" x1="40.1" y1="43.7" x2="42.7" y2="43.7"/>
<line class="st0" x1="40.1" y1="54.3" x2="42.7" y2="54.3"/>
<line class="st0" x1="40.1" y1="56.4" x2="42.7" y2="56.4"/>
<line class="st0" x1="40.1" y1="92.4" x2="42.7" y2="92.4"/>
<line class="st0" x1="40.1" y1="90.2" x2="42.7" y2="90.2"/>
<line class="st0" x1="40.1" y1="88.1" x2="42.7" y2="88.1"/>
<line class="st0" x1="40.1" y1="81.8" x2="42.7" y2="81.8"/>
<line class="st0" x1="40.1" y1="75.4" x2="42.7" y2="75.4"/>
<line class="st0" x1="40.1" y1="79.7" x2="42.7" y2="79.7"/>
<line class="st0" x1="40.1" y1="77.5" x2="42.7" y2="77.5"/>
<line class="st0" x1="40.1" y1="73.3" x2="42.7" y2="73.3"/>
<line class="st0" x1="40.1" y1="83.9" x2="42.7" y2="83.9"/>
<line class="st0" x1="40.1" y1="86" x2="42.7" y2="86"/>
<line class="st0" x1="14.5" y1="64.9" x2="22.4" y2="64.9"/>
<line class="st0" x1="14.2" y1="67" x2="22.8" y2="67"/>
<line class="st0" x1="14.9" y1="62.7" x2="22.1" y2="62.7"/>
<line class="st0" x1="15.2" y1="60.6" x2="21.8" y2="60.6"/>
<line class="st0" x1="15.5" y1="58.5" x2="21.4" y2="58.5"/>
<line class="st0" x1="13.9" y1="69.1" x2="23.1" y2="69.1"/>
<line class="st0" x1="13.5" y1="71.2" x2="23.4" y2="71.2"/>
<line class="st0" x1="16.5" y1="52.2" x2="20.4" y2="52.2"/>
<line class="st0" x1="17.6" y1="45.8" x2="19.4" y2="45.8"/>
<line class="st0" x1="16.9" y1="50.1" x2="20.1" y2="50.1"/>
<line class="st0" x1="17.2" y1="48" x2="19.8" y2="48"/>
<line class="st0" x1="17.9" y1="43.7" x2="19.1" y2="43.7"/>
<line class="st0" x1="16.2" y1="54.3" x2="20.8" y2="54.3"/>
<line class="st0" x1="15.9" y1="56.4" x2="21.1" y2="56.4"/>
<line class="st0" x1="10.2" y1="92.4" x2="26.8" y2="92.4"/>
<line class="st0" x1="10.5" y1="90.2" x2="26.4" y2="90.2"/>
<line class="st0" x1="10.9" y1="88.1" x2="26.1" y2="88.1"/>
<line class="st0" x1="11.9" y1="81.8" x2="25.1" y2="81.8"/>
<line class="st0" x1="12.9" y1="75.4" x2="24.1" y2="75.4"/>
<line class="st0" x1="12.2" y1="79.7" x2="24.7" y2="79.7"/>
<line class="st0" x1="12.5" y1="77.5" x2="24.4" y2="77.5"/>
<line class="st0" x1="13.2" y1="73.3" x2="23.8" y2="73.3"/>
<line class="st0" x1="11.5" y1="83.9" x2="25.4" y2="83.9"/>
<line class="st0" x1="11.2" y1="86" x2="25.8" y2="86"/>
<line class="st0" x1="45.4" y1="64.9" x2="48.1" y2="64.9"/>
<line class="st0" x1="45.4" y1="67" x2="48.1" y2="67"/>
<line class="st0" x1="45.4" y1="62.7" x2="48.1" y2="62.7"/>
<line class="st0" x1="45.4" y1="60.6" x2="48.1" y2="60.6"/>
<line class="st0" x1="45.4" y1="58.5" x2="48.1" y2="58.5"/>
<line class="st0" x1="45.4" y1="69.1" x2="48.1" y2="69.1"/>
<line class="st0" x1="45.4" y1="71.2" x2="48.1" y2="71.2"/>
<line class="st0" x1="45.4" y1="52.2" x2="48.1" y2="52.2"/>
<line class="st0" x1="45.4" y1="45.8" x2="48.1" y2="45.8"/>
<line class="st0" x1="45.4" y1="50.1" x2="48.1" y2="50.1"/>
<line class="st0" x1="45.4" y1="48" x2="48.1" y2="48"/>
<line class="st0" x1="45.4" y1="43.7" x2="48" y2="43.7"/>
<line class="st0" x1="45.4" y1="54.3" x2="48.1" y2="54.3"/>
<line class="st0" x1="45.4" y1="56.4" x2="48.1" y2="56.4"/>
<line class="st0" x1="45.4" y1="92.4" x2="48" y2="92.4"/>
<line class="st0" x1="45.4" y1="90.2" x2="48" y2="90.2"/>
<line class="st0" x1="45.4" y1="88.1" x2="48.1" y2="88.1"/>
<line class="st0" x1="45.4" y1="81.8" x2="48.1" y2="81.8"/>
<line class="st0" x1="45.4" y1="75.4" x2="48.1" y2="75.4"/>
<line class="st0" x1="45.4" y1="79.7" x2="48.1" y2="79.7"/>
<line class="st0" x1="45.4" y1="77.5" x2="48.1" y2="77.5"/>
<line class="st0" x1="45.4" y1="73.3" x2="48.1" y2="73.3"/>
<line class="st0" x1="45.4" y1="83.9" x2="48.1" y2="83.9"/>
<line class="st0" x1="45.4" y1="86" x2="48.1" y2="86"/>
<line class="st0" x1="34.5" y1="51.1" x2="34.5" y2="92.4"/>
<line class="st0" x1="31.8" y1="51.1" x2="31.8" y2="92.4"/>
<line class="st0" x1="29.1" y1="51.1" x2="29.1" y2="92.2"/>
<path class="st0" d="M7.7,94.5L17,35.4h2.8l9.3,59.1"/>
<path class="st0" d="M26.3,76.4V48.8h10.9h-11v27.1"/>
<path class="st0" d="M29.1,48.8v-3h8.1"/>
<path class="st0" d="M37.2,94.7V32h8.1v8.5h5.5"/>
<path class="st0" d="M38.5,32v-3.8H44V32"/>
<line class="st0" x1="38.5" y1="29.9" x2="44" y2="29.9"/>
<line class="st0" x1="41.2" y1="27.9" x2="41.2" y2="24.3"/>
<path class="st0" d="M50.8,94.5V18.9h16.3v75.6"/>
<path class="st0" d="M52.2,18.9v-6.4h5.4v6.4"/>
<line class="st0" x1="53.5" y1="12.4" x2="53.5" y2="6.9"/>
<line class="st0" x1="56.2" y1="12.4" x2="56.2" y2="8.4"/>
<path class="st0" d="M67.1,35.4l13.5,5.2l10.7,53.9"/>
</svg>
