
<svg width="87px" height="87px" viewBox="146 41 87 87" version="1.1" xmlns="http://www.w3.org/2000/svg" xmlns:xlink="http://www.w3.org/1999/xlink">
    <!-- Generator: Sketch 3.7.2 (28276) - http://www.bohemiancoding.com/sketch -->
    <desc>Created with Sketch.</desc>
    <defs></defs>
    <g id="Innovation-Icon" stroke="none" stroke-width="1" fill="none" fill-rule="evenodd" transform="translate(146.082813, 41.014453)">
        <g transform="translate(0.675586, 0.129687)">
            <path d="M42.6,84.48 C65.9285078,84.48 84.84,65.5685078 84.84,42.24 C84.84,18.9114922 65.9285078,0 42.6,0 C19.2714922,0 0.36,18.9114922 0.36,42.24 C0.36,65.5685078 19.2714922,84.48 42.6,84.48 Z" id="Oval-2" fill="#080F16"></path>
            <path d="M42.3366799,70.2813486 C40.4448963,70.2813486 38.8658831,68.9151541 38.5348631,67.1174262 L36.8213643,67.1174262 C36.4336301,67.1174262 36.1194559,66.803252 36.1194559,66.4155178 L36.1194559,61.0198075 L30.3843026,55.2846542 C30.2565553,55.1580299 30.17738,54.9825528 30.1768185,54.7885454 L30.1768185,54.7862993 L30.1768185,47.0908562 C30.1768185,46.703122 30.4909927,46.3889478 30.8787269,46.3889478 L34.4842901,46.3889478 L34.4842901,43.154273 L32.2508175,43.7668987 C31.810019,43.8879077 31.3481633,43.7980634 30.9845747,43.5206692 C30.6209862,43.2435558 30.4120982,42.82213 30.4120982,42.3644857 L30.4120982,38.9231691 C30.4120982,38.2703943 30.8517736,37.6934256 31.4815259,37.5207561 L52.4225422,31.7768992 C52.8636215,31.6556094 53.3249157,31.7457345 53.688785,32.0231287 C54.0523735,32.3002421 54.2612615,32.7216679 54.2612615,33.1793122 L54.2612615,36.6214711 C54.2612615,37.2742459 53.8215861,37.8512146 53.1918338,38.0238841 L50.1890696,38.847363 L50.1890696,46.3895093 L53.794352,46.3895093 C54.1820862,46.3895093 54.4962604,46.7036835 54.4962604,47.0914177 L54.4962604,54.7868608 L54.4962604,54.7891069 C54.4956989,54.9822721 54.4168044,55.1574684 54.2898993,55.2840927 L48.553623,61.020369 L48.553623,66.4160794 C48.553623,66.8038136 48.2394488,67.1179878 47.8517146,67.1179878 L46.1382158,67.1179878 C45.8071958,68.9151541 44.2284634,70.2813486 42.3366799,70.2813486 L42.3366799,70.2813486 Z M39.976583,67.117707 C40.2795267,68.1343511 41.2228916,68.8778125 42.3366799,68.8778125 C43.4504681,68.8778125 44.3935523,68.1346319 44.6964959,67.117707 L39.976583,67.117707 L39.976583,67.117707 Z M45.5003214,65.7138902 L47.1498062,65.7138902 L47.1498062,61.4314066 L37.5232727,61.4314066 L37.5232727,65.7138902 L45.5003214,65.7138902 L45.5003214,65.7138902 Z M37.1122352,60.0275897 L47.5608438,60.0275897 L52.0996643,55.4887692 L32.5734146,55.4887692 L37.1122352,60.0275897 L37.1122352,60.0275897 Z M31.5806353,54.0849524 L53.0924436,54.0849524 L53.0924436,47.7933261 L31.5806353,47.7933261 L31.5806353,54.0849524 L31.5806353,54.0849524 Z M45.6463184,46.3895093 L48.7849721,46.3895093 L48.7849721,39.2322896 L45.6463184,40.0931101 L45.6463184,46.3895093 L45.6463184,46.3895093 Z M40.4305774,46.3895093 L44.2425016,46.3895093 L44.2425016,40.4783174 L40.4305774,41.5238802 L40.4305774,46.3895093 L40.4305774,46.3895093 Z M35.8881069,46.3895093 L39.0270413,46.3895093 L39.0270413,41.9088068 L35.8881069,42.7696272 L35.8881069,46.3895093 L35.8881069,46.3895093 Z M52.8083111,33.128494 C52.8021343,33.128494 52.7967998,33.1298979 52.7939921,33.1307402 L31.8529758,38.8745971 C31.831357,38.8804931 31.8161958,38.9004273 31.8161958,38.9231691 L31.8161958,42.3650472 C31.8161958,42.3723471 31.8161958,42.3900352 31.83613,42.4051964 C31.8560642,42.4206384 31.87291,42.4155846 31.8796483,42.4136193 L34.8571438,41.5971594 C34.9020659,41.5732945 34.9500765,41.5542026 35.0006139,41.5401645 L39.5433651,40.2941366 C39.593341,40.2803792 39.6444399,40.2725179 39.6952581,40.269991 L44.6153553,38.9203615 C44.6602775,38.8964966 44.7085688,38.8774047 44.7591062,38.8633665 L49.3015766,37.6173387 C49.3518333,37.6035813 49.4029322,37.5957199 49.4537504,37.5931931 L52.8203839,36.6697624 C52.8422834,36.6638663 52.8574447,36.6436514 52.8574447,36.6211903 L52.8574447,33.1790315 C52.8574447,33.1717316 52.8574447,33.1540435 52.8375105,33.1388823 C52.8262799,33.1307402 52.8161724,33.128494 52.8083111,33.128494 L52.8083111,33.128494 Z M30.7083036,34.9705825 C30.3930063,34.9705825 30.0850089,34.8675423 29.8269874,34.6698849 C29.4650834,34.3924907 29.2575993,33.9719072 29.2575993,33.5159475 L29.2575993,30.0718233 C29.2575993,29.4153985 29.7000823,28.8378683 30.3337652,28.6677257 L53.5829372,22.4033335 C54.0228934,22.2845706 54.4836261,22.3758187 54.8458108,22.6534937 C55.2077148,22.9308879 55.4151989,23.3514714 55.4151989,23.8074311 L55.4151989,27.2515553 C55.4151989,27.90798 54.9727159,28.4855103 54.3390329,28.6556529 L31.0901417,34.9197643 C30.9637982,34.9537367 30.8354894,34.9705825 30.7083036,34.9705825 L30.7083036,34.9705825 Z M53.9622485,23.7566129 C53.9560717,23.7566129 53.951018,23.7580167 53.9479296,23.758859 L30.6987576,30.0232512 C30.6765773,30.0291473 30.6614161,30.0490815 30.6614161,30.0718233 L30.6614161,33.5159475 C30.6614161,33.5232473 30.6614161,33.5406547 30.6810695,33.5558159 C30.7012845,33.5718194 30.7178495,33.5667657 30.7251494,33.5645196 L53.9743213,27.3001274 C53.9965016,27.2942313 54.0113821,27.2742971 54.0113821,27.2515553 L54.0113821,23.8074311 C54.0113821,23.8001313 54.0113821,23.7827239 53.9917287,23.7675627 C53.9807789,23.758859 53.9703906,23.7566129 53.9622485,23.7566129 L53.9622485,23.7566129 Z M35.0694009,24.5899186 C34.7510153,24.5899186 34.4399295,24.4849131 34.1807849,24.2836058 C33.8233731,24.0062116 33.6184158,23.5875934 33.6184158,23.1350028 L33.6184158,19.6858249 C33.6184158,19.021258 34.0681988,18.4420432 34.7117084,18.2769543 L49.2398087,14.5579628 C49.6783611,14.4456575 50.1348823,14.5405555 50.4922941,14.8182304 C50.8497058,15.0956246 51.0546631,15.5142428 51.0546631,15.9668334 L51.0546631,19.4157305 C51.0546631,20.0802974 50.6048802,20.6595123 49.9613706,20.8246011 L49.9613706,20.8246011 L35.433551,24.5438734 C35.312542,24.5747574 35.1904099,24.5899186 35.0694009,24.5899186 L35.0694009,24.5899186 Z M49.6017127,15.916296 C49.5958167,15.916296 49.5910437,15.917419 49.5879553,15.9182613 L35.0601357,19.6369721 C35.0379554,19.6428681 35.0222327,19.6628023 35.0222327,19.6858249 L35.0222327,23.1350028 C35.0222327,23.1423027 35.0222327,23.15971 35.0416053,23.1748712 C35.0612588,23.1903132 35.0778238,23.1861018 35.0851237,23.1838557 L49.6129432,19.4645834 C49.6354043,19.4586873 49.6508463,19.4387531 49.6508463,19.4157305 L49.6508463,15.9668334 C49.6508463,15.9595335 49.6508463,15.9421262 49.6314736,15.926965 C49.6202431,15.9182613 49.6098548,15.916296 49.6017127,15.916296 L49.6017127,15.916296 Z" id="Shape" fill="#FFFFFF"></path>
        </g>
    </g>
</svg>