<?xml version="1.0" encoding="utf-8"?>
<!-- Generator: Adobe Illustrator 19.1.0, SVG Export Plug-In . SVG Version: 6.00 Build 0)  -->
<svg version="1.1" id="Layer_1" xmlns="http://www.w3.org/2000/svg" xmlns:xlink="http://www.w3.org/1999/xlink" x="0px" y="0px"
	 viewBox="1500 -200 3100 500" style="enable-background:new 1500 -200 3100 500;" xml:space="preserve">
<style type="text/css">
	.st0{fill:none;stroke:#2E506D;stroke-width:2.5;stroke-linecap:round;stroke-linejoin:round;stroke-miterlimit:10;}
	.st1{fill:none;stroke:#2E506D;stroke-width:2.5;stroke-linejoin:round;stroke-miterlimit:10;}
	.st2{fill:#2E506D;}
	.st3{fill:none;stroke:#2E506D;stroke-linecap:round;stroke-linejoin:round;stroke-miterlimit:10;}
	.st4{opacity:0.2;fill:#2A3E4C;enable-background:new    ;}
	.st5{fill:none;stroke:#3F6989;stroke-width:2.5;stroke-linecap:round;stroke-linejoin:round;stroke-miterlimit:10;}
	.st6{opacity:0.2;}
	.st7{fill:#2A3E4C;}
	.st8{fill:none;stroke:#122C3F;stroke-linecap:round;stroke-linejoin:round;stroke-miterlimit:10;}
	.st9{fill:none;stroke:#2E506D;stroke-width:2;stroke-linecap:round;stroke-linejoin:round;stroke-miterlimit:10;}
	.st10{fill:none;stroke:#2E506D;stroke-width:3;stroke-linecap:round;stroke-linejoin:round;stroke-miterlimit:10;}
</style>
<g id="baseline">
	<line class="st0" x1="1502" y1="160.8" x2="4596" y2="160.8"/>
	<line class="st1" x1="1690.5" y1="160.2" x2="1690.5" y2="240.7"/>
	<circle class="st2" cx="1690.5" cy="253.2" r="12.5"/>
</g>
<g id="building-1">
	<path id="wall-08_1_" class="st0" d="M1745,160.2v-197l45,17.3l36,179.7"/>
	<path id="wall-07" class="st0" d="M1695.4-91.9v-21.4h18.2v21.4"/>
	<path id="wall-06_1_" class="st0" d="M1690.7,160.2V-91.9h54.3v55.1"/>
	<path id="wall-05" class="st0" d="M1649.8-48.1v-12.6h18.3v12.6"/>
	<path id="wall-04_1_" class="st0" d="M1645.5,160.8V-48.1h27v28.3h18.2"/>
	<path id="wall-03" class="st0" d="M1618.7,7.7v-9.8h26.8"/>
	<path id="wall-02" class="st0" d="M1609.3,99.8V7.7h36.2"/>
	<path id="wall-01" class="st0" d="M1547,160.2l31.3-197h9.1l31.3,197"/>
	<line class="st5" x1="1700.1" y1="64.2" x2="1700.1" y2="55.3"/>
	<line class="st5" x1="1708.9" y1="64.2" x2="1708.9" y2="55.3"/>
	<line class="st5" x1="1717.8" y1="64.2" x2="1717.8" y2="55.3"/>
	<line class="st5" x1="1700.1" y1="79.4" x2="1700.1" y2="70.5"/>
	<line class="st5" x1="1708.9" y1="79.4" x2="1708.9" y2="70.5"/>
	<line class="st5" x1="1717.8" y1="79.4" x2="1717.8" y2="70.5"/>
	<line class="st5" x1="1700.1" y1="93.5" x2="1700.1" y2="84.6"/>
	<line class="st5" x1="1708.9" y1="93.5" x2="1708.9" y2="84.6"/>
	<line class="st5" x1="1717.8" y1="93.5" x2="1717.8" y2="84.6"/>
	<line class="st5" x1="1700.1" y1="108.7" x2="1700.1" y2="99.8"/>
	<line class="st5" x1="1708.9" y1="108.7" x2="1708.9" y2="99.8"/>
	<line class="st5" x1="1717.8" y1="108.7" x2="1717.8" y2="99.8"/>
	<line class="st5" x1="1700.1" y1="123.4" x2="1700.1" y2="114.5"/>
	<line class="st5" x1="1708.9" y1="123.4" x2="1708.9" y2="114.5"/>
	<line class="st5" x1="1717.8" y1="123.4" x2="1717.8" y2="114.5"/>
	<line class="st5" x1="1700.1" y1="137.8" x2="1700.1" y2="128.9"/>
	<line class="st5" x1="1708.9" y1="137.8" x2="1708.9" y2="128.9"/>
	<line class="st5" x1="1717.8" y1="137.8" x2="1717.8" y2="128.9"/>
	<line class="st5" x1="1700.1" y1="152.5" x2="1700.1" y2="143.6"/>
	<line class="st5" x1="1708.9" y1="152.5" x2="1708.9" y2="143.6"/>
	<line class="st5" x1="1717.8" y1="152.5" x2="1717.8" y2="143.6"/>
	<line class="st5" x1="1700.1" y1="-39.8" x2="1700.1" y2="-48.7"/>
	<line class="st5" x1="1708.9" y1="-39.8" x2="1708.9" y2="-48.7"/>
	<line class="st5" x1="1717.8" y1="-39.8" x2="1717.8" y2="-48.7"/>
	<line class="st5" x1="1700.1" y1="-24.6" x2="1700.1" y2="-33.4"/>
	<line class="st5" x1="1708.9" y1="-24.6" x2="1708.9" y2="-33.4"/>
	<line class="st5" x1="1717.8" y1="-24.6" x2="1717.8" y2="-33.4"/>
	<line class="st5" x1="1700.1" y1="-70.3" x2="1700.1" y2="-79.2"/>
	<line class="st5" x1="1708.9" y1="-70.3" x2="1708.9" y2="-79.2"/>
	<line class="st5" x1="1717.8" y1="-70.3" x2="1717.8" y2="-79.2"/>
	<line class="st5" x1="1700.1" y1="-55.1" x2="1700.1" y2="-64"/>
	<line class="st5" x1="1708.9" y1="-55.1" x2="1708.9" y2="-64"/>
	<line class="st5" x1="1717.8" y1="-55.1" x2="1717.8" y2="-64"/>
	<line class="st5" x1="1700.1" y1="-10.5" x2="1700.1" y2="-19.4"/>
	<line class="st5" x1="1708.9" y1="-10.5" x2="1708.9" y2="-19.4"/>
	<line class="st5" x1="1717.8" y1="-10.5" x2="1717.8" y2="-19.4"/>
	<line class="st5" x1="1700.1" y1="4.7" x2="1700.1" y2="-4.1"/>
	<line class="st5" x1="1708.9" y1="4.7" x2="1708.9" y2="-4.1"/>
	<line class="st5" x1="1717.8" y1="4.7" x2="1717.8" y2="-4.1"/>
	<line class="st5" x1="1700.1" y1="19.4" x2="1700.1" y2="10.5"/>
	<line class="st5" x1="1708.9" y1="19.4" x2="1708.9" y2="10.5"/>
	<line class="st5" x1="1717.8" y1="19.4" x2="1717.8" y2="10.5"/>
	<line class="st5" x1="1700.1" y1="33.8" x2="1700.1" y2="25"/>
	<line class="st5" x1="1708.9" y1="33.8" x2="1708.9" y2="25"/>
	<line class="st5" x1="1717.8" y1="33.8" x2="1717.8" y2="25"/>
	<line class="st5" x1="1700.1" y1="48.5" x2="1700.1" y2="39.6"/>
	<line class="st5" x1="1708.9" y1="48.5" x2="1708.9" y2="39.6"/>
	<line class="st5" x1="1717.8" y1="48.5" x2="1717.8" y2="39.6"/>
	<line class="st5" x1="1753.4" y1="61.4" x2="1798" y2="61.4"/>
	<line class="st5" x1="1753.4" y1="68.4" x2="1799.1" y2="68.4"/>
	<line class="st5" x1="1753.5" y1="54.3" x2="1796.7" y2="54.3"/>
	<line class="st5" x1="1753.4" y1="47.3" x2="1795.5" y2="47.3"/>
	<line class="st5" x1="1753.4" y1="40.2" x2="1793.1" y2="40.2"/>
	<line class="st5" x1="1753.3" y1="75.5" x2="1800.3" y2="75.5"/>
	<line class="st5" x1="1753.3" y1="82.5" x2="1801.5" y2="82.5"/>
	<line class="st5" x1="1753.4" y1="19.1" x2="1788.5" y2="19.1"/>
	<line class="st5" x1="1753.4" y1="-2.1" x2="1784.8" y2="-2.1"/>
	<line class="st5" x1="1753.5" y1="12" x2="1787.2" y2="12"/>
	<line class="st5" x1="1753.4" y1="4.9" x2="1786" y2="4.9"/>
	<line class="st5" x1="1753.4" y1="-9.2" x2="1783.6" y2="-9.2"/>
	<line class="st5" x1="1753.3" y1="26.1" x2="1790.8" y2="26.1"/>
	<line class="st5" x1="1753.3" y1="33.2" x2="1792" y2="33.2"/>
	<line class="st5" x1="1753.5" y1="153.1" x2="1815.9" y2="153.1"/>
	<line class="st5" x1="1753.4" y1="146" x2="1814.5" y2="146"/>
	<line class="st5" x1="1753.4" y1="139" x2="1813.1" y2="139"/>
	<line class="st5" x1="1753.4" y1="117.8" x2="1808.9" y2="117.8"/>
	<line class="st5" x1="1753.4" y1="96.6" x2="1804.7" y2="96.6"/>
	<line class="st5" x1="1753.5" y1="110.8" x2="1807.4" y2="110.8"/>
	<line class="st5" x1="1753.4" y1="103.7" x2="1806.1" y2="103.7"/>
	<line class="st5" x1="1753.4" y1="89.6" x2="1803.3" y2="89.6"/>
	<line class="st5" x1="1753.3" y1="124.9" x2="1810.3" y2="124.9"/>
	<line class="st5" x1="1753.3" y1="131.9" x2="1811.6" y2="131.9"/>
	<line class="st5" x1="1655.2" y1="61.4" x2="1664" y2="61.4"/>
	<line class="st5" x1="1655.2" y1="68.4" x2="1664" y2="68.4"/>
	<line class="st5" x1="1655.2" y1="54.3" x2="1664" y2="54.3"/>
	<line class="st5" x1="1655.2" y1="47.3" x2="1664" y2="47.3"/>
	<line class="st5" x1="1655.2" y1="40.2" x2="1664" y2="40.2"/>
	<line class="st5" x1="1655.2" y1="75.5" x2="1664" y2="75.5"/>
	<line class="st5" x1="1655.2" y1="82.5" x2="1664" y2="82.5"/>
	<line class="st5" x1="1655.2" y1="19.3" x2="1664" y2="19.3"/>
	<line class="st5" x1="1655.2" y1="-2.1" x2="1664" y2="-2.1"/>
	<line class="st5" x1="1655.2" y1="12.2" x2="1664" y2="12.2"/>
	<line class="st5" x1="1655.2" y1="5.2" x2="1664" y2="5.2"/>
	<line class="st5" x1="1655.2" y1="-9.2" x2="1663.8" y2="-9.2"/>
	<line class="st5" x1="1655.2" y1="26.3" x2="1664" y2="26.3"/>
	<line class="st5" x1="1655.2" y1="33.2" x2="1664" y2="33.2"/>
	<line class="st5" x1="1655.2" y1="153.1" x2="1663.8" y2="153.1"/>
	<line class="st5" x1="1655.2" y1="146" x2="1663.8" y2="146"/>
	<line class="st5" x1="1655.2" y1="139" x2="1664" y2="139"/>
	<line class="st5" x1="1655.2" y1="117.8" x2="1664" y2="117.8"/>
	<line class="st5" x1="1655.2" y1="96.6" x2="1664" y2="96.6"/>
	<line class="st5" x1="1655.2" y1="110.8" x2="1664" y2="110.8"/>
	<line class="st5" x1="1655.2" y1="103.7" x2="1664" y2="103.7"/>
	<line class="st5" x1="1655.2" y1="89.6" x2="1664" y2="89.6"/>
	<line class="st5" x1="1655.2" y1="124.9" x2="1664" y2="124.9"/>
	<line class="st5" x1="1655.2" y1="131.9" x2="1664" y2="131.9"/>
	<line class="st5" x1="1570" y1="61.4" x2="1596.3" y2="61.4"/>
	<line class="st5" x1="1568.8" y1="68.4" x2="1597.4" y2="68.4"/>
	<line class="st5" x1="1571.1" y1="54.3" x2="1595.2" y2="54.3"/>
	<line class="st5" x1="1572.2" y1="47.3" x2="1594.1" y2="47.3"/>
	<line class="st5" x1="1573.3" y1="40.2" x2="1593" y2="40.2"/>
	<line class="st5" x1="1567.7" y1="75.5" x2="1598.5" y2="75.5"/>
	<line class="st5" x1="1566.7" y1="82.5" x2="1599.6" y2="82.5"/>
	<line class="st5" x1="1576.6" y1="19.3" x2="1589.7" y2="19.3"/>
	<line class="st5" x1="1580.1" y1="-2.1" x2="1586.3" y2="-2.1"/>
	<line class="st5" x1="1577.7" y1="12.2" x2="1588.6" y2="12.2"/>
	<line class="st5" x1="1578.8" y1="5.2" x2="1587.5" y2="5.2"/>
	<line class="st0" x1="1581.1" y1="-9.2" x2="1585.2" y2="-9.2"/>
	<line class="st5" x1="1575.5" y1="26.3" x2="1590.8" y2="26.3"/>
	<line class="st5" x1="1574.4" y1="33.2" x2="1591.9" y2="33.2"/>
	<line class="st5" x1="1555.5" y1="153.1" x2="1610.7" y2="153.1"/>
	<line class="st5" x1="1556.7" y1="146" x2="1609.6" y2="146"/>
	<line class="st5" x1="1557.7" y1="139" x2="1608.5" y2="139"/>
	<line class="st5" x1="1561.1" y1="117.8" x2="1605.2" y2="117.8"/>
	<line class="st5" x1="1564.4" y1="96.6" x2="1601.8" y2="96.6"/>
	<line class="st5" x1="1562.2" y1="110.8" x2="1604" y2="110.8"/>
	<line class="st5" x1="1563.3" y1="103.7" x2="1602.9" y2="103.7"/>
	<line class="st5" x1="1565.5" y1="89.6" x2="1600.7" y2="89.6"/>
	<line class="st5" x1="1560" y1="124.9" x2="1606.2" y2="124.9"/>
	<line class="st5" x1="1558.9" y1="131.9" x2="1607.4" y2="131.9"/>
	<line class="st5" x1="1673" y1="61.4" x2="1681.7" y2="61.4"/>
	<line class="st5" x1="1673" y1="68.4" x2="1681.7" y2="68.4"/>
	<line class="st5" x1="1673" y1="54.3" x2="1681.7" y2="54.3"/>
	<line class="st5" x1="1673" y1="47.3" x2="1681.7" y2="47.3"/>
	<line class="st5" x1="1673" y1="40.2" x2="1681.7" y2="40.2"/>
	<line class="st5" x1="1673" y1="75.5" x2="1681.7" y2="75.5"/>
	<line class="st5" x1="1673" y1="82.5" x2="1681.7" y2="82.5"/>
	<line class="st5" x1="1673" y1="19.3" x2="1681.7" y2="19.3"/>
	<line class="st5" x1="1673" y1="-2.1" x2="1681.7" y2="-2.1"/>
	<line class="st5" x1="1673" y1="12.2" x2="1681.7" y2="12.2"/>
	<line class="st5" x1="1673" y1="5.2" x2="1681.7" y2="5.2"/>
	<line class="st5" x1="1673" y1="-9.2" x2="1681.6" y2="-9.2"/>
	<line class="st5" x1="1673" y1="26.3" x2="1681.7" y2="26.3"/>
	<line class="st5" x1="1673" y1="33.2" x2="1681.7" y2="33.2"/>
	<line class="st5" x1="1673" y1="153.1" x2="1681.6" y2="153.1"/>
	<line class="st5" x1="1673" y1="146" x2="1681.5" y2="146"/>
	<line class="st5" x1="1673" y1="139" x2="1681.7" y2="139"/>
	<line class="st5" x1="1673" y1="117.8" x2="1681.7" y2="117.8"/>
	<line class="st5" x1="1673" y1="96.6" x2="1681.7" y2="96.6"/>
	<line class="st5" x1="1673" y1="110.8" x2="1681.7" y2="110.8"/>
	<line class="st5" x1="1673" y1="103.7" x2="1681.7" y2="103.7"/>
	<line class="st5" x1="1673" y1="89.6" x2="1681.7" y2="89.6"/>
	<line class="st5" x1="1673" y1="124.9" x2="1681.7" y2="124.9"/>
	<line class="st5" x1="1673" y1="131.9" x2="1681.7" y2="131.9"/>
	<line class="st0" x1="1700" y1="-113.4" x2="1700" y2="-131.6"/>
	<line class="st0" x1="1708.8" y1="-113.4" x2="1708.8" y2="-126.6"/>
	<line class="st0" x1="1659" y1="-61.7" x2="1659" y2="-73.7"/>
	<line class="st5" x1="1636.3" y1="15.6" x2="1636.3" y2="153.1"/>
	<line class="st5" x1="1627.4" y1="15.6" x2="1627.4" y2="153.1"/>
	<line class="st5" x1="1618.7" y1="15.6" x2="1618.7" y2="152.5"/>
	<line class="st0" x1="1649.8" y1="-55.1" x2="1668.1" y2="-55.1"/>
	<line class="st1" x1="1690.5" y1="160.2" x2="1690.5" y2="240.7"/>
	<circle class="st2" cx="1690.5" cy="253.2" r="12.5"/>
</g>
<g id="building-8">
	<line class="st0" x1="4524.7" y1="160.2" x2="4524.7" y2="146.1"/>
	<circle class="st0" cx="4524.7" cy="137.4" r="8.6"/>
	<polyline class="st0" points="4516.3,139.5 4521.2,135.4 4524.7,138.8 4528.7,135.4 4532.9,139.9 	"/>
	<line class="st0" x1="4541.6" y1="160.2" x2="4541.6" y2="146.1"/>
	<circle class="st0" cx="4541.6" cy="137.4" r="8.6"/>
	<polyline class="st0" points="4533.2,139.5 4538.1,135.4 4541.6,138.8 4545.6,135.4 4549.8,139.9 	"/>
	<line class="st0" x1="4379.4" y1="160.2" x2="4379.4" y2="146.1"/>
	<polyline class="st0" points="4371.2,129.5 4376,125.1 4379.5,128.5 4383.5,125.1 4387.7,129.6 	"/>
	<path class="st0" d="M4387.6,129.6c1-1.6,1.6-3.4,1.6-5.4c0-5.4-4.4-9.8-9.8-9.8s-9.8,4.4-9.8,9.8c0,2,0.6,3.9,1.6,5.4
		c-3,1.3-5.1,4.4-5.1,7.9c0,4.8,3.9,8.6,8.6,8.6c1.7,0,3.4-0.5,4.7-1.4c1.4,0.9,3,1.4,4.7,1.4c4.8,0,8.6-3.9,8.6-8.6
		C4392.7,133.9,4390.6,130.9,4387.6,129.6z"/>
	<line class="st3" x1="4275.9" y1="97.5" x2="4320.8" y2="97.5"/>
	<polygon class="st4" points="4366.1,160.8 4298.9,160.8 4298.9,43.3 4324,79.8 4348,79.8 4365.7,106 	"/>
	<polygon class="st4" points="4509.9,160.8 4455.1,160.8 4455.1,61.5 4464.9,61.5 4473.4,78.8 4473.4,91.7 4482.7,91.7 4482.7,97.5 
		4501,97.5 4509.9,115.3 	"/>
	<polyline class="st0" points="4266.7,160.2 4266.7,88.4 4330,88.4 4330,160.8 	"/>
	<polyline class="st0" points="4266.7,88.4 4298.4,43.3 4330,88.4 	"/>
	<polyline class="st0" points="4365.7,160.2 4365.7,106 4330,106 4266.7,106 	"/>
	<polyline class="st0" points="4365.7,106 4348,79.8 4324,79.8 	"/>
	<line class="st5" x1="4285" y1="147.8" x2="4293.9" y2="147.8"/>
	<line class="st5" x1="4285" y1="129.5" x2="4293.9" y2="129.5"/>
	<line class="st5" x1="4285" y1="122.9" x2="4293.9" y2="122.9"/>
	<line class="st5" x1="4285.1" y1="141.5" x2="4294" y2="141.5"/>
	<line class="st5" x1="4285" y1="135.5" x2="4293.9" y2="135.5"/>
	<line class="st5" x1="4491.8" y1="147.8" x2="4500.7" y2="147.8"/>
	<line class="st5" x1="4491.8" y1="129.5" x2="4500.7" y2="129.5"/>
	<line class="st5" x1="4491.8" y1="122.9" x2="4500.7" y2="122.9"/>
	<line class="st5" x1="4491.9" y1="141.5" x2="4500.8" y2="141.5"/>
	<line class="st5" x1="4491.8" y1="135.5" x2="4500.7" y2="135.5"/>
	<line class="st5" x1="4303" y1="147.8" x2="4311.9" y2="147.8"/>
	<line class="st5" x1="4303" y1="129.5" x2="4311.9" y2="129.5"/>
	<line class="st5" x1="4303" y1="122.9" x2="4311.9" y2="122.9"/>
	<line class="st5" x1="4285" y1="116" x2="4293.9" y2="116"/>
	<line class="st5" x1="4338.7" y1="147.8" x2="4356.5" y2="147.8"/>
	<line class="st5" x1="4338.7" y1="129.5" x2="4356.5" y2="129.5"/>
	<line class="st5" x1="4338.7" y1="122.9" x2="4356.5" y2="122.9"/>
	<line class="st5" x1="4338.9" y1="141.5" x2="4356.7" y2="141.5"/>
	<line class="st5" x1="4338.7" y1="135.5" x2="4356.5" y2="135.5"/>
	<line class="st5" x1="4338.7" y1="116" x2="4356.5" y2="116"/>
	<line class="st5" x1="4303" y1="116" x2="4311.9" y2="116"/>
	<line class="st5" x1="4303.1" y1="141.5" x2="4312" y2="141.5"/>
	<line class="st5" x1="4303" y1="135.5" x2="4311.9" y2="135.5"/>
	<polygon class="st4" points="4410.7,105.7 4410.7,160.4 4428.6,160.4 4428.6,123.8 	"/>
	<line class="st5" x1="4402" y1="147.8" x2="4419.3" y2="147.8"/>
	<line class="st5" x1="4402" y1="141.8" x2="4419.3" y2="141.8"/>
	<line class="st5" x1="4447" y1="147.8" x2="4464.3" y2="147.8"/>
	<line class="st5" x1="4447" y1="141.8" x2="4464.3" y2="141.8"/>
	<line class="st5" x1="4447" y1="136" x2="4464.3" y2="136"/>
	<line class="st5" x1="4447" y1="129.9" x2="4464.3" y2="129.9"/>
	<line class="st5" x1="4447" y1="123.2" x2="4464.3" y2="123.2"/>
	<line class="st5" x1="4447" y1="117.2" x2="4464.3" y2="117.2"/>
	<line class="st5" x1="4447" y1="86.1" x2="4464.3" y2="86.1"/>
	<polyline class="st0" points="4392.7,140.5 4392.7,160.4 4392.7,123.8 4428.6,123.8 4428.6,160 	"/>
	<polyline class="st0" points="4392.7,123.8 4410.7,105.7 4428.6,123.8 4428.6,106.5 4437.7,106.5 4482.7,106.5 4482.7,160.2 	"/>
	<line class="st0" x1="4392.7" y1="133.2" x2="4428.6" y2="133.2"/>
	<line class="st0" x1="4397.9" y1="118.6" x2="4397.9" y2="110.3"/>
	<polyline class="st0" points="4437.7,160.2 4437.7,106.5 4437.7,78.8 4473.4,78.8 4473.4,106.5 4473.4,160.8 	"/>
	<polyline class="st0" points="4482.7,115.3 4509.9,115.3 4509.9,160.8 	"/>
	<polyline class="st0" points="4509.9,115.3 4501,97.5 4482.7,97.5 	"/>
	<polyline class="st0" points="4482.7,106.5 4482.7,91.7 4428.6,91.7 4428.6,106.4 	"/>
	<polyline class="st0" points="4437.7,78.8 4447,61.5 4464.9,61.5 4473.4,78.8 	"/>
	<line class="st3" x1="4431.7" y1="92.9" x2="4431.7" y2="105.2"/>
	<line class="st3" x1="4434.6" y1="92.9" x2="4434.6" y2="105.2"/>
	<line class="st3" x1="4437.6" y1="92.9" x2="4437.6" y2="105.2"/>
	<line class="st3" x1="4440.6" y1="92.9" x2="4440.6" y2="105.2"/>
	<line class="st3" x1="4443.5" y1="92.9" x2="4443.5" y2="105.2"/>
	<line class="st3" x1="4446.5" y1="92.9" x2="4446.5" y2="105.2"/>
	<line class="st3" x1="4449.4" y1="92.9" x2="4449.4" y2="105.2"/>
	<line class="st3" x1="4452.4" y1="92.9" x2="4452.4" y2="105.2"/>
	<line class="st3" x1="4455.4" y1="92.9" x2="4455.4" y2="105.2"/>
	<line class="st3" x1="4458.3" y1="92.9" x2="4458.3" y2="105.2"/>
	<line class="st3" x1="4461.3" y1="92.9" x2="4461.3" y2="105.2"/>
	<line class="st3" x1="4464.2" y1="92.9" x2="4464.2" y2="105.2"/>
	<line class="st3" x1="4467.2" y1="92.9" x2="4467.2" y2="105.2"/>
	<line class="st3" x1="4470.1" y1="92.9" x2="4470.1" y2="105.2"/>
	<line class="st3" x1="4476.5" y1="92.9" x2="4476.5" y2="105.2"/>
	<line class="st3" x1="4479.5" y1="92.9" x2="4479.5" y2="105.2"/>
	<line class="st1" x1="4392.7" y1="160.2" x2="4392.7" y2="240.7"/>
	<circle class="st2" cx="4392.7" cy="253.2" r="12.5"/>
</g>
<g id="building-7">
	<rect x="3947" y="114.9" class="st4" width="13.8" height="45.9"/>
	<polygon class="st4" points="4014.5,160.8 3983.1,160.8 3983.1,43 3988,43 3988,34.2 4014.5,34.2 	"/>
	<polygon class="st4" points="3934,34.1 3893.5,34.3 3893.5,160.8 3933.2,160.8 3933.2,124.5 3933.4,52.2 3942.7,52.2 3942.7,43.8 
		3933.4,43 	"/>
	<line class="st0" x1="4164" y1="160.2" x2="4164" y2="146.1"/>
	<circle class="st0" cx="4164" cy="137.4" r="8.6"/>
	<polyline class="st0" points="4155.7,139.5 4160.6,135.4 4164,138.8 4168,135.4 4172.3,139.9 	"/>
	<line class="st0" x1="3839.2" y1="160.2" x2="3839.2" y2="146.1"/>
	<circle class="st0" cx="3839.2" cy="137.4" r="8.6"/>
	<polyline class="st0" points="3830.8,139.5 3835.7,135.4 3839.2,138.8 3843.2,135.4 3847.5,139.9 	"/>
	<polyline class="st0" points="3852,159.5 3852,52.2 3933.4,52.2 3933.4,159.8 	"/>
	<path class="st3" d="M3852,61.2h81.4c0,0,27.6,8.5,45.1-9"/>
	<polyline class="st0" points="3852,124.2 3933.4,124.2 3933.4,114.9 3852,114.9 	"/>
	<line class="st5" x1="3861.6" y1="138.8" x2="3870.4" y2="138.8"/>
	<line class="st5" x1="3879.7" y1="138.8" x2="3888.6" y2="138.8"/>
	<line class="st5" x1="3861.6" y1="144.8" x2="3888.6" y2="144.8"/>
	<line class="st5" x1="3898.2" y1="138.8" x2="3907.1" y2="138.8"/>
	<line class="st5" x1="3916.4" y1="138.8" x2="3925.3" y2="138.8"/>
	<line class="st5" x1="3898.3" y1="144.8" x2="3925.3" y2="144.8"/>
	<line class="st5" x1="3861.6" y1="94.1" x2="3870.4" y2="94.1"/>
	<line class="st5" x1="3861.6" y1="106.2" x2="3870.5" y2="106.2"/>
	<line class="st5" x1="3879.7" y1="94.1" x2="3888.6" y2="94.1"/>
	<line class="st5" x1="3879.8" y1="106.2" x2="3888.7" y2="106.2"/>
	<line class="st5" x1="3861.6" y1="100.2" x2="3888.6" y2="100.2"/>
	<line class="st5" x1="3987.8" y1="72.6" x2="4006" y2="72.6"/>
	<line class="st5" x1="3987.8" y1="65.4" x2="4006" y2="65.4"/>
	<line class="st5" x1="3987.8" y1="57.9" x2="4006" y2="57.9"/>
	<line class="st5" x1="3987.8" y1="50.5" x2="4006" y2="50.5"/>
	<line class="st5" x1="3898.2" y1="94.1" x2="3907.1" y2="94.1"/>
	<line class="st5" x1="3898.3" y1="106.2" x2="3907.2" y2="106.2"/>
	<line class="st5" x1="3916.4" y1="94.1" x2="3925.3" y2="94.1"/>
	<line class="st5" x1="3916.5" y1="106.2" x2="3925.4" y2="106.2"/>
	<line class="st5" x1="3898.3" y1="100.2" x2="3925.3" y2="100.2"/>
	<line class="st5" x1="3861.6" y1="71.6" x2="3870.4" y2="71.6"/>
	<line class="st5" x1="3861.6" y1="83.7" x2="3870.5" y2="83.7"/>
	<line class="st5" x1="3879.7" y1="71.6" x2="3888.6" y2="71.6"/>
	<line class="st5" x1="3879.8" y1="83.7" x2="3888.7" y2="83.7"/>
	<line class="st5" x1="3861.6" y1="77.7" x2="3888.6" y2="77.7"/>
	<line class="st5" x1="3898.2" y1="71.6" x2="3907.1" y2="71.6"/>
	<line class="st5" x1="3898.3" y1="83.7" x2="3907.2" y2="83.7"/>
	<line class="st5" x1="3916.4" y1="71.6" x2="3925.3" y2="71.6"/>
	<line class="st5" x1="3916.5" y1="83.7" x2="3925.4" y2="83.7"/>
	<line class="st5" x1="3898.3" y1="77.7" x2="3925.3" y2="77.7"/>
	<line class="st3" x1="3861.6" y1="56.9" x2="3925.4" y2="56.9"/>
	<line class="st3" x1="3861.6" y1="119.6" x2="3925.4" y2="119.6"/>
	<line class="st3" x1="3965" y1="84.1" x2="4010" y2="84.1"/>
	<polyline class="st0" points="3852,52.2 3843.7,52.2 3843.7,43.3 3942.7,43.3 3942.7,52.2 3932,52.2 	"/>
	<polyline class="st0" points="3852,43 3852,34.2 3933.4,34.2 3933.4,43 	"/>
	<polyline class="st0" points="3861.6,34.2 3861.6,16.2 3879.8,16.2 3879.8,34.2 	"/>
	<path class="st3" d="M3933.3,97.1c0,0,16.2,3.4,27.5-8.6"/>
	<polyline class="st0" points="3960.8,160.2 3960.8,79.8 3978.5,79.8 3978.5,43.3 3988,43.3 3988,34.2 4014.5,34.2 4014.5,160.8 	
		"/>
	<line class="st0" x1="3960.8" y1="114.9" x2="3933.4" y2="114.9"/>
	<line class="st5" x1="3942.7" y1="143.7" x2="3951.5" y2="143.7"/>
	<line class="st5" x1="3942.7" y1="122.5" x2="3951.5" y2="122.5"/>
	<line class="st5" x1="3942.7" y1="129.5" x2="3951.5" y2="129.5"/>
	<line class="st5" x1="3942.7" y1="136.6" x2="3951.5" y2="136.6"/>
	<line class="st5" x1="3969.7" y1="143.7" x2="3978.5" y2="143.7"/>
	<line class="st5" x1="3969.7" y1="122.5" x2="3978.5" y2="122.5"/>
	<line class="st5" x1="3969.7" y1="129.5" x2="3978.5" y2="129.5"/>
	<line class="st5" x1="3969.7" y1="136.6" x2="3978.5" y2="136.6"/>
	<line class="st5" x1="3969.7" y1="101.9" x2="3978.5" y2="101.9"/>
	<line class="st5" x1="3969.7" y1="109" x2="3978.5" y2="109"/>
	<line class="st5" x1="3969.7" y1="116" x2="3978.5" y2="116"/>
	<line class="st5" x1="4029.1" y1="143.7" x2="4037.9" y2="143.7"/>
	<line class="st5" x1="4029.1" y1="122.5" x2="4037.9" y2="122.5"/>
	<line class="st5" x1="4029.1" y1="129.5" x2="4037.9" y2="129.5"/>
	<line class="st5" x1="4029.1" y1="136.6" x2="4037.9" y2="136.6"/>
	<line class="st5" x1="4029.1" y1="116" x2="4037.9" y2="116"/>
	<line class="st5" x1="4047.1" y1="143.7" x2="4055.9" y2="143.7"/>
	<line class="st5" x1="4047.1" y1="122.5" x2="4055.9" y2="122.5"/>
	<line class="st5" x1="4047.1" y1="129.5" x2="4055.9" y2="129.5"/>
	<line class="st5" x1="4047.1" y1="136.6" x2="4055.9" y2="136.6"/>
	<line class="st5" x1="4047.1" y1="116" x2="4055.9" y2="116"/>
	<line class="st5" x1="4065.1" y1="143.7" x2="4073.9" y2="143.7"/>
	<line class="st5" x1="4065.1" y1="122.5" x2="4073.9" y2="122.5"/>
	<line class="st5" x1="4065.1" y1="129.5" x2="4073.9" y2="129.5"/>
	<line class="st5" x1="4065.1" y1="136.6" x2="4073.9" y2="136.6"/>
	<line class="st5" x1="4065.1" y1="116" x2="4073.9" y2="116"/>
	<line class="st5" x1="4083" y1="143.7" x2="4091.8" y2="143.7"/>
	<line class="st5" x1="4083" y1="122.5" x2="4091.8" y2="122.5"/>
	<line class="st5" x1="4083" y1="129.5" x2="4091.8" y2="129.5"/>
	<line class="st5" x1="4083" y1="136.6" x2="4091.8" y2="136.6"/>
	<line class="st5" x1="4083" y1="116" x2="4091.8" y2="116"/>
	<line class="st5" x1="4101.2" y1="143.7" x2="4110" y2="143.7"/>
	<line class="st5" x1="4101.2" y1="122.5" x2="4110" y2="122.5"/>
	<line class="st5" x1="4101.2" y1="129.5" x2="4110" y2="129.5"/>
	<line class="st5" x1="4101.2" y1="136.6" x2="4110" y2="136.6"/>
	<line class="st5" x1="4101.2" y1="116" x2="4110" y2="116"/>
	<line class="st5" x1="4127.9" y1="143.7" x2="4136.7" y2="143.7"/>
	<line class="st5" x1="4127.9" y1="122.5" x2="4136.7" y2="122.5"/>
	<line class="st5" x1="4127.9" y1="129.5" x2="4136.7" y2="129.5"/>
	<line class="st5" x1="4127.9" y1="136.6" x2="4136.7" y2="136.6"/>
	<line class="st5" x1="4127.9" y1="116" x2="4136.7" y2="116"/>
	<line class="st5" x1="4127.9" y1="79" x2="4136.7" y2="79"/>
	<line class="st5" x1="4127.9" y1="86.1" x2="4136.7" y2="86.1"/>
	<line class="st5" x1="4127.9" y1="72.6" x2="4136.7" y2="72.6"/>
	<line class="st5" x1="3987.9" y1="101.9" x2="3996.7" y2="101.9"/>
	<line class="st5" x1="3987.9" y1="109" x2="3996.7" y2="109"/>
	<line class="st5" x1="3987.9" y1="116" x2="3996.7" y2="116"/>
	<line class="st5" x1="3988" y1="143.7" x2="3996.8" y2="143.7"/>
	<line class="st5" x1="3988" y1="122.5" x2="3996.8" y2="122.5"/>
	<line class="st5" x1="3988" y1="129.5" x2="3996.8" y2="129.5"/>
	<line class="st5" x1="3988" y1="136.6" x2="3996.8" y2="136.6"/>
	<path class="st5" d="M3947,114.9"/>
	<polyline class="st0" points="3960.8,79.8 4014.5,79.8 4014.5,88.4 3960.8,88.4 	"/>
	<line class="st0" x1="3988" y1="43.3" x2="4014.5" y2="43.3"/>
	<polyline class="st0" points="4014.5,52.2 4145.7,52.2 4145.7,160.8 	"/>
	<line class="st0" x1="4014.5" y1="61.2" x2="4145.7" y2="61.2"/>
	<polyline class="st0" points="4014.5,97.5 4145.7,97.5 4145.7,106.5 4014.5,106.5 	"/>
	<polyline class="st0" points="4068.2,52.2 4068.2,34.4 4041.5,34.4 4041.5,52.2 	"/>
	<polyline class="st0" points="4041.5,43.3 4014.5,43.3 4014.5,52.2 	"/>
	<line class="st0" x1="4119" y1="160.8" x2="4119" y2="106.5"/>
	<line class="st0" x1="4119" y1="97.5" x2="4119" y2="61.2"/>
	<rect x="4078.5" y="52.2" class="st4" width="67.2" height="108.6"/>
	<line class="st3" x1="4028.8" y1="70.2" x2="4028.8" y2="88.4"/>
	<line class="st3" x1="4037.7" y1="70.2" x2="4037.7" y2="88.4"/>
	<line class="st3" x1="4033.2" y1="70.2" x2="4033.2" y2="88.4"/>
	<line class="st3" x1="4042.4" y1="70.2" x2="4042.4" y2="88.4"/>
	<line class="st3" x1="4051.4" y1="70.2" x2="4051.4" y2="88.4"/>
	<line class="st3" x1="4047" y1="70.2" x2="4047" y2="88.4"/>
	<line class="st3" x1="4055.9" y1="70.2" x2="4055.9" y2="88.4"/>
	<line class="st3" x1="4060.8" y1="70.2" x2="4060.8" y2="88.4"/>
	<line class="st3" x1="4065.4" y1="70.2" x2="4065.4" y2="88.4"/>
	<line class="st3" x1="4069.2" y1="70.2" x2="4069.2" y2="88.4"/>
	<line class="st3" x1="4078.1" y1="70.2" x2="4078.1" y2="88.4"/>
	<line class="st3" x1="4073.6" y1="70.2" x2="4073.6" y2="88.4"/>
	<line class="st3" x1="4082.7" y1="70.2" x2="4082.7" y2="88.4"/>
	<line class="st3" x1="4091.8" y1="70.2" x2="4091.8" y2="88.4"/>
	<line class="st3" x1="4087.3" y1="70.2" x2="4087.3" y2="88.4"/>
	<line class="st3" x1="4096.3" y1="70.2" x2="4096.3" y2="88.4"/>
	<line class="st3" x1="4101.2" y1="70.2" x2="4101.2" y2="88.4"/>
	<line class="st3" x1="4105.8" y1="70.2" x2="4105.8" y2="88.4"/>
	<line class="st3" x1="4109.8" y1="70.2" x2="4109.8" y2="88.4"/>
	<line class="st5" x1="3861.6" y1="150.8" x2="3870.5" y2="150.8"/>
	<line class="st5" x1="3879.8" y1="150.8" x2="3888.7" y2="150.8"/>
	<line class="st5" x1="3898.3" y1="150.8" x2="3907.2" y2="150.8"/>
	<line class="st5" x1="3916.5" y1="150.8" x2="3925.4" y2="150.8"/>
	<line class="st5" x1="3942.7" y1="150.7" x2="3951.3" y2="150.7"/>
	<line class="st5" x1="3969.7" y1="150.7" x2="3978.3" y2="150.7"/>
	<line class="st5" x1="4029.1" y1="150.7" x2="4037.7" y2="150.7"/>
	<line class="st5" x1="4047.1" y1="150.7" x2="4055.7" y2="150.7"/>
	<line class="st5" x1="4065.1" y1="150.7" x2="4073.7" y2="150.7"/>
	<line class="st5" x1="4083" y1="150.7" x2="4091.6" y2="150.7"/>
	<line class="st5" x1="4101.2" y1="150.7" x2="4109.8" y2="150.7"/>
	<line class="st5" x1="4127.9" y1="150.7" x2="4136.5" y2="150.7"/>
	<line class="st5" x1="3988" y1="150.7" x2="3996.6" y2="150.7"/>
	<line class="st1" x1="4014.5" y1="160.2" x2="4014.5" y2="240.7"/>
	<circle class="st2" cx="4014.5" cy="253.2" r="12.5"/>
</g>
<g id="building-6">
	<path class="st4" d="M3679.5,152c0,0-0.8,7.8-7.7,7.7s-7.7-7.7-7.7-7.7h-7.6l4-32.7h11.3l6.4,13.8l6.3,6.7V152H3679.5z"/>
	<rect x="3517.9" y="43.6" class="st4" width="36" height="8.6"/>
	<polygon class="st4" points="3554,106.5 3504.1,106.5 3504.1,160.8 3553.2,160.8 3553.2,145.2 	"/>
	<polygon class="st4" points="3626.9,142.7 3607.9,142.7 3607.9,160.8 3635.1,160.8 3628.8,151.7 3626,151.4 	"/>
	<line class="st0" x1="3711" y1="160.2" x2="3711" y2="146.1"/>
	<polyline class="st0" points="3702.8,129.5 3707.6,125.1 3711,128.5 3715,125.1 3719.3,129.6 	"/>
	<path class="st0" d="M3719.2,129.6c1-1.6,1.6-3.4,1.6-5.4c0-5.4-4.4-9.8-9.8-9.8c-5.4,0-9.8,4.4-9.8,9.8c0,2,0.6,3.9,1.6,5.4
		c-3,1.3-5.1,4.4-5.1,7.9c0,4.8,3.9,8.6,8.6,8.6c1.7,0,3.4-0.5,4.7-1.4c1.4,0.9,3,1.4,4.7,1.4c4.8,0,8.6-3.9,8.6-8.6
		C3724.3,133.9,3722.2,130.9,3719.2,129.6z"/>
	<line class="st0" x1="3732.3" y1="160.2" x2="3732.3" y2="135.4"/>
	<polyline class="st0" points="3718,106.4 3726.3,98.7 3732.4,104.7 3739.4,98.7 3746.9,106.6 	"/>
	<path class="st0" d="M3724.1,135.4c3,0,5.9-0.9,8.2-2.5c2.4,1.5,5.2,2.5,8.2,2.5c8.3,0,15.1-6.8,15.1-15.1c0-6.2-3.7-11.4-9-13.8
		c1.8-2.7,2.8-6,2.8-9.5c0-9.5-7.7-17.2-17.2-17.2S3715,87.5,3715,97c0,3.5,1.1,6.8,2.8,9.5c-3.4,1.5-6.2,4.3-7.7,7.8"/>
	<polygon class="st5" points="3671.8,132.8 3664.9,132.8 3665.6,125.7 3669.5,125.7 	"/>
	<polyline class="st0" points="3455,160.8 3455,97.2 3490.4,97.2 3490.4,106.2 3553.7,106.2 3553.7,160.8 	"/>
	<line class="st0" x1="3455" y1="106.2" x2="3490.4" y2="106.2"/>
	<line class="st0" x1="3455" y1="115.2" x2="3553.7" y2="115.2"/>
	<line class="st0" x1="3455" y1="123.8" x2="3553.7" y2="123.8"/>
	<line class="st0" x1="3455" y1="142" x2="3553.7" y2="142"/>
	<line class="st0" x1="3455" y1="150.8" x2="3553.7" y2="150.8"/>
	<line class="st0" x1="3473.3" y1="97.3" x2="3473.3" y2="105.8"/>
	<line class="st0" x1="3464" y1="106.5" x2="3464" y2="114.9"/>
	<line class="st0" x1="3481.9" y1="106.5" x2="3481.9" y2="114.9"/>
	<polyline class="st0" points="3517.8,114.9 3517.8,106.5 3517.8,79.6 3544.9,105.8 	"/>
	<line class="st0" x1="3517.8" y1="106.5" x2="3517.8" y2="114.9"/>
	<polyline class="st0" points="3553.8,114.9 3553.8,106.5 3553.8,79.5 3526.8,105.8 	"/>
	<line class="st0" x1="3544.9" y1="115.4" x2="3544.9" y2="123.8"/>
	<line class="st0" x1="3473" y1="115.8" x2="3473" y2="123.4"/>
	<line class="st0" x1="3490.9" y1="115.8" x2="3490.9" y2="123.4"/>
	<line class="st0" x1="3508.8" y1="115.8" x2="3508.8" y2="123.4"/>
	<line class="st0" x1="3526.9" y1="115.8" x2="3526.9" y2="123.4"/>
	<line class="st0" x1="3535.8" y1="124.2" x2="3535.8" y2="132.3"/>
	<line class="st0" x1="3463.9" y1="124.7" x2="3463.9" y2="132.3"/>
	<line class="st0" x1="3481.9" y1="124.7" x2="3481.9" y2="132.3"/>
	<line class="st0" x1="3499.8" y1="124.7" x2="3499.8" y2="132.3"/>
	<line class="st0" x1="3517.9" y1="124.7" x2="3517.9" y2="132.3"/>
	<line class="st0" x1="3535.8" y1="142.4" x2="3535.8" y2="150.5"/>
	<line class="st0" x1="3463.9" y1="142.8" x2="3463.9" y2="150.4"/>
	<line class="st0" x1="3481.9" y1="142.8" x2="3481.9" y2="150.4"/>
	<line class="st0" x1="3499.8" y1="142.8" x2="3499.8" y2="150.4"/>
	<line class="st0" x1="3517.9" y1="142.8" x2="3517.9" y2="150.4"/>
	<line class="st0" x1="3544.9" y1="133.1" x2="3544.9" y2="141.2"/>
	<line class="st0" x1="3473" y1="133.6" x2="3473" y2="141.2"/>
	<line class="st0" x1="3490.9" y1="133.6" x2="3490.9" y2="141.2"/>
	<line class="st0" x1="3508.8" y1="133.6" x2="3508.8" y2="141.2"/>
	<line class="st0" x1="3526.9" y1="133.6" x2="3526.9" y2="141.2"/>
	<line class="st0" x1="3544.9" y1="151.4" x2="3544.9" y2="159.5"/>
	<line class="st0" x1="3473" y1="151.9" x2="3473" y2="159.5"/>
	<line class="st0" x1="3490.9" y1="151.9" x2="3490.9" y2="159.5"/>
	<line class="st0" x1="3508.8" y1="151.9" x2="3508.8" y2="159.5"/>
	<line class="st0" x1="3526.9" y1="151.9" x2="3526.9" y2="159.5"/>
	<polyline class="st0" points="3455,97.2 3455,62 3481.9,96.2 	"/>
	<polyline class="st0" points="3490.4,97.2 3490.4,61.8 3463.9,97.1 	"/>
	<polyline class="st0" points="3579.5,160.2 3579.5,151.4 3629.4,151.4 	"/>
	<polyline class="st0" points="3588.5,150.4 3588.5,142.8 3626,142.8 3626,151.4 	"/>
	<polyline class="st0" points="3616.5,132.3 3616.1,-55.6 3598.1,-55.6 3598.5,141.7 	"/>
	<line class="st0" x1="3616.5" y1="142.8" x2="3616.5" y2="132.7"/>
	<line class="st0" x1="3616.5" y1="123.8" x2="3599.1" y2="123.8"/>
	<line class="st0" x1="3599.1" y1="106.5" x2="3616.1" y2="106.5"/>
	<line class="st0" x1="3599.1" y1="88.2" x2="3616.1" y2="88.2"/>
	<line class="st0" x1="3599.1" y1="70.2" x2="3616.1" y2="70.2"/>
	<line class="st0" x1="3599.1" y1="52.2" x2="3616.1" y2="52.2"/>
	<line class="st0" x1="3599.1" y1="34.2" x2="3616.1" y2="34.2"/>
	<line class="st0" x1="3599.1" y1="16.2" x2="3616.1" y2="16.2"/>
	<line class="st0" x1="3599.1" y1="-1.5" x2="3616.1" y2="-1.5"/>
	<line class="st0" x1="3599.1" y1="-20.1" x2="3616.1" y2="-20.1"/>
	<line class="st0" x1="3599.1" y1="-38.1" x2="3616.1" y2="-38.1"/>
	<polyline class="st0" points="3616.5,124.3 3599.5,106.2 3616.3,88.2 3599.5,70.2 3616.3,52.2 3599.5,34.2 3616.3,16.2 
		3599.5,-1.8 3616.2,-19.8 3598.5,-37.8 3615.9,-55.6 	"/>
	<line class="st0" x1="3599.5" y1="142.2" x2="3616.5" y2="124.3"/>
	<polyline class="st0" points="3616.1,142.2 3599.5,124.2 3616.1,106.2 3599.5,88.2 3616.1,70.2 3599.5,52.2 3616.1,34.2 
		3599.5,16.2 3616.1,-1.8 3598.2,-19.9 3616.1,-37.9 3598.1,-55.6 	"/>
	<polyline class="st0" points="3616.1,-38.1 3499.8,-38.1 3508.8,-55.6 3615.9,-55.6 	"/>
	<polyline class="st0" points="3598.1,-55.6 3580.8,-38.1 3562.5,-55.6 3544.9,-38.1 3526.8,-55.6 3508.8,-38.1 3508.8,-55.6 
		3526.8,-38.1 3544.9,-55.6 3562.5,-38.1 3580.5,-55.6 3598.1,-38.1 	"/>
	<line class="st0" x1="3580.5" y1="-55.6" x2="3580.5" y2="-38.1"/>
	<line class="st0" x1="3544.9" y1="-55.6" x2="3544.9" y2="-38.1"/>
	<line class="st0" x1="3526.8" y1="-55.6" x2="3526.8" y2="-38.1"/>
	<polyline class="st0" points="3562.5,-55.6 3562.5,-38.1 3562.5,-32.1 3508.8,-32.1 3508.8,-38.1 	"/>
	<line class="st0" x1="3517.8" y1="-32.1" x2="3517.8" y2="5.9"/>
	<rect x="3512.8" y="6.9" class="st0" width="10.5" height="9.2"/>
	<path class="st0" d="M3517.8,16.2v3.5c0,0,4.8,0.8,4.8,5.4c0,4.5-4.5,4.5-4.5,4.5s-5.3,0.4-5.3-4.4"/>
	<polyline class="st0" points="3508.8,43.3 3517.8,26.7 3526.9,43.6 	"/>
	<rect x="3481.9" y="43.6" class="st0" width="72" height="8.6"/>
	<circle class="st0" cx="3637.8" cy="152" r="7.7"/>
	<circle class="st0" cx="3671.8" cy="152" r="7.7"/>
	<line class="st0" x1="3645.5" y1="152" x2="3664.1" y2="152"/>
	<polyline class="st0" points="3679.5,152 3684.6,152 3684.6,139.9 3678.3,133.1 3671.8,119.3 3660.5,119.3 3657.3,145.7 
		3642.2,145.7 	"/>
	<polyline class="st0" points="3632.7,146.3 3616.8,133.1 3616.8,125.9 3644.4,125.9 3657.8,112.2 3665.4,112.2 3668.4,118.8 	"/>
	<polyline class="st0" points="3618.6,125.7 3624.2,119.3 3630.1,119.3 3634.8,115.6 3641.1,114.5 3648.7,120.1 	"/>
	<polyline class="st0" points="3634.8,115.6 3637.8,109.4 3645.5,106.8 3651.2,109.4 3655.5,114.5 	"/>
	<line class="st0" x1="3650.8" y1="145.6" x2="3652.4" y2="132.8"/>
	<line class="st0" x1="3643.8" y1="145.6" x2="3645.5" y2="132.8"/>
	<line class="st0" x1="3637.8" y1="144.3" x2="3639.3" y2="132.8"/>
	<circle class="st0" cx="3637.8" cy="152" r="3.6"/>
	<circle class="st0" cx="3671.8" cy="152" r="3.6"/>
	<polyline class="st0" points="3419,160.8 3419,16.2 3455,16.2 3455,118.2 	"/>
	<line class="st0" x1="3419" y1="43.6" x2="3455" y2="43.6"/>
	<line class="st0" x1="3419" y1="70.4" x2="3455" y2="70.4"/>
	<line class="st0" x1="3419" y1="97.1" x2="3455" y2="97.1"/>
	<line class="st0" x1="3419" y1="123.8" x2="3455" y2="123.8"/>
	<line class="st0" x1="3419" y1="16.2" x2="3419" y2="-18.2"/>
	<line class="st0" x1="3455" y1="16.2" x2="3455" y2="-18.2"/>
	<line class="st0" x1="3419" y1="79.5" x2="3455" y2="79.5"/>
	<polyline class="st0" points="3419,132.3 3455,132.3 3553.7,132.3 	"/>
	<line class="st1" x1="3553.5" y1="160.2" x2="3553.5" y2="240.7"/>
	<circle class="st2" cx="3553.5" cy="253.2" r="12.5"/>
</g>
<g id="building-5">
	<polygon class="st4" points="3160,-1.8 3128.5,-1.7 3128.5,160.8 3159.5,160.8 3159.5,114.2 	"/>
	<polygon class="st4" points="3340,-64.2 3313,-63.9 3313,160.8 3339.6,160.8 3339.6,96.3 	"/>
	<polygon class="st4" points="3173.3,-136.4 3164.7,-136.2 3164.7,160.6 3168.9,160.6 3168.9,75.3 3169,-91.9 3178,-91.9 3178,-119 
		3173.3,-119 	"/>
	<polygon class="st4" points="3222.5,-20.5 3222.5,-28.1 3200.3,-27.9 3200.3,160.8 3230.5,160.8 3230.5,106.6 3231,-20.5 	"/>
	<polygon class="st4" points="3267.5,24.7 3267.5,44.2 3258.4,44.2 3258.4,160.8 3285.6,160.8 3285.6,106.6 3286,24.7 	"/>
	<g class="st6">
		<polygon class="st7" points="3078.7,-54.7 3078.7,-20.5 3096.9,-20.5 3096.7,160.6 3065.3,160.6 3065.3,-54.7 3074.3,-54.7 		"/>
	</g>
	<line class="st5" x1="3106.6" y1="61.8" x2="3115.4" y2="61.8"/>
	<line class="st5" x1="3106.6" y1="68.8" x2="3115.4" y2="68.8"/>
	<line class="st5" x1="3106.6" y1="54.7" x2="3115.4" y2="54.7"/>
	<line class="st5" x1="3106.6" y1="47.7" x2="3115.4" y2="47.7"/>
	<line class="st5" x1="3106.6" y1="40.6" x2="3115.4" y2="40.6"/>
	<line class="st5" x1="3106.6" y1="75.9" x2="3115.4" y2="75.9"/>
	<line class="st5" x1="3106.6" y1="83" x2="3115.4" y2="83"/>
	<line class="st5" x1="3106.6" y1="19.7" x2="3115.4" y2="19.7"/>
	<line class="st5" x1="3106.6" y1="-1.7" x2="3115.4" y2="-1.7"/>
	<line class="st5" x1="3106.6" y1="12.6" x2="3115.4" y2="12.6"/>
	<line class="st5" x1="3106.6" y1="26.7" x2="3115.4" y2="26.7"/>
	<line class="st5" x1="3106.6" y1="33.6" x2="3115.4" y2="33.6"/>
	<line class="st5" x1="3106.6" y1="146.4" x2="3115.2" y2="146.4"/>
	<line class="st5" x1="3106.6" y1="139.4" x2="3115.4" y2="139.4"/>
	<line class="st5" x1="3106.6" y1="118.2" x2="3115.4" y2="118.2"/>
	<line class="st5" x1="3106.6" y1="97.1" x2="3115.4" y2="97.1"/>
	<line class="st5" x1="3106.6" y1="111.2" x2="3115.4" y2="111.2"/>
	<line class="st5" x1="3106.6" y1="104.1" x2="3115.4" y2="104.1"/>
	<line class="st5" x1="3106.6" y1="90" x2="3115.4" y2="90"/>
	<line class="st5" x1="3106.6" y1="125.3" x2="3115.4" y2="125.3"/>
	<line class="st5" x1="3106.6" y1="132.3" x2="3115.4" y2="132.3"/>
	<line class="st5" x1="3124.3" y1="61.8" x2="3133.1" y2="61.8"/>
	<line class="st5" x1="3124.3" y1="68.8" x2="3133.1" y2="68.8"/>
	<line class="st5" x1="3124.3" y1="54.7" x2="3133.1" y2="54.7"/>
	<line class="st5" x1="3124.3" y1="47.7" x2="3133.1" y2="47.7"/>
	<line class="st5" x1="3124.3" y1="40.6" x2="3133.1" y2="40.6"/>
	<line class="st5" x1="3124.3" y1="75.9" x2="3133.1" y2="75.9"/>
	<line class="st5" x1="3124.3" y1="83" x2="3133.1" y2="83"/>
	<line class="st5" x1="3124.3" y1="19.7" x2="3133.1" y2="19.7"/>
	<line class="st5" x1="3124.3" y1="-1.7" x2="3133.1" y2="-1.7"/>
	<line class="st5" x1="3124.3" y1="12.6" x2="3133.1" y2="12.6"/>
	<line class="st5" x1="3124.3" y1="26.7" x2="3133.1" y2="26.7"/>
	<line class="st5" x1="3124.3" y1="33.6" x2="3133.1" y2="33.6"/>
	<line class="st5" x1="3124.3" y1="146.4" x2="3132.9" y2="146.4"/>
	<line class="st5" x1="3124.3" y1="139.4" x2="3133.1" y2="139.4"/>
	<line class="st5" x1="3124.3" y1="118.2" x2="3133.1" y2="118.2"/>
	<line class="st5" x1="3124.3" y1="97.1" x2="3133.1" y2="97.1"/>
	<line class="st5" x1="3124.3" y1="111.2" x2="3133.1" y2="111.2"/>
	<line class="st5" x1="3124.3" y1="104.1" x2="3133.1" y2="104.1"/>
	<line class="st5" x1="3124.3" y1="90" x2="3133.1" y2="90"/>
	<line class="st5" x1="3124.3" y1="125.3" x2="3133.1" y2="125.3"/>
	<line class="st5" x1="3124.3" y1="132.3" x2="3133.1" y2="132.3"/>
	<line class="st5" x1="3299.8" y1="61.8" x2="3308.6" y2="61.8"/>
	<line class="st5" x1="3299.8" y1="68.8" x2="3308.6" y2="68.8"/>
	<line class="st5" x1="3299.8" y1="54.7" x2="3308.6" y2="54.7"/>
	<line class="st5" x1="3299.8" y1="47.7" x2="3308.6" y2="47.7"/>
	<line class="st5" x1="3299.8" y1="40.6" x2="3308.6" y2="40.6"/>
	<line class="st5" x1="3299.8" y1="75.9" x2="3308.6" y2="75.9"/>
	<line class="st5" x1="3299.8" y1="83" x2="3308.6" y2="83"/>
	<line class="st5" x1="3299.8" y1="19.7" x2="3308.6" y2="19.7"/>
	<line class="st5" x1="3299.8" y1="12.6" x2="3308.6" y2="12.6"/>
	<line class="st5" x1="3299.8" y1="26.7" x2="3308.6" y2="26.7"/>
	<line class="st5" x1="3299.8" y1="33.6" x2="3308.6" y2="33.6"/>
	<line class="st5" x1="3299.8" y1="146.4" x2="3308.4" y2="146.4"/>
	<line class="st5" x1="3299.8" y1="139.4" x2="3308.6" y2="139.4"/>
	<line class="st5" x1="3299.8" y1="118.2" x2="3308.6" y2="118.2"/>
	<line class="st5" x1="3299.8" y1="97.1" x2="3308.6" y2="97.1"/>
	<line class="st5" x1="3299.8" y1="111.2" x2="3308.6" y2="111.2"/>
	<line class="st5" x1="3299.8" y1="104.1" x2="3308.6" y2="104.1"/>
	<line class="st5" x1="3299.8" y1="90" x2="3308.6" y2="90"/>
	<line class="st5" x1="3299.8" y1="125.3" x2="3308.6" y2="125.3"/>
	<line class="st5" x1="3299.8" y1="132.3" x2="3308.6" y2="132.3"/>
	<line class="st5" x1="3317.5" y1="61.8" x2="3326.3" y2="61.8"/>
	<line class="st5" x1="3317.5" y1="68.8" x2="3326.3" y2="68.8"/>
	<line class="st5" x1="3317.5" y1="54.7" x2="3326.3" y2="54.7"/>
	<line class="st5" x1="3317.5" y1="47.7" x2="3326.3" y2="47.7"/>
	<line class="st5" x1="3317.5" y1="40.6" x2="3326.3" y2="40.6"/>
	<line class="st5" x1="3317.5" y1="75.9" x2="3326.3" y2="75.9"/>
	<line class="st5" x1="3317.5" y1="83" x2="3326.3" y2="83"/>
	<line class="st5" x1="3317.5" y1="19.7" x2="3326.3" y2="19.7"/>
	<line class="st5" x1="3317.5" y1="12.6" x2="3326.3" y2="12.6"/>
	<line class="st5" x1="3317.5" y1="26.7" x2="3326.3" y2="26.7"/>
	<line class="st5" x1="3317.5" y1="33.6" x2="3326.3" y2="33.6"/>
	<line class="st5" x1="3299.8" y1="5.9" x2="3308.6" y2="5.9"/>
	<line class="st5" x1="3299.8" y1="-1.2" x2="3308.6" y2="-1.2"/>
	<line class="st5" x1="3299.8" y1="-8.2" x2="3308.6" y2="-8.2"/>
	<line class="st5" x1="3299.8" y1="-15.3" x2="3308.6" y2="-15.3"/>
	<line class="st5" x1="3299.8" y1="-36.2" x2="3308.6" y2="-36.2"/>
	<line class="st5" x1="3299.8" y1="-43.3" x2="3308.6" y2="-43.3"/>
	<line class="st5" x1="3299.8" y1="-29.2" x2="3308.6" y2="-29.2"/>
	<line class="st5" x1="3299.8" y1="-22.4" x2="3308.6" y2="-22.4"/>
	<line class="st5" x1="3317.5" y1="5.9" x2="3326.3" y2="5.9"/>
	<line class="st5" x1="3317.5" y1="-1.2" x2="3326.3" y2="-1.2"/>
	<line class="st5" x1="3317.5" y1="-8.2" x2="3326.3" y2="-8.2"/>
	<line class="st5" x1="3317.5" y1="-15.3" x2="3326.3" y2="-15.3"/>
	<line class="st5" x1="3317.5" y1="-36.2" x2="3326.3" y2="-36.2"/>
	<line class="st5" x1="3317.5" y1="-43.3" x2="3326.3" y2="-43.3"/>
	<line class="st5" x1="3299.8" y1="-51.2" x2="3308.6" y2="-51.2"/>
	<line class="st5" x1="3317.5" y1="-51.2" x2="3326.3" y2="-51.2"/>
	<line class="st5" x1="3317.5" y1="-29.2" x2="3326.3" y2="-29.2"/>
	<line class="st5" x1="3317.5" y1="-22.4" x2="3326.3" y2="-22.4"/>
	<line class="st5" x1="3317.5" y1="146.4" x2="3326.1" y2="146.4"/>
	<line class="st5" x1="3317.5" y1="139.4" x2="3326.3" y2="139.4"/>
	<line class="st5" x1="3317.5" y1="118.2" x2="3326.3" y2="118.2"/>
	<line class="st5" x1="3317.5" y1="97.1" x2="3326.3" y2="97.1"/>
	<line class="st5" x1="3317.5" y1="111.2" x2="3326.3" y2="111.2"/>
	<line class="st5" x1="3317.5" y1="104.1" x2="3326.3" y2="104.1"/>
	<line class="st5" x1="3317.5" y1="90" x2="3326.3" y2="90"/>
	<line class="st5" x1="3317.5" y1="125.3" x2="3326.3" y2="125.3"/>
	<line class="st5" x1="3317.5" y1="132.3" x2="3326.3" y2="132.3"/>
	<line class="st5" x1="3142" y1="61.8" x2="3150.8" y2="61.8"/>
	<line class="st5" x1="3142" y1="68.8" x2="3150.8" y2="68.8"/>
	<line class="st5" x1="3142" y1="54.7" x2="3150.8" y2="54.7"/>
	<line class="st5" x1="3142" y1="47.7" x2="3150.8" y2="47.7"/>
	<line class="st5" x1="3142" y1="40.6" x2="3150.8" y2="40.6"/>
	<line class="st5" x1="3142" y1="75.9" x2="3150.8" y2="75.9"/>
	<line class="st5" x1="3142" y1="83" x2="3150.8" y2="83"/>
	<line class="st5" x1="3142" y1="19.7" x2="3150.8" y2="19.7"/>
	<line class="st5" x1="3142" y1="12.6" x2="3150.8" y2="12.6"/>
	<line class="st5" x1="3142" y1="26.7" x2="3150.8" y2="26.7"/>
	<line class="st5" x1="3142" y1="33.6" x2="3150.8" y2="33.6"/>
	<line class="st5" x1="3142" y1="146.4" x2="3150.6" y2="146.4"/>
	<line class="st5" x1="3142" y1="139.4" x2="3150.8" y2="139.4"/>
	<line class="st5" x1="3142" y1="118.2" x2="3150.8" y2="118.2"/>
	<line class="st5" x1="3142" y1="97.1" x2="3150.8" y2="97.1"/>
	<line class="st5" x1="3142" y1="111.2" x2="3150.8" y2="111.2"/>
	<line class="st5" x1="3142" y1="104.1" x2="3150.8" y2="104.1"/>
	<line class="st5" x1="3142" y1="90" x2="3150.8" y2="90"/>
	<line class="st5" x1="3142" y1="125.3" x2="3150.8" y2="125.3"/>
	<line class="st5" x1="3142" y1="132.3" x2="3150.8" y2="132.3"/>
	<polyline class="st0" points="3043.3,160.8 3043.3,-47.6 3079,-47.6 3079,-20.5 3096.9,-20.5 3096.9,160.6 	"/>
	<polyline class="st0" points="3043.3,-47.6 3043.3,-54.7 3079,-54.7 3079,-47.6 	"/>
	<line class="st0" x1="3034" y1="-54.7" x2="3088" y2="-54.7"/>
	<line class="st0" x1="3052" y1="-47.6" x2="3052" y2="160.2"/>
	<line class="st0" x1="3061" y1="-47.6" x2="3061" y2="160.2"/>
	<line class="st0" x1="3070.1" y1="-47.6" x2="3070.1" y2="160.2"/>
	<line class="st0" x1="3079" y1="-20.5" x2="3079" y2="160.2"/>
	<line class="st0" x1="3088" y1="-20.5" x2="3088" y2="160.2"/>
	<polyline class="st0" points="3160.4,30.2 3160.4,-91.9 3169,-91.9 3169,159.8 	"/>
	<line class="st3" x1="3164.7" y1="-86" x2="3164.7" y2="156.8"/>
	<polyline class="st0" points="3096.9,-1.7 3160.2,-1.7 3160.2,160.2 	"/>
	<rect x="3150.8" y="-119" class="st0" width="27.2" height="27.1"/>
	<line class="st0" x1="3150.8" y1="-101.4" x2="3178" y2="-101.4"/>
	<line class="st0" x1="3150.8" y1="-110" x2="3178" y2="-110"/>
	<polyline class="st0" points="3155.7,-119 3155.7,-127.7 3155.7,-136.4 3173.3,-136.4 3173.3,-119 	"/>
	<line class="st0" x1="3155.7" y1="-127.7" x2="3173.3" y2="-127.7"/>
	<line class="st0" x1="3164.7" y1="-136.4" x2="3164.7" y2="-163.7"/>
	<polyline class="st0" points="3169,-20.5 3178,-20.5 3178,-28.1 3222.5,-28.1 3222.5,-20.5 3231,-20.5 3231,160.8 	"/>
	<line class="st5" x1="3178" y1="146.4" x2="3222.7" y2="146.4"/>
	<line class="st5" x1="3178" y1="139.4" x2="3222.7" y2="139.4"/>
	<line class="st5" x1="3178" y1="132.3" x2="3222.7" y2="132.3"/>
	<line class="st5" x1="3178" y1="125.3" x2="3222.7" y2="125.3"/>
	<line class="st5" x1="3178" y1="118.2" x2="3222.7" y2="118.2"/>
	<line class="st5" x1="3178" y1="111.2" x2="3222.7" y2="111.2"/>
	<line class="st5" x1="3178" y1="104.1" x2="3222.7" y2="104.1"/>
	<line class="st5" x1="3178" y1="90" x2="3222.7" y2="90"/>
	<line class="st5" x1="3178" y1="97.1" x2="3222.7" y2="97.1"/>
	<line class="st5" x1="3178" y1="68.8" x2="3222.7" y2="68.8"/>
	<line class="st5" x1="3178" y1="83" x2="3222.7" y2="83"/>
	<line class="st5" x1="3178" y1="75.9" x2="3222.7" y2="75.9"/>
	<line class="st5" x1="3178" y1="62" x2="3222.7" y2="62"/>
	<line class="st5" x1="3178" y1="47.9" x2="3222.7" y2="47.9"/>
	<line class="st5" x1="3178" y1="54.9" x2="3222.7" y2="54.9"/>
	<line class="st5" x1="3178" y1="26.7" x2="3222.7" y2="26.7"/>
	<line class="st5" x1="3178" y1="40.8" x2="3222.7" y2="40.8"/>
	<line class="st5" x1="3178" y1="33.8" x2="3222.7" y2="33.8"/>
	<line class="st5" x1="3178" y1="19.7" x2="3222.7" y2="19.7"/>
	<line class="st5" x1="3178" y1="5.6" x2="3222.7" y2="5.6"/>
	<line class="st5" x1="3178" y1="12.6" x2="3222.7" y2="12.6"/>
	<line class="st5" x1="3178" y1="-1.5" x2="3222.7" y2="-1.5"/>
	<line class="st5" x1="3178" y1="-8.5" x2="3222.7" y2="-8.5"/>
	<polyline class="st0" points="3230.7,61.8 3249.5,61.8 3249.5,44.2 3267.5,44.2 3267.5,24.7 3286,24.7 3286,160.6 3286,-64.2 
		3339.7,-64.2 3339.7,160.6 	"/>
	<line class="st0" x1="3249.5" y1="61.8" x2="3249.5" y2="159.8"/>
	<line class="st0" x1="3267.5" y1="44.2" x2="3267.5" y2="160.2"/>
	<line class="st3" x1="3277" y1="33.6" x2="3277" y2="153.1"/>
	<line class="st3" x1="3258.4" y1="52.9" x2="3258.4" y2="153"/>
	<line class="st3" x1="3240" y1="70.4" x2="3240" y2="153"/>
	<polyline class="st0" points="3294.6,-64.2 3294.6,-83.3 3313.1,-83.3 3313.1,-64.2 	"/>
	<line class="st0" x1="3303.8" y1="-83.3" x2="3303.8" y2="-110"/>
	<line class="st1" x1="3169" y1="160.2" x2="3169" y2="240.7"/>
	<circle class="st2" cx="3169" cy="253.2" r="12.5"/>
</g>
<g id="building-4">
	<polygon class="st4" points="2766.7,115.2 2766.7,160.8 2789.2,160.8 2789.2,126.5 	"/>
	<polygon class="st4" points="2726.5,104.5 2726.5,160.8 2744.7,160.8 2744.7,92.6 	"/>
	<polygon class="st4" points="2816.1,70.4 2816.1,160.8 2842.4,160.8 2842.4,97.2 	"/>
	<polygon class="st4" points="2896.8,79.3 2896.8,160.8 2941.5,160.8 2941.5,114.2 2951,114.2 2923.2,79.3 	"/>
	<line class="st5" x1="2753.2" y1="134.7" x2="2762" y2="134.7"/>
	<line class="st5" x1="2753.2" y1="146.7" x2="2762.1" y2="146.7"/>
	<line class="st5" x1="2753.2" y1="140.7" x2="2762" y2="140.7"/>
	<line class="st5" x1="2708" y1="134.7" x2="2716.9" y2="134.7"/>
	<line class="st5" x1="2708" y1="128.1" x2="2716.9" y2="128.1"/>
	<line class="st5" x1="2708.1" y1="146.7" x2="2717" y2="146.7"/>
	<line class="st5" x1="2708" y1="140.7" x2="2716.9" y2="140.7"/>
	<line class="st5" x1="2803.4" y1="153" x2="2812.3" y2="153"/>
	<line class="st5" x1="2803.4" y1="134.7" x2="2812.3" y2="134.7"/>
	<line class="st5" x1="2803.4" y1="128.1" x2="2812.3" y2="128.1"/>
	<line class="st5" x1="2803.5" y1="146.7" x2="2812.4" y2="146.7"/>
	<line class="st5" x1="2803.4" y1="140.7" x2="2812.3" y2="140.7"/>
	<line class="st5" x1="2821.3" y1="153" x2="2830.1" y2="153"/>
	<line class="st5" x1="2821.3" y1="134.7" x2="2830.1" y2="134.7"/>
	<line class="st5" x1="2821.3" y1="128.1" x2="2830.1" y2="128.1"/>
	<line class="st5" x1="2821.3" y1="146.7" x2="2830.2" y2="146.7"/>
	<line class="st5" x1="2821.3" y1="140.7" x2="2830.1" y2="140.7"/>
	<line class="st5" x1="2771.2" y1="134.7" x2="2780" y2="134.7"/>
	<line class="st5" x1="2771.2" y1="146.7" x2="2780.1" y2="146.7"/>
	<line class="st5" x1="2771.2" y1="140.7" x2="2780" y2="140.7"/>
	<line class="st5" x1="2879.2" y1="146.7" x2="2888.1" y2="146.7"/>
	<line class="st5" x1="2879.1" y1="140.7" x2="2888" y2="140.7"/>
	<line class="st5" x1="2906.3" y1="146.7" x2="2915.2" y2="146.7"/>
	<line class="st5" x1="2906.2" y1="140.7" x2="2915.1" y2="140.7"/>
	<polyline class="st0" points="2699.6,136 2699.6,160.8 2699.6,122.3 2744.4,92.6 2744.4,160.3 	"/>
	<line class="st0" x1="2681.1" y1="160.2" x2="2681.1" y2="146.1"/>
	<circle class="st0" cx="2681.1" cy="137.4" r="8.6"/>
	<polyline class="st0" points="2672.7,139.5 2677.6,135.4 2681.1,138.8 2685.1,135.4 2689.3,139.9 	"/>
	<line class="st0" x1="2699.6" y1="122.3" x2="2691.1" y2="128.1"/>
	<polyline class="st0" points="2744.4,104.5 2788.9,126.7 2788.9,160.8 2788.9,97.2 2842.8,97.2 2842.8,160.8 	"/>
	<line class="st0" x1="2785.9" y1="125.2" x2="2796.8" y2="130.8"/>
	<line class="st0" x1="2735" y1="98.8" x2="2735" y2="160.2"/>
	<line class="st0" x1="2726.5" y1="104.5" x2="2726.5" y2="160.8"/>
	<line class="st0" x1="2788.9" y1="126.7" x2="2744.4" y2="126.7"/>
	<polyline class="st0" points="2788.9,97.2 2815.8,70.4 2842.8,97.2 	"/>
	<line class="st0" x1="2788.9" y1="115.2" x2="2842.8" y2="115.2"/>
	<line class="st3" x1="2798.1" y1="101.1" x2="2798.1" y2="111.2"/>
	<line class="st3" x1="2807" y1="101.1" x2="2807" y2="111.2"/>
	<line class="st3" x1="2802.5" y1="101.1" x2="2802.5" y2="111.2"/>
	<line class="st3" x1="2811.6" y1="101.1" x2="2811.6" y2="111.2"/>
	<line class="st3" x1="2820.7" y1="101.1" x2="2820.7" y2="111.2"/>
	<line class="st3" x1="2816.2" y1="101.1" x2="2816.2" y2="111.2"/>
	<line class="st3" x1="2825.2" y1="101.1" x2="2825.2" y2="111.2"/>
	<line class="st3" x1="2830.1" y1="101.1" x2="2830.1" y2="111.2"/>
	<line class="st3" x1="2834.7" y1="101.1" x2="2834.7" y2="111.2"/>
	<line class="st3" x1="2878.6" y1="118" x2="2878.6" y2="128.1"/>
	<line class="st3" x1="2887.5" y1="118" x2="2887.5" y2="128.1"/>
	<line class="st3" x1="2883.1" y1="118" x2="2883.1" y2="128.1"/>
	<line class="st3" x1="2892.2" y1="118" x2="2892.2" y2="128.1"/>
	<line class="st3" x1="2901.3" y1="118" x2="2901.3" y2="128.1"/>
	<line class="st3" x1="2896.8" y1="118" x2="2896.8" y2="128.1"/>
	<line class="st3" x1="2905.8" y1="118" x2="2905.8" y2="128.1"/>
	<line class="st3" x1="2910.7" y1="118" x2="2910.7" y2="128.1"/>
	<line class="st3" x1="2915.2" y1="118" x2="2915.2" y2="128.1"/>
	<polyline class="st0" points="2860.7,114.2 2852,114.2 2852,160.2 	"/>
	<path class="st0" d="M2924.2,114.2"/>
	<polyline class="st0" points="2932.3,114.2 2941.5,114.2 2941.5,160.8 	"/>
	<polygon class="st0" points="2842.8,114.2 2951,114.2 2924,79.3 2869.8,79.3 	"/>
	<polygon class="st0" points="2896.9,79.3 2869.7,114.2 2924.2,114.2 	"/>
	<polyline class="st0" points="2869.7,160.8 2869.7,114.2 2924.2,114.2 2924.2,160.8 	"/>
	<line class="st0" x1="2869.7" y1="132.7" x2="2924.2" y2="132.7"/>
	<line class="st0" x1="2924.2" y1="124.2" x2="2941.5" y2="124.2"/>
	<line class="st0" x1="2869.7" y1="124.2" x2="2852" y2="124.2"/>
	<line class="st0" x1="2964.3" y1="160.2" x2="2964.3" y2="146.1"/>
	<polyline class="st0" points="2956.2,129.5 2960.9,125.1 2964.4,128.5 2968.4,125.1 2972.6,129.6 	"/>
	<path class="st0" d="M2972.6,129.6c1-1.6,1.6-3.4,1.6-5.4c0-5.4-4.4-9.8-9.8-9.8s-9.8,4.4-9.8,9.8c0,2,0.6,3.9,1.6,5.4
		c-3,1.3-5.1,4.4-5.1,7.9c0,4.8,3.9,8.6,8.6,8.6c1.7,0,3.4-0.5,4.7-1.4c1.4,0.9,3,1.4,4.7,1.4c4.8,0,8.6-3.9,8.6-8.6
		C2977.7,133.9,2975.6,130.9,2972.6,129.6z"/>
	<line class="st0" x1="2980.6" y1="160.2" x2="2980.6" y2="146.1"/>
	<polyline class="st0" points="2972.5,129.5 2977.2,125.1 2980.7,128.5 2984.7,125.1 2989,129.6 	"/>
	<path class="st0" d="M2972.6,145.4c1,0.4,2.2,0.7,3.4,0.7c1.7,0,3.4-0.5,4.7-1.4c1.4,0.9,3,1.4,4.7,1.4c4.8,0,8.6-3.9,8.6-8.6
		c0-3.5-2.1-6.5-5.1-7.9c1-1.6,1.6-3.4,1.6-5.4c0-5.4-4.4-9.8-9.8-9.8c-3.4,0-6.4,1.7-8.1,4.3"/>
	<line class="st5" x1="2753.2" y1="153" x2="2762" y2="153"/>
	<line class="st5" x1="2708" y1="153" x2="2716.9" y2="153"/>
	<line class="st5" x1="2771.2" y1="153" x2="2780" y2="153"/>
	<line class="st5" x1="2879.1" y1="153" x2="2888" y2="153"/>
	<line class="st5" x1="2906.2" y1="153" x2="2915.1" y2="153"/>
	<line class="st1" x1="2842.4" y1="160.2" x2="2842.4" y2="240.7"/>
	<circle class="st2" cx="2842.4" cy="253.2" r="12.5"/>
</g>
<g id="building-3">
	<path class="st4" d="M2494.1,160.8c0,0,24.1-27.3,57-27.3c15.8,0,30.9,10.4,30.9,10.4s-10.3,2.1-23.9,16.9
		C2537.3,160.8,2494.1,160.8,2494.1,160.8z"/>
	<polygon class="st4" points="2392.1,106.2 2392.1,160.8 2410,160.8 2410,124.2 	"/>
	<polygon class="st4" points="2432.4,97.2 2432.4,160.8 2454.9,160.8 2454.9,115.2 	"/>
	<line class="st5" x1="2418.9" y1="153" x2="2427.8" y2="153"/>
	<line class="st5" x1="2383.5" y1="153" x2="2400.8" y2="153"/>
	<line class="st5" x1="2383.5" y1="146.7" x2="2400.8" y2="146.7"/>
	<line class="st5" x1="2383.5" y1="140.7" x2="2400.8" y2="140.7"/>
	<line class="st5" x1="2418.8" y1="147" x2="2427.7" y2="147"/>
	<line class="st5" x1="2437.1" y1="153" x2="2446" y2="153"/>
	<line class="st5" x1="2437" y1="147" x2="2445.9" y2="147"/>
	<line class="st5" x1="2418.8" y1="140.9" x2="2427.7" y2="140.9"/>
	<line class="st5" x1="2437" y1="140.9" x2="2445.9" y2="140.9"/>
	<polyline class="st0" points="2374.2,140.7 2276.1,140.7 2276.1,153 2374.2,153 	"/>
	<line class="st0" x1="2325.1" y1="160.8" x2="2325.1" y2="140.9"/>
	<line class="st0" x1="2350" y1="160.8" x2="2350" y2="140.9"/>
	<polyline class="st0" points="2374.2,140.9 2374.2,160.8 2374.2,124.2 2410,124.2 2410,160.4 	"/>
	<line class="st0" x1="2300.7" y1="160.8" x2="2300.7" y2="140.9"/>
	<line class="st0" x1="2276.1" y1="160.8" x2="2276.1" y2="140.9"/>
	<line class="st3" x1="2279.7" y1="140.7" x2="2279.7" y2="153"/>
	<line class="st3" x1="2282.7" y1="140.7" x2="2282.7" y2="153"/>
	<line class="st3" x1="2285.6" y1="140.7" x2="2285.6" y2="153"/>
	<line class="st3" x1="2288.6" y1="140.7" x2="2288.6" y2="153"/>
	<line class="st3" x1="2291.5" y1="140.7" x2="2291.5" y2="153"/>
	<line class="st3" x1="2294.5" y1="140.7" x2="2294.5" y2="153"/>
	<line class="st3" x1="2297.5" y1="140.7" x2="2297.5" y2="153"/>
	<line class="st3" x1="2304" y1="140.7" x2="2304" y2="153"/>
	<line class="st3" x1="2307" y1="140.7" x2="2307" y2="153"/>
	<line class="st3" x1="2310" y1="140.7" x2="2310" y2="153"/>
	<line class="st3" x1="2312.9" y1="140.7" x2="2312.9" y2="153"/>
	<line class="st3" x1="2315.9" y1="140.7" x2="2315.9" y2="153"/>
	<line class="st3" x1="2318.8" y1="140.7" x2="2318.8" y2="153"/>
	<line class="st3" x1="2321.8" y1="140.7" x2="2321.8" y2="153"/>
	<line class="st3" x1="2328.5" y1="140.7" x2="2328.5" y2="153"/>
	<line class="st3" x1="2331.5" y1="140.7" x2="2331.5" y2="153"/>
	<line class="st3" x1="2334.5" y1="140.7" x2="2334.5" y2="153"/>
	<line class="st3" x1="2337.4" y1="140.7" x2="2337.4" y2="153"/>
	<line class="st3" x1="2340.4" y1="140.7" x2="2340.4" y2="153"/>
	<line class="st3" x1="2343.3" y1="140.7" x2="2343.3" y2="153"/>
	<line class="st3" x1="2346.3" y1="140.7" x2="2346.3" y2="153"/>
	<line class="st3" x1="2353.6" y1="140.7" x2="2353.6" y2="153"/>
	<line class="st3" x1="2356.6" y1="140.7" x2="2356.6" y2="153"/>
	<line class="st3" x1="2359.5" y1="140.7" x2="2359.5" y2="153"/>
	<line class="st3" x1="2362.5" y1="140.7" x2="2362.5" y2="153"/>
	<line class="st3" x1="2365.4" y1="140.7" x2="2365.4" y2="153"/>
	<line class="st3" x1="2368.4" y1="140.7" x2="2368.4" y2="153"/>
	<line class="st3" x1="2371.3" y1="140.7" x2="2371.3" y2="153"/>
	<polyline class="st0" points="2481.4,140.7 2579.5,140.7 2579.5,153 2481.4,153 	"/>
	<line class="st0" x1="2530.5" y1="160.8" x2="2530.5" y2="140.9"/>
	<line class="st0" x1="2505.6" y1="160.8" x2="2505.6" y2="140.9"/>
	<path class="st0" d="M2480.1,140.9v19.9c0,0,31.5-27.3,65.5-27.3c14.4,0,27.1,4.4,37.6,10"/>
	<path class="st0" d="M2558.1,140.9v19.9c0,0,12.1-18.6,40.1-18.6s40.1,18.6,40.1,18.6"/>
	<path class="st4" d="M2638.2,160.8c0,0-12.1-18.6-40.1-18.6c0,0-17.8,1-28.2,18.6H2638.2z"/>
	<line class="st0" x1="2554.9" y1="160.8" x2="2554.9" y2="140.9"/>
	<line class="st0" x1="2579.5" y1="160.8" x2="2579.5" y2="140.9"/>
	<line class="st3" x1="2575.9" y1="140.7" x2="2575.9" y2="153"/>
	<line class="st3" x1="2572.9" y1="140.7" x2="2572.9" y2="153"/>
	<line class="st3" x1="2570" y1="140.7" x2="2570" y2="153"/>
	<line class="st3" x1="2567" y1="140.7" x2="2567" y2="153"/>
	<line class="st3" x1="2564" y1="140.7" x2="2564" y2="153"/>
	<line class="st3" x1="2561.1" y1="140.7" x2="2561.1" y2="153"/>
	<line class="st3" x1="2558.1" y1="140.7" x2="2558.1" y2="153"/>
	<line class="st3" x1="2551.5" y1="140.7" x2="2551.5" y2="153"/>
	<line class="st3" x1="2548.6" y1="140.7" x2="2548.6" y2="153"/>
	<line class="st3" x1="2545.6" y1="140.7" x2="2545.6" y2="153"/>
	<line class="st3" x1="2542.7" y1="140.7" x2="2542.7" y2="153"/>
	<line class="st3" x1="2539.7" y1="140.7" x2="2539.7" y2="153"/>
	<line class="st3" x1="2536.8" y1="140.7" x2="2536.8" y2="153"/>
	<line class="st3" x1="2533.8" y1="140.7" x2="2533.8" y2="153"/>
	<line class="st3" x1="2527" y1="140.7" x2="2527" y2="153"/>
	<line class="st3" x1="2524.1" y1="140.7" x2="2524.1" y2="153"/>
	<line class="st3" x1="2521.1" y1="140.7" x2="2521.1" y2="153"/>
	<line class="st3" x1="2518.2" y1="140.7" x2="2518.2" y2="153"/>
	<line class="st3" x1="2515.2" y1="140.7" x2="2515.2" y2="153"/>
	<line class="st3" x1="2512.3" y1="140.7" x2="2512.3" y2="153"/>
	<line class="st3" x1="2509.3" y1="140.7" x2="2509.3" y2="153"/>
	<line class="st3" x1="2502" y1="140.7" x2="2502" y2="153"/>
	<line class="st3" x1="2499" y1="140.7" x2="2499" y2="153"/>
	<line class="st3" x1="2496.1" y1="140.7" x2="2496.1" y2="153"/>
	<line class="st3" x1="2493.1" y1="140.7" x2="2493.1" y2="153"/>
	<line class="st3" x1="2490.2" y1="140.7" x2="2490.2" y2="153"/>
	<line class="st3" x1="2487.2" y1="140.7" x2="2487.2" y2="153"/>
	<line class="st3" x1="2484.2" y1="140.7" x2="2484.2" y2="153"/>
	<polyline class="st0" points="2374.2,124.2 2392.1,106.2 2410,124.2 	"/>
	<polyline class="st0" points="2410,136 2410,160.8 2410,115.2 2454.8,115.2 2454.8,160.3 	"/>
	<polyline class="st0" points="2410,115.2 2432.4,97.2 2454.8,115.2 	"/>
	<line class="st0" x1="2410" y1="133.6" x2="2454.8" y2="133.6"/>
	<line class="st0" x1="2374.2" y1="133.6" x2="2410" y2="133.6"/>
	<line class="st3" x1="2418.8" y1="119" x2="2418.8" y2="129.2"/>
	<line class="st3" x1="2427.7" y1="119" x2="2427.7" y2="129.2"/>
	<line class="st3" x1="2423.3" y1="119" x2="2423.3" y2="129.2"/>
	<line class="st3" x1="2432.4" y1="119" x2="2432.4" y2="129.2"/>
	<line class="st3" x1="2441.4" y1="119" x2="2441.4" y2="129.2"/>
	<line class="st3" x1="2437" y1="119" x2="2437" y2="129.2"/>
	<line class="st3" x1="2446" y1="119" x2="2446" y2="129.2"/>
	<line class="st0" x1="2379.4" y1="119" x2="2379.4" y2="110.8"/>
	<line class="st0" x1="2417" y1="108.8" x2="2417" y2="96"/>
	<line class="st0" x1="2472.1" y1="160.2" x2="2472.1" y2="146.1"/>
	<circle class="st0" cx="2472.1" cy="137.4" r="8.6"/>
	<polyline class="st0" points="2463.7,139.5 2468.6,135.4 2472.1,138.8 2476.1,135.4 2480.3,139.9 	"/>
	<line class="st1" x1="2410" y1="160.2" x2="2410" y2="240.7"/>
	<circle class="st2" cx="2410" cy="253.2" r="12.5"/>
</g>
<g id="building-2">
	<path class="st3" d="M2078.9,26.6c0,0-14.4,21.8-45.1,7.5"/>
	<path class="st3" d="M2078.9,26.6c0,0-20.1,16.5-45.1,0.7"/>
	<g class="st6">
		<polygon class="st7" points="2033.8,15.6 2042.9,15.6 2042.9,20.6 2038.5,20.6 2038.5,25.6 2033.8,25.6 2033.8,160.8 
			2011.3,160.8 2011.3,15.6 		"/>
	</g>
	<polyline class="st0" points="2033.8,160.4 2033.8,25.6 1989,25.6 1989,160.4 	"/>
	<polyline class="st0" points="2033.8,25.6 2038.5,25.6 2038.5,20.6 1984.2,20.6 1984.2,25.6 1988.9,25.6 	"/>
	<polyline class="st0" points="1984.2,20.6 1979.9,20.6 1979.9,15.6 2042.9,15.6 2042.9,20.6 2038.4,20.6 	"/>
	<polyline class="st0" points="1988.9,15.6 1988.9,7.6 1998,7.6 1998,15.6 	"/>
	<polyline class="st0" points="1999,10.5 2006.8,10.5 2006.8,15.6 	"/>
	<rect x="1989" y="88.4" class="st0" width="44.9" height="9.3"/>
	<line class="st8" x1="1992.6" y1="93" x2="2030.2" y2="93"/>
	<rect x="1989" y="124.4" class="st0" width="44.9" height="9.3"/>
	<line class="st8" x1="1992.6" y1="129" x2="2030.2" y2="129"/>
	<rect x="1989" y="52.3" class="st0" width="44.9" height="9.3"/>
	<line class="st8" x1="1992.6" y1="56.9" x2="2030.2" y2="56.9"/>
	<line class="st5" x1="1998" y1="33.1" x2="2006.8" y2="33.1"/>
	<line class="st5" x1="1998.1" y1="45.1" x2="2006.9" y2="45.1"/>
	<line class="st5" x1="1998" y1="39.1" x2="2006.8" y2="39.1"/>
	<line class="st5" x1="2016.1" y1="33.1" x2="2025" y2="33.1"/>
	<line class="st5" x1="2016.2" y1="45.1" x2="2025.1" y2="45.1"/>
	<line class="st5" x1="2016.1" y1="39.1" x2="2025" y2="39.1"/>
	<line class="st5" x1="1998" y1="140.9" x2="2006.8" y2="140.9"/>
	<line class="st5" x1="1998.1" y1="153" x2="2006.9" y2="153"/>
	<line class="st5" x1="1998" y1="147" x2="2006.8" y2="147"/>
	<line class="st5" x1="2016.1" y1="140.9" x2="2025" y2="140.9"/>
	<line class="st5" x1="2016.2" y1="153" x2="2025.1" y2="153"/>
	<line class="st5" x1="2016.1" y1="147" x2="2025" y2="147"/>
	<line class="st5" x1="1998" y1="69" x2="2006.8" y2="69"/>
	<line class="st5" x1="1998.1" y1="81" x2="2006.9" y2="81"/>
	<line class="st5" x1="2016.1" y1="69" x2="2025" y2="69"/>
	<line class="st5" x1="2016.2" y1="81" x2="2025.1" y2="81"/>
	<line class="st5" x1="1998.1" y1="75" x2="2025" y2="75"/>
	<line class="st5" x1="1998" y1="105" x2="2006.8" y2="105"/>
	<line class="st5" x1="1998.1" y1="117" x2="2006.9" y2="117"/>
	<line class="st5" x1="2016.1" y1="105" x2="2025" y2="105"/>
	<line class="st5" x1="2016.2" y1="117" x2="2025.1" y2="117"/>
	<line class="st5" x1="1998.1" y1="111" x2="2025" y2="111"/>
	<g class="st6">
		<rect x="2101.3" y="125.9" class="st7" width="22.5" height="34.5"/>
	</g>
	<g class="st6">
		<rect x="2101.3" y="70.6" class="st7" width="22.5" height="41.7"/>
	</g>
	<g class="st6">
		<polygon class="st7" points="2232.3,52.4 2232.3,160.1 2178.1,160.1 2178.1,43.1 2223,43.1 2223,52.4 		"/>
	</g>
	<g class="st6">
		<polygon class="st7" points="2123.8,11.6 2123.8,20.6 2128.4,20.6 2128.4,25.6 2123.8,25.6 2123.8,57.4 2101.3,57.4 2101.3,11.6 
					"/>
	</g>
	<polyline class="st0" points="2123.8,160.4 2123.8,25.6 2078.9,25.6 2078.9,160.4 	"/>
	<polyline class="st0" points="2123.8,25.6 2128.4,25.6 2128.4,20.6 2074.1,20.6 2074.1,25.6 2078.9,25.6 	"/>
	<rect x="2078.9" y="52.3" class="st0" width="44.9" height="4.8"/>
	<line class="st5" x1="2087.9" y1="33.1" x2="2096.8" y2="33.1"/>
	<line class="st5" x1="2088" y1="45.1" x2="2096.9" y2="45.1"/>
	<line class="st5" x1="2087.9" y1="39.1" x2="2096.8" y2="39.1"/>
	<line class="st5" x1="2151.1" y1="59.7" x2="2160" y2="59.7"/>
	<line class="st5" x1="2151.2" y1="71.7" x2="2160.1" y2="71.7"/>
	<line class="st5" x1="2151.1" y1="65.7" x2="2160" y2="65.7"/>
	<line class="st5" x1="2151.1" y1="77.8" x2="2160" y2="77.8"/>
	<line class="st5" x1="2151.2" y1="89.8" x2="2160.1" y2="89.8"/>
	<line class="st5" x1="2151.1" y1="83.8" x2="2160" y2="83.8"/>
	<line class="st5" x1="2151.1" y1="95.8" x2="2160" y2="95.8"/>
	<line class="st5" x1="2151.2" y1="107.8" x2="2160.1" y2="107.8"/>
	<line class="st5" x1="2151.1" y1="101.8" x2="2160" y2="101.8"/>
	<line class="st5" x1="2151.1" y1="113.8" x2="2160" y2="113.8"/>
	<line class="st5" x1="2151.2" y1="125.8" x2="2160.1" y2="125.8"/>
	<line class="st5" x1="2151.1" y1="119.8" x2="2160" y2="119.8"/>
	<line class="st5" x1="2151.2" y1="137.9" x2="2160.1" y2="137.9"/>
	<line class="st5" x1="2151.1" y1="131.9" x2="2160" y2="131.9"/>
	<line class="st5" x1="2151.1" y1="143.9" x2="2160" y2="143.9"/>
	<line class="st5" x1="2151.1" y1="149.9" x2="2160" y2="149.9"/>
	<line class="st5" x1="2196" y1="59.7" x2="2204.9" y2="59.7"/>
	<line class="st5" x1="2196.1" y1="71.7" x2="2205" y2="71.7"/>
	<line class="st5" x1="2196" y1="65.7" x2="2204.9" y2="65.7"/>
	<line class="st5" x1="2196" y1="77.8" x2="2204.9" y2="77.8"/>
	<line class="st5" x1="2196.1" y1="89.8" x2="2205" y2="89.8"/>
	<line class="st5" x1="2196" y1="83.8" x2="2204.9" y2="83.8"/>
	<line class="st5" x1="2196" y1="95.8" x2="2204.9" y2="95.8"/>
	<line class="st5" x1="2196.1" y1="107.8" x2="2205" y2="107.8"/>
	<line class="st5" x1="2196" y1="101.8" x2="2204.9" y2="101.8"/>
	<line class="st5" x1="2196" y1="113.8" x2="2204.9" y2="113.8"/>
	<line class="st5" x1="2196.1" y1="125.8" x2="2205" y2="125.8"/>
	<line class="st5" x1="2196" y1="119.8" x2="2204.9" y2="119.8"/>
	<line class="st5" x1="2196.1" y1="137.9" x2="2205" y2="137.9"/>
	<line class="st5" x1="2196" y1="131.9" x2="2204.9" y2="131.9"/>
	<line class="st5" x1="2196" y1="143.9" x2="2204.9" y2="143.9"/>
	<line class="st5" x1="2196" y1="149.9" x2="2204.9" y2="149.9"/>
	<line class="st5" x1="2173.6" y1="137.9" x2="2182.5" y2="137.9"/>
	<line class="st5" x1="2173.5" y1="131.9" x2="2182.4" y2="131.9"/>
	<line class="st5" x1="2173.5" y1="143.9" x2="2182.4" y2="143.9"/>
	<line class="st5" x1="2173.5" y1="149.9" x2="2182.4" y2="149.9"/>
	<line class="st5" x1="2106.1" y1="33.1" x2="2115" y2="33.1"/>
	<line class="st5" x1="2106.2" y1="45.1" x2="2115.1" y2="45.1"/>
	<line class="st5" x1="2106.1" y1="39.1" x2="2115" y2="39.1"/>
	<g class="st6">
		<rect x="2056.3" y="79.2" class="st7" width="22.5" height="81.2"/>
	</g>
	<line class="st5" x1="2043" y1="140.9" x2="2051.9" y2="140.9"/>
	<line class="st5" x1="2043.1" y1="153" x2="2052" y2="153"/>
	<line class="st5" x1="2043" y1="147" x2="2051.9" y2="147"/>
	<line class="st5" x1="2043" y1="122.8" x2="2051.9" y2="122.8"/>
	<line class="st5" x1="2043.1" y1="134.8" x2="2052" y2="134.8"/>
	<line class="st5" x1="2043" y1="128.8" x2="2051.9" y2="128.8"/>
	<line class="st5" x1="2043" y1="104.5" x2="2051.9" y2="104.5"/>
	<line class="st5" x1="2043.1" y1="116.6" x2="2052" y2="116.6"/>
	<line class="st5" x1="2043" y1="110.6" x2="2051.9" y2="110.6"/>
	<line class="st5" x1="2043" y1="98.6" x2="2051.9" y2="98.6"/>
	<line class="st5" x1="2061" y1="140.9" x2="2069.9" y2="140.9"/>
	<line class="st5" x1="2061.1" y1="153" x2="2070" y2="153"/>
	<line class="st5" x1="2061" y1="147" x2="2069.9" y2="147"/>
	<line class="st5" x1="2061" y1="122.8" x2="2069.9" y2="122.8"/>
	<line class="st5" x1="2061.1" y1="134.8" x2="2070" y2="134.8"/>
	<line class="st5" x1="2061" y1="128.8" x2="2069.9" y2="128.8"/>
	<line class="st5" x1="2061" y1="104.5" x2="2069.9" y2="104.5"/>
	<line class="st5" x1="2061.1" y1="116.6" x2="2070" y2="116.6"/>
	<line class="st5" x1="2061" y1="110.6" x2="2069.9" y2="110.6"/>
	<line class="st5" x1="2061" y1="98.6" x2="2069.9" y2="98.6"/>
	<line class="st5" x1="2088" y1="153" x2="2096.9" y2="153"/>
	<line class="st5" x1="2088" y1="134.7" x2="2096.9" y2="134.7"/>
	<line class="st5" x1="2088.1" y1="146.7" x2="2097" y2="146.7"/>
	<line class="st5" x1="2088" y1="140.7" x2="2096.9" y2="140.7"/>
	<line class="st5" x1="2106" y1="153" x2="2114.9" y2="153"/>
	<line class="st5" x1="2106" y1="134.7" x2="2114.9" y2="134.7"/>
	<line class="st5" x1="2106.1" y1="146.7" x2="2115" y2="146.7"/>
	<line class="st5" x1="2106" y1="140.7" x2="2114.9" y2="140.7"/>
	<polyline class="st0" points="2033.8,88.4 2078.8,88.4 2078.8,160.8 	"/>
	<polyline class="st0" points="2078.8,88.4 2078.8,79 2033.8,79 	"/>
	<line class="st0" x1="2033.8" y1="83.7" x2="2078.8" y2="83.7"/>
	<polyline class="st0" points="2078.8,19.5 2078.8,11.6 2123.8,11.6 2123.8,20 	"/>
	<polyline class="st0" points="2083.4,11.6 2083.4,2.8 2092.4,2.8 2092.4,11.6 	"/>
	<line class="st0" x1="2078.9" y1="70.6" x2="2123.8" y2="70.6"/>
	<line class="st9" x1="2083.4" y1="56.9" x2="2083.4" y2="70.6"/>
	<line class="st9" x1="2087.9" y1="56.9" x2="2087.9" y2="70.6"/>
	<line class="st9" x1="2092.3" y1="56.9" x2="2092.3" y2="70.6"/>
	<line class="st9" x1="2096.8" y1="56.9" x2="2096.8" y2="70.6"/>
	<line class="st9" x1="2105.8" y1="56.9" x2="2105.8" y2="70.6"/>
	<line class="st9" x1="2101.3" y1="56.9" x2="2101.3" y2="70.6"/>
	<line class="st9" x1="2110.3" y1="56.9" x2="2110.3" y2="70.6"/>
	<line class="st9" x1="2114.8" y1="56.9" x2="2114.8" y2="70.6"/>
	<line class="st9" x1="2119.3" y1="56.9" x2="2119.3" y2="70.6"/>
	<rect x="2078.9" y="107.4" class="st0" width="44.9" height="4.8"/>
	<line class="st0" x1="2078.9" y1="125.7" x2="2123.8" y2="125.7"/>
	<line class="st9" x1="2083.4" y1="112.2" x2="2083.4" y2="125.9"/>
	<line class="st9" x1="2087.9" y1="112.1" x2="2087.9" y2="125.7"/>
	<line class="st9" x1="2092.3" y1="112.1" x2="2092.3" y2="125.7"/>
	<line class="st9" x1="2096.8" y1="112.1" x2="2096.8" y2="125.7"/>
	<line class="st9" x1="2105.8" y1="112.1" x2="2105.8" y2="125.7"/>
	<line class="st9" x1="2101.3" y1="112.1" x2="2101.3" y2="125.7"/>
	<line class="st9" x1="2110.3" y1="112.1" x2="2110.3" y2="125.7"/>
	<line class="st9" x1="2114.8" y1="112.1" x2="2114.8" y2="125.7"/>
	<line class="st9" x1="2119.3" y1="112.2" x2="2119.3" y2="125.9"/>
	<line class="st5" x1="2087.9" y1="83.6" x2="2096.8" y2="83.6"/>
	<line class="st5" x1="2088" y1="95.7" x2="2096.9" y2="95.7"/>
	<line class="st5" x1="2087.9" y1="89.6" x2="2096.8" y2="89.6"/>
	<line class="st5" x1="2087.9" y1="77.7" x2="2096.8" y2="77.7"/>
	<line class="st5" x1="2105.9" y1="83.6" x2="2114.8" y2="83.6"/>
	<line class="st5" x1="2106" y1="95.7" x2="2114.9" y2="95.7"/>
	<line class="st5" x1="2105.9" y1="89.6" x2="2114.8" y2="89.6"/>
	<line class="st5" x1="2105.9" y1="77.7" x2="2114.8" y2="77.7"/>
	<line class="st0" x1="2078.8" y1="101.8" x2="2123.8" y2="101.8"/>
	<polyline class="st10" points="2124,52.1 2232,52.1 2231.8,160.8 	"/>
	<line class="st0" x1="2142" y1="52.2" x2="2142" y2="160.2"/>
	<line class="st0" x1="2214" y1="52.2" x2="2214" y2="160.2"/>
	<line class="st0" x1="2187" y1="52.2" x2="2187" y2="160.2"/>
	<line class="st0" x1="2169" y1="52.2" x2="2169" y2="160.2"/>
	<line class="st3" x1="2127.6" y1="144.6" x2="2127.6" y2="157"/>
	<line class="st3" x1="2132.9" y1="144.6" x2="2132.9" y2="157"/>
	<line class="st3" x1="2138.2" y1="144.6" x2="2138.2" y2="157"/>
	<line class="st3" x1="2135.5" y1="144.6" x2="2135.5" y2="157"/>
	<line class="st3" x1="2130.3" y1="144.6" x2="2130.3" y2="157"/>
	<line class="st3" x1="2127.6" y1="109" x2="2127.6" y2="121.4"/>
	<line class="st3" x1="2132.9" y1="109" x2="2132.9" y2="121.4"/>
	<line class="st3" x1="2138.2" y1="109" x2="2138.2" y2="121.4"/>
	<line class="st3" x1="2135.5" y1="109" x2="2135.5" y2="121.4"/>
	<line class="st3" x1="2130.3" y1="109" x2="2130.3" y2="121.4"/>
	<line class="st3" x1="2127.6" y1="73.2" x2="2127.6" y2="85.5"/>
	<line class="st3" x1="2132.9" y1="73.2" x2="2132.9" y2="85.5"/>
	<line class="st3" x1="2138.2" y1="73.2" x2="2138.2" y2="85.5"/>
	<line class="st3" x1="2135.5" y1="73.2" x2="2135.5" y2="85.5"/>
	<line class="st3" x1="2130.3" y1="73.2" x2="2130.3" y2="85.5"/>
	<line class="st3" x1="2138.2" y1="126.6" x2="2127.6" y2="126.6"/>
	<line class="st3" x1="2138.2" y1="131.8" x2="2127.6" y2="131.8"/>
	<line class="st3" x1="2138.2" y1="136.9" x2="2127.6" y2="136.9"/>
	<line class="st3" x1="2138.2" y1="139.5" x2="2127.6" y2="139.5"/>
	<line class="st3" x1="2138.2" y1="134.4" x2="2127.6" y2="134.4"/>
	<line class="st3" x1="2138.2" y1="129.2" x2="2127.6" y2="129.2"/>
	<line class="st3" x1="2138.2" y1="90.8" x2="2127.6" y2="90.8"/>
	<line class="st3" x1="2138.2" y1="96" x2="2127.6" y2="96"/>
	<line class="st3" x1="2138.2" y1="101.2" x2="2127.6" y2="101.2"/>
	<line class="st3" x1="2138.2" y1="103.8" x2="2127.6" y2="103.8"/>
	<line class="st3" x1="2138.2" y1="98.6" x2="2127.6" y2="98.6"/>
	<line class="st3" x1="2138.2" y1="93.4" x2="2127.6" y2="93.4"/>
	<line class="st3" x1="2138.2" y1="55.1" x2="2127.6" y2="55.1"/>
	<line class="st3" x1="2138.2" y1="60.3" x2="2127.6" y2="60.3"/>
	<line class="st3" x1="2138.2" y1="65.5" x2="2127.6" y2="65.5"/>
	<line class="st3" x1="2138.2" y1="68" x2="2127.6" y2="68"/>
	<line class="st3" x1="2138.2" y1="62.9" x2="2127.6" y2="62.9"/>
	<line class="st3" x1="2138.2" y1="57.7" x2="2127.6" y2="57.7"/>
	<line class="st3" x1="2123.8" y1="142.2" x2="2142" y2="142.2"/>
	<line class="st3" x1="2123.8" y1="124.2" x2="2142" y2="124.2"/>
	<line class="st3" x1="2123.8" y1="106.2" x2="2142" y2="106.2"/>
	<line class="st3" x1="2123.8" y1="88.4" x2="2142" y2="88.4"/>
	<line class="st3" x1="2123.8" y1="70.3" x2="2142" y2="70.3"/>
	<line class="st3" x1="2172.7" y1="109" x2="2172.7" y2="121.4"/>
	<line class="st3" x1="2178" y1="109" x2="2178" y2="121.4"/>
	<line class="st3" x1="2183.3" y1="109" x2="2183.3" y2="121.4"/>
	<line class="st3" x1="2180.6" y1="109" x2="2180.6" y2="121.4"/>
	<line class="st3" x1="2175.4" y1="109" x2="2175.4" y2="121.4"/>
	<line class="st3" x1="2172.7" y1="73.2" x2="2172.7" y2="85.5"/>
	<line class="st3" x1="2178" y1="73.2" x2="2178" y2="85.5"/>
	<line class="st3" x1="2183.3" y1="73.2" x2="2183.3" y2="85.5"/>
	<line class="st3" x1="2180.6" y1="73.2" x2="2180.6" y2="85.5"/>
	<line class="st3" x1="2175.4" y1="73.2" x2="2175.4" y2="85.5"/>
	<line class="st3" x1="2168.9" y1="124.2" x2="2187.1" y2="124.2"/>
	<line class="st3" x1="2168.9" y1="106.2" x2="2187.1" y2="106.2"/>
	<line class="st3" x1="2168.9" y1="88.4" x2="2187.1" y2="88.4"/>
	<line class="st3" x1="2168.9" y1="70.3" x2="2187.1" y2="70.3"/>
	<line class="st0" x1="2169" y1="93.4" x2="2187" y2="93.4"/>
	<line class="st0" x1="2169" y1="65.6" x2="2187" y2="65.6"/>
	<polyline class="st0" points="2132.9,51.6 2132.9,43.1 2223,43.1 2223,52.2 	"/>
	<polyline class="st0" points="1988.4,140.7 1890.3,140.7 1890.3,153 1988.4,153 	"/>
	<line class="st0" x1="1939.3" y1="160.8" x2="1939.3" y2="140.9"/>
	<line class="st0" x1="1964.2" y1="160.8" x2="1964.2" y2="140.9"/>
	<line class="st0" x1="1914.9" y1="160.8" x2="1914.9" y2="140.9"/>
	<line class="st0" x1="1890.3" y1="160.8" x2="1890.3" y2="140.9"/>
	<line class="st3" x1="1893.9" y1="140.7" x2="1893.9" y2="153"/>
	<line class="st3" x1="1896.9" y1="140.7" x2="1896.9" y2="153"/>
	<line class="st3" x1="1899.8" y1="140.7" x2="1899.8" y2="153"/>
	<line class="st3" x1="1902.8" y1="140.7" x2="1902.8" y2="153"/>
	<line class="st3" x1="1905.8" y1="140.7" x2="1905.8" y2="153"/>
	<line class="st3" x1="1908.7" y1="140.7" x2="1908.7" y2="153"/>
	<line class="st3" x1="1911.7" y1="140.7" x2="1911.7" y2="153"/>
	<line class="st3" x1="1918.3" y1="140.7" x2="1918.3" y2="153"/>
	<line class="st3" x1="1921.2" y1="140.7" x2="1921.2" y2="153"/>
	<line class="st3" x1="1924.2" y1="140.7" x2="1924.2" y2="153"/>
	<line class="st3" x1="1927.1" y1="140.7" x2="1927.1" y2="153"/>
	<line class="st3" x1="1930.1" y1="140.7" x2="1930.1" y2="153"/>
	<line class="st3" x1="1933" y1="140.7" x2="1933" y2="153"/>
	<line class="st3" x1="1936" y1="140.7" x2="1936" y2="153"/>
	<line class="st3" x1="1942.8" y1="140.7" x2="1942.8" y2="153"/>
	<line class="st3" x1="1945.7" y1="140.7" x2="1945.7" y2="153"/>
	<line class="st3" x1="1948.7" y1="140.7" x2="1948.7" y2="153"/>
	<line class="st3" x1="1951.6" y1="140.7" x2="1951.6" y2="153"/>
	<line class="st3" x1="1954.6" y1="140.7" x2="1954.6" y2="153"/>
	<line class="st3" x1="1957.5" y1="140.7" x2="1957.5" y2="153"/>
	<line class="st3" x1="1960.5" y1="140.7" x2="1960.5" y2="153"/>
	<line class="st3" x1="1967.8" y1="140.7" x2="1967.8" y2="153"/>
	<line class="st3" x1="1970.8" y1="140.7" x2="1970.8" y2="153"/>
	<line class="st3" x1="1973.7" y1="140.7" x2="1973.7" y2="153"/>
	<line class="st3" x1="1976.7" y1="140.7" x2="1976.7" y2="153"/>
	<line class="st3" x1="1979.6" y1="140.7" x2="1979.6" y2="153"/>
	<line class="st3" x1="1982.6" y1="140.7" x2="1982.6" y2="153"/>
	<line class="st3" x1="1985.6" y1="140.7" x2="1985.6" y2="153"/>
	<line class="st0" x1="1871.7" y1="160.2" x2="1871.7" y2="142.5"/>
	<circle class="st0" cx="1871.7" cy="131.8" r="10.8"/>
	<polyline class="st0" points="1861.2,134.4 1867.3,129.2 1871.7,133.5 1876.7,129.2 1882,134.8 	"/>
	<line class="st1" x1="2078.8" y1="160.2" x2="2078.8" y2="240.7"/>
	<circle class="st2" cx="2078.8" cy="253.2" r="12.5"/>
</g>

</svg>
