<svg class="header-logo" width="311px" height="85px" viewBox="0 0 311 85" version="1.1" xmlns="http://www.w3.org/2000/svg" xmlns:xlink="http://www.w3.org/1999/xlink">
<style>
    
</style>
    <defs>
        <polygon id="path-1" points="5.71335553e-21 57.179253 127.424035 57.179253 127.424035 0.263354788 0 0.263354788"></polygon>
    </defs>
    <polygon id="Rectangle-114-Copy" stroke="none" fill="#FFFFFF" fill-rule="evenodd" points="0 0 311 0 300 85 0 85"></polygon>
    <g id="AREA-Logo" stroke="none" stroke-width="1" fill="none" fill-rule="evenodd" transform="translate(130.000000, 13.000000)">
        <path d="M62.9741493,49.7957019 L64.0858199,49.7957019 L62.5850646,45.3798993 L61.4486903,45.3798993 L59.947935,49.7957019 L61.0596056,49.7957019 L61.3251713,48.8693098 L62.7024076,48.8693098 L62.9741493,49.7957019 Z M62.0230534,46.3865788 C62.0230534,46.3865788 62.1218686,46.8683027 62.2021559,47.1462204 L62.4491938,48.0046771 L61.5783852,48.0046771 L61.831599,47.1462204 C61.9118863,46.8683027 62.0107015,46.3865788 62.0107015,46.3865788 L62.0230534,46.3865788 Z M64.5798957,49.7957019 L65.6606866,49.7957019 L65.6606866,47.7391113 C65.6606866,47.4611937 65.611279,46.9856457 65.611279,46.9856457 L65.6236309,46.9856457 C65.6236309,46.9856457 65.8212612,47.4488418 65.9941878,47.7391113 L67.2232014,49.7957019 L68.3101682,49.7957019 L68.3101682,45.3798993 L67.2293773,45.3798993 L67.2293773,47.4426659 C67.2293773,47.7205835 67.2787849,48.1961315 67.2787849,48.1961315 L67.266433,48.1961315 C67.266433,48.1961315 67.0688027,47.7329354 66.8958761,47.4426659 L65.6730385,45.3798993 L64.5798957,45.3798993 L64.5798957,49.7957019 Z M69.3477274,49.7957019 L70.4285182,49.7957019 L70.4285182,47.7391113 C70.4285182,47.4611937 70.3791106,46.9856457 70.3791106,46.9856457 L70.3914625,46.9856457 C70.3914625,46.9856457 70.5890929,47.4488418 70.7620194,47.7391113 L71.991033,49.7957019 L73.0779998,49.7957019 L73.0779998,45.3798993 L71.9972089,45.3798993 L71.9972089,47.4426659 C71.9972089,47.7205835 72.0466165,48.1961315 72.0466165,48.1961315 L72.0342646,48.1961315 C72.0342646,48.1961315 71.8366343,47.7329354 71.6637078,47.4426659 L70.4408701,45.3798993 L69.3477274,45.3798993 L69.3477274,49.7957019 Z M74.0537995,48.1714277 C74.0537995,49.1657553 74.7825613,49.8698133 75.9065838,49.8698133 C77.0182544,49.8698133 77.7470162,49.1657553 77.7470162,48.1714277 L77.7470162,45.3798993 L76.6662254,45.3798993 L76.6662254,48.1714277 C76.6662254,48.6346238 76.3636039,48.8816617 75.9004079,48.8816617 C75.4372118,48.8816617 75.1345904,48.6346238 75.1345904,48.1714277 L75.1345904,45.3798993 L74.0537995,45.3798993 L74.0537995,48.1714277 Z M81.1561394,49.7957019 L82.2678099,49.7957019 L80.7670547,45.3798993 L79.6306803,45.3798993 L78.129925,49.7957019 L79.2415956,49.7957019 L79.5071613,48.8693098 L80.8843977,48.8693098 L81.1561394,49.7957019 Z M80.2050434,46.3865788 C80.2050434,46.3865788 80.3038586,46.8683027 80.3841459,47.1462204 L80.6311838,48.0046771 L79.7603752,48.0046771 L80.013589,47.1462204 C80.0938764,46.8683027 80.1926915,46.3865788 80.1926915,46.3865788 L80.2050434,46.3865788 Z M82.7618858,49.7957019 L85.6460533,49.7957019 L85.6460533,48.8693098 L83.8426766,48.8693098 L83.8426766,45.3798993 L82.7618858,45.3798993 L82.7618858,49.7957019 Z M87.6532363,49.7957019 L88.7340272,49.7957019 L88.7340272,48.3072985 L89.2404549,48.3072985 L90.0248002,49.7957019 L91.22911,49.7957019 L90.3706533,48.251715 C90.2656622,48.0664366 90.2039027,47.9861493 90.2039027,47.9861493 L90.2039027,47.9737974 C90.642395,47.7514632 90.8647291,47.2388596 90.8647291,46.7694876 C90.8647291,46.127189 90.5497558,45.6763448 90.049504,45.4848904 C89.8580497,45.4107791 89.6418915,45.3798993 89.1910473,45.3798993 L87.6532363,45.3798993 L87.6532363,49.7957019 Z M88.7340272,47.3809064 L88.7340272,46.3062915 L89.0984081,46.3062915 C89.6418915,46.3062915 89.7654104,46.5039218 89.7654104,46.837423 C89.7654104,47.189452 89.5492523,47.3809064 89.2033992,47.3809064 L88.7340272,47.3809064 Z M91.8652327,49.7957019 L94.7185205,49.7957019 L94.7185205,48.8693098 L92.9460235,48.8693098 L92.9460235,48.0355568 L94.2923801,48.0355568 L94.2923801,47.1091647 L92.9460235,47.1091647 L92.9460235,46.3062915 L94.6320572,46.3062915 L94.6320572,45.3798993 L91.8652327,45.3798993 L91.8652327,49.7957019 Z M97.9794209,49.7957019 L99.0910915,49.7957019 L97.5903362,45.3798993 L96.4539618,45.3798993 L94.9532065,49.7957019 L96.0648771,49.7957019 L96.3304428,48.8693098 L97.7076792,48.8693098 L97.9794209,49.7957019 Z M97.0283249,46.3865788 C97.0283249,46.3865788 97.1271401,46.8683027 97.2074274,47.1462204 L97.4544653,48.0046771 L96.5836567,48.0046771 L96.8368706,47.1462204 C96.9171579,46.8683027 97.015973,46.3865788 97.015973,46.3865788 L97.0283249,46.3865788 Z" id="ANNUAL-REA" fill="#1B2A38"></path>
        <g id="Group-9" transform="translate(0.000000, 0.155901)">
            <mask id="mask-2" fill="white">
                <use xlink:href="#path-1"></use>
            </mask>
            <g id="Clip-1"></g>
            <path d="M60.4914184,55.5696844 L63.3447062,55.5696844 L63.3447062,54.6432923 L61.5722092,54.6432923 L61.5722092,53.8095393 L62.9185658,53.8095393 L62.9185658,52.8831472 L61.5722092,52.8831472 L61.5722092,52.080274 L63.2582429,52.080274 L63.2582429,51.1538818 L60.4914184,51.1538818 L60.4914184,55.5696844 Z M63.7029112,55.5696844 L64.901045,55.5696844 L65.4074727,54.6432923 C65.5618714,54.3653746 65.6792144,54.0936329 65.6792144,54.0936329 L65.6915663,54.0936329 C65.6915663,54.0936329 65.8089093,54.3653746 65.963308,54.6432923 L66.4697357,55.5696844 L67.6740455,55.5696844 L66.3276889,53.377223 L67.6802215,51.1538818 L66.4512079,51.1538818 L65.963308,52.0617461 C65.8089093,52.3458397 65.6915663,52.6299333 65.6915663,52.6299333 L65.6792144,52.6299333 C65.6792144,52.6299333 65.5556955,52.3396638 65.4074727,52.0617461 L64.9257488,51.1538818 L63.6967352,51.1538818 L65.0430918,53.377223 L63.7029112,55.5696844 Z M67.9025556,53.3525192 C67.9025556,54.6618201 68.8351237,55.6437958 70.218536,55.6437958 C71.3734382,55.6437958 71.9972089,54.9026821 71.9972089,54.9026821 L71.4413736,54.1121608 C71.4413736,54.1121608 70.9349459,54.6556442 70.2679436,54.6556442 C69.4527185,54.6556442 69.0204021,53.9824659 69.0204021,53.3278154 C69.0204021,52.6916928 69.4218387,52.0679221 70.2679436,52.0679221 C70.8793624,52.0679221 71.3734382,52.5187663 71.3734382,52.5187663 L71.87369,51.7035412 C71.87369,51.7035412 71.3116787,51.0797704 70.218536,51.0797704 C68.8907072,51.0797704 67.9025556,52.0679221 67.9025556,53.3525192 L67.9025556,53.3525192 Z M72.6518594,55.5696844 L75.5051472,55.5696844 L75.5051472,54.6432923 L73.7326502,54.6432923 L73.7326502,53.8095393 L75.0790068,53.8095393 L75.0790068,52.8831472 L73.7326502,52.8831472 L73.7326502,52.080274 L75.4186839,52.080274 L75.4186839,51.1538818 L72.6518594,51.1538818 L72.6518594,55.5696844 Z M76.2833166,55.5696844 L79.1674842,55.5696844 L79.1674842,54.6432923 L77.3641075,54.6432923 L77.3641075,51.1538818 L76.2833166,51.1538818 L76.2833166,55.5696844 Z M79.7603752,55.5696844 L82.6445428,55.5696844 L82.6445428,54.6432923 L80.841166,54.6432923 L80.841166,51.1538818 L79.7603752,51.1538818 L79.7603752,55.5696844 Z M83.2374337,55.5696844 L86.0907216,55.5696844 L86.0907216,54.6432923 L84.3182246,54.6432923 L84.3182246,53.8095393 L85.6645812,53.8095393 L85.6645812,52.8831472 L84.3182246,52.8831472 L84.3182246,52.080274 L86.0042583,52.080274 L86.0042583,51.1538818 L83.2374337,51.1538818 L83.2374337,55.5696844 Z M86.868891,55.5696844 L87.9496818,55.5696844 L87.9496818,53.5130938 C87.9496818,53.2351762 87.9002742,52.7596282 87.9002742,52.7596282 L87.9126261,52.7596282 C87.9126261,52.7596282 88.1102565,53.2228243 88.283183,53.5130938 L89.5121966,55.5696844 L90.5991634,55.5696844 L90.5991634,51.1538818 L89.5183725,51.1538818 L89.5183725,53.2166483 C89.5183725,53.494566 89.5677801,53.970114 89.5677801,53.970114 L89.5554282,53.970114 C89.5554282,53.970114 89.3577979,53.5069179 89.1848714,53.2166483 L87.9620337,51.1538818 L86.868891,51.1538818 L86.868891,55.5696844 Z M91.3341012,53.3525192 C91.3341012,54.6618201 92.2666693,55.6437958 93.6500815,55.6437958 C94.8049838,55.6437958 95.4287545,54.9026821 95.4287545,54.9026821 L94.8729192,54.1121608 C94.8729192,54.1121608 94.3664915,54.6556442 93.6994891,54.6556442 C92.884264,54.6556442 92.4519477,53.9824659 92.4519477,53.3278154 C92.4519477,52.6916928 92.8533843,52.0679221 93.6994891,52.0679221 C94.3109079,52.0679221 94.8049838,52.5187663 94.8049838,52.5187663 L95.3052355,51.7035412 C95.3052355,51.7035412 94.7432243,51.0797704 93.6500815,51.0797704 C92.3222528,51.0797704 91.3341012,52.0679221 91.3341012,53.3525192 L91.3341012,53.3525192 Z M96.0834049,55.5696844 L98.9366928,55.5696844 L98.9366928,54.6432923 L97.1641958,54.6432923 L97.1641958,53.8095393 L98.5105524,53.8095393 L98.5105524,52.8831472 L97.1641958,52.8831472 L97.1641958,52.080274 L98.8502295,52.080274 L98.8502295,51.1538818 L96.0834049,51.1538818 L96.0834049,55.5696844 Z M103.611885,55.5696844 L104.723556,55.5696844 L103.2228,51.1538818 L102.086426,51.1538818 L100.585671,55.5696844 L101.697341,55.5696844 L101.962907,54.6432923 L103.340143,54.6432923 L103.611885,55.5696844 Z M102.660789,52.1605613 C102.660789,52.1605613 102.759604,52.6422852 102.839892,52.9202029 L103.08693,53.7786596 L102.216121,53.7786596 L102.469335,52.9202029 C102.549622,52.6422852 102.648437,52.1605613 102.648437,52.1605613 L102.660789,52.1605613 Z M105.791995,55.5696844 L107.008656,55.5696844 L107.564492,53.3401673 C107.632427,53.0560737 107.650955,52.8213877 107.650955,52.8213877 L107.663307,52.8213877 C107.663307,52.8213877 107.681835,53.0560737 107.74977,53.3401673 L108.305605,55.5696844 L109.509915,55.5696844 L110.627762,51.1538818 L109.509915,51.1538818 L108.904672,53.9145304 C108.849089,54.1862721 108.849089,54.3777265 108.849089,54.3777265 L108.836737,54.3777265 C108.836737,54.3777265 108.830561,54.1862721 108.762626,53.9145304 L108.101799,51.1538818 L107.230991,51.1538818 L106.551636,53.9145304 C106.483701,54.1862721 106.477525,54.3777265 106.477525,54.3777265 L106.465173,54.3777265 C106.465173,54.3777265 106.465173,54.1862721 106.409589,53.9145304 L105.853754,51.1538818 L104.71738,51.1538818 L105.791995,55.5696844 Z M113.635448,55.5696844 L114.747119,55.5696844 L113.246364,51.1538818 L112.109989,51.1538818 L110.609234,55.5696844 L111.720904,55.5696844 L111.98647,54.6432923 L113.363707,54.6432923 L113.635448,55.5696844 Z M112.684352,52.1605613 C112.684352,52.1605613 112.783168,52.6422852 112.863455,52.9202029 L113.110493,53.7786596 L112.239684,53.7786596 L112.492898,52.9202029 C112.573185,52.6422852 112.672,52.1605613 112.672,52.1605613 L112.684352,52.1605613 Z M115.241195,55.5696844 L116.321986,55.5696844 L116.321986,54.081281 L116.828413,54.081281 L117.612759,55.5696844 L118.817068,55.5696844 L117.958612,54.0256975 C117.853621,53.8404191 117.791861,53.7601317 117.791861,53.7601317 L117.791861,53.7477798 C118.230353,53.5254457 118.452687,53.0128421 118.452687,52.54347 C118.452687,51.9011715 118.137714,51.4503273 117.637462,51.2588729 C117.446008,51.1847616 117.22985,51.1538818 116.779006,51.1538818 L115.241195,51.1538818 L115.241195,55.5696844 Z M116.321986,53.1548889 L116.321986,52.080274 L116.686366,52.080274 C117.22985,52.080274 117.353369,52.2779043 117.353369,52.6114055 C117.353369,52.9634345 117.137211,53.1548889 116.791358,53.1548889 L116.321986,53.1548889 Z M119.453191,55.5696844 L121.021882,55.5696844 C122.41147,55.5696844 123.300806,54.7421074 123.300806,53.3525192 C123.300806,51.962931 122.41147,51.1538818 121.021882,51.1538818 L119.453191,51.1538818 L119.453191,55.5696844 Z M120.533982,54.6432923 L120.533982,52.080274 L120.97865,52.080274 C121.707412,52.080274 122.18296,52.5125903 122.18296,53.3525192 C122.18296,54.198624 121.72594,54.6432923 120.97865,54.6432923 L120.533982,54.6432923 Z M123.733123,55.0138491 C123.733123,55.0138491 124.307486,55.6437958 125.345045,55.6437958 C126.339373,55.6437958 126.901384,55.0076732 126.901384,54.2727354 C126.901384,52.8769712 124.912729,52.9757864 124.912729,52.4199511 C124.912729,52.1729132 125.159767,52.074098 125.382101,52.074098 C125.913232,52.074098 126.357901,52.4631827 126.357901,52.4631827 L126.814921,51.5800222 C126.814921,51.5800222 126.345549,51.0797704 125.394453,51.0797704 C124.517468,51.0797704 123.831938,51.6170779 123.831938,52.432303 C123.831938,53.7910115 125.820593,53.7724836 125.820593,54.2974392 C125.820593,54.5630049 125.579731,54.6494682 125.357397,54.6494682 C124.801562,54.6494682 124.30131,54.1924481 124.30131,54.1924481 L123.733123,55.0138491 Z" id="EXCELLENCE-AWARDS" fill="#1B2A38" mask="url(#mask-2)"></path>
            <path d="M81.5256365,24.0460859 C81.5256365,21.4950983 79.8119494,20.4067272 76.3930068,20.4067272 C75.6729631,20.4067272 73.9647565,20.4767149 73.3484194,20.5412544 L73.3484194,28.1917026 C73.8973051,28.2252296 75.8133463,28.2952173 76.3930068,28.2952173 C79.9160775,28.2952173 81.5256365,27.343888 81.5256365,24.3511818 L81.5256365,24.0460859 Z M86.6553152,41.898389 L82.4821816,41.898389 C82.1052969,41.898389 81.9703941,41.5572515 81.7983931,41.2156949 L76.8744411,32.1386717 L76.3930068,32.1386717 C75.5039131,32.1386717 74.136336,32.0351571 73.3484194,32.00163 L73.3484194,41.2156949 C73.3484194,41.593293 73.0756628,41.898389 72.6983565,41.898389 L69.2798354,41.898389 C68.9054802,41.898389 68.5960469,41.593293 68.5960469,41.2156949 L68.5960469,17.8222126 C68.5960469,17.1424522 69.0037063,16.9044103 69.6904458,16.8038292 C71.4690548,16.5268121 73.8973051,16.359177 76.3930068,16.359177 C81.6605393,16.359177 86.2472343,18.2304041 86.2472343,24.0460859 L86.2472343,24.3511818 C86.2472343,27.9540798 84.4294191,30.1999715 81.6297646,31.2883426 L86.9984742,41.2156949 C87.0659256,41.3192096 87.0659256,41.4202098 87.0659256,41.4872638 C87.0659256,41.7278202 86.9310228,41.898389 86.6553152,41.898389 L86.6553152,41.898389 Z" id="Fill-2" fill="#1B2A38" mask="url(#mask-2)"></path>
            <path d="M103.451556,41.6941675 C102.356736,41.8622217 101.020355,42.1698322 96.9543003,42.1698322 C92.5054592,42.1698322 89.0502614,40.98088 89.0502614,35.1987253 L89.0502614,23.3326727 C89.0502614,17.5509371 92.5054592,16.3590513 96.9543003,16.3590513 C101.020355,16.3590513 102.356736,16.6666617 103.451556,16.834716 C103.963765,16.9047036 104.132394,17.0723388 104.132394,17.5509371 L104.132394,19.726841 C104.132394,20.098991 103.825911,20.4066015 103.451556,20.4066015 L96.4732876,20.4066015 C94.4893734,20.4066015 93.7689081,21.0863619 93.7689081,23.3326727 L93.7689081,27.0026247 L103.040524,27.0026247 C103.41783,27.0026247 103.724313,27.3106543 103.724313,27.6853188 L103.724313,30.1327917 C103.724313,30.5020081 103.41783,30.8125521 103.040524,30.8125521 L93.7689081,30.8125521 L93.7689081,35.1987253 C93.7689081,37.4421024 94.4893734,38.1218629 96.4732876,38.1218629 L103.451556,38.1218629 C103.825911,38.1218629 104.132394,38.4269588 104.132394,38.8045569 L104.132394,40.98088 C104.132394,41.4536111 103.963765,41.6271134 103.451556,41.6941675" id="Fill-3" fill="#1B2A38" mask="url(#mask-2)"></path>
            <path d="M116.754658,20.8814699 C116.65053,20.4757929 116.551882,20.3387512 116.208723,20.3387512 C115.865564,20.3387512 115.763965,20.4757929 115.662788,20.8814699 L113.197861,30.9798101 L119.219585,30.9798101 L116.754658,20.8814699 Z M125.992548,41.897467 L122.365349,41.897467 C122.058867,41.897467 121.783159,41.6263172 121.715286,41.3187067 L120.142404,34.8597252 L112.275042,34.8597252 L110.699209,41.3187067 C110.634287,41.6263172 110.358579,41.897467 110.052097,41.897467 L106.424898,41.897467 C106.084268,41.897467 105.811512,41.6598442 105.811512,41.3187067 C105.811512,41.2847606 105.845238,41.215192 105.845238,41.1477189 L111.4534,19.8270449 C112.275042,16.6658655 114.737018,16.358255 116.208723,16.358255 C117.677477,16.358255 120.142404,16.6658655 120.964047,19.8270449 L126.572209,41.1477189 C126.572209,41.215192 126.605934,41.2847606 126.605934,41.3187067 C126.605934,41.6598442 126.333178,41.897467 125.992548,41.897467 L125.992548,41.897467 Z" id="Fill-4" fill="#1B2A38" mask="url(#mask-2)"></path>
            <path d="M56.9563809,20.8814699 C56.8522528,20.4757929 56.7536052,20.3387512 56.4104462,20.3387512 C56.0672872,20.3387512 55.9656885,20.4757929 55.8645114,20.8814699 L53.3995845,30.9798101 L59.4213079,30.9798101 L56.9563809,20.8814699 Z M66.1942713,41.897467 L62.5670724,41.897467 C62.2605901,41.897467 61.9848826,41.6263172 61.9170096,41.3187067 L60.3441273,34.8597252 L52.4767651,34.8597252 L50.9009318,41.3187067 C50.8360098,41.6263172 50.5603022,41.897467 50.25382,41.897467 L46.6266211,41.897467 C46.2859915,41.897467 46.013235,41.6598442 46.013235,41.3187067 C46.013235,41.2847606 46.0469607,41.215192 46.0469607,41.1477189 L51.6551227,19.8270449 C52.4767651,16.6658655 54.938741,16.358255 56.4104462,16.358255 C57.8792004,16.358255 60.3441273,16.6658655 61.1657697,19.8270449 L66.7739317,41.1477189 C66.7739317,41.215192 66.8076574,41.2847606 66.8076574,41.3187067 C66.8076574,41.6598442 66.5349008,41.897467 66.1942713,41.897467 L66.1942713,41.897467 Z" id="Fill-5" fill="#1B2A38" mask="url(#mask-2)"></path>
            <path d="M54.4260261,49.6997926 C54.4260261,51.9025182 52.5378086,53.6945378 50.2166374,53.6945378 L7.88161139,53.6945378 C5.5604402,53.6945378 3.67222266,51.9025182 3.67222266,49.6997926 L3.67222266,7.74281518 C3.67222266,5.54008958 5.5604402,3.74807004 7.88161139,3.74807004 L50.2166374,3.74807004 C52.5378086,3.74807004 54.4260261,5.54008958 54.4260261,7.74281518 L54.4260261,11.1416174 L58.0983331,11.1416174 L58.0983331,7.74281518 C58.0983331,3.6185719 54.5626152,0.263354788 50.2166374,0.263354788 L7.88161139,0.263354788 C3.53563359,0.263354788 -8.43142461e-05,3.6185719 -8.43142461e-05,7.74281518 L-8.43142461e-05,49.6997926 C-8.43142461e-05,53.8240359 3.53563359,57.179253 7.88161139,57.179253 L50.2166374,57.179253 C54.5626152,57.179253 58.0983331,53.8240359 58.0983331,49.6997926 L58.0983331,46.7184019 L54.4260261,46.7184019 L54.4260261,49.6997926 Z" id="Fill-6" fill="#D51632" mask="url(#mask-2)"></path>
            <path d="M15.3822067,28.7321583 C15.3400496,36.0930168 21.4279597,42.0910017 28.9761926,42.130396 C36.5269548,42.1706284 42.6764144,36.2346685 42.7160421,28.8746481 C42.7569345,21.515466 36.6719754,15.5187383 29.1233209,15.4801822 L29.0453302,15.4801822 C21.5320878,15.4801822 15.4218344,21.3989595 15.3822067,28.7321583" id="Fill-7" fill="#D51632" mask="url(#mask-2)"></path>
            <path d="M33.509896,27.8287726 L33.509896,34.9193195 L24.5886057,34.9193195 L24.5886057,27.8287726 L22.2412971,27.8287726 L29.050094,21.2231103 L35.8580478,27.8287726 L33.509896,27.8287726 Z M38.011012,26.9763479 L38.011012,26.9746716 L29.8928149,19.0899533 C29.683294,18.8695131 29.3835568,18.7316332 29.050094,18.7316332 L29.0492509,18.7316332 C28.7162096,18.7316332 28.4152077,18.8695131 28.2069515,19.0899533 L20.0874897,26.9746716 L20.0874897,26.9763479 C19.7734191,27.2843775 19.580761,27.7084944 19.580761,28.1774536 C19.580761,29.1187249 20.361511,29.8843983 21.3273306,29.8869129 L22.4453375,29.8860747 C22.4453375,29.8860747 22.4428081,35.8719061 22.4428081,35.8853169 C22.4428081,36.5022142 22.9529093,37.0021859 23.5831583,37.0067959 L34.5161866,37.0067959 C35.1464355,37.0021859 35.6556936,36.5022142 35.6556936,35.8853169 C35.6556936,35.8719061 35.6531642,29.8860747 35.6531642,29.8860747 L36.7711711,29.8869129 C37.7369907,29.8843983 38.5194269,29.1187249 38.5194269,28.1774536 C38.5194269,27.7084944 38.3250826,27.2843775 38.011012,26.9763479 L38.011012,26.9763479 Z" id="Fill-8" fill="#FFFFFF" mask="url(#mask-2)"></path>
        </g>
    </g>
</svg>