<?xml version="1.0" encoding="utf-8"?>
<!-- Generator: Adobe Illustrator 19.1.0, SVG Export Plug-In . SVG Version: 6.00 Build 0)  -->
<svg version="1.1" id="Layer_1" xmlns="http://www.w3.org/2000/svg" xmlns:xlink="http://www.w3.org/1999/xlink" x="0px" y="0px"
	 viewBox="1500 -200 3100 500" style="enable-background:new 1500 -200 3100 500;" xml:space="preserve">
<style type="text/css">
	.st0{fill:none;stroke:#2E506D;stroke-width:2.5;stroke-linecap:round;stroke-linejoin:round;stroke-miterlimit:10;}
	.st1{fill:none;stroke:#2E506D;stroke-width:2.5;stroke-linejoin:round;stroke-miterlimit:10;}
	.st2{fill:#2E506D;}
	.st3{fill:none;stroke:#2E506D;stroke-linecap:round;stroke-linejoin:round;stroke-miterlimit:10;}
	.st4{opacity:0.2;fill:#2A3E4C;enable-background:new    ;}
	.st5{fill:none;stroke:#3F6989;stroke-width:2.5;stroke-linecap:round;stroke-linejoin:round;stroke-miterlimit:10;}
	.st6{opacity:0.2;}
	.st7{fill:#2A3E4C;}
	.st8{fill:none;stroke:#122C3F;stroke-linecap:round;stroke-linejoin:round;stroke-miterlimit:10;}
	.st9{fill:none;stroke:#2E506D;stroke-width:2;stroke-linecap:round;stroke-linejoin:round;stroke-miterlimit:10;}
	.st10{fill:none;stroke:#2E506D;stroke-width:3;stroke-linecap:round;stroke-linejoin:round;stroke-miterlimit:10;}
</style>
<g id="baseline">
	<line class="st0" x1="1503" y1="163.8" x2="4597" y2="163.8"/>
	<line class="st1" x1="1691.5" y1="163.2" x2="1691.5" y2="243.7"/>
	<circle class="st2" cx="1691.5" cy="256.2" r="12.5"/>
</g>
<g id="building-8">
	<line class="st0" x1="4525.7" y1="163.2" x2="4525.7" y2="149.1"/>
	<circle class="st0" cx="4525.7" cy="140.4" r="8.6"/>
	<polyline class="st0" points="4517.3,142.5 4522.2,138.4 4525.7,141.8 4529.7,138.4 4533.9,142.9 	"/>
	<line class="st0" x1="4542.6" y1="163.2" x2="4542.6" y2="149.1"/>
	<circle class="st0" cx="4542.6" cy="140.4" r="8.6"/>
	<polyline class="st0" points="4534.2,142.5 4539.1,138.4 4542.6,141.8 4546.6,138.4 4550.8,142.9 	"/>
	<line class="st0" x1="4380.4" y1="163.2" x2="4380.4" y2="149.1"/>
	<polyline class="st0" points="4372.2,132.5 4377,128.1 4380.5,131.5 4384.5,128.1 4388.7,132.6 	"/>
	<path class="st0" d="M4388.6,132.6c1-1.6,1.6-3.4,1.6-5.4c0-5.4-4.4-9.8-9.8-9.8c-5.4,0-9.8,4.4-9.8,9.8c0,2,0.6,3.9,1.6,5.4
		c-3,1.3-5.1,4.4-5.1,7.9c0,4.8,3.9,8.6,8.6,8.6c1.7,0,3.4-0.5,4.7-1.4c1.4,0.9,3,1.4,4.7,1.4c4.8,0,8.6-3.9,8.6-8.6
		C4393.7,136.9,4391.6,133.9,4388.6,132.6z"/>
	<line class="st3" x1="4276.9" y1="100.5" x2="4321.8" y2="100.5"/>
	<polygon class="st4" points="4367.1,163.8 4299.9,163.8 4299.9,46.3 4325,82.8 4349,82.8 4366.7,109 	"/>
	<polygon class="st4" points="4510.9,163.8 4456.1,163.8 4456.1,64.5 4465.9,64.5 4474.4,81.8 4474.4,94.7 4483.7,94.7 
		4483.7,100.5 4502,100.5 4510.9,118.3 	"/>
	<polyline class="st0" points="4267.7,163.2 4267.7,91.4 4331,91.4 4331,163.8 	"/>
	<polyline class="st0" points="4267.7,91.4 4299.4,46.3 4331,91.4 	"/>
	<polyline class="st0" points="4366.7,163.2 4366.7,109 4331,109 4267.7,109 	"/>
	<polyline class="st0" points="4366.7,109 4349,82.8 4325,82.8 	"/>
	<line class="st5" x1="4286" y1="150.8" x2="4294.9" y2="150.8"/>
	<line class="st5" x1="4286" y1="132.5" x2="4294.9" y2="132.5"/>
	<line class="st5" x1="4286" y1="125.9" x2="4294.9" y2="125.9"/>
	<line class="st5" x1="4286.1" y1="144.5" x2="4295" y2="144.5"/>
	<line class="st5" x1="4286" y1="138.5" x2="4294.9" y2="138.5"/>
	<line class="st5" x1="4492.8" y1="150.8" x2="4501.7" y2="150.8"/>
	<line class="st5" x1="4492.8" y1="132.5" x2="4501.7" y2="132.5"/>
	<line class="st5" x1="4492.8" y1="125.9" x2="4501.7" y2="125.9"/>
	<line class="st5" x1="4492.9" y1="144.5" x2="4501.8" y2="144.5"/>
	<line class="st5" x1="4492.8" y1="138.5" x2="4501.7" y2="138.5"/>
	<line class="st5" x1="4304" y1="150.8" x2="4312.9" y2="150.8"/>
	<line class="st5" x1="4304" y1="132.5" x2="4312.9" y2="132.5"/>
	<line class="st5" x1="4304" y1="125.9" x2="4312.9" y2="125.9"/>
	<line class="st5" x1="4286" y1="119" x2="4294.9" y2="119"/>
	<line class="st5" x1="4339.7" y1="150.8" x2="4357.5" y2="150.8"/>
	<line class="st5" x1="4339.7" y1="132.5" x2="4357.5" y2="132.5"/>
	<line class="st5" x1="4339.7" y1="125.9" x2="4357.5" y2="125.9"/>
	<line class="st5" x1="4339.9" y1="144.5" x2="4357.7" y2="144.5"/>
	<line class="st5" x1="4339.7" y1="138.5" x2="4357.5" y2="138.5"/>
	<line class="st5" x1="4339.7" y1="119" x2="4357.5" y2="119"/>
	<line class="st5" x1="4304" y1="119" x2="4312.9" y2="119"/>
	<line class="st5" x1="4304.1" y1="144.5" x2="4313" y2="144.5"/>
	<line class="st5" x1="4304" y1="138.5" x2="4312.9" y2="138.5"/>
	<polygon class="st4" points="4411.7,108.7 4411.7,163.4 4429.6,163.4 4429.6,126.8 	"/>
	<line class="st5" x1="4403" y1="150.8" x2="4420.3" y2="150.8"/>
	<line class="st5" x1="4403" y1="144.8" x2="4420.3" y2="144.8"/>
	<line class="st5" x1="4448" y1="150.8" x2="4465.3" y2="150.8"/>
	<line class="st5" x1="4448" y1="144.8" x2="4465.3" y2="144.8"/>
	<line class="st5" x1="4448" y1="139" x2="4465.3" y2="139"/>
	<line class="st5" x1="4448" y1="132.9" x2="4465.3" y2="132.9"/>
	<line class="st5" x1="4448" y1="126.2" x2="4465.3" y2="126.2"/>
	<line class="st5" x1="4448" y1="120.2" x2="4465.3" y2="120.2"/>
	<line class="st5" x1="4448" y1="89.1" x2="4465.3" y2="89.1"/>
	<polyline class="st0" points="4393.7,143.5 4393.7,163.4 4393.7,126.8 4429.6,126.8 4429.6,163 	"/>
	<polyline class="st0" points="4393.7,126.8 4411.7,108.7 4429.6,126.8 4429.6,109.5 4438.7,109.5 4483.7,109.5 4483.7,163.2 	"/>
	<line class="st0" x1="4393.7" y1="136.2" x2="4429.6" y2="136.2"/>
	<line class="st0" x1="4398.9" y1="121.6" x2="4398.9" y2="113.3"/>
	<polyline class="st0" points="4438.7,163.2 4438.7,109.5 4438.7,81.8 4474.4,81.8 4474.4,109.5 4474.4,163.8 	"/>
	<polyline class="st0" points="4483.7,118.3 4510.9,118.3 4510.9,163.8 	"/>
	<polyline class="st0" points="4510.9,118.3 4502,100.5 4483.7,100.5 	"/>
	<polyline class="st0" points="4483.7,109.5 4483.7,94.7 4429.6,94.7 4429.6,109.4 	"/>
	<polyline class="st0" points="4438.7,81.8 4448,64.5 4465.9,64.5 4474.4,81.8 	"/>
	<line class="st3" x1="4432.7" y1="95.9" x2="4432.7" y2="108.2"/>
	<line class="st3" x1="4435.6" y1="95.9" x2="4435.6" y2="108.2"/>
	<line class="st3" x1="4438.6" y1="95.9" x2="4438.6" y2="108.2"/>
	<line class="st3" x1="4441.6" y1="95.9" x2="4441.6" y2="108.2"/>
	<line class="st3" x1="4444.5" y1="95.9" x2="4444.5" y2="108.2"/>
	<line class="st3" x1="4447.5" y1="95.9" x2="4447.5" y2="108.2"/>
	<line class="st3" x1="4450.4" y1="95.9" x2="4450.4" y2="108.2"/>
	<line class="st3" x1="4453.4" y1="95.9" x2="4453.4" y2="108.2"/>
	<line class="st3" x1="4456.4" y1="95.9" x2="4456.4" y2="108.2"/>
	<line class="st3" x1="4459.3" y1="95.9" x2="4459.3" y2="108.2"/>
	<line class="st3" x1="4462.3" y1="95.9" x2="4462.3" y2="108.2"/>
	<line class="st3" x1="4465.2" y1="95.9" x2="4465.2" y2="108.2"/>
	<line class="st3" x1="4468.2" y1="95.9" x2="4468.2" y2="108.2"/>
	<line class="st3" x1="4471.1" y1="95.9" x2="4471.1" y2="108.2"/>
	<line class="st3" x1="4477.5" y1="95.9" x2="4477.5" y2="108.2"/>
	<line class="st3" x1="4480.5" y1="95.9" x2="4480.5" y2="108.2"/>
	<line class="st1" x1="4393.7" y1="163.2" x2="4393.7" y2="243.7"/>
	<circle class="st2" cx="4393.7" cy="256.2" r="12.5"/>
</g>
<g id="building-7">
	<rect x="3948" y="117.9" class="st4" width="13.8" height="45.9"/>
	<polygon class="st4" points="4015.5,163.8 3984.1,163.8 3984.1,46 3989,46 3989,37.2 4015.5,37.2 	"/>
	<polygon class="st4" points="3935,37.1 3894.5,37.3 3894.5,163.8 3934.2,163.8 3934.2,127.5 3934.4,55.2 3943.7,55.2 3943.7,46.8 
		3934.4,46 	"/>
	<line class="st0" x1="4165" y1="163.2" x2="4165" y2="149.1"/>
	<circle class="st0" cx="4165" cy="140.4" r="8.6"/>
	<polyline class="st0" points="4156.7,142.5 4161.6,138.4 4165,141.8 4169,138.4 4173.3,142.9 	"/>
	<line class="st0" x1="3840.2" y1="163.2" x2="3840.2" y2="149.1"/>
	<circle class="st0" cx="3840.2" cy="140.4" r="8.6"/>
	<polyline class="st0" points="3831.8,142.5 3836.7,138.4 3840.2,141.8 3844.2,138.4 3848.5,142.9 	"/>
	<polyline class="st0" points="3853,162.5 3853,55.2 3934.4,55.2 3934.4,162.8 	"/>
	<path class="st3" d="M3853,64.2h81.4c0,0,27.6,8.5,45.1-9"/>
	<polyline class="st0" points="3853,127.2 3934.4,127.2 3934.4,117.9 3853,117.9 	"/>
	<line class="st5" x1="3862.6" y1="141.8" x2="3871.4" y2="141.8"/>
	<line class="st5" x1="3880.7" y1="141.8" x2="3889.6" y2="141.8"/>
	<line class="st5" x1="3862.6" y1="147.8" x2="3889.6" y2="147.8"/>
	<line class="st5" x1="3899.2" y1="141.8" x2="3908.1" y2="141.8"/>
	<line class="st5" x1="3917.4" y1="141.8" x2="3926.3" y2="141.8"/>
	<line class="st5" x1="3899.3" y1="147.8" x2="3926.3" y2="147.8"/>
	<line class="st5" x1="3862.6" y1="97.1" x2="3871.4" y2="97.1"/>
	<line class="st5" x1="3862.6" y1="109.2" x2="3871.5" y2="109.2"/>
	<line class="st5" x1="3880.7" y1="97.1" x2="3889.6" y2="97.1"/>
	<line class="st5" x1="3880.8" y1="109.2" x2="3889.7" y2="109.2"/>
	<line class="st5" x1="3862.6" y1="103.2" x2="3889.6" y2="103.2"/>
	<line class="st5" x1="3988.8" y1="75.6" x2="4007" y2="75.6"/>
	<line class="st5" x1="3988.8" y1="68.4" x2="4007" y2="68.4"/>
	<line class="st5" x1="3988.8" y1="60.9" x2="4007" y2="60.9"/>
	<line class="st5" x1="3988.8" y1="53.5" x2="4007" y2="53.5"/>
	<line class="st5" x1="3899.2" y1="97.1" x2="3908.1" y2="97.1"/>
	<line class="st5" x1="3899.3" y1="109.2" x2="3908.2" y2="109.2"/>
	<line class="st5" x1="3917.4" y1="97.1" x2="3926.3" y2="97.1"/>
	<line class="st5" x1="3917.5" y1="109.2" x2="3926.4" y2="109.2"/>
	<line class="st5" x1="3899.3" y1="103.2" x2="3926.3" y2="103.2"/>
	<line class="st5" x1="3862.6" y1="74.6" x2="3871.4" y2="74.6"/>
	<line class="st5" x1="3862.6" y1="86.7" x2="3871.5" y2="86.7"/>
	<line class="st5" x1="3880.7" y1="74.6" x2="3889.6" y2="74.6"/>
	<line class="st5" x1="3880.8" y1="86.7" x2="3889.7" y2="86.7"/>
	<line class="st5" x1="3862.6" y1="80.7" x2="3889.6" y2="80.7"/>
	<line class="st5" x1="3899.2" y1="74.6" x2="3908.1" y2="74.6"/>
	<line class="st5" x1="3899.3" y1="86.7" x2="3908.2" y2="86.7"/>
	<line class="st5" x1="3917.4" y1="74.6" x2="3926.3" y2="74.6"/>
	<line class="st5" x1="3917.5" y1="86.7" x2="3926.4" y2="86.7"/>
	<line class="st5" x1="3899.3" y1="80.7" x2="3926.3" y2="80.7"/>
	<line class="st3" x1="3862.6" y1="59.9" x2="3926.4" y2="59.9"/>
	<line class="st3" x1="3862.6" y1="122.6" x2="3926.4" y2="122.6"/>
	<line class="st3" x1="3966" y1="87.1" x2="4011" y2="87.1"/>
	<polyline class="st0" points="3853,55.2 3844.7,55.2 3844.7,46.3 3943.7,46.3 3943.7,55.2 3933,55.2 	"/>
	<polyline class="st0" points="3853,46 3853,37.2 3934.4,37.2 3934.4,46 	"/>
	<polyline class="st0" points="3862.6,37.2 3862.6,19.2 3880.8,19.2 3880.8,37.2 	"/>
	<path class="st3" d="M3934.3,100.1c0,0,16.2,3.4,27.5-8.6"/>
	<polyline class="st0" points="3961.8,163.2 3961.8,82.8 3979.5,82.8 3979.5,46.3 3989,46.3 3989,37.2 4015.5,37.2 4015.5,163.8 	
		"/>
	<line class="st0" x1="3961.8" y1="117.9" x2="3934.4" y2="117.9"/>
	<line class="st5" x1="3943.7" y1="146.7" x2="3952.5" y2="146.7"/>
	<line class="st5" x1="3943.7" y1="125.5" x2="3952.5" y2="125.5"/>
	<line class="st5" x1="3943.7" y1="132.5" x2="3952.5" y2="132.5"/>
	<line class="st5" x1="3943.7" y1="139.6" x2="3952.5" y2="139.6"/>
	<line class="st5" x1="3970.7" y1="146.7" x2="3979.5" y2="146.7"/>
	<line class="st5" x1="3970.7" y1="125.5" x2="3979.5" y2="125.5"/>
	<line class="st5" x1="3970.7" y1="132.5" x2="3979.5" y2="132.5"/>
	<line class="st5" x1="3970.7" y1="139.6" x2="3979.5" y2="139.6"/>
	<line class="st5" x1="3970.7" y1="104.9" x2="3979.5" y2="104.9"/>
	<line class="st5" x1="3970.7" y1="112" x2="3979.5" y2="112"/>
	<line class="st5" x1="3970.7" y1="119" x2="3979.5" y2="119"/>
	<line class="st5" x1="4030.1" y1="146.7" x2="4038.9" y2="146.7"/>
	<line class="st5" x1="4030.1" y1="125.5" x2="4038.9" y2="125.5"/>
	<line class="st5" x1="4030.1" y1="132.5" x2="4038.9" y2="132.5"/>
	<line class="st5" x1="4030.1" y1="139.6" x2="4038.9" y2="139.6"/>
	<line class="st5" x1="4030.1" y1="119" x2="4038.9" y2="119"/>
	<line class="st5" x1="4048.1" y1="146.7" x2="4056.9" y2="146.7"/>
	<line class="st5" x1="4048.1" y1="125.5" x2="4056.9" y2="125.5"/>
	<line class="st5" x1="4048.1" y1="132.5" x2="4056.9" y2="132.5"/>
	<line class="st5" x1="4048.1" y1="139.6" x2="4056.9" y2="139.6"/>
	<line class="st5" x1="4048.1" y1="119" x2="4056.9" y2="119"/>
	<line class="st5" x1="4066.1" y1="146.7" x2="4074.9" y2="146.7"/>
	<line class="st5" x1="4066.1" y1="125.5" x2="4074.9" y2="125.5"/>
	<line class="st5" x1="4066.1" y1="132.5" x2="4074.9" y2="132.5"/>
	<line class="st5" x1="4066.1" y1="139.6" x2="4074.9" y2="139.6"/>
	<line class="st5" x1="4066.1" y1="119" x2="4074.9" y2="119"/>
	<line class="st5" x1="4084" y1="146.7" x2="4092.8" y2="146.7"/>
	<line class="st5" x1="4084" y1="125.5" x2="4092.8" y2="125.5"/>
	<line class="st5" x1="4084" y1="132.5" x2="4092.8" y2="132.5"/>
	<line class="st5" x1="4084" y1="139.6" x2="4092.8" y2="139.6"/>
	<line class="st5" x1="4084" y1="119" x2="4092.8" y2="119"/>
	<line class="st5" x1="4102.2" y1="146.7" x2="4111" y2="146.7"/>
	<line class="st5" x1="4102.2" y1="125.5" x2="4111" y2="125.5"/>
	<line class="st5" x1="4102.2" y1="132.5" x2="4111" y2="132.5"/>
	<line class="st5" x1="4102.2" y1="139.6" x2="4111" y2="139.6"/>
	<line class="st5" x1="4102.2" y1="119" x2="4111" y2="119"/>
	<line class="st5" x1="4128.9" y1="146.7" x2="4137.7" y2="146.7"/>
	<line class="st5" x1="4128.9" y1="125.5" x2="4137.7" y2="125.5"/>
	<line class="st5" x1="4128.9" y1="132.5" x2="4137.7" y2="132.5"/>
	<line class="st5" x1="4128.9" y1="139.6" x2="4137.7" y2="139.6"/>
	<line class="st5" x1="4128.9" y1="119" x2="4137.7" y2="119"/>
	<line class="st5" x1="4128.9" y1="82" x2="4137.7" y2="82"/>
	<line class="st5" x1="4128.9" y1="89.1" x2="4137.7" y2="89.1"/>
	<line class="st5" x1="4128.9" y1="75.6" x2="4137.7" y2="75.6"/>
	<line class="st5" x1="3988.9" y1="104.9" x2="3997.7" y2="104.9"/>
	<line class="st5" x1="3988.9" y1="112" x2="3997.7" y2="112"/>
	<line class="st5" x1="3988.9" y1="119" x2="3997.7" y2="119"/>
	<line class="st5" x1="3989" y1="146.7" x2="3997.8" y2="146.7"/>
	<line class="st5" x1="3989" y1="125.5" x2="3997.8" y2="125.5"/>
	<line class="st5" x1="3989" y1="132.5" x2="3997.8" y2="132.5"/>
	<line class="st5" x1="3989" y1="139.6" x2="3997.8" y2="139.6"/>
	<path class="st5" d="M3948,117.9"/>
	<polyline class="st0" points="3961.8,82.8 4015.5,82.8 4015.5,91.4 3961.8,91.4 	"/>
	<line class="st0" x1="3989" y1="46.3" x2="4015.5" y2="46.3"/>
	<polyline class="st0" points="4015.5,55.2 4146.7,55.2 4146.7,163.8 	"/>
	<line class="st0" x1="4015.5" y1="64.2" x2="4146.7" y2="64.2"/>
	<polyline class="st0" points="4015.5,100.5 4146.7,100.5 4146.7,109.5 4015.5,109.5 	"/>
	<polyline class="st0" points="4069.2,55.2 4069.2,37.4 4042.5,37.4 4042.5,55.2 	"/>
	<polyline class="st0" points="4042.5,46.3 4015.5,46.3 4015.5,55.2 	"/>
	<line class="st0" x1="4120" y1="163.8" x2="4120" y2="109.5"/>
	<line class="st0" x1="4120" y1="100.5" x2="4120" y2="64.2"/>
	<rect x="4079.5" y="55.2" class="st4" width="67.2" height="108.6"/>
	<line class="st3" x1="4029.8" y1="73.2" x2="4029.8" y2="91.4"/>
	<line class="st3" x1="4038.7" y1="73.2" x2="4038.7" y2="91.4"/>
	<line class="st3" x1="4034.2" y1="73.2" x2="4034.2" y2="91.4"/>
	<line class="st3" x1="4043.4" y1="73.2" x2="4043.4" y2="91.4"/>
	<line class="st3" x1="4052.4" y1="73.2" x2="4052.4" y2="91.4"/>
	<line class="st3" x1="4048" y1="73.2" x2="4048" y2="91.4"/>
	<line class="st3" x1="4056.9" y1="73.2" x2="4056.9" y2="91.4"/>
	<line class="st3" x1="4061.8" y1="73.2" x2="4061.8" y2="91.4"/>
	<line class="st3" x1="4066.4" y1="73.2" x2="4066.4" y2="91.4"/>
	<line class="st3" x1="4070.2" y1="73.2" x2="4070.2" y2="91.4"/>
	<line class="st3" x1="4079.1" y1="73.2" x2="4079.1" y2="91.4"/>
	<line class="st3" x1="4074.6" y1="73.2" x2="4074.6" y2="91.4"/>
	<line class="st3" x1="4083.7" y1="73.2" x2="4083.7" y2="91.4"/>
	<line class="st3" x1="4092.8" y1="73.2" x2="4092.8" y2="91.4"/>
	<line class="st3" x1="4088.3" y1="73.2" x2="4088.3" y2="91.4"/>
	<line class="st3" x1="4097.3" y1="73.2" x2="4097.3" y2="91.4"/>
	<line class="st3" x1="4102.2" y1="73.2" x2="4102.2" y2="91.4"/>
	<line class="st3" x1="4106.8" y1="73.2" x2="4106.8" y2="91.4"/>
	<line class="st3" x1="4110.8" y1="73.2" x2="4110.8" y2="91.4"/>
	<line class="st5" x1="3862.6" y1="153.8" x2="3871.5" y2="153.8"/>
	<line class="st5" x1="3880.8" y1="153.8" x2="3889.7" y2="153.8"/>
	<line class="st5" x1="3899.3" y1="153.8" x2="3908.2" y2="153.8"/>
	<line class="st5" x1="3917.5" y1="153.8" x2="3926.4" y2="153.8"/>
	<line class="st5" x1="3943.7" y1="153.7" x2="3952.3" y2="153.7"/>
	<line class="st5" x1="3970.7" y1="153.7" x2="3979.3" y2="153.7"/>
	<line class="st5" x1="4030.1" y1="153.7" x2="4038.7" y2="153.7"/>
	<line class="st5" x1="4048.1" y1="153.7" x2="4056.7" y2="153.7"/>
	<line class="st5" x1="4066.1" y1="153.7" x2="4074.7" y2="153.7"/>
	<line class="st5" x1="4084" y1="153.7" x2="4092.6" y2="153.7"/>
	<line class="st5" x1="4102.2" y1="153.7" x2="4110.8" y2="153.7"/>
	<line class="st5" x1="4128.9" y1="153.7" x2="4137.5" y2="153.7"/>
	<line class="st5" x1="3989" y1="153.7" x2="3997.6" y2="153.7"/>
	<line class="st1" x1="4015.5" y1="163.2" x2="4015.5" y2="243.7"/>
	<circle class="st2" cx="4015.5" cy="256.2" r="12.5"/>
</g>
<g id="building-6">
	<path class="st4" d="M3680.5,155c0,0-0.8,7.8-7.7,7.7c-6.9-0.1-7.7-7.7-7.7-7.7h-7.6l4-32.7h11.3l6.4,13.8l6.3,6.7V155H3680.5z"/>
	<rect x="3518.9" y="46.6" class="st4" width="36" height="8.6"/>
	<polygon class="st4" points="3555,109.5 3505.1,109.5 3505.1,163.8 3554.2,163.8 3554.2,148.2 	"/>
	<polygon class="st4" points="3627.9,145.7 3608.9,145.7 3608.9,163.8 3636.1,163.8 3629.8,154.7 3627,154.4 	"/>
	<line class="st0" x1="3712" y1="163.2" x2="3712" y2="149.1"/>
	<polyline class="st0" points="3703.8,132.5 3708.6,128.1 3712,131.5 3716,128.1 3720.3,132.6 	"/>
	<path class="st0" d="M3720.2,132.6c1-1.6,1.6-3.4,1.6-5.4c0-5.4-4.4-9.8-9.8-9.8c-5.4,0-9.8,4.4-9.8,9.8c0,2,0.6,3.9,1.6,5.4
		c-3,1.3-5.1,4.4-5.1,7.9c0,4.8,3.9,8.6,8.6,8.6c1.7,0,3.4-0.5,4.7-1.4c1.4,0.9,3,1.4,4.7,1.4c4.8,0,8.6-3.9,8.6-8.6
		C3725.3,136.9,3723.2,133.9,3720.2,132.6z"/>
	<line class="st0" x1="3733.3" y1="163.2" x2="3733.3" y2="138.4"/>
	<polyline class="st0" points="3719,109.4 3727.3,101.7 3733.4,107.7 3740.4,101.7 3747.9,109.6 	"/>
	<path class="st0" d="M3725.1,138.4c3,0,5.9-0.9,8.2-2.5c2.4,1.5,5.2,2.5,8.2,2.5c8.3,0,15.1-6.8,15.1-15.1c0-6.2-3.7-11.4-9-13.8
		c1.8-2.7,2.8-6,2.8-9.5c0-9.5-7.7-17.2-17.2-17.2S3716,90.5,3716,100c0,3.5,1.1,6.8,2.8,9.5c-3.4,1.5-6.2,4.3-7.7,7.8"/>
	<polygon class="st5" points="3672.8,135.8 3665.9,135.8 3666.6,128.7 3670.5,128.7 	"/>
	<polyline class="st0" points="3456,163.8 3456,100.2 3491.4,100.2 3491.4,109.2 3554.7,109.2 3554.7,163.8 	"/>
	<line class="st0" x1="3456" y1="109.2" x2="3491.4" y2="109.2"/>
	<line class="st0" x1="3456" y1="118.2" x2="3554.7" y2="118.2"/>
	<line class="st0" x1="3456" y1="126.8" x2="3554.7" y2="126.8"/>
	<line class="st0" x1="3456" y1="145" x2="3554.7" y2="145"/>
	<line class="st0" x1="3456" y1="153.8" x2="3554.7" y2="153.8"/>
	<line class="st0" x1="3474.3" y1="100.3" x2="3474.3" y2="108.8"/>
	<line class="st0" x1="3465" y1="109.5" x2="3465" y2="117.9"/>
	<line class="st0" x1="3482.9" y1="109.5" x2="3482.9" y2="117.9"/>
	<polyline class="st0" points="3518.8,117.9 3518.8,109.5 3518.8,82.6 3545.9,108.8 	"/>
	<line class="st0" x1="3518.8" y1="109.5" x2="3518.8" y2="117.9"/>
	<polyline class="st0" points="3554.8,117.9 3554.8,109.5 3554.8,82.5 3527.8,108.8 	"/>
	<line class="st0" x1="3545.9" y1="118.4" x2="3545.9" y2="126.8"/>
	<line class="st0" x1="3474" y1="118.8" x2="3474" y2="126.4"/>
	<line class="st0" x1="3491.9" y1="118.8" x2="3491.9" y2="126.4"/>
	<line class="st0" x1="3509.8" y1="118.8" x2="3509.8" y2="126.4"/>
	<line class="st0" x1="3527.9" y1="118.8" x2="3527.9" y2="126.4"/>
	<line class="st0" x1="3536.8" y1="127.2" x2="3536.8" y2="135.3"/>
	<line class="st0" x1="3464.9" y1="127.7" x2="3464.9" y2="135.3"/>
	<line class="st0" x1="3482.9" y1="127.7" x2="3482.9" y2="135.3"/>
	<line class="st0" x1="3500.8" y1="127.7" x2="3500.8" y2="135.3"/>
	<line class="st0" x1="3518.9" y1="127.7" x2="3518.9" y2="135.3"/>
	<line class="st0" x1="3536.8" y1="145.4" x2="3536.8" y2="153.5"/>
	<line class="st0" x1="3464.9" y1="145.8" x2="3464.9" y2="153.4"/>
	<line class="st0" x1="3482.9" y1="145.8" x2="3482.9" y2="153.4"/>
	<line class="st0" x1="3500.8" y1="145.8" x2="3500.8" y2="153.4"/>
	<line class="st0" x1="3518.9" y1="145.8" x2="3518.9" y2="153.4"/>
	<line class="st0" x1="3545.9" y1="136.1" x2="3545.9" y2="144.2"/>
	<line class="st0" x1="3474" y1="136.6" x2="3474" y2="144.2"/>
	<line class="st0" x1="3491.9" y1="136.6" x2="3491.9" y2="144.2"/>
	<line class="st0" x1="3509.8" y1="136.6" x2="3509.8" y2="144.2"/>
	<line class="st0" x1="3527.9" y1="136.6" x2="3527.9" y2="144.2"/>
	<line class="st0" x1="3545.9" y1="154.4" x2="3545.9" y2="162.5"/>
	<line class="st0" x1="3474" y1="154.9" x2="3474" y2="162.5"/>
	<line class="st0" x1="3491.9" y1="154.9" x2="3491.9" y2="162.5"/>
	<line class="st0" x1="3509.8" y1="154.9" x2="3509.8" y2="162.5"/>
	<line class="st0" x1="3527.9" y1="154.9" x2="3527.9" y2="162.5"/>
	<polyline class="st0" points="3456,100.2 3456,65 3482.9,99.2 	"/>
	<polyline class="st0" points="3491.4,100.2 3491.4,64.8 3464.9,100.1 	"/>
	<polyline class="st0" points="3580.5,163.2 3580.5,154.4 3630.4,154.4 	"/>
	<polyline class="st0" points="3589.5,153.4 3589.5,145.8 3627,145.8 3627,154.4 	"/>
	<polyline class="st0" points="3617.5,135.3 3617.1,-52.6 3599.1,-52.6 3599.5,144.7 	"/>
	<line class="st0" x1="3617.5" y1="145.8" x2="3617.5" y2="135.7"/>
	<line class="st0" x1="3617.5" y1="126.8" x2="3600.1" y2="126.8"/>
	<line class="st0" x1="3600.1" y1="109.5" x2="3617.1" y2="109.5"/>
	<line class="st0" x1="3600.1" y1="91.2" x2="3617.1" y2="91.2"/>
	<line class="st0" x1="3600.1" y1="73.2" x2="3617.1" y2="73.2"/>
	<line class="st0" x1="3600.1" y1="55.2" x2="3617.1" y2="55.2"/>
	<line class="st0" x1="3600.1" y1="37.2" x2="3617.1" y2="37.2"/>
	<line class="st0" x1="3600.1" y1="19.2" x2="3617.1" y2="19.2"/>
	<line class="st0" x1="3600.1" y1="1.5" x2="3617.1" y2="1.5"/>
	<line class="st0" x1="3600.1" y1="-17.1" x2="3617.1" y2="-17.1"/>
	<line class="st0" x1="3600.1" y1="-35.1" x2="3617.1" y2="-35.1"/>
	<polyline class="st0" points="3617.5,127.3 3600.5,109.2 3617.3,91.2 3600.5,73.2 3617.3,55.2 3600.5,37.2 3617.3,19.2 3600.5,1.2 
		3617.2,-16.8 3599.5,-34.8 3616.9,-52.6 	"/>
	<line class="st0" x1="3600.5" y1="145.2" x2="3617.5" y2="127.3"/>
	<polyline class="st0" points="3617.1,145.2 3600.5,127.2 3617.1,109.2 3600.5,91.2 3617.1,73.2 3600.5,55.2 3617.1,37.2 
		3600.5,19.2 3617.1,1.2 3599.2,-16.9 3617.1,-34.9 3599.1,-52.6 	"/>
	<polyline class="st0" points="3617.1,-35.1 3500.8,-35.1 3509.8,-52.6 3616.9,-52.6 	"/>
	<polyline class="st0" points="3599.1,-52.6 3581.8,-35.1 3563.5,-52.6 3545.9,-35.1 3527.8,-52.6 3509.8,-35.1 3509.8,-52.6 
		3527.8,-35.1 3545.9,-52.6 3563.5,-35.1 3581.5,-52.6 3599.1,-35.1 	"/>
	<line class="st0" x1="3581.5" y1="-52.6" x2="3581.5" y2="-35.1"/>
	<line class="st0" x1="3545.9" y1="-52.6" x2="3545.9" y2="-35.1"/>
	<line class="st0" x1="3527.8" y1="-52.6" x2="3527.8" y2="-35.1"/>
	<polyline class="st0" points="3563.5,-52.6 3563.5,-35.1 3563.5,-29.1 3509.8,-29.1 3509.8,-35.1 	"/>
	<line class="st0" x1="3518.8" y1="-29.1" x2="3518.8" y2="8.9"/>
	<rect x="3513.8" y="9.9" class="st0" width="10.5" height="9.2"/>
	<path class="st0" d="M3518.8,19.2v3.5c0,0,4.8,0.8,4.8,5.4c0,4.5-4.5,4.5-4.5,4.5s-5.3,0.4-5.3-4.4"/>
	<polyline class="st0" points="3509.8,46.3 3518.8,29.7 3527.9,46.6 	"/>
	<rect x="3482.9" y="46.6" class="st0" width="72" height="8.6"/>
	<circle class="st0" cx="3638.8" cy="155" r="7.7"/>
	<circle class="st0" cx="3672.8" cy="155" r="7.7"/>
	<line class="st0" x1="3646.5" y1="155" x2="3665.1" y2="155"/>
	<polyline class="st0" points="3680.5,155 3685.6,155 3685.6,142.9 3679.3,136.1 3672.8,122.3 3661.5,122.3 3658.3,148.7 
		3643.2,148.7 	"/>
	<polyline class="st0" points="3633.7,149.3 3617.8,136.1 3617.8,128.9 3645.4,128.9 3658.8,115.2 3666.4,115.2 3669.4,121.8 	"/>
	<polyline class="st0" points="3619.6,128.7 3625.2,122.3 3631.1,122.3 3635.8,118.6 3642.1,117.5 3649.7,123.1 	"/>
	<polyline class="st0" points="3635.8,118.6 3638.8,112.4 3646.5,109.8 3652.2,112.4 3656.5,117.5 	"/>
	<line class="st0" x1="3651.8" y1="148.6" x2="3653.4" y2="135.8"/>
	<line class="st0" x1="3644.8" y1="148.6" x2="3646.5" y2="135.8"/>
	<line class="st0" x1="3638.8" y1="147.3" x2="3640.3" y2="135.8"/>
	<circle class="st0" cx="3638.8" cy="155" r="3.6"/>
	<circle class="st0" cx="3672.8" cy="155" r="3.6"/>
	<polyline class="st0" points="3420,163.8 3420,19.2 3456,19.2 3456,121.2 	"/>
	<line class="st0" x1="3420" y1="46.6" x2="3456" y2="46.6"/>
	<line class="st0" x1="3420" y1="73.4" x2="3456" y2="73.4"/>
	<line class="st0" x1="3420" y1="100.1" x2="3456" y2="100.1"/>
	<line class="st0" x1="3420" y1="126.8" x2="3456" y2="126.8"/>
	<line class="st0" x1="3420" y1="19.2" x2="3420" y2="-15.2"/>
	<line class="st0" x1="3456" y1="19.2" x2="3456" y2="-15.2"/>
	<line class="st0" x1="3420" y1="82.5" x2="3456" y2="82.5"/>
	<polyline class="st0" points="3420,135.3 3456,135.3 3554.7,135.3 	"/>
	<line class="st1" x1="3554.5" y1="163.2" x2="3554.5" y2="243.7"/>
	<circle class="st2" cx="3554.5" cy="256.2" r="12.5"/>
</g>
<g id="building-5">
	<polygon class="st4" points="3161,1.2 3129.5,1.3 3129.5,163.8 3160.5,163.8 3160.5,117.2 	"/>
	<polygon class="st4" points="3341,-61.2 3314,-60.9 3314,163.8 3340.6,163.8 3340.6,99.3 	"/>
	<polygon class="st4" points="3174.3,-133.4 3165.7,-133.2 3165.7,163.6 3169.9,163.6 3169.9,78.3 3170,-88.9 3179,-88.9 3179,-116 
		3174.3,-116 	"/>
	<polygon class="st4" points="3223.5,-17.5 3223.5,-25.1 3201.3,-24.9 3201.3,163.8 3231.5,163.8 3231.5,109.6 3232,-17.5 	"/>
	<polygon class="st4" points="3268.5,27.7 3268.5,47.2 3259.4,47.2 3259.4,163.8 3286.6,163.8 3286.6,109.6 3287,27.7 	"/>
	<g class="st6">
		<polygon class="st7" points="3079.7,-51.7 3079.7,-17.5 3097.9,-17.5 3097.7,163.6 3066.3,163.6 3066.3,-51.7 3075.3,-51.7 		"/>
	</g>
	<line class="st5" x1="3107.6" y1="64.8" x2="3116.4" y2="64.8"/>
	<line class="st5" x1="3107.6" y1="71.8" x2="3116.4" y2="71.8"/>
	<line class="st5" x1="3107.6" y1="57.7" x2="3116.4" y2="57.7"/>
	<line class="st5" x1="3107.6" y1="50.7" x2="3116.4" y2="50.7"/>
	<line class="st5" x1="3107.6" y1="43.6" x2="3116.4" y2="43.6"/>
	<line class="st5" x1="3107.6" y1="78.9" x2="3116.4" y2="78.9"/>
	<line class="st5" x1="3107.6" y1="86" x2="3116.4" y2="86"/>
	<line class="st5" x1="3107.6" y1="22.7" x2="3116.4" y2="22.7"/>
	<line class="st5" x1="3107.6" y1="1.3" x2="3116.4" y2="1.3"/>
	<line class="st5" x1="3107.6" y1="15.6" x2="3116.4" y2="15.6"/>
	<line class="st5" x1="3107.6" y1="29.7" x2="3116.4" y2="29.7"/>
	<line class="st5" x1="3107.6" y1="36.6" x2="3116.4" y2="36.6"/>
	<line class="st5" x1="3107.6" y1="149.4" x2="3116.2" y2="149.4"/>
	<line class="st5" x1="3107.6" y1="142.4" x2="3116.4" y2="142.4"/>
	<line class="st5" x1="3107.6" y1="121.2" x2="3116.4" y2="121.2"/>
	<line class="st5" x1="3107.6" y1="100.1" x2="3116.4" y2="100.1"/>
	<line class="st5" x1="3107.6" y1="114.2" x2="3116.4" y2="114.2"/>
	<line class="st5" x1="3107.6" y1="107.1" x2="3116.4" y2="107.1"/>
	<line class="st5" x1="3107.6" y1="93" x2="3116.4" y2="93"/>
	<line class="st5" x1="3107.6" y1="128.3" x2="3116.4" y2="128.3"/>
	<line class="st5" x1="3107.6" y1="135.3" x2="3116.4" y2="135.3"/>
	<line class="st5" x1="3125.3" y1="64.8" x2="3134.1" y2="64.8"/>
	<line class="st5" x1="3125.3" y1="71.8" x2="3134.1" y2="71.8"/>
	<line class="st5" x1="3125.3" y1="57.7" x2="3134.1" y2="57.7"/>
	<line class="st5" x1="3125.3" y1="50.7" x2="3134.1" y2="50.7"/>
	<line class="st5" x1="3125.3" y1="43.6" x2="3134.1" y2="43.6"/>
	<line class="st5" x1="3125.3" y1="78.9" x2="3134.1" y2="78.9"/>
	<line class="st5" x1="3125.3" y1="86" x2="3134.1" y2="86"/>
	<line class="st5" x1="3125.3" y1="22.7" x2="3134.1" y2="22.7"/>
	<line class="st5" x1="3125.3" y1="1.3" x2="3134.1" y2="1.3"/>
	<line class="st5" x1="3125.3" y1="15.6" x2="3134.1" y2="15.6"/>
	<line class="st5" x1="3125.3" y1="29.7" x2="3134.1" y2="29.7"/>
	<line class="st5" x1="3125.3" y1="36.6" x2="3134.1" y2="36.6"/>
	<line class="st5" x1="3125.3" y1="149.4" x2="3133.9" y2="149.4"/>
	<line class="st5" x1="3125.3" y1="142.4" x2="3134.1" y2="142.4"/>
	<line class="st5" x1="3125.3" y1="121.2" x2="3134.1" y2="121.2"/>
	<line class="st5" x1="3125.3" y1="100.1" x2="3134.1" y2="100.1"/>
	<line class="st5" x1="3125.3" y1="114.2" x2="3134.1" y2="114.2"/>
	<line class="st5" x1="3125.3" y1="107.1" x2="3134.1" y2="107.1"/>
	<line class="st5" x1="3125.3" y1="93" x2="3134.1" y2="93"/>
	<line class="st5" x1="3125.3" y1="128.3" x2="3134.1" y2="128.3"/>
	<line class="st5" x1="3125.3" y1="135.3" x2="3134.1" y2="135.3"/>
	<line class="st5" x1="3300.8" y1="64.8" x2="3309.6" y2="64.8"/>
	<line class="st5" x1="3300.8" y1="71.8" x2="3309.6" y2="71.8"/>
	<line class="st5" x1="3300.8" y1="57.7" x2="3309.6" y2="57.7"/>
	<line class="st5" x1="3300.8" y1="50.7" x2="3309.6" y2="50.7"/>
	<line class="st5" x1="3300.8" y1="43.6" x2="3309.6" y2="43.6"/>
	<line class="st5" x1="3300.8" y1="78.9" x2="3309.6" y2="78.9"/>
	<line class="st5" x1="3300.8" y1="86" x2="3309.6" y2="86"/>
	<line class="st5" x1="3300.8" y1="22.7" x2="3309.6" y2="22.7"/>
	<line class="st5" x1="3300.8" y1="15.6" x2="3309.6" y2="15.6"/>
	<line class="st5" x1="3300.8" y1="29.7" x2="3309.6" y2="29.7"/>
	<line class="st5" x1="3300.8" y1="36.6" x2="3309.6" y2="36.6"/>
	<line class="st5" x1="3300.8" y1="149.4" x2="3309.4" y2="149.4"/>
	<line class="st5" x1="3300.8" y1="142.4" x2="3309.6" y2="142.4"/>
	<line class="st5" x1="3300.8" y1="121.2" x2="3309.6" y2="121.2"/>
	<line class="st5" x1="3300.8" y1="100.1" x2="3309.6" y2="100.1"/>
	<line class="st5" x1="3300.8" y1="114.2" x2="3309.6" y2="114.2"/>
	<line class="st5" x1="3300.8" y1="107.1" x2="3309.6" y2="107.1"/>
	<line class="st5" x1="3300.8" y1="93" x2="3309.6" y2="93"/>
	<line class="st5" x1="3300.8" y1="128.3" x2="3309.6" y2="128.3"/>
	<line class="st5" x1="3300.8" y1="135.3" x2="3309.6" y2="135.3"/>
	<line class="st5" x1="3318.5" y1="64.8" x2="3327.3" y2="64.8"/>
	<line class="st5" x1="3318.5" y1="71.8" x2="3327.3" y2="71.8"/>
	<line class="st5" x1="3318.5" y1="57.7" x2="3327.3" y2="57.7"/>
	<line class="st5" x1="3318.5" y1="50.7" x2="3327.3" y2="50.7"/>
	<line class="st5" x1="3318.5" y1="43.6" x2="3327.3" y2="43.6"/>
	<line class="st5" x1="3318.5" y1="78.9" x2="3327.3" y2="78.9"/>
	<line class="st5" x1="3318.5" y1="86" x2="3327.3" y2="86"/>
	<line class="st5" x1="3318.5" y1="22.7" x2="3327.3" y2="22.7"/>
	<line class="st5" x1="3318.5" y1="15.6" x2="3327.3" y2="15.6"/>
	<line class="st5" x1="3318.5" y1="29.7" x2="3327.3" y2="29.7"/>
	<line class="st5" x1="3318.5" y1="36.6" x2="3327.3" y2="36.6"/>
	<line class="st5" x1="3300.8" y1="8.9" x2="3309.6" y2="8.9"/>
	<line class="st5" x1="3300.8" y1="1.8" x2="3309.6" y2="1.8"/>
	<line class="st5" x1="3300.8" y1="-5.2" x2="3309.6" y2="-5.2"/>
	<line class="st5" x1="3300.8" y1="-12.3" x2="3309.6" y2="-12.3"/>
	<line class="st5" x1="3300.8" y1="-33.2" x2="3309.6" y2="-33.2"/>
	<line class="st5" x1="3300.8" y1="-40.3" x2="3309.6" y2="-40.3"/>
	<line class="st5" x1="3300.8" y1="-26.2" x2="3309.6" y2="-26.2"/>
	<line class="st5" x1="3300.8" y1="-19.4" x2="3309.6" y2="-19.4"/>
	<line class="st5" x1="3318.5" y1="8.9" x2="3327.3" y2="8.9"/>
	<line class="st5" x1="3318.5" y1="1.8" x2="3327.3" y2="1.8"/>
	<line class="st5" x1="3318.5" y1="-5.2" x2="3327.3" y2="-5.2"/>
	<line class="st5" x1="3318.5" y1="-12.3" x2="3327.3" y2="-12.3"/>
	<line class="st5" x1="3318.5" y1="-33.2" x2="3327.3" y2="-33.2"/>
	<line class="st5" x1="3318.5" y1="-40.3" x2="3327.3" y2="-40.3"/>
	<line class="st5" x1="3300.8" y1="-48.2" x2="3309.6" y2="-48.2"/>
	<line class="st5" x1="3318.5" y1="-48.2" x2="3327.3" y2="-48.2"/>
	<line class="st5" x1="3318.5" y1="-26.2" x2="3327.3" y2="-26.2"/>
	<line class="st5" x1="3318.5" y1="-19.4" x2="3327.3" y2="-19.4"/>
	<line class="st5" x1="3318.5" y1="149.4" x2="3327.1" y2="149.4"/>
	<line class="st5" x1="3318.5" y1="142.4" x2="3327.3" y2="142.4"/>
	<line class="st5" x1="3318.5" y1="121.2" x2="3327.3" y2="121.2"/>
	<line class="st5" x1="3318.5" y1="100.1" x2="3327.3" y2="100.1"/>
	<line class="st5" x1="3318.5" y1="114.2" x2="3327.3" y2="114.2"/>
	<line class="st5" x1="3318.5" y1="107.1" x2="3327.3" y2="107.1"/>
	<line class="st5" x1="3318.5" y1="93" x2="3327.3" y2="93"/>
	<line class="st5" x1="3318.5" y1="128.3" x2="3327.3" y2="128.3"/>
	<line class="st5" x1="3318.5" y1="135.3" x2="3327.3" y2="135.3"/>
	<line class="st5" x1="3143" y1="64.8" x2="3151.8" y2="64.8"/>
	<line class="st5" x1="3143" y1="71.8" x2="3151.8" y2="71.8"/>
	<line class="st5" x1="3143" y1="57.7" x2="3151.8" y2="57.7"/>
	<line class="st5" x1="3143" y1="50.7" x2="3151.8" y2="50.7"/>
	<line class="st5" x1="3143" y1="43.6" x2="3151.8" y2="43.6"/>
	<line class="st5" x1="3143" y1="78.9" x2="3151.8" y2="78.9"/>
	<line class="st5" x1="3143" y1="86" x2="3151.8" y2="86"/>
	<line class="st5" x1="3143" y1="22.7" x2="3151.8" y2="22.7"/>
	<line class="st5" x1="3143" y1="15.6" x2="3151.8" y2="15.6"/>
	<line class="st5" x1="3143" y1="29.7" x2="3151.8" y2="29.7"/>
	<line class="st5" x1="3143" y1="36.6" x2="3151.8" y2="36.6"/>
	<line class="st5" x1="3143" y1="149.4" x2="3151.6" y2="149.4"/>
	<line class="st5" x1="3143" y1="142.4" x2="3151.8" y2="142.4"/>
	<line class="st5" x1="3143" y1="121.2" x2="3151.8" y2="121.2"/>
	<line class="st5" x1="3143" y1="100.1" x2="3151.8" y2="100.1"/>
	<line class="st5" x1="3143" y1="114.2" x2="3151.8" y2="114.2"/>
	<line class="st5" x1="3143" y1="107.1" x2="3151.8" y2="107.1"/>
	<line class="st5" x1="3143" y1="93" x2="3151.8" y2="93"/>
	<line class="st5" x1="3143" y1="128.3" x2="3151.8" y2="128.3"/>
	<line class="st5" x1="3143" y1="135.3" x2="3151.8" y2="135.3"/>
	<polyline class="st0" points="3044.3,163.8 3044.3,-44.6 3080,-44.6 3080,-17.5 3097.9,-17.5 3097.9,163.6 	"/>
	<polyline class="st0" points="3044.3,-44.6 3044.3,-51.7 3080,-51.7 3080,-44.6 	"/>
	<line class="st0" x1="3035" y1="-51.7" x2="3089" y2="-51.7"/>
	<line class="st0" x1="3053" y1="-44.6" x2="3053" y2="163.2"/>
	<line class="st0" x1="3062" y1="-44.6" x2="3062" y2="163.2"/>
	<line class="st0" x1="3071.1" y1="-44.6" x2="3071.1" y2="163.2"/>
	<line class="st0" x1="3080" y1="-17.5" x2="3080" y2="163.2"/>
	<line class="st0" x1="3089" y1="-17.5" x2="3089" y2="163.2"/>
	<polyline class="st0" points="3161.4,33.2 3161.4,-88.9 3170,-88.9 3170,162.8 	"/>
	<line class="st3" x1="3165.7" y1="-83" x2="3165.7" y2="159.8"/>
	<polyline class="st0" points="3097.9,1.3 3161.2,1.3 3161.2,163.2 	"/>
	<rect x="3151.8" y="-116" class="st0" width="27.2" height="27.1"/>
	<line class="st0" x1="3151.8" y1="-98.4" x2="3179" y2="-98.4"/>
	<line class="st0" x1="3151.8" y1="-107" x2="3179" y2="-107"/>
	<polyline class="st0" points="3156.7,-116 3156.7,-124.7 3156.7,-133.4 3174.3,-133.4 3174.3,-116 	"/>
	<line class="st0" x1="3156.7" y1="-124.7" x2="3174.3" y2="-124.7"/>
	<line class="st0" x1="3165.7" y1="-133.4" x2="3165.7" y2="-160.7"/>
	<polyline class="st0" points="3170,-17.5 3179,-17.5 3179,-25.1 3223.5,-25.1 3223.5,-17.5 3232,-17.5 3232,163.8 	"/>
	<line class="st5" x1="3179" y1="149.4" x2="3223.7" y2="149.4"/>
	<line class="st5" x1="3179" y1="142.4" x2="3223.7" y2="142.4"/>
	<line class="st5" x1="3179" y1="135.3" x2="3223.7" y2="135.3"/>
	<line class="st5" x1="3179" y1="128.3" x2="3223.7" y2="128.3"/>
	<line class="st5" x1="3179" y1="121.2" x2="3223.7" y2="121.2"/>
	<line class="st5" x1="3179" y1="114.2" x2="3223.7" y2="114.2"/>
	<line class="st5" x1="3179" y1="107.1" x2="3223.7" y2="107.1"/>
	<line class="st5" x1="3179" y1="93" x2="3223.7" y2="93"/>
	<line class="st5" x1="3179" y1="100.1" x2="3223.7" y2="100.1"/>
	<line class="st5" x1="3179" y1="71.8" x2="3223.7" y2="71.8"/>
	<line class="st5" x1="3179" y1="86" x2="3223.7" y2="86"/>
	<line class="st5" x1="3179" y1="78.9" x2="3223.7" y2="78.9"/>
	<line class="st5" x1="3179" y1="65" x2="3223.7" y2="65"/>
	<line class="st5" x1="3179" y1="50.9" x2="3223.7" y2="50.9"/>
	<line class="st5" x1="3179" y1="57.9" x2="3223.7" y2="57.9"/>
	<line class="st5" x1="3179" y1="29.7" x2="3223.7" y2="29.7"/>
	<line class="st5" x1="3179" y1="43.8" x2="3223.7" y2="43.8"/>
	<line class="st5" x1="3179" y1="36.8" x2="3223.7" y2="36.8"/>
	<line class="st5" x1="3179" y1="22.7" x2="3223.7" y2="22.7"/>
	<line class="st5" x1="3179" y1="8.6" x2="3223.7" y2="8.6"/>
	<line class="st5" x1="3179" y1="15.6" x2="3223.7" y2="15.6"/>
	<line class="st5" x1="3179" y1="1.5" x2="3223.7" y2="1.5"/>
	<line class="st5" x1="3179" y1="-5.5" x2="3223.7" y2="-5.5"/>
	<polyline class="st0" points="3231.7,64.8 3250.5,64.8 3250.5,47.2 3268.5,47.2 3268.5,27.7 3287,27.7 3287,163.6 3287,-61.2 
		3340.7,-61.2 3340.7,163.6 	"/>
	<line class="st0" x1="3250.5" y1="64.8" x2="3250.5" y2="162.8"/>
	<line class="st0" x1="3268.5" y1="47.2" x2="3268.5" y2="163.2"/>
	<line class="st3" x1="3278" y1="36.6" x2="3278" y2="156.1"/>
	<line class="st3" x1="3259.4" y1="55.9" x2="3259.4" y2="156"/>
	<line class="st3" x1="3241" y1="73.4" x2="3241" y2="156"/>
	<polyline class="st0" points="3295.6,-61.2 3295.6,-80.3 3314.1,-80.3 3314.1,-61.2 	"/>
	<line class="st0" x1="3304.8" y1="-80.3" x2="3304.8" y2="-107"/>
	<line class="st1" x1="3170" y1="163.2" x2="3170" y2="243.7"/>
	<circle class="st2" cx="3170" cy="256.2" r="12.5"/>
</g>
<g id="building-4">
	<polygon class="st4" points="2767.7,118.2 2767.7,163.8 2790.2,163.8 2790.2,129.5 	"/>
	<polygon class="st4" points="2727.5,107.5 2727.5,163.8 2745.7,163.8 2745.7,95.6 	"/>
	<polygon class="st4" points="2817.1,73.4 2817.1,163.8 2843.4,163.8 2843.4,100.2 	"/>
	<polygon class="st4" points="2897.8,82.3 2897.8,163.8 2942.5,163.8 2942.5,117.2 2952,117.2 2924.2,82.3 	"/>
	<line class="st5" x1="2754.2" y1="137.7" x2="2763" y2="137.7"/>
	<line class="st5" x1="2754.2" y1="149.7" x2="2763.1" y2="149.7"/>
	<line class="st5" x1="2754.2" y1="143.7" x2="2763" y2="143.7"/>
	<line class="st5" x1="2709" y1="137.7" x2="2717.9" y2="137.7"/>
	<line class="st5" x1="2709" y1="131.1" x2="2717.9" y2="131.1"/>
	<line class="st5" x1="2709.1" y1="149.7" x2="2718" y2="149.7"/>
	<line class="st5" x1="2709" y1="143.7" x2="2717.9" y2="143.7"/>
	<line class="st5" x1="2804.4" y1="156" x2="2813.3" y2="156"/>
	<line class="st5" x1="2804.4" y1="137.7" x2="2813.3" y2="137.7"/>
	<line class="st5" x1="2804.4" y1="131.1" x2="2813.3" y2="131.1"/>
	<line class="st5" x1="2804.5" y1="149.7" x2="2813.4" y2="149.7"/>
	<line class="st5" x1="2804.4" y1="143.7" x2="2813.3" y2="143.7"/>
	<line class="st5" x1="2822.3" y1="156" x2="2831.1" y2="156"/>
	<line class="st5" x1="2822.3" y1="137.7" x2="2831.1" y2="137.7"/>
	<line class="st5" x1="2822.3" y1="131.1" x2="2831.1" y2="131.1"/>
	<line class="st5" x1="2822.3" y1="149.7" x2="2831.2" y2="149.7"/>
	<line class="st5" x1="2822.3" y1="143.7" x2="2831.1" y2="143.7"/>
	<line class="st5" x1="2772.2" y1="137.7" x2="2781" y2="137.7"/>
	<line class="st5" x1="2772.2" y1="149.7" x2="2781.1" y2="149.7"/>
	<line class="st5" x1="2772.2" y1="143.7" x2="2781" y2="143.7"/>
	<line class="st5" x1="2880.2" y1="149.7" x2="2889.1" y2="149.7"/>
	<line class="st5" x1="2880.1" y1="143.7" x2="2889" y2="143.7"/>
	<line class="st5" x1="2907.3" y1="149.7" x2="2916.2" y2="149.7"/>
	<line class="st5" x1="2907.2" y1="143.7" x2="2916.1" y2="143.7"/>
	<polyline class="st0" points="2700.6,139 2700.6,163.8 2700.6,125.3 2745.4,95.6 2745.4,163.3 	"/>
	<line class="st0" x1="2682.1" y1="163.2" x2="2682.1" y2="149.1"/>
	<circle class="st0" cx="2682.1" cy="140.4" r="8.6"/>
	<polyline class="st0" points="2673.7,142.5 2678.6,138.4 2682.1,141.8 2686.1,138.4 2690.3,142.9 	"/>
	<line class="st0" x1="2700.6" y1="125.3" x2="2692.1" y2="131.1"/>
	<polyline class="st0" points="2745.4,107.5 2789.9,129.7 2789.9,163.8 2789.9,100.2 2843.8,100.2 2843.8,163.8 	"/>
	<line class="st0" x1="2786.9" y1="128.2" x2="2797.8" y2="133.8"/>
	<line class="st0" x1="2736" y1="101.8" x2="2736" y2="163.2"/>
	<line class="st0" x1="2727.5" y1="107.5" x2="2727.5" y2="163.8"/>
	<line class="st0" x1="2789.9" y1="129.7" x2="2745.4" y2="129.7"/>
	<polyline class="st0" points="2789.9,100.2 2816.8,73.4 2843.8,100.2 	"/>
	<line class="st0" x1="2789.9" y1="118.2" x2="2843.8" y2="118.2"/>
	<line class="st3" x1="2799.1" y1="104.1" x2="2799.1" y2="114.2"/>
	<line class="st3" x1="2808" y1="104.1" x2="2808" y2="114.2"/>
	<line class="st3" x1="2803.5" y1="104.1" x2="2803.5" y2="114.2"/>
	<line class="st3" x1="2812.6" y1="104.1" x2="2812.6" y2="114.2"/>
	<line class="st3" x1="2821.7" y1="104.1" x2="2821.7" y2="114.2"/>
	<line class="st3" x1="2817.2" y1="104.1" x2="2817.2" y2="114.2"/>
	<line class="st3" x1="2826.2" y1="104.1" x2="2826.2" y2="114.2"/>
	<line class="st3" x1="2831.1" y1="104.1" x2="2831.1" y2="114.2"/>
	<line class="st3" x1="2835.7" y1="104.1" x2="2835.7" y2="114.2"/>
	<line class="st3" x1="2879.6" y1="121" x2="2879.6" y2="131.1"/>
	<line class="st3" x1="2888.5" y1="121" x2="2888.5" y2="131.1"/>
	<line class="st3" x1="2884.1" y1="121" x2="2884.1" y2="131.1"/>
	<line class="st3" x1="2893.2" y1="121" x2="2893.2" y2="131.1"/>
	<line class="st3" x1="2902.3" y1="121" x2="2902.3" y2="131.1"/>
	<line class="st3" x1="2897.8" y1="121" x2="2897.8" y2="131.1"/>
	<line class="st3" x1="2906.8" y1="121" x2="2906.8" y2="131.1"/>
	<line class="st3" x1="2911.7" y1="121" x2="2911.7" y2="131.1"/>
	<line class="st3" x1="2916.2" y1="121" x2="2916.2" y2="131.1"/>
	<polyline class="st0" points="2861.7,117.2 2853,117.2 2853,163.2 	"/>
	<path class="st0" d="M2925.2,117.2"/>
	<polyline class="st0" points="2933.3,117.2 2942.5,117.2 2942.5,163.8 	"/>
	<polygon class="st0" points="2843.8,117.2 2952,117.2 2925,82.3 2870.8,82.3 	"/>
	<polygon class="st0" points="2897.9,82.3 2870.7,117.2 2925.2,117.2 	"/>
	<polyline class="st0" points="2870.7,163.8 2870.7,117.2 2925.2,117.2 2925.2,163.8 	"/>
	<line class="st0" x1="2870.7" y1="135.7" x2="2925.2" y2="135.7"/>
	<line class="st0" x1="2925.2" y1="127.2" x2="2942.5" y2="127.2"/>
	<line class="st0" x1="2870.7" y1="127.2" x2="2853" y2="127.2"/>
	<line class="st0" x1="2965.3" y1="163.2" x2="2965.3" y2="149.1"/>
	<polyline class="st0" points="2957.2,132.5 2961.9,128.1 2965.4,131.5 2969.4,128.1 2973.6,132.6 	"/>
	<path class="st0" d="M2973.6,132.6c1-1.6,1.6-3.4,1.6-5.4c0-5.4-4.4-9.8-9.8-9.8s-9.8,4.4-9.8,9.8c0,2,0.6,3.9,1.6,5.4
		c-3,1.3-5.1,4.4-5.1,7.9c0,4.8,3.9,8.6,8.6,8.6c1.7,0,3.4-0.5,4.7-1.4c1.4,0.9,3,1.4,4.7,1.4c4.8,0,8.6-3.9,8.6-8.6
		C2978.7,136.9,2976.6,133.9,2973.6,132.6z"/>
	<line class="st0" x1="2981.6" y1="163.2" x2="2981.6" y2="149.1"/>
	<polyline class="st0" points="2973.5,132.5 2978.2,128.1 2981.7,131.5 2985.7,128.1 2990,132.6 	"/>
	<path class="st0" d="M2973.6,148.4c1,0.4,2.2,0.7,3.4,0.7c1.7,0,3.4-0.5,4.7-1.4c1.4,0.9,3,1.4,4.7,1.4c4.8,0,8.6-3.9,8.6-8.6
		c0-3.5-2.1-6.5-5.1-7.9c1-1.6,1.6-3.4,1.6-5.4c0-5.4-4.4-9.8-9.8-9.8c-3.4,0-6.4,1.7-8.1,4.3"/>
	<line class="st5" x1="2754.2" y1="156" x2="2763" y2="156"/>
	<line class="st5" x1="2709" y1="156" x2="2717.9" y2="156"/>
	<line class="st5" x1="2772.2" y1="156" x2="2781" y2="156"/>
	<line class="st5" x1="2880.1" y1="156" x2="2889" y2="156"/>
	<line class="st5" x1="2907.2" y1="156" x2="2916.1" y2="156"/>
	<line class="st1" x1="2843.4" y1="163.2" x2="2843.4" y2="243.7"/>
	<circle class="st2" cx="2843.4" cy="256.2" r="12.5"/>
</g>
<g id="building-3">
	<path class="st4" d="M2495.1,163.8c0,0,24.1-27.3,57-27.3c15.8,0,30.9,10.4,30.9,10.4s-10.3,2.1-23.9,16.9
		C2538.3,163.8,2495.1,163.8,2495.1,163.8z"/>
	<polygon class="st4" points="2393.1,109.2 2393.1,163.8 2411,163.8 2411,127.2 	"/>
	<polygon class="st4" points="2433.4,100.2 2433.4,163.8 2455.9,163.8 2455.9,118.2 	"/>
	<line class="st5" x1="2419.9" y1="156" x2="2428.8" y2="156"/>
	<line class="st5" x1="2384.5" y1="156" x2="2401.8" y2="156"/>
	<line class="st5" x1="2384.5" y1="149.7" x2="2401.8" y2="149.7"/>
	<line class="st5" x1="2384.5" y1="143.7" x2="2401.8" y2="143.7"/>
	<line class="st5" x1="2419.8" y1="150" x2="2428.7" y2="150"/>
	<line class="st5" x1="2438.1" y1="156" x2="2447" y2="156"/>
	<line class="st5" x1="2438" y1="150" x2="2446.9" y2="150"/>
	<line class="st5" x1="2419.8" y1="143.9" x2="2428.7" y2="143.9"/>
	<line class="st5" x1="2438" y1="143.9" x2="2446.9" y2="143.9"/>
	<polyline class="st0" points="2375.2,143.7 2277.1,143.7 2277.1,156 2375.2,156 	"/>
	<line class="st0" x1="2326.1" y1="163.8" x2="2326.1" y2="143.9"/>
	<line class="st0" x1="2351" y1="163.8" x2="2351" y2="143.9"/>
	<polyline class="st0" points="2375.2,143.9 2375.2,163.8 2375.2,127.2 2411,127.2 2411,163.4 	"/>
	<line class="st0" x1="2301.7" y1="163.8" x2="2301.7" y2="143.9"/>
	<line class="st0" x1="2277.1" y1="163.8" x2="2277.1" y2="143.9"/>
	<line class="st3" x1="2280.7" y1="143.7" x2="2280.7" y2="156"/>
	<line class="st3" x1="2283.7" y1="143.7" x2="2283.7" y2="156"/>
	<line class="st3" x1="2286.6" y1="143.7" x2="2286.6" y2="156"/>
	<line class="st3" x1="2289.6" y1="143.7" x2="2289.6" y2="156"/>
	<line class="st3" x1="2292.5" y1="143.7" x2="2292.5" y2="156"/>
	<line class="st3" x1="2295.5" y1="143.7" x2="2295.5" y2="156"/>
	<line class="st3" x1="2298.5" y1="143.7" x2="2298.5" y2="156"/>
	<line class="st3" x1="2305" y1="143.7" x2="2305" y2="156"/>
	<line class="st3" x1="2308" y1="143.7" x2="2308" y2="156"/>
	<line class="st3" x1="2311" y1="143.7" x2="2311" y2="156"/>
	<line class="st3" x1="2313.9" y1="143.7" x2="2313.9" y2="156"/>
	<line class="st3" x1="2316.9" y1="143.7" x2="2316.9" y2="156"/>
	<line class="st3" x1="2319.8" y1="143.7" x2="2319.8" y2="156"/>
	<line class="st3" x1="2322.8" y1="143.7" x2="2322.8" y2="156"/>
	<line class="st3" x1="2329.5" y1="143.7" x2="2329.5" y2="156"/>
	<line class="st3" x1="2332.5" y1="143.7" x2="2332.5" y2="156"/>
	<line class="st3" x1="2335.5" y1="143.7" x2="2335.5" y2="156"/>
	<line class="st3" x1="2338.4" y1="143.7" x2="2338.4" y2="156"/>
	<line class="st3" x1="2341.4" y1="143.7" x2="2341.4" y2="156"/>
	<line class="st3" x1="2344.3" y1="143.7" x2="2344.3" y2="156"/>
	<line class="st3" x1="2347.3" y1="143.7" x2="2347.3" y2="156"/>
	<line class="st3" x1="2354.6" y1="143.7" x2="2354.6" y2="156"/>
	<line class="st3" x1="2357.6" y1="143.7" x2="2357.6" y2="156"/>
	<line class="st3" x1="2360.5" y1="143.7" x2="2360.5" y2="156"/>
	<line class="st3" x1="2363.5" y1="143.7" x2="2363.5" y2="156"/>
	<line class="st3" x1="2366.4" y1="143.7" x2="2366.4" y2="156"/>
	<line class="st3" x1="2369.4" y1="143.7" x2="2369.4" y2="156"/>
	<line class="st3" x1="2372.3" y1="143.7" x2="2372.3" y2="156"/>
	<polyline class="st0" points="2482.4,143.7 2580.5,143.7 2580.5,156 2482.4,156 	"/>
	<line class="st0" x1="2531.5" y1="163.8" x2="2531.5" y2="143.9"/>
	<line class="st0" x1="2506.6" y1="163.8" x2="2506.6" y2="143.9"/>
	<path class="st0" d="M2481.1,143.9v19.9c0,0,31.5-27.3,65.5-27.3c14.4,0,27.1,4.4,37.6,10"/>
	<path class="st0" d="M2559.1,143.9v19.9c0,0,12.1-18.6,40.1-18.6s40.1,18.6,40.1,18.6"/>
	<path class="st4" d="M2639.2,163.8c0,0-12.1-18.6-40.1-18.6c0,0-17.8,1-28.2,18.6H2639.2z"/>
	<line class="st0" x1="2555.9" y1="163.8" x2="2555.9" y2="143.9"/>
	<line class="st0" x1="2580.5" y1="163.8" x2="2580.5" y2="143.9"/>
	<line class="st3" x1="2576.9" y1="143.7" x2="2576.9" y2="156"/>
	<line class="st3" x1="2573.9" y1="143.7" x2="2573.9" y2="156"/>
	<line class="st3" x1="2571" y1="143.7" x2="2571" y2="156"/>
	<line class="st3" x1="2568" y1="143.7" x2="2568" y2="156"/>
	<line class="st3" x1="2565" y1="143.7" x2="2565" y2="156"/>
	<line class="st3" x1="2562.1" y1="143.7" x2="2562.1" y2="156"/>
	<line class="st3" x1="2559.1" y1="143.7" x2="2559.1" y2="156"/>
	<line class="st3" x1="2552.5" y1="143.7" x2="2552.5" y2="156"/>
	<line class="st3" x1="2549.6" y1="143.7" x2="2549.6" y2="156"/>
	<line class="st3" x1="2546.6" y1="143.7" x2="2546.6" y2="156"/>
	<line class="st3" x1="2543.7" y1="143.7" x2="2543.7" y2="156"/>
	<line class="st3" x1="2540.7" y1="143.7" x2="2540.7" y2="156"/>
	<line class="st3" x1="2537.8" y1="143.7" x2="2537.8" y2="156"/>
	<line class="st3" x1="2534.8" y1="143.7" x2="2534.8" y2="156"/>
	<line class="st3" x1="2528" y1="143.7" x2="2528" y2="156"/>
	<line class="st3" x1="2525.1" y1="143.7" x2="2525.1" y2="156"/>
	<line class="st3" x1="2522.1" y1="143.7" x2="2522.1" y2="156"/>
	<line class="st3" x1="2519.2" y1="143.7" x2="2519.2" y2="156"/>
	<line class="st3" x1="2516.2" y1="143.7" x2="2516.2" y2="156"/>
	<line class="st3" x1="2513.3" y1="143.7" x2="2513.3" y2="156"/>
	<line class="st3" x1="2510.3" y1="143.7" x2="2510.3" y2="156"/>
	<line class="st3" x1="2503" y1="143.7" x2="2503" y2="156"/>
	<line class="st3" x1="2500" y1="143.7" x2="2500" y2="156"/>
	<line class="st3" x1="2497.1" y1="143.7" x2="2497.1" y2="156"/>
	<line class="st3" x1="2494.1" y1="143.7" x2="2494.1" y2="156"/>
	<line class="st3" x1="2491.2" y1="143.7" x2="2491.2" y2="156"/>
	<line class="st3" x1="2488.2" y1="143.7" x2="2488.2" y2="156"/>
	<line class="st3" x1="2485.2" y1="143.7" x2="2485.2" y2="156"/>
	<polyline class="st0" points="2375.2,127.2 2393.1,109.2 2411,127.2 	"/>
	<polyline class="st0" points="2411,139 2411,163.8 2411,118.2 2455.8,118.2 2455.8,163.3 	"/>
	<polyline class="st0" points="2411,118.2 2433.4,100.2 2455.8,118.2 	"/>
	<line class="st0" x1="2411" y1="136.6" x2="2455.8" y2="136.6"/>
	<line class="st0" x1="2375.2" y1="136.6" x2="2411" y2="136.6"/>
	<line class="st3" x1="2419.8" y1="122" x2="2419.8" y2="132.2"/>
	<line class="st3" x1="2428.7" y1="122" x2="2428.7" y2="132.2"/>
	<line class="st3" x1="2424.3" y1="122" x2="2424.3" y2="132.2"/>
	<line class="st3" x1="2433.4" y1="122" x2="2433.4" y2="132.2"/>
	<line class="st3" x1="2442.4" y1="122" x2="2442.4" y2="132.2"/>
	<line class="st3" x1="2438" y1="122" x2="2438" y2="132.2"/>
	<line class="st3" x1="2447" y1="122" x2="2447" y2="132.2"/>
	<line class="st0" x1="2380.4" y1="122" x2="2380.4" y2="113.8"/>
	<line class="st0" x1="2418" y1="111.8" x2="2418" y2="99"/>
	<line class="st0" x1="2473.1" y1="163.2" x2="2473.1" y2="149.1"/>
	<circle class="st0" cx="2473.1" cy="140.4" r="8.6"/>
	<polyline class="st0" points="2464.7,142.5 2469.6,138.4 2473.1,141.8 2477.1,138.4 2481.3,142.9 	"/>
	<line class="st1" x1="2411" y1="163.2" x2="2411" y2="243.7"/>
	<circle class="st2" cx="2411" cy="256.2" r="12.5"/>
</g>
<g id="building-2">
	<path class="st3" d="M2079.9,29.6c0,0-14.4,21.8-45.1,7.5"/>
	<path class="st3" d="M2079.9,29.6c0,0-20.1,16.5-45.1,0.7"/>
	<g class="st6">
		<polygon class="st7" points="2034.8,18.6 2043.9,18.6 2043.9,23.6 2039.5,23.6 2039.5,28.6 2034.8,28.6 2034.8,163.8 
			2012.3,163.8 2012.3,18.6 		"/>
	</g>
	<polyline class="st0" points="2034.8,163.4 2034.8,28.6 1990,28.6 1990,163.4 	"/>
	<polyline class="st0" points="2034.8,28.6 2039.5,28.6 2039.5,23.6 1985.2,23.6 1985.2,28.6 1989.9,28.6 	"/>
	<polyline class="st0" points="1985.2,23.6 1980.9,23.6 1980.9,18.6 2043.9,18.6 2043.9,23.6 2039.4,23.6 	"/>
	<polyline class="st0" points="1989.9,18.6 1989.9,10.6 1999,10.6 1999,18.6 	"/>
	<polyline class="st0" points="2000,13.5 2007.8,13.5 2007.8,18.6 	"/>
	<rect x="1990" y="91.4" class="st0" width="44.9" height="9.3"/>
	<line class="st8" x1="1993.6" y1="96" x2="2031.2" y2="96"/>
	<rect x="1990" y="127.4" class="st0" width="44.9" height="9.3"/>
	<line class="st8" x1="1993.6" y1="132" x2="2031.2" y2="132"/>
	<rect x="1990" y="55.3" class="st0" width="44.9" height="9.3"/>
	<line class="st8" x1="1993.6" y1="59.9" x2="2031.2" y2="59.9"/>
	<line class="st5" x1="1999" y1="36.1" x2="2007.8" y2="36.1"/>
	<line class="st5" x1="1999.1" y1="48.1" x2="2007.9" y2="48.1"/>
	<line class="st5" x1="1999" y1="42.1" x2="2007.8" y2="42.1"/>
	<line class="st5" x1="2017.1" y1="36.1" x2="2026" y2="36.1"/>
	<line class="st5" x1="2017.2" y1="48.1" x2="2026.1" y2="48.1"/>
	<line class="st5" x1="2017.1" y1="42.1" x2="2026" y2="42.1"/>
	<line class="st5" x1="1999" y1="143.9" x2="2007.8" y2="143.9"/>
	<line class="st5" x1="1999.1" y1="156" x2="2007.9" y2="156"/>
	<line class="st5" x1="1999" y1="150" x2="2007.8" y2="150"/>
	<line class="st5" x1="2017.1" y1="143.9" x2="2026" y2="143.9"/>
	<line class="st5" x1="2017.2" y1="156" x2="2026.1" y2="156"/>
	<line class="st5" x1="2017.1" y1="150" x2="2026" y2="150"/>
	<line class="st5" x1="1999" y1="72" x2="2007.8" y2="72"/>
	<line class="st5" x1="1999.1" y1="84" x2="2007.9" y2="84"/>
	<line class="st5" x1="2017.1" y1="72" x2="2026" y2="72"/>
	<line class="st5" x1="2017.2" y1="84" x2="2026.1" y2="84"/>
	<line class="st5" x1="1999.1" y1="78" x2="2026" y2="78"/>
	<line class="st5" x1="1999" y1="108" x2="2007.8" y2="108"/>
	<line class="st5" x1="1999.1" y1="120" x2="2007.9" y2="120"/>
	<line class="st5" x1="2017.1" y1="108" x2="2026" y2="108"/>
	<line class="st5" x1="2017.2" y1="120" x2="2026.1" y2="120"/>
	<line class="st5" x1="1999.1" y1="114" x2="2026" y2="114"/>
	<g class="st6">
		<rect x="2102.3" y="128.9" class="st7" width="22.5" height="34.5"/>
	</g>
	<g class="st6">
		<rect x="2102.3" y="73.6" class="st7" width="22.5" height="41.7"/>
	</g>
	<g class="st6">
		<polygon class="st7" points="2233.3,55.4 2233.3,163.1 2179.1,163.1 2179.1,46.1 2224,46.1 2224,55.4 		"/>
	</g>
	<g class="st6">
		<polygon class="st7" points="2124.8,14.6 2124.8,23.6 2129.4,23.6 2129.4,28.6 2124.8,28.6 2124.8,60.4 2102.3,60.4 2102.3,14.6 
					"/>
	</g>
	<polyline class="st0" points="2124.8,163.4 2124.8,28.6 2079.9,28.6 2079.9,163.4 	"/>
	<polyline class="st0" points="2124.8,28.6 2129.4,28.6 2129.4,23.6 2075.1,23.6 2075.1,28.6 2079.9,28.6 	"/>
	<rect x="2079.9" y="55.3" class="st0" width="44.9" height="4.8"/>
	<line class="st5" x1="2088.9" y1="36.1" x2="2097.8" y2="36.1"/>
	<line class="st5" x1="2089" y1="48.1" x2="2097.9" y2="48.1"/>
	<line class="st5" x1="2088.9" y1="42.1" x2="2097.8" y2="42.1"/>
	<line class="st5" x1="2152.1" y1="62.7" x2="2161" y2="62.7"/>
	<line class="st5" x1="2152.2" y1="74.7" x2="2161.1" y2="74.7"/>
	<line class="st5" x1="2152.1" y1="68.7" x2="2161" y2="68.7"/>
	<line class="st5" x1="2152.1" y1="80.8" x2="2161" y2="80.8"/>
	<line class="st5" x1="2152.2" y1="92.8" x2="2161.1" y2="92.8"/>
	<line class="st5" x1="2152.1" y1="86.8" x2="2161" y2="86.8"/>
	<line class="st5" x1="2152.1" y1="98.8" x2="2161" y2="98.8"/>
	<line class="st5" x1="2152.2" y1="110.8" x2="2161.1" y2="110.8"/>
	<line class="st5" x1="2152.1" y1="104.8" x2="2161" y2="104.8"/>
	<line class="st5" x1="2152.1" y1="116.8" x2="2161" y2="116.8"/>
	<line class="st5" x1="2152.2" y1="128.8" x2="2161.1" y2="128.8"/>
	<line class="st5" x1="2152.1" y1="122.8" x2="2161" y2="122.8"/>
	<line class="st5" x1="2152.2" y1="140.9" x2="2161.1" y2="140.9"/>
	<line class="st5" x1="2152.1" y1="134.9" x2="2161" y2="134.9"/>
	<line class="st5" x1="2152.1" y1="146.9" x2="2161" y2="146.9"/>
	<line class="st5" x1="2152.1" y1="152.9" x2="2161" y2="152.9"/>
	<line class="st5" x1="2197" y1="62.7" x2="2205.9" y2="62.7"/>
	<line class="st5" x1="2197.1" y1="74.7" x2="2206" y2="74.7"/>
	<line class="st5" x1="2197" y1="68.7" x2="2205.9" y2="68.7"/>
	<line class="st5" x1="2197" y1="80.8" x2="2205.9" y2="80.8"/>
	<line class="st5" x1="2197.1" y1="92.8" x2="2206" y2="92.8"/>
	<line class="st5" x1="2197" y1="86.8" x2="2205.9" y2="86.8"/>
	<line class="st5" x1="2197" y1="98.8" x2="2205.9" y2="98.8"/>
	<line class="st5" x1="2197.1" y1="110.8" x2="2206" y2="110.8"/>
	<line class="st5" x1="2197" y1="104.8" x2="2205.9" y2="104.8"/>
	<line class="st5" x1="2197" y1="116.8" x2="2205.9" y2="116.8"/>
	<line class="st5" x1="2197.1" y1="128.8" x2="2206" y2="128.8"/>
	<line class="st5" x1="2197" y1="122.8" x2="2205.9" y2="122.8"/>
	<line class="st5" x1="2197.1" y1="140.9" x2="2206" y2="140.9"/>
	<line class="st5" x1="2197" y1="134.9" x2="2205.9" y2="134.9"/>
	<line class="st5" x1="2197" y1="146.9" x2="2205.9" y2="146.9"/>
	<line class="st5" x1="2197" y1="152.9" x2="2205.9" y2="152.9"/>
	<line class="st5" x1="2174.6" y1="140.9" x2="2183.5" y2="140.9"/>
	<line class="st5" x1="2174.5" y1="134.9" x2="2183.4" y2="134.9"/>
	<line class="st5" x1="2174.5" y1="146.9" x2="2183.4" y2="146.9"/>
	<line class="st5" x1="2174.5" y1="152.9" x2="2183.4" y2="152.9"/>
	<line class="st5" x1="2107.1" y1="36.1" x2="2116" y2="36.1"/>
	<line class="st5" x1="2107.2" y1="48.1" x2="2116.1" y2="48.1"/>
	<line class="st5" x1="2107.1" y1="42.1" x2="2116" y2="42.1"/>
	<g class="st6">
		<rect x="2057.3" y="82.2" class="st7" width="22.5" height="81.2"/>
	</g>
	<line class="st5" x1="2044" y1="143.9" x2="2052.9" y2="143.9"/>
	<line class="st5" x1="2044.1" y1="156" x2="2053" y2="156"/>
	<line class="st5" x1="2044" y1="150" x2="2052.9" y2="150"/>
	<line class="st5" x1="2044" y1="125.8" x2="2052.9" y2="125.8"/>
	<line class="st5" x1="2044.1" y1="137.8" x2="2053" y2="137.8"/>
	<line class="st5" x1="2044" y1="131.8" x2="2052.9" y2="131.8"/>
	<line class="st5" x1="2044" y1="107.5" x2="2052.9" y2="107.5"/>
	<line class="st5" x1="2044.1" y1="119.6" x2="2053" y2="119.6"/>
	<line class="st5" x1="2044" y1="113.6" x2="2052.9" y2="113.6"/>
	<line class="st5" x1="2044" y1="101.6" x2="2052.9" y2="101.6"/>
	<line class="st5" x1="2062" y1="143.9" x2="2070.9" y2="143.9"/>
	<line class="st5" x1="2062.1" y1="156" x2="2071" y2="156"/>
	<line class="st5" x1="2062" y1="150" x2="2070.9" y2="150"/>
	<line class="st5" x1="2062" y1="125.8" x2="2070.9" y2="125.8"/>
	<line class="st5" x1="2062.1" y1="137.8" x2="2071" y2="137.8"/>
	<line class="st5" x1="2062" y1="131.8" x2="2070.9" y2="131.8"/>
	<line class="st5" x1="2062" y1="107.5" x2="2070.9" y2="107.5"/>
	<line class="st5" x1="2062.1" y1="119.6" x2="2071" y2="119.6"/>
	<line class="st5" x1="2062" y1="113.6" x2="2070.9" y2="113.6"/>
	<line class="st5" x1="2062" y1="101.6" x2="2070.9" y2="101.6"/>
	<line class="st5" x1="2089" y1="156" x2="2097.9" y2="156"/>
	<line class="st5" x1="2089" y1="137.7" x2="2097.9" y2="137.7"/>
	<line class="st5" x1="2089.1" y1="149.7" x2="2098" y2="149.7"/>
	<line class="st5" x1="2089" y1="143.7" x2="2097.9" y2="143.7"/>
	<line class="st5" x1="2107" y1="156" x2="2115.9" y2="156"/>
	<line class="st5" x1="2107" y1="137.7" x2="2115.9" y2="137.7"/>
	<line class="st5" x1="2107.1" y1="149.7" x2="2116" y2="149.7"/>
	<line class="st5" x1="2107" y1="143.7" x2="2115.9" y2="143.7"/>
	<polyline class="st0" points="2034.8,91.4 2079.8,91.4 2079.8,163.8 	"/>
	<polyline class="st0" points="2079.8,91.4 2079.8,82 2034.8,82 	"/>
	<line class="st0" x1="2034.8" y1="86.7" x2="2079.8" y2="86.7"/>
	<polyline class="st0" points="2079.8,22.5 2079.8,14.6 2124.8,14.6 2124.8,23 	"/>
	<polyline class="st0" points="2084.4,14.6 2084.4,5.8 2093.4,5.8 2093.4,14.6 	"/>
	<line class="st0" x1="2079.9" y1="73.6" x2="2124.8" y2="73.6"/>
	<line class="st9" x1="2084.4" y1="59.9" x2="2084.4" y2="73.6"/>
	<line class="st9" x1="2088.9" y1="59.9" x2="2088.9" y2="73.6"/>
	<line class="st9" x1="2093.3" y1="59.9" x2="2093.3" y2="73.6"/>
	<line class="st9" x1="2097.8" y1="59.9" x2="2097.8" y2="73.6"/>
	<line class="st9" x1="2106.8" y1="59.9" x2="2106.8" y2="73.6"/>
	<line class="st9" x1="2102.3" y1="59.9" x2="2102.3" y2="73.6"/>
	<line class="st9" x1="2111.3" y1="59.9" x2="2111.3" y2="73.6"/>
	<line class="st9" x1="2115.8" y1="59.9" x2="2115.8" y2="73.6"/>
	<line class="st9" x1="2120.3" y1="59.9" x2="2120.3" y2="73.6"/>
	<rect x="2079.9" y="110.4" class="st0" width="44.9" height="4.8"/>
	<line class="st0" x1="2079.9" y1="128.7" x2="2124.8" y2="128.7"/>
	<line class="st9" x1="2084.4" y1="115.2" x2="2084.4" y2="128.9"/>
	<line class="st9" x1="2088.9" y1="115.1" x2="2088.9" y2="128.7"/>
	<line class="st9" x1="2093.3" y1="115.1" x2="2093.3" y2="128.7"/>
	<line class="st9" x1="2097.8" y1="115.1" x2="2097.8" y2="128.7"/>
	<line class="st9" x1="2106.8" y1="115.1" x2="2106.8" y2="128.7"/>
	<line class="st9" x1="2102.3" y1="115.1" x2="2102.3" y2="128.7"/>
	<line class="st9" x1="2111.3" y1="115.1" x2="2111.3" y2="128.7"/>
	<line class="st9" x1="2115.8" y1="115.1" x2="2115.8" y2="128.7"/>
	<line class="st9" x1="2120.3" y1="115.2" x2="2120.3" y2="128.9"/>
	<line class="st5" x1="2088.9" y1="86.6" x2="2097.8" y2="86.6"/>
	<line class="st5" x1="2089" y1="98.7" x2="2097.9" y2="98.7"/>
	<line class="st5" x1="2088.9" y1="92.6" x2="2097.8" y2="92.6"/>
	<line class="st5" x1="2088.9" y1="80.7" x2="2097.8" y2="80.7"/>
	<line class="st5" x1="2106.9" y1="86.6" x2="2115.8" y2="86.6"/>
	<line class="st5" x1="2107" y1="98.7" x2="2115.9" y2="98.7"/>
	<line class="st5" x1="2106.9" y1="92.6" x2="2115.8" y2="92.6"/>
	<line class="st5" x1="2106.9" y1="80.7" x2="2115.8" y2="80.7"/>
	<line class="st0" x1="2079.8" y1="104.8" x2="2124.8" y2="104.8"/>
	<polyline class="st10" points="2125,55.1 2233,55.1 2232.8,163.8 	"/>
	<line class="st0" x1="2143" y1="55.2" x2="2143" y2="163.2"/>
	<line class="st0" x1="2215" y1="55.2" x2="2215" y2="163.2"/>
	<line class="st0" x1="2188" y1="55.2" x2="2188" y2="163.2"/>
	<line class="st0" x1="2170" y1="55.2" x2="2170" y2="163.2"/>
	<line class="st3" x1="2128.6" y1="147.6" x2="2128.6" y2="160"/>
	<line class="st3" x1="2133.9" y1="147.6" x2="2133.9" y2="160"/>
	<line class="st3" x1="2139.2" y1="147.6" x2="2139.2" y2="160"/>
	<line class="st3" x1="2136.5" y1="147.6" x2="2136.5" y2="160"/>
	<line class="st3" x1="2131.3" y1="147.6" x2="2131.3" y2="160"/>
	<line class="st3" x1="2128.6" y1="112" x2="2128.6" y2="124.4"/>
	<line class="st3" x1="2133.9" y1="112" x2="2133.9" y2="124.4"/>
	<line class="st3" x1="2139.2" y1="112" x2="2139.2" y2="124.4"/>
	<line class="st3" x1="2136.5" y1="112" x2="2136.5" y2="124.4"/>
	<line class="st3" x1="2131.3" y1="112" x2="2131.3" y2="124.4"/>
	<line class="st3" x1="2128.6" y1="76.2" x2="2128.6" y2="88.5"/>
	<line class="st3" x1="2133.9" y1="76.2" x2="2133.9" y2="88.5"/>
	<line class="st3" x1="2139.2" y1="76.2" x2="2139.2" y2="88.5"/>
	<line class="st3" x1="2136.5" y1="76.2" x2="2136.5" y2="88.5"/>
	<line class="st3" x1="2131.3" y1="76.2" x2="2131.3" y2="88.5"/>
	<line class="st3" x1="2139.2" y1="129.6" x2="2128.6" y2="129.6"/>
	<line class="st3" x1="2139.2" y1="134.8" x2="2128.6" y2="134.8"/>
	<line class="st3" x1="2139.2" y1="139.9" x2="2128.6" y2="139.9"/>
	<line class="st3" x1="2139.2" y1="142.5" x2="2128.6" y2="142.5"/>
	<line class="st3" x1="2139.2" y1="137.4" x2="2128.6" y2="137.4"/>
	<line class="st3" x1="2139.2" y1="132.2" x2="2128.6" y2="132.2"/>
	<line class="st3" x1="2139.2" y1="93.8" x2="2128.6" y2="93.8"/>
	<line class="st3" x1="2139.2" y1="99" x2="2128.6" y2="99"/>
	<line class="st3" x1="2139.2" y1="104.2" x2="2128.6" y2="104.2"/>
	<line class="st3" x1="2139.2" y1="106.8" x2="2128.6" y2="106.8"/>
	<line class="st3" x1="2139.2" y1="101.6" x2="2128.6" y2="101.6"/>
	<line class="st3" x1="2139.2" y1="96.4" x2="2128.6" y2="96.4"/>
	<line class="st3" x1="2139.2" y1="58.1" x2="2128.6" y2="58.1"/>
	<line class="st3" x1="2139.2" y1="63.3" x2="2128.6" y2="63.3"/>
	<line class="st3" x1="2139.2" y1="68.5" x2="2128.6" y2="68.5"/>
	<line class="st3" x1="2139.2" y1="71" x2="2128.6" y2="71"/>
	<line class="st3" x1="2139.2" y1="65.9" x2="2128.6" y2="65.9"/>
	<line class="st3" x1="2139.2" y1="60.7" x2="2128.6" y2="60.7"/>
	<line class="st3" x1="2124.8" y1="145.2" x2="2143" y2="145.2"/>
	<line class="st3" x1="2124.8" y1="127.2" x2="2143" y2="127.2"/>
	<line class="st3" x1="2124.8" y1="109.2" x2="2143" y2="109.2"/>
	<line class="st3" x1="2124.8" y1="91.4" x2="2143" y2="91.4"/>
	<line class="st3" x1="2124.8" y1="73.3" x2="2143" y2="73.3"/>
	<line class="st3" x1="2173.7" y1="112" x2="2173.7" y2="124.4"/>
	<line class="st3" x1="2179" y1="112" x2="2179" y2="124.4"/>
	<line class="st3" x1="2184.3" y1="112" x2="2184.3" y2="124.4"/>
	<line class="st3" x1="2181.6" y1="112" x2="2181.6" y2="124.4"/>
	<line class="st3" x1="2176.4" y1="112" x2="2176.4" y2="124.4"/>
	<line class="st3" x1="2173.7" y1="76.2" x2="2173.7" y2="88.5"/>
	<line class="st3" x1="2179" y1="76.2" x2="2179" y2="88.5"/>
	<line class="st3" x1="2184.3" y1="76.2" x2="2184.3" y2="88.5"/>
	<line class="st3" x1="2181.6" y1="76.2" x2="2181.6" y2="88.5"/>
	<line class="st3" x1="2176.4" y1="76.2" x2="2176.4" y2="88.5"/>
	<line class="st3" x1="2169.9" y1="127.2" x2="2188.1" y2="127.2"/>
	<line class="st3" x1="2169.9" y1="109.2" x2="2188.1" y2="109.2"/>
	<line class="st3" x1="2169.9" y1="91.4" x2="2188.1" y2="91.4"/>
	<line class="st3" x1="2169.9" y1="73.3" x2="2188.1" y2="73.3"/>
	<line class="st0" x1="2170" y1="96.4" x2="2188" y2="96.4"/>
	<line class="st0" x1="2170" y1="68.6" x2="2188" y2="68.6"/>
	<polyline class="st0" points="2133.9,54.6 2133.9,46.1 2224,46.1 2224,55.2 	"/>
	<polyline class="st0" points="1989.4,143.7 1891.3,143.7 1891.3,156 1989.4,156 	"/>
	<line class="st0" x1="1940.3" y1="163.8" x2="1940.3" y2="143.9"/>
	<line class="st0" x1="1965.2" y1="163.8" x2="1965.2" y2="143.9"/>
	<line class="st0" x1="1915.9" y1="163.8" x2="1915.9" y2="143.9"/>
	<line class="st0" x1="1891.3" y1="163.8" x2="1891.3" y2="143.9"/>
	<line class="st3" x1="1894.9" y1="143.7" x2="1894.9" y2="156"/>
	<line class="st3" x1="1897.9" y1="143.7" x2="1897.9" y2="156"/>
	<line class="st3" x1="1900.8" y1="143.7" x2="1900.8" y2="156"/>
	<line class="st3" x1="1903.8" y1="143.7" x2="1903.8" y2="156"/>
	<line class="st3" x1="1906.8" y1="143.7" x2="1906.8" y2="156"/>
	<line class="st3" x1="1909.7" y1="143.7" x2="1909.7" y2="156"/>
	<line class="st3" x1="1912.7" y1="143.7" x2="1912.7" y2="156"/>
	<line class="st3" x1="1919.3" y1="143.7" x2="1919.3" y2="156"/>
	<line class="st3" x1="1922.2" y1="143.7" x2="1922.2" y2="156"/>
	<line class="st3" x1="1925.2" y1="143.7" x2="1925.2" y2="156"/>
	<line class="st3" x1="1928.1" y1="143.7" x2="1928.1" y2="156"/>
	<line class="st3" x1="1931.1" y1="143.7" x2="1931.1" y2="156"/>
	<line class="st3" x1="1934" y1="143.7" x2="1934" y2="156"/>
	<line class="st3" x1="1937" y1="143.7" x2="1937" y2="156"/>
	<line class="st3" x1="1943.8" y1="143.7" x2="1943.8" y2="156"/>
	<line class="st3" x1="1946.7" y1="143.7" x2="1946.7" y2="156"/>
	<line class="st3" x1="1949.7" y1="143.7" x2="1949.7" y2="156"/>
	<line class="st3" x1="1952.6" y1="143.7" x2="1952.6" y2="156"/>
	<line class="st3" x1="1955.6" y1="143.7" x2="1955.6" y2="156"/>
	<line class="st3" x1="1958.5" y1="143.7" x2="1958.5" y2="156"/>
	<line class="st3" x1="1961.5" y1="143.7" x2="1961.5" y2="156"/>
	<line class="st3" x1="1968.8" y1="143.7" x2="1968.8" y2="156"/>
	<line class="st3" x1="1971.8" y1="143.7" x2="1971.8" y2="156"/>
	<line class="st3" x1="1974.7" y1="143.7" x2="1974.7" y2="156"/>
	<line class="st3" x1="1977.7" y1="143.7" x2="1977.7" y2="156"/>
	<line class="st3" x1="1980.6" y1="143.7" x2="1980.6" y2="156"/>
	<line class="st3" x1="1983.6" y1="143.7" x2="1983.6" y2="156"/>
	<line class="st3" x1="1986.6" y1="143.7" x2="1986.6" y2="156"/>
	<line class="st0" x1="1872.7" y1="163.2" x2="1872.7" y2="145.5"/>
	<circle class="st0" cx="1872.7" cy="134.8" r="10.8"/>
	<polyline class="st0" points="1862.2,137.4 1868.3,132.2 1872.7,136.5 1877.7,132.2 1883,137.8 	"/>
	<line class="st1" x1="2079.8" y1="163.2" x2="2079.8" y2="243.7"/>
	<circle class="st2" cx="2079.8" cy="256.2" r="12.5"/>
</g>
<g id="building-1">
	

    <!-- wall paths for animating -->
    <path id="wall-08" d="M1827,163.2l-36-179.7l-45-17.3v197"/>
	<path id="wall-07" d="M1696.4-88.9v-21.4h18.2v21.4"/>
	<path id="wall-06" d="M1746-33.8v-55.1h-54.3v252.1"/>
	<path id="wall-05" d="M1650.8-45.1v-12.6h18.3v12.6"/>
	<path id="wall-04" d="M1691.7-16.8h-18.2v-28.3h-27v208.9"/>
	<path id="wall-03" d="M1619.7,10.7V0.9h26.8"/>
	<path id="wall-02" d="M1610.3,102.8V10.7h36.2"/>
    <path id="wall-01" d="M1619.7,163.2 1588.4,-33.8 1579.3,-33.8 1548,163.2"/>
	<!-- wall paths for animating -->


    <line class="st5" x1="1701.1" y1="67.2" x2="1701.1" y2="58.3"/>
	<line class="st5" x1="1709.9" y1="67.2" x2="1709.9" y2="58.3"/>
	<line class="st5" x1="1718.8" y1="67.2" x2="1718.8" y2="58.3"/>
	<line class="st5" x1="1701.1" y1="82.4" x2="1701.1" y2="73.5"/>
	<line class="st5" x1="1709.9" y1="82.4" x2="1709.9" y2="73.5"/>
	<line class="st5" x1="1718.8" y1="82.4" x2="1718.8" y2="73.5"/>
	<line class="st5" x1="1701.1" y1="96.5" x2="1701.1" y2="87.6"/>
	<line class="st5" x1="1709.9" y1="96.5" x2="1709.9" y2="87.6"/>
	<line class="st5" x1="1718.8" y1="96.5" x2="1718.8" y2="87.6"/>
	<line class="st5" x1="1701.1" y1="111.7" x2="1701.1" y2="102.8"/>
	<line class="st5" x1="1709.9" y1="111.7" x2="1709.9" y2="102.8"/>
	<line class="st5" x1="1718.8" y1="111.7" x2="1718.8" y2="102.8"/>
	<line class="st5" x1="1701.1" y1="126.4" x2="1701.1" y2="117.5"/>
	<line class="st5" x1="1709.9" y1="126.4" x2="1709.9" y2="117.5"/>
	<line class="st5" x1="1718.8" y1="126.4" x2="1718.8" y2="117.5"/>
	<line class="st5" x1="1701.1" y1="140.8" x2="1701.1" y2="131.9"/>
	<line class="st5" x1="1709.9" y1="140.8" x2="1709.9" y2="131.9"/>
	<line class="st5" x1="1718.8" y1="140.8" x2="1718.8" y2="131.9"/>
	<line class="st5" x1="1701.1" y1="155.5" x2="1701.1" y2="146.6"/>
	<line class="st5" x1="1709.9" y1="155.5" x2="1709.9" y2="146.6"/>
	<line class="st5" x1="1718.8" y1="155.5" x2="1718.8" y2="146.6"/>
	<line class="st5" x1="1701.1" y1="-36.8" x2="1701.1" y2="-45.7"/>
	<line class="st5" x1="1709.9" y1="-36.8" x2="1709.9" y2="-45.7"/>
	<line class="st5" x1="1718.8" y1="-36.8" x2="1718.8" y2="-45.7"/>
	<line class="st5" x1="1701.1" y1="-21.6" x2="1701.1" y2="-30.4"/>
	<line class="st5" x1="1709.9" y1="-21.6" x2="1709.9" y2="-30.4"/>
	<line class="st5" x1="1718.8" y1="-21.6" x2="1718.8" y2="-30.4"/>
	<line class="st5" x1="1701.1" y1="-67.3" x2="1701.1" y2="-76.2"/>
	<line class="st5" x1="1709.9" y1="-67.3" x2="1709.9" y2="-76.2"/>
	<line class="st5" x1="1718.8" y1="-67.3" x2="1718.8" y2="-76.2"/>
	<line class="st5" x1="1701.1" y1="-52.1" x2="1701.1" y2="-61"/>
	<line class="st5" x1="1709.9" y1="-52.1" x2="1709.9" y2="-61"/>
	<line class="st5" x1="1718.8" y1="-52.1" x2="1718.8" y2="-61"/>
	<line class="st5" x1="1701.1" y1="-7.5" x2="1701.1" y2="-16.4"/>
	<line class="st5" x1="1709.9" y1="-7.5" x2="1709.9" y2="-16.4"/>
	<line class="st5" x1="1718.8" y1="-7.5" x2="1718.8" y2="-16.4"/>
	<line class="st5" x1="1701.1" y1="7.7" x2="1701.1" y2="-1.1"/>
	<line class="st5" x1="1709.9" y1="7.7" x2="1709.9" y2="-1.1"/>
	<line class="st5" x1="1718.8" y1="7.7" x2="1718.8" y2="-1.1"/>
	<line class="st5" x1="1701.1" y1="22.4" x2="1701.1" y2="13.5"/>
	<line class="st5" x1="1709.9" y1="22.4" x2="1709.9" y2="13.5"/>
	<line class="st5" x1="1718.8" y1="22.4" x2="1718.8" y2="13.5"/>
	<line class="st5" x1="1701.1" y1="36.8" x2="1701.1" y2="28"/>
	<line class="st5" x1="1709.9" y1="36.8" x2="1709.9" y2="28"/>
	<line class="st5" x1="1718.8" y1="36.8" x2="1718.8" y2="28"/>
	<line class="st5" x1="1701.1" y1="51.5" x2="1701.1" y2="42.6"/>
	<line class="st5" x1="1709.9" y1="51.5" x2="1709.9" y2="42.6"/>
	<line class="st5" x1="1718.8" y1="51.5" x2="1718.8" y2="42.6"/>
	<line class="st5" x1="1754.4" y1="64.4" x2="1799" y2="64.4"/>
	<line class="st5" x1="1754.4" y1="71.4" x2="1800.1" y2="71.4"/>
	<line class="st5" x1="1754.5" y1="57.3" x2="1797.7" y2="57.3"/>
	<line class="st5" x1="1754.4" y1="50.3" x2="1796.5" y2="50.3"/>
	<line class="st5" x1="1754.4" y1="43.2" x2="1794.1" y2="43.2"/>
	<line class="st5" x1="1754.3" y1="78.5" x2="1801.3" y2="78.5"/>
	<line class="st5" x1="1754.3" y1="85.5" x2="1802.5" y2="85.5"/>
	<line class="st5" x1="1754.4" y1="22.1" x2="1789.5" y2="22.1"/>
	<line class="st5" x1="1754.4" y1="0.9" x2="1785.8" y2="0.9"/>
	<line class="st5" x1="1754.5" y1="15" x2="1788.2" y2="15"/>
	<line class="st5" x1="1754.4" y1="7.9" x2="1787" y2="7.9"/>
	<line class="st5" x1="1754.4" y1="-6.2" x2="1784.6" y2="-6.2"/>
	<line class="st5" x1="1754.3" y1="29.1" x2="1791.8" y2="29.1"/>
	<line class="st5" x1="1754.3" y1="36.2" x2="1793" y2="36.2"/>
	<line class="st5" x1="1754.5" y1="156.1" x2="1816.9" y2="156.1"/>
	<line class="st5" x1="1754.4" y1="149" x2="1815.5" y2="149"/>
	<line class="st5" x1="1754.4" y1="142" x2="1814.1" y2="142"/>
	<line class="st5" x1="1754.4" y1="120.8" x2="1809.9" y2="120.8"/>
	<line class="st5" x1="1754.4" y1="99.6" x2="1805.7" y2="99.6"/>
	<line class="st5" x1="1754.5" y1="113.8" x2="1808.4" y2="113.8"/>
	<line class="st5" x1="1754.4" y1="106.7" x2="1807.1" y2="106.7"/>
	<line class="st5" x1="1754.4" y1="92.6" x2="1804.3" y2="92.6"/>
	<line class="st5" x1="1754.3" y1="127.9" x2="1811.3" y2="127.9"/>
	<line class="st5" x1="1754.3" y1="134.9" x2="1812.6" y2="134.9"/>
	<line class="st5" x1="1656.2" y1="64.4" x2="1665" y2="64.4"/>
	<line class="st5" x1="1656.2" y1="71.4" x2="1665" y2="71.4"/>
	<line class="st5" x1="1656.2" y1="57.3" x2="1665" y2="57.3"/>
	<line class="st5" x1="1656.2" y1="50.3" x2="1665" y2="50.3"/>
	<line class="st5" x1="1656.2" y1="43.2" x2="1665" y2="43.2"/>
	<line class="st5" x1="1656.2" y1="78.5" x2="1665" y2="78.5"/>
	<line class="st5" x1="1656.2" y1="85.5" x2="1665" y2="85.5"/>
	<line class="st5" x1="1656.2" y1="22.3" x2="1665" y2="22.3"/>
	<line class="st5" x1="1656.2" y1="0.9" x2="1665" y2="0.9"/>
	<line class="st5" x1="1656.2" y1="15.2" x2="1665" y2="15.2"/>
	<line class="st5" x1="1656.2" y1="8.2" x2="1665" y2="8.2"/>
	<line class="st5" x1="1656.2" y1="-6.2" x2="1664.8" y2="-6.2"/>
	<line class="st5" x1="1656.2" y1="29.3" x2="1665" y2="29.3"/>
	<line class="st5" x1="1656.2" y1="36.2" x2="1665" y2="36.2"/>
	<line class="st5" x1="1656.2" y1="156.1" x2="1664.8" y2="156.1"/>
	<line class="st5" x1="1656.2" y1="149" x2="1664.8" y2="149"/>
	<line class="st5" x1="1656.2" y1="142" x2="1665" y2="142"/>
	<line class="st5" x1="1656.2" y1="120.8" x2="1665" y2="120.8"/>
	<line class="st5" x1="1656.2" y1="99.6" x2="1665" y2="99.6"/>
	<line class="st5" x1="1656.2" y1="113.8" x2="1665" y2="113.8"/>
	<line class="st5" x1="1656.2" y1="106.7" x2="1665" y2="106.7"/>
	<line class="st5" x1="1656.2" y1="92.6" x2="1665" y2="92.6"/>
	<line class="st5" x1="1656.2" y1="127.9" x2="1665" y2="127.9"/>
	<line class="st5" x1="1656.2" y1="134.9" x2="1665" y2="134.9"/>
	<line class="st5" x1="1571" y1="64.4" x2="1597.3" y2="64.4"/>
	<line class="st5" x1="1569.8" y1="71.4" x2="1598.4" y2="71.4"/>
	<line class="st5" x1="1572.1" y1="57.3" x2="1596.2" y2="57.3"/>
	<line class="st5" x1="1573.2" y1="50.3" x2="1595.1" y2="50.3"/>
	<line class="st5" x1="1574.3" y1="43.2" x2="1594" y2="43.2"/>
	<line class="st5" x1="1568.7" y1="78.5" x2="1599.5" y2="78.5"/>
	<line class="st5" x1="1567.7" y1="85.5" x2="1600.6" y2="85.5"/>
	<line class="st5" x1="1577.6" y1="22.3" x2="1590.7" y2="22.3"/>
	<line class="st5" x1="1581.1" y1="0.9" x2="1587.3" y2="0.9"/>
	<line class="st5" x1="1578.7" y1="15.2" x2="1589.6" y2="15.2"/>
	<line class="st5" x1="1579.8" y1="8.2" x2="1588.5" y2="8.2"/>
	<line class="st5" x1="1582.1" y1="-6.2" x2="1586.2" y2="-6.2"/>
	<line class="st5" x1="1576.5" y1="29.3" x2="1591.8" y2="29.3"/>
	<line class="st5" x1="1575.4" y1="36.2" x2="1592.9" y2="36.2"/>
	<line class="st5" x1="1556.5" y1="156.1" x2="1611.7" y2="156.1"/>
	<line class="st5" x1="1557.7" y1="149" x2="1610.6" y2="149"/>
	<line class="st5" x1="1558.7" y1="142" x2="1609.5" y2="142"/>
	<line class="st5" x1="1562.1" y1="120.8" x2="1606.2" y2="120.8"/>
	<line class="st5" x1="1565.4" y1="99.6" x2="1602.8" y2="99.6"/>
	<line class="st5" x1="1563.2" y1="113.8" x2="1605" y2="113.8"/>
	<line class="st5" x1="1564.3" y1="106.7" x2="1603.9" y2="106.7"/>
	<line class="st5" x1="1566.5" y1="92.6" x2="1601.7" y2="92.6"/>
	<line class="st5" x1="1561" y1="127.9" x2="1607.2" y2="127.9"/>
	<line class="st5" x1="1559.9" y1="134.9" x2="1608.4" y2="134.9"/>
	<line class="st5" x1="1674" y1="64.4" x2="1682.7" y2="64.4"/>
	<line class="st5" x1="1674" y1="71.4" x2="1682.7" y2="71.4"/>
	<line class="st5" x1="1674" y1="57.3" x2="1682.7" y2="57.3"/>
	<line class="st5" x1="1674" y1="50.3" x2="1682.7" y2="50.3"/>
	<line class="st5" x1="1674" y1="43.2" x2="1682.7" y2="43.2"/>
	<line class="st5" x1="1674" y1="78.5" x2="1682.7" y2="78.5"/>
	<line class="st5" x1="1674" y1="85.5" x2="1682.7" y2="85.5"/>
	<line class="st5" x1="1674" y1="22.3" x2="1682.7" y2="22.3"/>
	<line class="st5" x1="1674" y1="0.9" x2="1682.7" y2="0.9"/>
	<line class="st5" x1="1674" y1="15.2" x2="1682.7" y2="15.2"/>
	<line class="st5" x1="1674" y1="8.2" x2="1682.7" y2="8.2"/>
	<line class="st5" x1="1674" y1="-6.2" x2="1682.6" y2="-6.2"/>
	<line class="st5" x1="1674" y1="29.3" x2="1682.7" y2="29.3"/>
	<line class="st5" x1="1674" y1="36.2" x2="1682.7" y2="36.2"/>
	<line class="st5" x1="1674" y1="156.1" x2="1682.6" y2="156.1"/>
	<line class="st5" x1="1674" y1="149" x2="1682.5" y2="149"/>
	<line class="st5" x1="1674" y1="142" x2="1682.7" y2="142"/>
	<line class="st5" x1="1674" y1="120.8" x2="1682.7" y2="120.8"/>
	<line class="st5" x1="1674" y1="99.6" x2="1682.7" y2="99.6"/>
	<line class="st5" x1="1674" y1="113.8" x2="1682.7" y2="113.8"/>
	<line class="st5" x1="1674" y1="106.7" x2="1682.7" y2="106.7"/>
	<line class="st5" x1="1674" y1="92.6" x2="1682.7" y2="92.6"/>
	<line class="st5" x1="1674" y1="127.9" x2="1682.7" y2="127.9"/>
	<line class="st5" x1="1674" y1="134.9" x2="1682.7" y2="134.9"/>
	<line class="st0" x1="1701" y1="-110.4" x2="1701" y2="-128.6"/>
	<line class="st0" x1="1709.8" y1="-110.4" x2="1709.8" y2="-123.6"/>
	<line class="st0" x1="1660" y1="-58.7" x2="1660" y2="-70.7"/>
	<line class="st5" x1="1637.3" y1="18.6" x2="1637.3" y2="156.1"/>
	<line class="st5" x1="1628.4" y1="18.6" x2="1628.4" y2="156.1"/>
	<line class="st5" x1="1619.7" y1="18.6" x2="1619.7" y2="155.5"/>
	<line class="st0" x1="1650.8" y1="-52.1" x2="1669.1" y2="-52.1"/>
	<line class="st1" x1="1691.5" y1="163.2" x2="1691.5" y2="243.7"/>
	<circle class="st2" cx="1691.5" cy="256.2" r="12.5"/>
</g>
</svg>
