<?xml version="1.0" encoding="utf-8"?>
<!-- Generator: Adobe Illustrator 19.1.0, SVG Export Plug-In . SVG Version: 6.00 Build 0)  -->
<svg version="1.1" id="Layer_1" xmlns="http://www.w3.org/2000/svg" xmlns:xlink="http://www.w3.org/1999/xlink" x="0px" y="0px"
	 viewBox="1500 -200 3100 500" style="enable-background:new 1500 -200 3100 500;" xml:space="preserve">
<style type="text/css">
	.st0{fill:none;}
</style>
<g id="baseline">
	<line class="st0" x1="1500" y1="160.5" x2="4594" y2="160.5"/>
</g>
<g id="building-1">
	<g id="shadows-1">
		<polygon points="1824,159.9 1770.7,159.9 1770.7,-26.4 1788,-19.7 		"/>
		<polygon points="1616.7,159.9 1581.1,159.9 1581.1,-37.1 1585.4,-37.1 		"/>
		<rect x="1711.6" y="-92.2" width="31.4" height="252.1"/>
		<polygon points="1688.5,159.9 1657.1,159.9 1657.1,-60.9 1666.1,-60.9 1666.1,-48.3 1670.5,-48.3 1670.5,-20.1 1688.7,-20.1 		"/>
		<rect x="1630.1" y="-2.7" width="13.4" height="163.3"/>
	</g>
	<g>
		<path d="M1743,159.9v-197l45,17.3l36,179.7"/>
		<path d="M1688.7,159.9V-92.2h54.3v55.1"/>
		<path d="M1643.5,160.5V-48.4h27v28.3h18.2"/>
		<path d="M1607.3,99.5V7.4h36.2"/>
		<path d="M1545,159.9l31.3-197h9.1l31.3,197"/>
		<path d="M1693.4-92.2v-21.4h18.2v21.4"/>
		<path d="M1647.8-48.4V-61h18.3v12.6"/>
		<path d="M1616.7,7.4v-9.8h26.8"/>
	</g>
	<g>
		<line class="st0" x1="1698.1" y1="63.9" x2="1698.1" y2="55"/>
		<line class="st0" x1="1706.9" y1="63.9" x2="1706.9" y2="55"/>
		<line class="st0" x1="1715.8" y1="63.9" x2="1715.8" y2="55"/>
		<line class="st0" x1="1698.1" y1="79.1" x2="1698.1" y2="70.2"/>
		<line class="st0" x1="1706.9" y1="79.1" x2="1706.9" y2="70.2"/>
		<line class="st0" x1="1715.8" y1="79.1" x2="1715.8" y2="70.2"/>
		<line class="st0" x1="1698.1" y1="93.2" x2="1698.1" y2="84.3"/>
		<line class="st0" x1="1706.9" y1="93.2" x2="1706.9" y2="84.3"/>
		<line class="st0" x1="1715.8" y1="93.2" x2="1715.8" y2="84.3"/>
		<line class="st0" x1="1698.1" y1="108.4" x2="1698.1" y2="99.5"/>
		<line class="st0" x1="1706.9" y1="108.4" x2="1706.9" y2="99.5"/>
		<line class="st0" x1="1715.8" y1="108.4" x2="1715.8" y2="99.5"/>
		<line class="st0" x1="1698.1" y1="123.1" x2="1698.1" y2="114.2"/>
		<line class="st0" x1="1706.9" y1="123.1" x2="1706.9" y2="114.2"/>
		<line class="st0" x1="1715.8" y1="123.1" x2="1715.8" y2="114.2"/>
		<line class="st0" x1="1698.1" y1="137.5" x2="1698.1" y2="128.6"/>
		<line class="st0" x1="1706.9" y1="137.5" x2="1706.9" y2="128.6"/>
		<line class="st0" x1="1715.8" y1="137.5" x2="1715.8" y2="128.6"/>
		<line class="st0" x1="1698.1" y1="152.2" x2="1698.1" y2="143.3"/>
		<line class="st0" x1="1706.9" y1="152.2" x2="1706.9" y2="143.3"/>
		<line class="st0" x1="1715.8" y1="152.2" x2="1715.8" y2="143.3"/>
		<line class="st0" x1="1698.1" y1="-40.1" x2="1698.1" y2="-49"/>
		<line class="st0" x1="1706.9" y1="-40.1" x2="1706.9" y2="-49"/>
		<line class="st0" x1="1715.8" y1="-40.1" x2="1715.8" y2="-49"/>
		<line class="st0" x1="1698.1" y1="-24.9" x2="1698.1" y2="-33.7"/>
		<line class="st0" x1="1706.9" y1="-24.9" x2="1706.9" y2="-33.7"/>
		<line class="st0" x1="1715.8" y1="-24.9" x2="1715.8" y2="-33.7"/>
		<line class="st0" x1="1698.1" y1="-70.6" x2="1698.1" y2="-79.5"/>
		<line class="st0" x1="1706.9" y1="-70.6" x2="1706.9" y2="-79.5"/>
		<line class="st0" x1="1715.8" y1="-70.6" x2="1715.8" y2="-79.5"/>
		<line class="st0" x1="1698.1" y1="-55.4" x2="1698.1" y2="-64.3"/>
		<line class="st0" x1="1706.9" y1="-55.4" x2="1706.9" y2="-64.3"/>
		<line class="st0" x1="1715.8" y1="-55.4" x2="1715.8" y2="-64.3"/>
		<line class="st0" x1="1698.1" y1="-10.8" x2="1698.1" y2="-19.7"/>
		<line class="st0" x1="1706.9" y1="-10.8" x2="1706.9" y2="-19.7"/>
		<line class="st0" x1="1715.8" y1="-10.8" x2="1715.8" y2="-19.7"/>
		<line class="st0" x1="1698.1" y1="4.4" x2="1698.1" y2="-4.4"/>
		<line class="st0" x1="1706.9" y1="4.4" x2="1706.9" y2="-4.4"/>
		<line class="st0" x1="1715.8" y1="4.4" x2="1715.8" y2="-4.4"/>
		<line class="st0" x1="1698.1" y1="19.1" x2="1698.1" y2="10.2"/>
		<line class="st0" x1="1706.9" y1="19.1" x2="1706.9" y2="10.2"/>
		<line class="st0" x1="1715.8" y1="19.1" x2="1715.8" y2="10.2"/>
		<line class="st0" x1="1698.1" y1="33.5" x2="1698.1" y2="24.7"/>
		<line class="st0" x1="1706.9" y1="33.5" x2="1706.9" y2="24.7"/>
		<line class="st0" x1="1715.8" y1="33.5" x2="1715.8" y2="24.7"/>
		<line class="st0" x1="1698.1" y1="48.2" x2="1698.1" y2="39.3"/>
		<line class="st0" x1="1706.9" y1="48.2" x2="1706.9" y2="39.3"/>
		<line class="st0" x1="1715.8" y1="48.2" x2="1715.8" y2="39.3"/>
		<line class="st0" x1="1751.4" y1="61.1" x2="1796" y2="61.1"/>
		<line class="st0" x1="1751.4" y1="68.1" x2="1797.1" y2="68.1"/>
		<line class="st0" x1="1751.5" y1="54" x2="1794.7" y2="54"/>
		<line class="st0" x1="1751.4" y1="47" x2="1793.5" y2="47"/>
		<line class="st0" x1="1751.4" y1="39.9" x2="1791.1" y2="39.9"/>
		<line class="st0" x1="1751.3" y1="75.2" x2="1798.3" y2="75.2"/>
		<line class="st0" x1="1751.3" y1="82.2" x2="1799.5" y2="82.2"/>
		<line class="st0" x1="1751.4" y1="18.8" x2="1786.5" y2="18.8"/>
		<line class="st0" x1="1751.4" y1="-2.4" x2="1782.8" y2="-2.4"/>
		<line class="st0" x1="1751.5" y1="11.7" x2="1785.2" y2="11.7"/>
		<line class="st0" x1="1751.4" y1="4.6" x2="1784" y2="4.6"/>
		<line class="st0" x1="1751.4" y1="-9.5" x2="1781.6" y2="-9.5"/>
		<line class="st0" x1="1751.3" y1="25.8" x2="1788.8" y2="25.8"/>
		<line class="st0" x1="1751.3" y1="32.9" x2="1790" y2="32.9"/>
		<line class="st0" x1="1751.5" y1="152.8" x2="1813.9" y2="152.8"/>
		<line class="st0" x1="1751.4" y1="145.7" x2="1812.5" y2="145.7"/>
		<line class="st0" x1="1751.4" y1="138.7" x2="1811.1" y2="138.7"/>
		<line class="st0" x1="1751.4" y1="117.5" x2="1806.9" y2="117.5"/>
		<line class="st0" x1="1751.4" y1="96.3" x2="1802.7" y2="96.3"/>
		<line class="st0" x1="1751.5" y1="110.5" x2="1805.4" y2="110.5"/>
		<line class="st0" x1="1751.4" y1="103.4" x2="1804.1" y2="103.4"/>
		<line class="st0" x1="1751.4" y1="89.3" x2="1801.3" y2="89.3"/>
		<line class="st0" x1="1751.3" y1="124.6" x2="1808.3" y2="124.6"/>
		<line class="st0" x1="1751.3" y1="131.6" x2="1809.6" y2="131.6"/>
		<line class="st0" x1="1653.2" y1="61.1" x2="1662" y2="61.1"/>
		<line class="st0" x1="1653.2" y1="68.1" x2="1662" y2="68.1"/>
		<line class="st0" x1="1653.2" y1="54" x2="1662" y2="54"/>
		<line class="st0" x1="1653.2" y1="47" x2="1662" y2="47"/>
		<line class="st0" x1="1653.2" y1="39.9" x2="1662" y2="39.9"/>
		<line class="st0" x1="1653.2" y1="75.2" x2="1662" y2="75.2"/>
		<line class="st0" x1="1653.2" y1="82.2" x2="1662" y2="82.2"/>
		<line class="st0" x1="1653.2" y1="19" x2="1662" y2="19"/>
		<line class="st0" x1="1653.2" y1="-2.4" x2="1662" y2="-2.4"/>
		<line class="st0" x1="1653.2" y1="11.9" x2="1662" y2="11.9"/>
		<line class="st0" x1="1653.2" y1="4.9" x2="1662" y2="4.9"/>
		<line class="st0" x1="1653.2" y1="-9.5" x2="1661.8" y2="-9.5"/>
		<line class="st0" x1="1653.2" y1="26" x2="1662" y2="26"/>
		<line class="st0" x1="1653.2" y1="32.9" x2="1662" y2="32.9"/>
		<line class="st0" x1="1653.2" y1="152.8" x2="1661.8" y2="152.8"/>
		<line class="st0" x1="1653.2" y1="145.7" x2="1661.8" y2="145.7"/>
		<line class="st0" x1="1653.2" y1="138.7" x2="1662" y2="138.7"/>
		<line class="st0" x1="1653.2" y1="117.5" x2="1662" y2="117.5"/>
		<line class="st0" x1="1653.2" y1="96.3" x2="1662" y2="96.3"/>
		<line class="st0" x1="1653.2" y1="110.5" x2="1662" y2="110.5"/>
		<line class="st0" x1="1653.2" y1="103.4" x2="1662" y2="103.4"/>
		<line class="st0" x1="1653.2" y1="89.3" x2="1662" y2="89.3"/>
		<line class="st0" x1="1653.2" y1="124.6" x2="1662" y2="124.6"/>
		<line class="st0" x1="1653.2" y1="131.6" x2="1662" y2="131.6"/>
		<line class="st0" x1="1568" y1="61.1" x2="1594.3" y2="61.1"/>
		<line class="st0" x1="1566.8" y1="68.1" x2="1595.4" y2="68.1"/>
		<line class="st0" x1="1569.1" y1="54" x2="1593.2" y2="54"/>
		<line class="st0" x1="1570.2" y1="47" x2="1592.1" y2="47"/>
		<line class="st0" x1="1571.3" y1="39.9" x2="1591" y2="39.9"/>
		<line class="st0" x1="1565.7" y1="75.2" x2="1596.5" y2="75.2"/>
		<line class="st0" x1="1564.7" y1="82.2" x2="1597.6" y2="82.2"/>
		<line class="st0" x1="1574.6" y1="19" x2="1587.7" y2="19"/>
		<line class="st0" x1="1578.1" y1="-2.4" x2="1584.3" y2="-2.4"/>
		<line class="st0" x1="1575.7" y1="11.9" x2="1586.6" y2="11.9"/>
		<line class="st0" x1="1576.8" y1="4.9" x2="1585.5" y2="4.9"/>
		<line class="st0" x1="1579.1" y1="-9.5" x2="1583.2" y2="-9.5"/>
		<line class="st0" x1="1573.5" y1="26" x2="1588.8" y2="26"/>
		<line class="st0" x1="1572.4" y1="32.9" x2="1589.9" y2="32.9"/>
		<line class="st0" x1="1553.5" y1="152.8" x2="1608.7" y2="152.8"/>
		<line class="st0" x1="1554.7" y1="145.7" x2="1607.6" y2="145.7"/>
		<line class="st0" x1="1555.7" y1="138.7" x2="1606.5" y2="138.7"/>
		<line class="st0" x1="1559.1" y1="117.5" x2="1603.2" y2="117.5"/>
		<line class="st0" x1="1562.4" y1="96.3" x2="1599.8" y2="96.3"/>
		<line class="st0" x1="1560.2" y1="110.5" x2="1602" y2="110.5"/>
		<line class="st0" x1="1561.3" y1="103.4" x2="1600.9" y2="103.4"/>
		<line class="st0" x1="1563.5" y1="89.3" x2="1598.7" y2="89.3"/>
		<line class="st0" x1="1558" y1="124.6" x2="1604.2" y2="124.6"/>
		<line class="st0" x1="1556.9" y1="131.6" x2="1605.4" y2="131.6"/>
		<line class="st0" x1="1671" y1="61.1" x2="1679.7" y2="61.1"/>
		<line class="st0" x1="1671" y1="68.1" x2="1679.7" y2="68.1"/>
		<line class="st0" x1="1671" y1="54" x2="1679.7" y2="54"/>
		<line class="st0" x1="1671" y1="47" x2="1679.7" y2="47"/>
		<line class="st0" x1="1671" y1="39.9" x2="1679.7" y2="39.9"/>
		<line class="st0" x1="1671" y1="75.2" x2="1679.7" y2="75.2"/>
		<line class="st0" x1="1671" y1="82.2" x2="1679.7" y2="82.2"/>
		<line class="st0" x1="1671" y1="19" x2="1679.7" y2="19"/>
		<line class="st0" x1="1671" y1="-2.4" x2="1679.7" y2="-2.4"/>
		<line class="st0" x1="1671" y1="11.9" x2="1679.7" y2="11.9"/>
		<line class="st0" x1="1671" y1="4.9" x2="1679.7" y2="4.9"/>
		<line class="st0" x1="1671" y1="-9.5" x2="1679.6" y2="-9.5"/>
		<line class="st0" x1="1671" y1="26" x2="1679.7" y2="26"/>
		<line class="st0" x1="1671" y1="32.9" x2="1679.7" y2="32.9"/>
		<line class="st0" x1="1671" y1="152.8" x2="1679.6" y2="152.8"/>
		<line class="st0" x1="1671" y1="145.7" x2="1679.5" y2="145.7"/>
		<line class="st0" x1="1671" y1="138.7" x2="1679.7" y2="138.7"/>
		<line class="st0" x1="1671" y1="117.5" x2="1679.7" y2="117.5"/>
		<line class="st0" x1="1671" y1="96.3" x2="1679.7" y2="96.3"/>
		<line class="st0" x1="1671" y1="110.5" x2="1679.7" y2="110.5"/>
		<line class="st0" x1="1671" y1="103.4" x2="1679.7" y2="103.4"/>
		<line class="st0" x1="1671" y1="89.3" x2="1679.7" y2="89.3"/>
		<line class="st0" x1="1671" y1="124.6" x2="1679.7" y2="124.6"/>
		<line class="st0" x1="1671" y1="131.6" x2="1679.7" y2="131.6"/>
		<line class="st0" x1="1698" y1="-113.7" x2="1698" y2="-131.9"/>
		<line class="st0" x1="1706.8" y1="-113.7" x2="1706.8" y2="-126.9"/>
		<line class="st0" x1="1657" y1="-62" x2="1657" y2="-74"/>
		<line class="st0" x1="1634.3" y1="15.3" x2="1634.3" y2="152.8"/>
		<line class="st0" x1="1625.4" y1="15.3" x2="1625.4" y2="152.8"/>
		<line class="st0" x1="1616.7" y1="15.3" x2="1616.7" y2="152.2"/>
	</g>
	<line class="st0" x1="1647.8" y1="-55.4" x2="1666.1" y2="-55.4"/>
	<line class="st0" x1="1688.5" y1="159.9" x2="1688.5" y2="240.4"/>
	<circle cx="1688.5" cy="252.9" r="12.5"/>
</g>
<g id="building-2">
	<rect x="1987" y="124.1" width="44.9" height="9.3"/>
	<rect x="1987" y="88.1" width="44.9" height="9.3"/>
	<rect x="1987" y="52" width="44.9" height="9.3"/>
	<polyline points="2076.8,88.1 2076.8,78.7 2031.8,78.7 	"/>
	<rect x="2076.9" y="107.1" width="44.9" height="4.8"/>
	<rect x="2076.9" y="52" width="44.9" height="4.8"/>
	<polyline points="2121.8,25.3 2126.4,25.3 2126.4,20.3 2072.1,20.3 2072.1,25.3 2076.9,25.3 	"/>
	<polyline points="2076.8,19.2 2076.8,11.3 2121.8,11.3 2121.8,19.7 	"/>
	<polyline points="1982.2,20.3 1977.9,20.3 1977.9,15.3 2040.9,15.3 2040.9,20.3 2036.4,20.3 	"/>
	<polyline points="2031.8,25.3 2036.5,25.3 2036.5,20.3 1982.2,20.3 1982.2,25.3 1986.9,25.3 	"/>
	<polyline points="2121.8,160.1 2121.8,25.3 2076.9,25.3 2076.9,160.1 	"/>
	<polyline points="2031.8,160.1 2031.8,25.3 1987,25.3 1987,160.1 	"/>
	<polyline points="2122,51.8 2230,51.8 2229.8,160.5 	"/>
	<polyline points="2031.8,88.1 2076.8,88.1 2076.8,160.5 	"/>
	<polyline points="2130.9,51.3 2130.9,42.8 2221,42.8 2221,51.9 	"/>
	<polyline points="1986.4,140.4 1888.3,140.4 1888.3,152.7 1986.4,152.7 	"/>
	<g id="shadows-2">
		<g>
			<rect x="2054.3" y="78.9" width="22.5" height="81.2"/>
			<polygon points="2230.3,52.1 2230.3,159.8 2176.1,159.8 2176.1,42.8 2221,42.8 2221,52.1 			"/>
			<polygon points="2031.8,15.3 2040.9,15.3 2040.9,20.3 2036.5,20.3 2036.5,25.3 2031.8,25.3 2031.8,160.5 2009.3,160.5 
				2009.3,15.3 			"/>
			<rect x="2099.3" y="11.8" width="22.5" height="148"/>
		</g>
	</g>
	<polyline points="1859.2,134.1 1865.3,128.9 1869.7,133.2 1874.7,128.9 1880,134.5 	"/>
	<line class="st0" x1="2076.8" y1="159.9" x2="2076.8" y2="240.4"/>
	<path d="M2076.9,26.3c0,0-14.4,21.8-45.1,7.5"/>
	<path d="M2076.9,26.3c0,0-20.1,16.5-45.1,0.7"/>
	<polyline points="1986.9,15.3 1986.9,7.3 1996,7.3 1996,15.3 	"/>
	<polyline points="1997,10.2 2004.8,10.2 2004.8,15.3 	"/>
	<line class="st0" x1="1990.6" y1="92.7" x2="2028.2" y2="92.7"/>
	<line class="st0" x1="1990.6" y1="128.7" x2="2028.2" y2="128.7"/>
	<line class="st0" x1="1990.6" y1="56.6" x2="2028.2" y2="56.6"/>
	<line class="st0" x1="1996" y1="32.8" x2="2004.8" y2="32.8"/>
	<line class="st0" x1="1996.1" y1="44.8" x2="2004.9" y2="44.8"/>
	<line class="st0" x1="1996" y1="38.8" x2="2004.8" y2="38.8"/>
	<line class="st0" x1="2014.1" y1="32.8" x2="2023" y2="32.8"/>
	<line class="st0" x1="2014.2" y1="44.8" x2="2023.1" y2="44.8"/>
	<line class="st0" x1="2014.1" y1="38.8" x2="2023" y2="38.8"/>
	<line class="st0" x1="1996" y1="140.6" x2="2004.8" y2="140.6"/>
	<line class="st0" x1="1996.1" y1="152.7" x2="2004.9" y2="152.7"/>
	<line class="st0" x1="1996" y1="146.7" x2="2004.8" y2="146.7"/>
	<line class="st0" x1="2014.1" y1="140.6" x2="2023" y2="140.6"/>
	<line class="st0" x1="2014.2" y1="152.7" x2="2023.1" y2="152.7"/>
	<line class="st0" x1="2014.1" y1="146.7" x2="2023" y2="146.7"/>
	<line class="st0" x1="1996" y1="68.7" x2="2004.8" y2="68.7"/>
	<line class="st0" x1="1996.1" y1="80.7" x2="2004.9" y2="80.7"/>
	<line class="st0" x1="2014.1" y1="68.7" x2="2023" y2="68.7"/>
	<line class="st0" x1="2014.2" y1="80.7" x2="2023.1" y2="80.7"/>
	<line class="st0" x1="1996.1" y1="74.7" x2="2023" y2="74.7"/>
	<line class="st0" x1="1996" y1="104.7" x2="2004.8" y2="104.7"/>
	<line class="st0" x1="1996.1" y1="116.7" x2="2004.9" y2="116.7"/>
	<line class="st0" x1="2014.1" y1="104.7" x2="2023" y2="104.7"/>
	<line class="st0" x1="2014.2" y1="116.7" x2="2023.1" y2="116.7"/>
	<line class="st0" x1="1996.1" y1="110.7" x2="2023" y2="110.7"/>
	<line class="st0" x1="2085.9" y1="32.8" x2="2094.8" y2="32.8"/>
	<line class="st0" x1="2086" y1="44.8" x2="2094.9" y2="44.8"/>
	<line class="st0" x1="2085.9" y1="38.8" x2="2094.8" y2="38.8"/>
	<line class="st0" x1="2149.1" y1="59.4" x2="2158" y2="59.4"/>
	<line class="st0" x1="2149.2" y1="71.4" x2="2158.1" y2="71.4"/>
	<line class="st0" x1="2149.1" y1="65.4" x2="2158" y2="65.4"/>
	<line class="st0" x1="2149.1" y1="77.5" x2="2158" y2="77.5"/>
	<line class="st0" x1="2149.2" y1="89.5" x2="2158.1" y2="89.5"/>
	<line class="st0" x1="2149.1" y1="83.5" x2="2158" y2="83.5"/>
	<line class="st0" x1="2149.1" y1="95.5" x2="2158" y2="95.5"/>
	<line class="st0" x1="2149.2" y1="107.5" x2="2158.1" y2="107.5"/>
	<line class="st0" x1="2149.1" y1="101.5" x2="2158" y2="101.5"/>
	<line class="st0" x1="2149.1" y1="113.5" x2="2158" y2="113.5"/>
	<line class="st0" x1="2149.2" y1="125.5" x2="2158.1" y2="125.5"/>
	<line class="st0" x1="2149.1" y1="119.5" x2="2158" y2="119.5"/>
	<line class="st0" x1="2149.2" y1="137.6" x2="2158.1" y2="137.6"/>
	<line class="st0" x1="2149.1" y1="131.6" x2="2158" y2="131.6"/>
	<line class="st0" x1="2149.1" y1="143.6" x2="2158" y2="143.6"/>
	<line class="st0" x1="2149.1" y1="149.6" x2="2158" y2="149.6"/>
	<line class="st0" x1="2194" y1="59.4" x2="2202.9" y2="59.4"/>
	<line class="st0" x1="2194.1" y1="71.4" x2="2203" y2="71.4"/>
	<line class="st0" x1="2194" y1="65.4" x2="2202.9" y2="65.4"/>
	<line class="st0" x1="2194" y1="77.5" x2="2202.9" y2="77.5"/>
	<line class="st0" x1="2194.1" y1="89.5" x2="2203" y2="89.5"/>
	<line class="st0" x1="2194" y1="83.5" x2="2202.9" y2="83.5"/>
	<line class="st0" x1="2194" y1="95.5" x2="2202.9" y2="95.5"/>
	<line class="st0" x1="2194.1" y1="107.5" x2="2203" y2="107.5"/>
	<line class="st0" x1="2194" y1="101.5" x2="2202.9" y2="101.5"/>
	<line class="st0" x1="2194" y1="113.5" x2="2202.9" y2="113.5"/>
	<line class="st0" x1="2194.1" y1="125.5" x2="2203" y2="125.5"/>
	<line class="st0" x1="2194" y1="119.5" x2="2202.9" y2="119.5"/>
	<line class="st0" x1="2194.1" y1="137.6" x2="2203" y2="137.6"/>
	<line class="st0" x1="2194" y1="131.6" x2="2202.9" y2="131.6"/>
	<line class="st0" x1="2194" y1="143.6" x2="2202.9" y2="143.6"/>
	<line class="st0" x1="2194" y1="149.6" x2="2202.9" y2="149.6"/>
	<line class="st0" x1="2171.6" y1="137.6" x2="2180.5" y2="137.6"/>
	<line class="st0" x1="2171.5" y1="131.6" x2="2180.4" y2="131.6"/>
	<line class="st0" x1="2171.5" y1="143.6" x2="2180.4" y2="143.6"/>
	<line class="st0" x1="2171.5" y1="149.6" x2="2180.4" y2="149.6"/>
	<line class="st0" x1="2104.1" y1="32.8" x2="2113" y2="32.8"/>
	<line class="st0" x1="2104.2" y1="44.8" x2="2113.1" y2="44.8"/>
	<line class="st0" x1="2104.1" y1="38.8" x2="2113" y2="38.8"/>
	<line class="st0" x1="2041" y1="140.6" x2="2049.9" y2="140.6"/>
	<line class="st0" x1="2041.1" y1="152.7" x2="2050" y2="152.7"/>
	<line class="st0" x1="2041" y1="146.7" x2="2049.9" y2="146.7"/>
	<line class="st0" x1="2041" y1="122.5" x2="2049.9" y2="122.5"/>
	<line class="st0" x1="2041.1" y1="134.5" x2="2050" y2="134.5"/>
	<line class="st0" x1="2041" y1="128.5" x2="2049.9" y2="128.5"/>
	<line class="st0" x1="2041" y1="104.2" x2="2049.9" y2="104.2"/>
	<line class="st0" x1="2041.1" y1="116.3" x2="2050" y2="116.3"/>
	<line class="st0" x1="2041" y1="110.3" x2="2049.9" y2="110.3"/>
	<line class="st0" x1="2041" y1="98.3" x2="2049.9" y2="98.3"/>
	<line class="st0" x1="2059" y1="140.6" x2="2067.9" y2="140.6"/>
	<line class="st0" x1="2059.1" y1="152.7" x2="2068" y2="152.7"/>
	<line class="st0" x1="2059" y1="146.7" x2="2067.9" y2="146.7"/>
	<line class="st0" x1="2059" y1="122.5" x2="2067.9" y2="122.5"/>
	<line class="st0" x1="2059.1" y1="134.5" x2="2068" y2="134.5"/>
	<line class="st0" x1="2059" y1="128.5" x2="2067.9" y2="128.5"/>
	<line class="st0" x1="2059" y1="104.2" x2="2067.9" y2="104.2"/>
	<line class="st0" x1="2059.1" y1="116.3" x2="2068" y2="116.3"/>
	<line class="st0" x1="2059" y1="110.3" x2="2067.9" y2="110.3"/>
	<line class="st0" x1="2059" y1="98.3" x2="2067.9" y2="98.3"/>
	<line class="st0" x1="2086" y1="152.7" x2="2094.9" y2="152.7"/>
	<line class="st0" x1="2086" y1="134.4" x2="2094.9" y2="134.4"/>
	<line class="st0" x1="2086.1" y1="146.4" x2="2095" y2="146.4"/>
	<line class="st0" x1="2086" y1="140.4" x2="2094.9" y2="140.4"/>
	<line class="st0" x1="2104" y1="152.7" x2="2112.9" y2="152.7"/>
	<line class="st0" x1="2104" y1="134.4" x2="2112.9" y2="134.4"/>
	<line class="st0" x1="2104.1" y1="146.4" x2="2113" y2="146.4"/>
	<line class="st0" x1="2104" y1="140.4" x2="2112.9" y2="140.4"/>
	<line class="st0" x1="2031.8" y1="83.4" x2="2076.8" y2="83.4"/>
	<polyline points="2081.4,11.3 2081.4,2.5 2090.4,2.5 2090.4,11.3 	"/>
	<line class="st0" x1="2076.9" y1="70.3" x2="2121.8" y2="70.3"/>
	<line class="st0" x1="2081.4" y1="56.6" x2="2081.4" y2="70.3"/>
	<line class="st0" x1="2085.9" y1="56.6" x2="2085.9" y2="70.3"/>
	<line class="st0" x1="2090.3" y1="56.6" x2="2090.3" y2="70.3"/>
	<line class="st0" x1="2094.8" y1="56.6" x2="2094.8" y2="70.3"/>
	<line class="st0" x1="2103.8" y1="56.6" x2="2103.8" y2="70.3"/>
	<line class="st0" x1="2099.3" y1="56.6" x2="2099.3" y2="70.3"/>
	<line class="st0" x1="2108.3" y1="56.6" x2="2108.3" y2="70.3"/>
	<line class="st0" x1="2112.8" y1="56.6" x2="2112.8" y2="70.3"/>
	<line class="st0" x1="2117.3" y1="56.6" x2="2117.3" y2="70.3"/>
	<line class="st0" x1="2076.9" y1="125.4" x2="2121.8" y2="125.4"/>
	<line class="st0" x1="2081.4" y1="111.9" x2="2081.4" y2="125.6"/>
	<line class="st0" x1="2085.9" y1="111.8" x2="2085.9" y2="125.4"/>
	<line class="st0" x1="2090.3" y1="111.8" x2="2090.3" y2="125.4"/>
	<line class="st0" x1="2094.8" y1="111.8" x2="2094.8" y2="125.4"/>
	<line class="st0" x1="2103.8" y1="111.8" x2="2103.8" y2="125.4"/>
	<line class="st0" x1="2099.3" y1="111.8" x2="2099.3" y2="125.4"/>
	<line class="st0" x1="2108.3" y1="111.8" x2="2108.3" y2="125.4"/>
	<line class="st0" x1="2112.8" y1="111.8" x2="2112.8" y2="125.4"/>
	<line class="st0" x1="2117.3" y1="111.9" x2="2117.3" y2="125.6"/>
	<line class="st0" x1="2085.9" y1="83.3" x2="2094.8" y2="83.3"/>
	<line class="st0" x1="2086" y1="95.4" x2="2094.9" y2="95.4"/>
	<line class="st0" x1="2085.9" y1="89.3" x2="2094.8" y2="89.3"/>
	<line class="st0" x1="2085.9" y1="77.4" x2="2094.8" y2="77.4"/>
	<line class="st0" x1="2103.9" y1="83.3" x2="2112.8" y2="83.3"/>
	<line class="st0" x1="2104" y1="95.4" x2="2112.9" y2="95.4"/>
	<line class="st0" x1="2103.9" y1="89.3" x2="2112.8" y2="89.3"/>
	<line class="st0" x1="2103.9" y1="77.4" x2="2112.8" y2="77.4"/>
	<line class="st0" x1="2076.8" y1="101.5" x2="2121.8" y2="101.5"/>
	<line class="st0" x1="2140" y1="51.9" x2="2140" y2="159.9"/>
	<line class="st0" x1="2212" y1="51.9" x2="2212" y2="159.9"/>
	<line class="st0" x1="2185" y1="51.9" x2="2185" y2="159.9"/>
	<line class="st0" x1="2167" y1="51.9" x2="2167" y2="159.9"/>
	<line class="st0" x1="2125.6" y1="144.3" x2="2125.6" y2="156.7"/>
	<line class="st0" x1="2130.9" y1="144.3" x2="2130.9" y2="156.7"/>
	<line class="st0" x1="2136.2" y1="144.3" x2="2136.2" y2="156.7"/>
	<line class="st0" x1="2133.5" y1="144.3" x2="2133.5" y2="156.7"/>
	<line class="st0" x1="2128.3" y1="144.3" x2="2128.3" y2="156.7"/>
	<line class="st0" x1="2125.6" y1="108.7" x2="2125.6" y2="121.1"/>
	<line class="st0" x1="2130.9" y1="108.7" x2="2130.9" y2="121.1"/>
	<line class="st0" x1="2136.2" y1="108.7" x2="2136.2" y2="121.1"/>
	<line class="st0" x1="2133.5" y1="108.7" x2="2133.5" y2="121.1"/>
	<line class="st0" x1="2128.3" y1="108.7" x2="2128.3" y2="121.1"/>
	<line class="st0" x1="2125.6" y1="72.9" x2="2125.6" y2="85.2"/>
	<line class="st0" x1="2130.9" y1="72.9" x2="2130.9" y2="85.2"/>
	<line class="st0" x1="2136.2" y1="72.9" x2="2136.2" y2="85.2"/>
	<line class="st0" x1="2133.5" y1="72.9" x2="2133.5" y2="85.2"/>
	<line class="st0" x1="2128.3" y1="72.9" x2="2128.3" y2="85.2"/>
	<line class="st0" x1="2136.2" y1="126.3" x2="2125.6" y2="126.3"/>
	<line class="st0" x1="2136.2" y1="131.5" x2="2125.6" y2="131.5"/>
	<line class="st0" x1="2136.2" y1="136.6" x2="2125.6" y2="136.6"/>
	<line class="st0" x1="2136.2" y1="139.2" x2="2125.6" y2="139.2"/>
	<line class="st0" x1="2136.2" y1="134.1" x2="2125.6" y2="134.1"/>
	<line class="st0" x1="2136.2" y1="128.9" x2="2125.6" y2="128.9"/>
	<line class="st0" x1="2136.2" y1="90.5" x2="2125.6" y2="90.5"/>
	<line class="st0" x1="2136.2" y1="95.7" x2="2125.6" y2="95.7"/>
	<line class="st0" x1="2136.2" y1="100.9" x2="2125.6" y2="100.9"/>
	<line class="st0" x1="2136.2" y1="103.5" x2="2125.6" y2="103.5"/>
	<line class="st0" x1="2136.2" y1="98.3" x2="2125.6" y2="98.3"/>
	<line class="st0" x1="2136.2" y1="93.1" x2="2125.6" y2="93.1"/>
	<line class="st0" x1="2136.2" y1="54.8" x2="2125.6" y2="54.8"/>
	<line class="st0" x1="2136.2" y1="60" x2="2125.6" y2="60"/>
	<line class="st0" x1="2136.2" y1="65.2" x2="2125.6" y2="65.2"/>
	<line class="st0" x1="2136.2" y1="67.7" x2="2125.6" y2="67.7"/>
	<line class="st0" x1="2136.2" y1="62.6" x2="2125.6" y2="62.6"/>
	<line class="st0" x1="2136.2" y1="57.4" x2="2125.6" y2="57.4"/>
	<line class="st0" x1="2121.8" y1="141.9" x2="2140" y2="141.9"/>
	<line class="st0" x1="2121.8" y1="123.9" x2="2140" y2="123.9"/>
	<line class="st0" x1="2121.8" y1="105.9" x2="2140" y2="105.9"/>
	<line class="st0" x1="2121.8" y1="88.1" x2="2140" y2="88.1"/>
	<line class="st0" x1="2121.8" y1="70" x2="2140" y2="70"/>
	<line class="st0" x1="2170.7" y1="108.7" x2="2170.7" y2="121.1"/>
	<line class="st0" x1="2176" y1="108.7" x2="2176" y2="121.1"/>
	<line class="st0" x1="2181.3" y1="108.7" x2="2181.3" y2="121.1"/>
	<line class="st0" x1="2178.6" y1="108.7" x2="2178.6" y2="121.1"/>
	<line class="st0" x1="2173.4" y1="108.7" x2="2173.4" y2="121.1"/>
	<line class="st0" x1="2170.7" y1="72.9" x2="2170.7" y2="85.2"/>
	<line class="st0" x1="2176" y1="72.9" x2="2176" y2="85.2"/>
	<line class="st0" x1="2181.3" y1="72.9" x2="2181.3" y2="85.2"/>
	<line class="st0" x1="2178.6" y1="72.9" x2="2178.6" y2="85.2"/>
	<line class="st0" x1="2173.4" y1="72.9" x2="2173.4" y2="85.2"/>
	<line class="st0" x1="2166.9" y1="123.9" x2="2185.1" y2="123.9"/>
	<line class="st0" x1="2166.9" y1="105.9" x2="2185.1" y2="105.9"/>
	<line class="st0" x1="2166.9" y1="88.1" x2="2185.1" y2="88.1"/>
	<line class="st0" x1="2166.9" y1="70" x2="2185.1" y2="70"/>
	<line class="st0" x1="2167" y1="93.1" x2="2185" y2="93.1"/>
	<line class="st0" x1="2167" y1="65.3" x2="2185" y2="65.3"/>
	<line class="st0" x1="1937.3" y1="160.5" x2="1937.3" y2="140.6"/>
	<line class="st0" x1="1962.2" y1="160.5" x2="1962.2" y2="140.6"/>
	<line class="st0" x1="1912.9" y1="160.5" x2="1912.9" y2="140.6"/>
	<line class="st0" x1="1888.3" y1="160.5" x2="1888.3" y2="140.6"/>
	<line class="st0" x1="1891.9" y1="140.4" x2="1891.9" y2="152.7"/>
	<line class="st0" x1="1894.9" y1="140.4" x2="1894.9" y2="152.7"/>
	<line class="st0" x1="1897.8" y1="140.4" x2="1897.8" y2="152.7"/>
	<line class="st0" x1="1900.8" y1="140.4" x2="1900.8" y2="152.7"/>
	<line class="st0" x1="1903.8" y1="140.4" x2="1903.8" y2="152.7"/>
	<line class="st0" x1="1906.7" y1="140.4" x2="1906.7" y2="152.7"/>
	<line class="st0" x1="1909.7" y1="140.4" x2="1909.7" y2="152.7"/>
	<line class="st0" x1="1916.3" y1="140.4" x2="1916.3" y2="152.7"/>
	<line class="st0" x1="1919.2" y1="140.4" x2="1919.2" y2="152.7"/>
	<line class="st0" x1="1922.2" y1="140.4" x2="1922.2" y2="152.7"/>
	<line class="st0" x1="1925.1" y1="140.4" x2="1925.1" y2="152.7"/>
	<line class="st0" x1="1928.1" y1="140.4" x2="1928.1" y2="152.7"/>
	<line class="st0" x1="1931" y1="140.4" x2="1931" y2="152.7"/>
	<line class="st0" x1="1934" y1="140.4" x2="1934" y2="152.7"/>
	<line class="st0" x1="1940.8" y1="140.4" x2="1940.8" y2="152.7"/>
	<line class="st0" x1="1943.7" y1="140.4" x2="1943.7" y2="152.7"/>
	<line class="st0" x1="1946.7" y1="140.4" x2="1946.7" y2="152.7"/>
	<line class="st0" x1="1949.6" y1="140.4" x2="1949.6" y2="152.7"/>
	<line class="st0" x1="1952.6" y1="140.4" x2="1952.6" y2="152.7"/>
	<line class="st0" x1="1955.5" y1="140.4" x2="1955.5" y2="152.7"/>
	<line class="st0" x1="1958.5" y1="140.4" x2="1958.5" y2="152.7"/>
	<line class="st0" x1="1965.8" y1="140.4" x2="1965.8" y2="152.7"/>
	<line class="st0" x1="1968.8" y1="140.4" x2="1968.8" y2="152.7"/>
	<line class="st0" x1="1971.7" y1="140.4" x2="1971.7" y2="152.7"/>
	<line class="st0" x1="1974.7" y1="140.4" x2="1974.7" y2="152.7"/>
	<line class="st0" x1="1977.6" y1="140.4" x2="1977.6" y2="152.7"/>
	<line class="st0" x1="1980.6" y1="140.4" x2="1980.6" y2="152.7"/>
	<line class="st0" x1="1983.6" y1="140.4" x2="1983.6" y2="152.7"/>
	<line class="st0" x1="1869.7" y1="159.9" x2="1869.7" y2="142.2"/>
	<circle cx="1869.7" cy="131.5" r="10.8"/>
	<circle cx="2076.8" cy="252.9" r="12.5"/>
</g>
<g id="building-3">
	<g id="shadows-3">
		<polygon points="2390.1,105.9 2390.1,160.5 2408,160.5 2408,123.9 		"/>
		<polygon points="2430.4,96.9 2430.4,160.5 2452.9,160.5 2452.9,114.9 		"/>
		<path d="M2636.2,160.5c0,0-12.1-18.6-40.1-18.6c0,0-17.8,1-28.2,18.6H2636.2z"/>
		<path d="M2492.1,160.5c0,0,24.1-27.3,57-27.3c15.8,0,30.9,10.4,30.9,10.4s-10.3,2.1-23.9,16.9
			C2535.3,160.5,2492.1,160.5,2492.1,160.5z"/>
	</g>
	<polyline points="2408,135.7 2408,160.5 2408,114.9 2452.8,114.9 2452.8,160 	"/>
	<polyline points="2372.2,140.6 2372.2,160.5 2372.2,123.9 2408,123.9 2408,160.1 	"/>
	<line class="st0" x1="2416.9" y1="152.7" x2="2425.8" y2="152.7"/>
	<line class="st0" x1="2381.5" y1="152.7" x2="2398.8" y2="152.7"/>
	<line class="st0" x1="2381.5" y1="146.4" x2="2398.8" y2="146.4"/>
	<line class="st0" x1="2381.5" y1="140.4" x2="2398.8" y2="140.4"/>
	<line class="st0" x1="2416.8" y1="146.7" x2="2425.7" y2="146.7"/>
	<line class="st0" x1="2435.1" y1="152.7" x2="2444" y2="152.7"/>
	<line class="st0" x1="2435" y1="146.7" x2="2443.9" y2="146.7"/>
	<line class="st0" x1="2416.8" y1="140.6" x2="2425.7" y2="140.6"/>
	<line class="st0" x1="2435" y1="140.6" x2="2443.9" y2="140.6"/>
	<polyline points="2372.2,140.4 2274.1,140.4 2274.1,152.7 2372.2,152.7 	"/>
	<line class="st0" x1="2323.1" y1="160.5" x2="2323.1" y2="140.6"/>
	<line class="st0" x1="2348" y1="160.5" x2="2348" y2="140.6"/>
	<line class="st0" x1="2298.7" y1="160.5" x2="2298.7" y2="140.6"/>
	<line class="st0" x1="2274.1" y1="160.5" x2="2274.1" y2="140.6"/>
	<line class="st0" x1="2277.7" y1="140.4" x2="2277.7" y2="152.7"/>
	<line class="st0" x1="2280.7" y1="140.4" x2="2280.7" y2="152.7"/>
	<line class="st0" x1="2283.6" y1="140.4" x2="2283.6" y2="152.7"/>
	<line class="st0" x1="2286.6" y1="140.4" x2="2286.6" y2="152.7"/>
	<line class="st0" x1="2289.5" y1="140.4" x2="2289.5" y2="152.7"/>
	<line class="st0" x1="2292.5" y1="140.4" x2="2292.5" y2="152.7"/>
	<line class="st0" x1="2295.5" y1="140.4" x2="2295.5" y2="152.7"/>
	<line class="st0" x1="2302" y1="140.4" x2="2302" y2="152.7"/>
	<line class="st0" x1="2305" y1="140.4" x2="2305" y2="152.7"/>
	<line class="st0" x1="2308" y1="140.4" x2="2308" y2="152.7"/>
	<line class="st0" x1="2310.9" y1="140.4" x2="2310.9" y2="152.7"/>
	<line class="st0" x1="2313.9" y1="140.4" x2="2313.9" y2="152.7"/>
	<line class="st0" x1="2316.8" y1="140.4" x2="2316.8" y2="152.7"/>
	<line class="st0" x1="2319.8" y1="140.4" x2="2319.8" y2="152.7"/>
	<line class="st0" x1="2326.5" y1="140.4" x2="2326.5" y2="152.7"/>
	<line class="st0" x1="2329.5" y1="140.4" x2="2329.5" y2="152.7"/>
	<line class="st0" x1="2332.5" y1="140.4" x2="2332.5" y2="152.7"/>
	<line class="st0" x1="2335.4" y1="140.4" x2="2335.4" y2="152.7"/>
	<line class="st0" x1="2338.4" y1="140.4" x2="2338.4" y2="152.7"/>
	<line class="st0" x1="2341.3" y1="140.4" x2="2341.3" y2="152.7"/>
	<line class="st0" x1="2344.3" y1="140.4" x2="2344.3" y2="152.7"/>
	<line class="st0" x1="2351.6" y1="140.4" x2="2351.6" y2="152.7"/>
	<line class="st0" x1="2354.6" y1="140.4" x2="2354.6" y2="152.7"/>
	<line class="st0" x1="2357.5" y1="140.4" x2="2357.5" y2="152.7"/>
	<line class="st0" x1="2360.5" y1="140.4" x2="2360.5" y2="152.7"/>
	<line class="st0" x1="2363.4" y1="140.4" x2="2363.4" y2="152.7"/>
	<line class="st0" x1="2366.4" y1="140.4" x2="2366.4" y2="152.7"/>
	<line class="st0" x1="2369.3" y1="140.4" x2="2369.3" y2="152.7"/>
	<polyline points="2479.4,140.4 2577.5,140.4 2577.5,152.7 2479.4,152.7 	"/>
	<line class="st0" x1="2528.5" y1="160.5" x2="2528.5" y2="140.6"/>
	<line class="st0" x1="2503.6" y1="160.5" x2="2503.6" y2="140.6"/>
	<path d="M2478.1,140.6v19.9c0,0,31.5-27.3,65.5-27.3c14.4,0,27.1,4.4,37.6,10"/>
	<path d="M2556.1,140.6v19.9c0,0,12.1-18.6,40.1-18.6s40.1,18.6,40.1,18.6"/>
	<line class="st0" x1="2552.9" y1="160.5" x2="2552.9" y2="140.6"/>
	<line class="st0" x1="2577.5" y1="160.5" x2="2577.5" y2="140.6"/>
	<line class="st0" x1="2573.9" y1="140.4" x2="2573.9" y2="152.7"/>
	<line class="st0" x1="2570.9" y1="140.4" x2="2570.9" y2="152.7"/>
	<line class="st0" x1="2568" y1="140.4" x2="2568" y2="152.7"/>
	<line class="st0" x1="2565" y1="140.4" x2="2565" y2="152.7"/>
	<line class="st0" x1="2562" y1="140.4" x2="2562" y2="152.7"/>
	<line class="st0" x1="2559.1" y1="140.4" x2="2559.1" y2="152.7"/>
	<line class="st0" x1="2556.1" y1="140.4" x2="2556.1" y2="152.7"/>
	<line class="st0" x1="2549.5" y1="140.4" x2="2549.5" y2="152.7"/>
	<line class="st0" x1="2546.6" y1="140.4" x2="2546.6" y2="152.7"/>
	<line class="st0" x1="2543.6" y1="140.4" x2="2543.6" y2="152.7"/>
	<line class="st0" x1="2540.7" y1="140.4" x2="2540.7" y2="152.7"/>
	<line class="st0" x1="2537.7" y1="140.4" x2="2537.7" y2="152.7"/>
	<line class="st0" x1="2534.8" y1="140.4" x2="2534.8" y2="152.7"/>
	<line class="st0" x1="2531.8" y1="140.4" x2="2531.8" y2="152.7"/>
	<line class="st0" x1="2525" y1="140.4" x2="2525" y2="152.7"/>
	<line class="st0" x1="2522.1" y1="140.4" x2="2522.1" y2="152.7"/>
	<line class="st0" x1="2519.1" y1="140.4" x2="2519.1" y2="152.7"/>
	<line class="st0" x1="2516.2" y1="140.4" x2="2516.2" y2="152.7"/>
	<line class="st0" x1="2513.2" y1="140.4" x2="2513.2" y2="152.7"/>
	<line class="st0" x1="2510.3" y1="140.4" x2="2510.3" y2="152.7"/>
	<line class="st0" x1="2507.3" y1="140.4" x2="2507.3" y2="152.7"/>
	<line class="st0" x1="2500" y1="140.4" x2="2500" y2="152.7"/>
	<line class="st0" x1="2497" y1="140.4" x2="2497" y2="152.7"/>
	<line class="st0" x1="2494.1" y1="140.4" x2="2494.1" y2="152.7"/>
	<line class="st0" x1="2491.1" y1="140.4" x2="2491.1" y2="152.7"/>
	<line class="st0" x1="2488.2" y1="140.4" x2="2488.2" y2="152.7"/>
	<line class="st0" x1="2485.2" y1="140.4" x2="2485.2" y2="152.7"/>
	<line class="st0" x1="2482.2" y1="140.4" x2="2482.2" y2="152.7"/>
	<polyline points="2372.2,123.9 2390.1,105.9 2408,123.9 	"/>
	<polyline points="2408,114.9 2430.4,96.9 2452.8,114.9 	"/>
	<line class="st0" x1="2408" y1="133.3" x2="2452.8" y2="133.3"/>
	<line class="st0" x1="2372.2" y1="133.3" x2="2408" y2="133.3"/>
	<line class="st0" x1="2416.8" y1="118.7" x2="2416.8" y2="128.9"/>
	<line class="st0" x1="2425.7" y1="118.7" x2="2425.7" y2="128.9"/>
	<line class="st0" x1="2421.3" y1="118.7" x2="2421.3" y2="128.9"/>
	<line class="st0" x1="2430.4" y1="118.7" x2="2430.4" y2="128.9"/>
	<line class="st0" x1="2439.4" y1="118.7" x2="2439.4" y2="128.9"/>
	<line class="st0" x1="2435" y1="118.7" x2="2435" y2="128.9"/>
	<line class="st0" x1="2444" y1="118.7" x2="2444" y2="128.9"/>
	<line class="st0" x1="2377.4" y1="118.7" x2="2377.4" y2="110.5"/>
	<line class="st0" x1="2415" y1="108.5" x2="2415" y2="95.7"/>
	<line class="st0" x1="2470.1" y1="159.9" x2="2470.1" y2="145.8"/>
	<circle cx="2470.1" cy="137.1" r="8.6"/>
	<polyline points="2461.7,139.2 2466.6,135.1 2470.1,138.5 2474.1,135.1 2478.3,139.6 	"/>
	<line class="st0" x1="2408" y1="159.9" x2="2408" y2="240.4"/>
	<circle cx="2408" cy="252.9" r="12.5"/>
</g>
<g id="building-4">
	<g id="shadows-4">
		<polygon points="2764.7,114.9 2764.7,160.5 2787.2,160.5 2787.2,126.2 		"/>
		<polygon points="2894.8,79 2894.8,160.5 2939.5,160.5 2939.5,113.9 2949,113.9 2921.2,79 		"/>
		<polygon points="2724.5,104.2 2724.5,160.5 2742.7,160.5 2742.7,92.3 		"/>
		<polygon points="2814.1,70.1 2814.1,160.5 2840.4,160.5 2840.4,96.9 		"/>
	</g>
	<polyline points="2742.4,104.2 2786.9,126.4 2786.9,160.5 2786.9,96.9 2840.8,96.9 2840.8,160.5 	"/>
	<polyline points="2697.6,135.7 2697.6,160.5 2697.6,122 2742.4,92.3 2742.4,160 	"/>
	<line class="st0" x1="2751.2" y1="134.4" x2="2760" y2="134.4"/>
	<line class="st0" x1="2751.2" y1="146.4" x2="2760.1" y2="146.4"/>
	<line class="st0" x1="2751.2" y1="140.4" x2="2760" y2="140.4"/>
	<line class="st0" x1="2706" y1="134.4" x2="2714.9" y2="134.4"/>
	<line class="st0" x1="2706" y1="127.8" x2="2714.9" y2="127.8"/>
	<line class="st0" x1="2706.1" y1="146.4" x2="2715" y2="146.4"/>
	<line class="st0" x1="2706" y1="140.4" x2="2714.9" y2="140.4"/>
	<line class="st0" x1="2801.4" y1="152.7" x2="2810.3" y2="152.7"/>
	<line class="st0" x1="2801.4" y1="134.4" x2="2810.3" y2="134.4"/>
	<line class="st0" x1="2801.4" y1="127.8" x2="2810.3" y2="127.8"/>
	<line class="st0" x1="2801.5" y1="146.4" x2="2810.4" y2="146.4"/>
	<line class="st0" x1="2801.4" y1="140.4" x2="2810.3" y2="140.4"/>
	<line class="st0" x1="2819.3" y1="152.7" x2="2828.1" y2="152.7"/>
	<line class="st0" x1="2819.3" y1="134.4" x2="2828.1" y2="134.4"/>
	<line class="st0" x1="2819.3" y1="127.8" x2="2828.1" y2="127.8"/>
	<line class="st0" x1="2819.3" y1="146.4" x2="2828.2" y2="146.4"/>
	<line class="st0" x1="2819.3" y1="140.4" x2="2828.1" y2="140.4"/>
	<line class="st0" x1="2769.2" y1="134.4" x2="2778" y2="134.4"/>
	<line class="st0" x1="2769.2" y1="146.4" x2="2778.1" y2="146.4"/>
	<line class="st0" x1="2769.2" y1="140.4" x2="2778" y2="140.4"/>
	<line class="st0" x1="2877.2" y1="146.4" x2="2886.1" y2="146.4"/>
	<line class="st0" x1="2877.1" y1="140.4" x2="2886" y2="140.4"/>
	<line class="st0" x1="2904.3" y1="146.4" x2="2913.2" y2="146.4"/>
	<line class="st0" x1="2904.2" y1="140.4" x2="2913.1" y2="140.4"/>
	<line class="st0" x1="2679.1" y1="159.9" x2="2679.1" y2="145.8"/>
	<circle cx="2679.1" cy="137.1" r="8.6"/>
	<polyline points="2670.7,139.2 2675.6,135.1 2679.1,138.5 2683.1,135.1 2687.3,139.6 	"/>
	<line class="st0" x1="2697.6" y1="122" x2="2689.1" y2="127.8"/>
	<line class="st0" x1="2783.9" y1="124.9" x2="2794.8" y2="130.5"/>
	<line class="st0" x1="2733" y1="98.5" x2="2733" y2="159.9"/>
	<line class="st0" x1="2724.5" y1="104.2" x2="2724.5" y2="160.5"/>
	<line class="st0" x1="2786.9" y1="126.4" x2="2742.4" y2="126.4"/>
	<polyline points="2786.9,96.9 2813.8,70.1 2840.8,96.9 	"/>
	<line class="st0" x1="2786.9" y1="114.9" x2="2840.8" y2="114.9"/>
	<line class="st0" x1="2796.1" y1="100.8" x2="2796.1" y2="110.9"/>
	<line class="st0" x1="2805" y1="100.8" x2="2805" y2="110.9"/>
	<line class="st0" x1="2800.5" y1="100.8" x2="2800.5" y2="110.9"/>
	<line class="st0" x1="2809.6" y1="100.8" x2="2809.6" y2="110.9"/>
	<line class="st0" x1="2818.7" y1="100.8" x2="2818.7" y2="110.9"/>
	<line class="st0" x1="2814.2" y1="100.8" x2="2814.2" y2="110.9"/>
	<line class="st0" x1="2823.2" y1="100.8" x2="2823.2" y2="110.9"/>
	<line class="st0" x1="2828.1" y1="100.8" x2="2828.1" y2="110.9"/>
	<line class="st0" x1="2832.7" y1="100.8" x2="2832.7" y2="110.9"/>
	<line class="st0" x1="2876.6" y1="117.7" x2="2876.6" y2="127.8"/>
	<line class="st0" x1="2885.5" y1="117.7" x2="2885.5" y2="127.8"/>
	<line class="st0" x1="2881.1" y1="117.7" x2="2881.1" y2="127.8"/>
	<line class="st0" x1="2890.2" y1="117.7" x2="2890.2" y2="127.8"/>
	<line class="st0" x1="2899.3" y1="117.7" x2="2899.3" y2="127.8"/>
	<line class="st0" x1="2894.8" y1="117.7" x2="2894.8" y2="127.8"/>
	<line class="st0" x1="2903.8" y1="117.7" x2="2903.8" y2="127.8"/>
	<line class="st0" x1="2908.7" y1="117.7" x2="2908.7" y2="127.8"/>
	<line class="st0" x1="2913.2" y1="117.7" x2="2913.2" y2="127.8"/>
	<polyline points="2858.7,113.9 2850,113.9 2850,159.9 	"/>
	<path d="M2922.2,113.9"/>
	<polyline points="2930.3,113.9 2939.5,113.9 2939.5,160.5 	"/>
	<polyline points="2867.8,80 2840.8,114.9 2949,113.9 2922,79 2867.8,80 	"/>
	<polyline points="2867.7,160.5 2867.7,113.9 2922.2,113.9 2922.2,160.5 	"/>
	<line class="st0" x1="2867.7" y1="132.4" x2="2922.2" y2="132.4"/>
	<line class="st0" x1="2922.2" y1="123.9" x2="2939.5" y2="123.9"/>
	<line class="st0" x1="2867.7" y1="123.9" x2="2850" y2="123.9"/>
	<line class="st0" x1="2962.3" y1="159.9" x2="2962.3" y2="145.8"/>
	<polyline points="2954.2,129.2 2958.9,124.8 2962.4,128.2 2966.4,124.8 2970.6,129.3 	"/>
	<path d="M2970.6,129.3c1-1.6,1.6-3.4,1.6-5.4c0-5.4-4.4-9.8-9.8-9.8s-9.8,4.4-9.8,9.8c0,2,0.6,3.9,1.6,5.4c-3,1.3-5.1,4.4-5.1,7.9
		c0,4.8,3.9,8.6,8.6,8.6c1.7,0,3.4-0.5,4.7-1.4c1.4,0.9,3,1.4,4.7,1.4c4.8,0,8.6-3.9,8.6-8.6
		C2975.7,133.6,2973.6,130.6,2970.6,129.3z"/>
	<line class="st0" x1="2978.6" y1="159.9" x2="2978.6" y2="145.8"/>
	<polyline points="2970.5,129.2 2975.2,124.8 2978.7,128.2 2982.7,124.8 2987,129.3 	"/>
	<path d="M2970.6,145.1c1,0.4,2.2,0.7,3.4,0.7c1.7,0,3.4-0.5,4.7-1.4c1.4,0.9,3,1.4,4.7,1.4c4.8,0,8.6-3.9,8.6-8.6
		c0-3.5-2.1-6.5-5.1-7.9c1-1.6,1.6-3.4,1.6-5.4c0-5.4-4.4-9.8-9.8-9.8c-3.4,0-6.4,1.7-8.1,4.3"/>
	<line class="st0" x1="2751.2" y1="152.7" x2="2760" y2="152.7"/>
	<line class="st0" x1="2706" y1="152.7" x2="2714.9" y2="152.7"/>
	<line class="st0" x1="2769.2" y1="152.7" x2="2778" y2="152.7"/>
	<line class="st0" x1="2877.1" y1="152.7" x2="2886" y2="152.7"/>
	<line class="st0" x1="2904.2" y1="152.7" x2="2913.1" y2="152.7"/>
	<line class="st0" x1="2840.4" y1="159.9" x2="2840.4" y2="240.4"/>
	<circle cx="2840.4" cy="252.9" r="12.5"/>
</g>
<g id="building-5">
	<g id="shadows-5">
		<polygon points="3265.5,24.4 3265.5,43.9 3256.4,43.9 3256.4,160.5 3283.6,160.5 3283.6,106.3 3284,24.4 		"/>
		<g>
			<polygon points="3158,-2.1 3126.5,-2 3126.5,160.5 3157.5,160.5 3157.5,113.9 			"/>
			<polygon points="3076.7,-55 3076.7,-20.8 3094.9,-20.8 3094.7,160.3 3063.3,160.3 3063.3,-55 3072.3,-55 			"/>
			<polygon points="3338,-64.5 3311,-64.2 3311,160.5 3337.6,160.5 3337.6,96 			"/>
			<polygon points="3220.5,-20.8 3220.5,-28.4 3198.3,-28.2 3198.3,160.5 3228.5,160.5 3228.5,106.3 3229,-20.8 			"/>
			<polygon points="3171.3,-136.7 3162.7,-136.5 3162.7,160.3 3166.9,160.3 3166.9,75 3167,-92.2 3176,-92.2 3176,-119.3 
				3171.3,-119.3 			"/>
		</g>
	</g>
	<polyline points="3041.3,-47.9 3041.3,-55 3077,-55 3077,-47.9 	"/>
	<polyline points="3094.9,-2 3158.2,-2 3158.2,159.9 	"/>
	<polyline points="3228.7,61.5 3247.5,61.5 3247.5,43.9 3265.5,43.9 3265.5,24.4 3284,24.4 3284,160.3 3284,-64.5 3337.7,-64.5 
		3337.7,160.3 	"/>
	<polyline points="3167,-20.8 3176,-20.8 3176,-28.4 3220.5,-28.4 3220.5,-20.8 3229,-20.8 3229,160.5 	"/>
	<polyline points="3158.4,29.9 3158.4,-92.2 3167,-92.2 3167,159.5 	"/>
	<polyline points="3041.3,160.5 3041.3,-47.9 3077,-47.9 3077,-20.8 3094.9,-20.8 3094.9,160.3 	"/>
	<rect x="3148.8" y="-119.3" width="27.2" height="27.1"/>
	<line class="st0" x1="3104.6" y1="61.5" x2="3113.4" y2="61.5"/>
	<line class="st0" x1="3104.6" y1="68.5" x2="3113.4" y2="68.5"/>
	<line class="st0" x1="3104.6" y1="54.4" x2="3113.4" y2="54.4"/>
	<line class="st0" x1="3104.6" y1="47.4" x2="3113.4" y2="47.4"/>
	<line class="st0" x1="3104.6" y1="40.3" x2="3113.4" y2="40.3"/>
	<line class="st0" x1="3104.6" y1="75.6" x2="3113.4" y2="75.6"/>
	<line class="st0" x1="3104.6" y1="82.7" x2="3113.4" y2="82.7"/>
	<line class="st0" x1="3104.6" y1="19.4" x2="3113.4" y2="19.4"/>
	<line class="st0" x1="3104.6" y1="-2" x2="3113.4" y2="-2"/>
	<line class="st0" x1="3104.6" y1="12.3" x2="3113.4" y2="12.3"/>
	<line class="st0" x1="3104.6" y1="26.4" x2="3113.4" y2="26.4"/>
	<line class="st0" x1="3104.6" y1="33.3" x2="3113.4" y2="33.3"/>
	<line class="st0" x1="3104.6" y1="146.1" x2="3113.2" y2="146.1"/>
	<line class="st0" x1="3104.6" y1="139.1" x2="3113.4" y2="139.1"/>
	<line class="st0" x1="3104.6" y1="117.9" x2="3113.4" y2="117.9"/>
	<line class="st0" x1="3104.6" y1="96.8" x2="3113.4" y2="96.8"/>
	<line class="st0" x1="3104.6" y1="110.9" x2="3113.4" y2="110.9"/>
	<line class="st0" x1="3104.6" y1="103.8" x2="3113.4" y2="103.8"/>
	<line class="st0" x1="3104.6" y1="89.7" x2="3113.4" y2="89.7"/>
	<line class="st0" x1="3104.6" y1="125" x2="3113.4" y2="125"/>
	<line class="st0" x1="3104.6" y1="132" x2="3113.4" y2="132"/>
	<line class="st0" x1="3122.3" y1="61.5" x2="3131.1" y2="61.5"/>
	<line class="st0" x1="3122.3" y1="68.5" x2="3131.1" y2="68.5"/>
	<line class="st0" x1="3122.3" y1="54.4" x2="3131.1" y2="54.4"/>
	<line class="st0" x1="3122.3" y1="47.4" x2="3131.1" y2="47.4"/>
	<line class="st0" x1="3122.3" y1="40.3" x2="3131.1" y2="40.3"/>
	<line class="st0" x1="3122.3" y1="75.6" x2="3131.1" y2="75.6"/>
	<line class="st0" x1="3122.3" y1="82.7" x2="3131.1" y2="82.7"/>
	<line class="st0" x1="3122.3" y1="19.4" x2="3131.1" y2="19.4"/>
	<line class="st0" x1="3122.3" y1="-2" x2="3131.1" y2="-2"/>
	<line class="st0" x1="3122.3" y1="12.3" x2="3131.1" y2="12.3"/>
	<line class="st0" x1="3122.3" y1="26.4" x2="3131.1" y2="26.4"/>
	<line class="st0" x1="3122.3" y1="33.3" x2="3131.1" y2="33.3"/>
	<line class="st0" x1="3122.3" y1="146.1" x2="3130.9" y2="146.1"/>
	<line class="st0" x1="3122.3" y1="139.1" x2="3131.1" y2="139.1"/>
	<line class="st0" x1="3122.3" y1="117.9" x2="3131.1" y2="117.9"/>
	<line class="st0" x1="3122.3" y1="96.8" x2="3131.1" y2="96.8"/>
	<line class="st0" x1="3122.3" y1="110.9" x2="3131.1" y2="110.9"/>
	<line class="st0" x1="3122.3" y1="103.8" x2="3131.1" y2="103.8"/>
	<line class="st0" x1="3122.3" y1="89.7" x2="3131.1" y2="89.7"/>
	<line class="st0" x1="3122.3" y1="125" x2="3131.1" y2="125"/>
	<line class="st0" x1="3122.3" y1="132" x2="3131.1" y2="132"/>
	<line class="st0" x1="3297.8" y1="61.5" x2="3306.6" y2="61.5"/>
	<line class="st0" x1="3297.8" y1="68.5" x2="3306.6" y2="68.5"/>
	<line class="st0" x1="3297.8" y1="54.4" x2="3306.6" y2="54.4"/>
	<line class="st0" x1="3297.8" y1="47.4" x2="3306.6" y2="47.4"/>
	<line class="st0" x1="3297.8" y1="40.3" x2="3306.6" y2="40.3"/>
	<line class="st0" x1="3297.8" y1="75.6" x2="3306.6" y2="75.6"/>
	<line class="st0" x1="3297.8" y1="82.7" x2="3306.6" y2="82.7"/>
	<line class="st0" x1="3297.8" y1="19.4" x2="3306.6" y2="19.4"/>
	<line class="st0" x1="3297.8" y1="12.3" x2="3306.6" y2="12.3"/>
	<line class="st0" x1="3297.8" y1="26.4" x2="3306.6" y2="26.4"/>
	<line class="st0" x1="3297.8" y1="33.3" x2="3306.6" y2="33.3"/>
	<line class="st0" x1="3297.8" y1="146.1" x2="3306.4" y2="146.1"/>
	<line class="st0" x1="3297.8" y1="139.1" x2="3306.6" y2="139.1"/>
	<line class="st0" x1="3297.8" y1="117.9" x2="3306.6" y2="117.9"/>
	<line class="st0" x1="3297.8" y1="96.8" x2="3306.6" y2="96.8"/>
	<line class="st0" x1="3297.8" y1="110.9" x2="3306.6" y2="110.9"/>
	<line class="st0" x1="3297.8" y1="103.8" x2="3306.6" y2="103.8"/>
	<line class="st0" x1="3297.8" y1="89.7" x2="3306.6" y2="89.7"/>
	<line class="st0" x1="3297.8" y1="125" x2="3306.6" y2="125"/>
	<line class="st0" x1="3297.8" y1="132" x2="3306.6" y2="132"/>
	<line class="st0" x1="3315.5" y1="61.5" x2="3324.3" y2="61.5"/>
	<line class="st0" x1="3315.5" y1="68.5" x2="3324.3" y2="68.5"/>
	<line class="st0" x1="3315.5" y1="54.4" x2="3324.3" y2="54.4"/>
	<line class="st0" x1="3315.5" y1="47.4" x2="3324.3" y2="47.4"/>
	<line class="st0" x1="3315.5" y1="40.3" x2="3324.3" y2="40.3"/>
	<line class="st0" x1="3315.5" y1="75.6" x2="3324.3" y2="75.6"/>
	<line class="st0" x1="3315.5" y1="82.7" x2="3324.3" y2="82.7"/>
	<line class="st0" x1="3315.5" y1="19.4" x2="3324.3" y2="19.4"/>
	<line class="st0" x1="3315.5" y1="12.3" x2="3324.3" y2="12.3"/>
	<line class="st0" x1="3315.5" y1="26.4" x2="3324.3" y2="26.4"/>
	<line class="st0" x1="3315.5" y1="33.3" x2="3324.3" y2="33.3"/>
	<line class="st0" x1="3297.8" y1="5.6" x2="3306.6" y2="5.6"/>
	<line class="st0" x1="3297.8" y1="-1.5" x2="3306.6" y2="-1.5"/>
	<line class="st0" x1="3297.8" y1="-8.5" x2="3306.6" y2="-8.5"/>
	<line class="st0" x1="3297.8" y1="-15.6" x2="3306.6" y2="-15.6"/>
	<line class="st0" x1="3297.8" y1="-36.5" x2="3306.6" y2="-36.5"/>
	<line class="st0" x1="3297.8" y1="-43.6" x2="3306.6" y2="-43.6"/>
	<line class="st0" x1="3297.8" y1="-29.5" x2="3306.6" y2="-29.5"/>
	<line class="st0" x1="3297.8" y1="-22.7" x2="3306.6" y2="-22.7"/>
	<line class="st0" x1="3315.5" y1="5.6" x2="3324.3" y2="5.6"/>
	<line class="st0" x1="3315.5" y1="-1.5" x2="3324.3" y2="-1.5"/>
	<line class="st0" x1="3315.5" y1="-8.5" x2="3324.3" y2="-8.5"/>
	<line class="st0" x1="3315.5" y1="-15.6" x2="3324.3" y2="-15.6"/>
	<line class="st0" x1="3315.5" y1="-36.5" x2="3324.3" y2="-36.5"/>
	<line class="st0" x1="3315.5" y1="-43.6" x2="3324.3" y2="-43.6"/>
	<line class="st0" x1="3297.8" y1="-51.5" x2="3306.6" y2="-51.5"/>
	<line class="st0" x1="3315.5" y1="-51.5" x2="3324.3" y2="-51.5"/>
	<line class="st0" x1="3315.5" y1="-29.5" x2="3324.3" y2="-29.5"/>
	<line class="st0" x1="3315.5" y1="-22.7" x2="3324.3" y2="-22.7"/>
	<line class="st0" x1="3315.5" y1="146.1" x2="3324.1" y2="146.1"/>
	<line class="st0" x1="3315.5" y1="139.1" x2="3324.3" y2="139.1"/>
	<line class="st0" x1="3315.5" y1="117.9" x2="3324.3" y2="117.9"/>
	<line class="st0" x1="3315.5" y1="96.8" x2="3324.3" y2="96.8"/>
	<line class="st0" x1="3315.5" y1="110.9" x2="3324.3" y2="110.9"/>
	<line class="st0" x1="3315.5" y1="103.8" x2="3324.3" y2="103.8"/>
	<line class="st0" x1="3315.5" y1="89.7" x2="3324.3" y2="89.7"/>
	<line class="st0" x1="3315.5" y1="125" x2="3324.3" y2="125"/>
	<line class="st0" x1="3315.5" y1="132" x2="3324.3" y2="132"/>
	<line class="st0" x1="3140" y1="61.5" x2="3148.8" y2="61.5"/>
	<line class="st0" x1="3140" y1="68.5" x2="3148.8" y2="68.5"/>
	<line class="st0" x1="3140" y1="54.4" x2="3148.8" y2="54.4"/>
	<line class="st0" x1="3140" y1="47.4" x2="3148.8" y2="47.4"/>
	<line class="st0" x1="3140" y1="40.3" x2="3148.8" y2="40.3"/>
	<line class="st0" x1="3140" y1="75.6" x2="3148.8" y2="75.6"/>
	<line class="st0" x1="3140" y1="82.7" x2="3148.8" y2="82.7"/>
	<line class="st0" x1="3140" y1="19.4" x2="3148.8" y2="19.4"/>
	<line class="st0" x1="3140" y1="12.3" x2="3148.8" y2="12.3"/>
	<line class="st0" x1="3140" y1="26.4" x2="3148.8" y2="26.4"/>
	<line class="st0" x1="3140" y1="33.3" x2="3148.8" y2="33.3"/>
	<line class="st0" x1="3140" y1="146.1" x2="3148.6" y2="146.1"/>
	<line class="st0" x1="3140" y1="139.1" x2="3148.8" y2="139.1"/>
	<line class="st0" x1="3140" y1="117.9" x2="3148.8" y2="117.9"/>
	<line class="st0" x1="3140" y1="96.8" x2="3148.8" y2="96.8"/>
	<line class="st0" x1="3140" y1="110.9" x2="3148.8" y2="110.9"/>
	<line class="st0" x1="3140" y1="103.8" x2="3148.8" y2="103.8"/>
	<line class="st0" x1="3140" y1="89.7" x2="3148.8" y2="89.7"/>
	<line class="st0" x1="3140" y1="125" x2="3148.8" y2="125"/>
	<line class="st0" x1="3140" y1="132" x2="3148.8" y2="132"/>
	<line class="st0" x1="3032" y1="-55" x2="3086" y2="-55"/>
	<line class="st0" x1="3050" y1="-47.9" x2="3050" y2="159.9"/>
	<line class="st0" x1="3059" y1="-47.9" x2="3059" y2="159.9"/>
	<line class="st0" x1="3068.1" y1="-47.9" x2="3068.1" y2="159.9"/>
	<line class="st0" x1="3077" y1="-20.8" x2="3077" y2="159.9"/>
	<line class="st0" x1="3086" y1="-20.8" x2="3086" y2="159.9"/>
	<line class="st0" x1="3162.7" y1="-86.3" x2="3162.7" y2="156.5"/>
	<line class="st0" x1="3148.8" y1="-101.7" x2="3176" y2="-101.7"/>
	<line class="st0" x1="3148.8" y1="-110.3" x2="3176" y2="-110.3"/>
	<polyline points="3153.7,-119.3 3153.7,-128 3153.7,-136.7 3171.3,-136.7 3171.3,-119.3 	"/>
	<line class="st0" x1="3153.7" y1="-128" x2="3171.3" y2="-128"/>
	<line class="st0" x1="3162.7" y1="-136.7" x2="3162.7" y2="-164"/>
	<line class="st0" x1="3176" y1="146.1" x2="3220.7" y2="146.1"/>
	<line class="st0" x1="3176" y1="139.1" x2="3220.7" y2="139.1"/>
	<line class="st0" x1="3176" y1="132" x2="3220.7" y2="132"/>
	<line class="st0" x1="3176" y1="125" x2="3220.7" y2="125"/>
	<line class="st0" x1="3176" y1="117.9" x2="3220.7" y2="117.9"/>
	<line class="st0" x1="3176" y1="110.9" x2="3220.7" y2="110.9"/>
	<line class="st0" x1="3176" y1="103.8" x2="3220.7" y2="103.8"/>
	<line class="st0" x1="3176" y1="89.7" x2="3220.7" y2="89.7"/>
	<line class="st0" x1="3176" y1="96.8" x2="3220.7" y2="96.8"/>
	<line class="st0" x1="3176" y1="68.5" x2="3220.7" y2="68.5"/>
	<line class="st0" x1="3176" y1="82.7" x2="3220.7" y2="82.7"/>
	<line class="st0" x1="3176" y1="75.6" x2="3220.7" y2="75.6"/>
	<line class="st0" x1="3176" y1="61.7" x2="3220.7" y2="61.7"/>
	<line class="st0" x1="3176" y1="47.6" x2="3220.7" y2="47.6"/>
	<line class="st0" x1="3176" y1="54.6" x2="3220.7" y2="54.6"/>
	<line class="st0" x1="3176" y1="26.4" x2="3220.7" y2="26.4"/>
	<line class="st0" x1="3176" y1="40.5" x2="3220.7" y2="40.5"/>
	<line class="st0" x1="3176" y1="33.5" x2="3220.7" y2="33.5"/>
	<line class="st0" x1="3176" y1="19.4" x2="3220.7" y2="19.4"/>
	<line class="st0" x1="3176" y1="5.3" x2="3220.7" y2="5.3"/>
	<line class="st0" x1="3176" y1="12.3" x2="3220.7" y2="12.3"/>
	<line class="st0" x1="3176" y1="-1.8" x2="3220.7" y2="-1.8"/>
	<line class="st0" x1="3176" y1="-8.8" x2="3220.7" y2="-8.8"/>
	<line class="st0" x1="3247.5" y1="61.5" x2="3247.5" y2="159.5"/>
	<line class="st0" x1="3265.5" y1="43.9" x2="3265.5" y2="159.9"/>
	<line class="st0" x1="3275" y1="33.3" x2="3275" y2="152.8"/>
	<line class="st0" x1="3256.4" y1="52.6" x2="3256.4" y2="152.7"/>
	<line class="st0" x1="3238" y1="70.1" x2="3238" y2="152.7"/>
	<polyline points="3292.6,-64.5 3292.6,-83.6 3311.1,-83.6 3311.1,-64.5 	"/>
	<line class="st0" x1="3301.8" y1="-83.6" x2="3301.8" y2="-110.3"/>
	<line class="st0" x1="3162.7" y1="159.9" x2="3162.7" y2="240.4"/>
	<circle cx="3162.7" cy="252.9" r="12.5"/>
</g>
<g id="building-6">
	<g id="shadows-6">
		<path d="M3677.5,151.7c0,0-0.8,7.8-7.7,7.7s-7.7-7.7-7.7-7.7h-7.6l4-32.7h11.3l6.4,13.8l6.3,6.7v12.2H3677.5z"/>
		<rect x="3515.9" y="43.3" width="36" height="8.6"/>
		<polygon points="3552,106.2 3502.1,106.2 3502.1,160.5 3551.2,160.5 3551.2,144.9 		"/>
		<polygon points="3624.9,142.4 3605.9,142.4 3605.9,160.5 3633.1,160.5 3626.8,151.4 3624,151.1 		"/>
	</g>
	<polyline points="3586.5,150.1 3586.5,142.5 3624,142.5 3624,151.1 	"/>
	<polyline points="3677.5,151.7 3682.6,151.7 3682.6,139.6 3676.3,132.8 3669.8,119 3658.5,119 3655.3,145.4 3640.2,145.4 	"/>
	<polyline points="3453,160.5 3453,96.9 3488.4,96.9 3488.4,105.9 3551.7,105.9 3551.7,160.5 	"/>
	<rect x="3479.9" y="43.3" width="72" height="8.6"/>
	<line class="st0" x1="3709" y1="159.9" x2="3709" y2="145.8"/>
	<polyline points="3700.8,129.2 3705.6,124.8 3709,128.2 3713,124.8 3717.3,129.3 	"/>
	<path d="M3717.2,129.3c1-1.6,1.6-3.4,1.6-5.4c0-5.4-4.4-9.8-9.8-9.8s-9.8,4.4-9.8,9.8c0,2,0.6,3.9,1.6,5.4c-3,1.3-5.1,4.4-5.1,7.9
		c0,4.8,3.9,8.6,8.6,8.6c1.7,0,3.4-0.5,4.7-1.4c1.4,0.9,3,1.4,4.7,1.4c4.8,0,8.6-3.9,8.6-8.6
		C3722.3,133.6,3720.2,130.6,3717.2,129.3z"/>
	<line class="st0" x1="3730.3" y1="159.9" x2="3730.3" y2="135.1"/>
	<polyline points="3716,106.1 3724.3,98.4 3730.4,104.4 3737.4,98.4 3744.9,106.3 	"/>
	<path d="M3722.1,135.1c3,0,5.9-0.9,8.2-2.5c2.4,1.5,5.2,2.5,8.2,2.5c8.3,0,15.1-6.8,15.1-15.1c0-6.2-3.7-11.4-9-13.8
		c1.8-2.7,2.8-6,2.8-9.5c0-9.5-7.7-17.2-17.2-17.2s-17.2,7.7-17.2,17.2c0,3.5,1.1,6.8,2.8,9.5c-3.4,1.5-6.2,4.3-7.7,7.8"/>
	<polygon points="3669.8,132.5 3662.9,132.5 3663.6,125.4 3667.5,125.4 	"/>
	<line class="st0" x1="3453" y1="105.9" x2="3488.4" y2="105.9"/>
	<line class="st0" x1="3453" y1="114.9" x2="3551.7" y2="114.9"/>
	<line class="st0" x1="3453" y1="123.5" x2="3551.7" y2="123.5"/>
	<line class="st0" x1="3453" y1="141.7" x2="3551.7" y2="141.7"/>
	<line class="st0" x1="3453" y1="150.5" x2="3551.7" y2="150.5"/>
	<line class="st0" x1="3471.3" y1="97" x2="3471.3" y2="105.5"/>
	<line class="st0" x1="3462" y1="106.2" x2="3462" y2="114.6"/>
	<line class="st0" x1="3479.9" y1="106.2" x2="3479.9" y2="114.6"/>
	<polyline points="3515.8,114.6 3515.8,106.2 3515.8,79.3 3542.9,105.5 	"/>
	<line class="st0" x1="3515.8" y1="106.2" x2="3515.8" y2="114.6"/>
	<polyline points="3551.8,114.6 3551.8,106.2 3551.8,79.2 3524.8,105.5 	"/>
	<line class="st0" x1="3542.9" y1="115.1" x2="3542.9" y2="123.5"/>
	<line class="st0" x1="3471" y1="115.5" x2="3471" y2="123.1"/>
	<line class="st0" x1="3488.9" y1="115.5" x2="3488.9" y2="123.1"/>
	<line class="st0" x1="3506.8" y1="115.5" x2="3506.8" y2="123.1"/>
	<line class="st0" x1="3524.9" y1="115.5" x2="3524.9" y2="123.1"/>
	<line class="st0" x1="3533.8" y1="123.9" x2="3533.8" y2="132"/>
	<line class="st0" x1="3461.9" y1="124.4" x2="3461.9" y2="132"/>
	<line class="st0" x1="3479.9" y1="124.4" x2="3479.9" y2="132"/>
	<line class="st0" x1="3497.8" y1="124.4" x2="3497.8" y2="132"/>
	<line class="st0" x1="3515.9" y1="124.4" x2="3515.9" y2="132"/>
	<line class="st0" x1="3533.8" y1="142.1" x2="3533.8" y2="150.2"/>
	<line class="st0" x1="3461.9" y1="142.5" x2="3461.9" y2="150.1"/>
	<line class="st0" x1="3479.9" y1="142.5" x2="3479.9" y2="150.1"/>
	<line class="st0" x1="3497.8" y1="142.5" x2="3497.8" y2="150.1"/>
	<line class="st0" x1="3515.9" y1="142.5" x2="3515.9" y2="150.1"/>
	<line class="st0" x1="3542.9" y1="132.8" x2="3542.9" y2="140.9"/>
	<line class="st0" x1="3471" y1="133.3" x2="3471" y2="140.9"/>
	<line class="st0" x1="3488.9" y1="133.3" x2="3488.9" y2="140.9"/>
	<line class="st0" x1="3506.8" y1="133.3" x2="3506.8" y2="140.9"/>
	<line class="st0" x1="3524.9" y1="133.3" x2="3524.9" y2="140.9"/>
	<line class="st0" x1="3542.9" y1="151.1" x2="3542.9" y2="159.2"/>
	<line class="st0" x1="3471" y1="151.6" x2="3471" y2="159.2"/>
	<line class="st0" x1="3488.9" y1="151.6" x2="3488.9" y2="159.2"/>
	<line class="st0" x1="3506.8" y1="151.6" x2="3506.8" y2="159.2"/>
	<line class="st0" x1="3524.9" y1="151.6" x2="3524.9" y2="159.2"/>
	<polyline points="3453,96.9 3453,61.7 3479.9,95.9 	"/>
	<polyline points="3488.4,96.9 3488.4,61.5 3461.9,96.8 	"/>
	<polyline points="3577.5,159.9 3577.5,151.1 3627.4,151.1 	"/>
	<polyline points="3614.5,132 3614.1,-55.9 3596.1,-55.9 3596.5,141.4 	"/>
	<line class="st0" x1="3614.5" y1="142.5" x2="3614.5" y2="132.4"/>
	<line class="st0" x1="3614.5" y1="123.5" x2="3597.1" y2="123.5"/>
	<line class="st0" x1="3597.1" y1="106.2" x2="3614.1" y2="106.2"/>
	<line class="st0" x1="3597.1" y1="87.9" x2="3614.1" y2="87.9"/>
	<line class="st0" x1="3597.1" y1="69.9" x2="3614.1" y2="69.9"/>
	<line class="st0" x1="3597.1" y1="51.9" x2="3614.1" y2="51.9"/>
	<line class="st0" x1="3597.1" y1="33.9" x2="3614.1" y2="33.9"/>
	<line class="st0" x1="3597.1" y1="15.9" x2="3614.1" y2="15.9"/>
	<line class="st0" x1="3597.1" y1="-1.8" x2="3614.1" y2="-1.8"/>
	<line class="st0" x1="3597.1" y1="-20.4" x2="3614.1" y2="-20.4"/>
	<line class="st0" x1="3597.1" y1="-38.4" x2="3614.1" y2="-38.4"/>
	<polyline points="3614.5,124 3597.5,105.9 3614.3,87.9 3597.5,69.9 3614.3,51.9 3597.5,33.9 3614.3,15.9 3597.5,-2.1 3614.2,-20.1 
		3596.5,-38.1 3613.9,-55.9 	"/>
	<line class="st0" x1="3597.5" y1="141.9" x2="3614.5" y2="124"/>
	<polyline points="3614.1,141.9 3597.5,123.9 3614.1,105.9 3597.5,87.9 3614.1,69.9 3597.5,51.9 3614.1,33.9 3597.5,15.9 
		3614.1,-2.1 3596.2,-20.2 3614.1,-38.2 3596.1,-55.9 	"/>
	<polyline points="3614.1,-38.4 3497.8,-38.4 3506.8,-55.9 3613.9,-55.9 	"/>
	<polyline points="3596.1,-55.9 3578.8,-38.4 3560.5,-55.9 3542.9,-38.4 3524.8,-55.9 3506.8,-38.4 3506.8,-55.9 3524.8,-38.4 
		3542.9,-55.9 3560.5,-38.4 3578.5,-55.9 3596.1,-38.4 	"/>
	<line class="st0" x1="3578.5" y1="-55.9" x2="3578.5" y2="-38.4"/>
	<line class="st0" x1="3542.9" y1="-55.9" x2="3542.9" y2="-38.4"/>
	<line class="st0" x1="3524.8" y1="-55.9" x2="3524.8" y2="-38.4"/>
	<polyline points="3560.5,-55.9 3560.5,-38.4 3560.5,-32.4 3506.8,-32.4 3506.8,-38.4 	"/>
	<line class="st0" x1="3515.8" y1="-32.4" x2="3515.8" y2="5.6"/>
	<rect x="3510.8" y="6.6" width="10.5" height="9.2"/>
	<path d="M3515.8,15.9v3.5c0,0,4.8,0.8,4.8,5.4c0,4.5-4.5,4.5-4.5,4.5s-5.3,0.4-5.3-4.4"/>
	<polyline points="3506.8,43 3515.8,26.4 3524.9,43.3 	"/>
	<circle cx="3635.8" cy="151.7" r="7.7"/>
	<circle cx="3669.8" cy="151.7" r="7.7"/>
	<line class="st0" x1="3643.5" y1="151.7" x2="3662.1" y2="151.7"/>
	<polyline points="3630.7,146 3614.8,132.8 3614.8,125.6 3642.4,125.6 3655.8,111.9 3663.4,111.9 3666.4,118.5 	"/>
	<polyline points="3616.6,125.4 3622.2,119 3628.1,119 3632.8,115.3 3639.1,114.2 3646.7,119.8 	"/>
	<polyline points="3632.8,115.3 3635.8,109.1 3643.5,106.5 3649.2,109.1 3653.5,114.2 	"/>
	<line class="st0" x1="3648.8" y1="145.3" x2="3650.4" y2="132.5"/>
	<line class="st0" x1="3641.8" y1="145.3" x2="3643.5" y2="132.5"/>
	<line class="st0" x1="3635.8" y1="144" x2="3637.3" y2="132.5"/>
	<circle cx="3635.8" cy="151.7" r="3.6"/>
	<circle cx="3669.8" cy="151.7" r="3.6"/>
	<polyline points="3417,160.5 3417,15.9 3453,15.9 3453,117.9 	"/>
	<line class="st0" x1="3417" y1="43.3" x2="3453" y2="43.3"/>
	<line class="st0" x1="3417" y1="70.1" x2="3453" y2="70.1"/>
	<line class="st0" x1="3417" y1="96.8" x2="3453" y2="96.8"/>
	<line class="st0" x1="3417" y1="123.5" x2="3453" y2="123.5"/>
	<line class="st0" x1="3417" y1="15.9" x2="3417" y2="-18.5"/>
	<line class="st0" x1="3453" y1="15.9" x2="3453" y2="-18.5"/>
	<line class="st0" x1="3417" y1="79.2" x2="3453" y2="79.2"/>
	<polyline points="3417,132 3453,132 3551.7,132 	"/>
	<line class="st0" x1="3551.5" y1="159.9" x2="3551.5" y2="240.4"/>
	<circle cx="3551.5" cy="252.9" r="12.5"/>
</g>
<g id="building-7">
	<g id="shadows-7">
		<rect x="3945" y="114.6" width="13.8" height="45.9"/>
		<rect x="4076.5" y="51.9" width="67.2" height="108.6"/>
		<polygon points="4012.5,160.5 3981.1,160.5 3981.1,42.7 3986,42.7 3986,33.9 4012.5,33.9 		"/>
		<polygon points="3932,33.8 3891.5,34 3891.5,160.5 3931.2,160.5 3931.2,124.2 3931.4,51.9 3940.7,51.9 3940.7,43.5 3931.4,42.7 		
			"/>
	</g>
	<polyline points="3958.8,79.5 4012.5,79.5 4012.5,88.1 3958.8,88.1 	"/>
	<polyline points="3850,123.9 3931.4,123.9 3931.4,114.6 3850,114.6 	"/>
	<path d="M3850,60.9h81.4c0,0,27.6,8.5,45.1-9"/>
	<polyline points="3850,51.9 3841.7,51.9 3841.7,43 3940.7,43 3940.7,51.9 3930,51.9 	"/>
	<polyline points="3850,42.7 3850,33.9 3931.4,33.9 3931.4,42.7 	"/>
	<polyline points="4012.5,51.9 4143.7,51.9 4143.7,160.5 	"/>
	<polyline points="3958.8,159.9 3958.8,79.5 3976.5,79.5 3976.5,43 3986,43 3986,33.9 4012.5,33.9 4012.5,160.5 	"/>
	<polyline points="3850,159.2 3850,51.9 3931.4,51.9 3931.4,159.5 	"/>
	<line class="st0" x1="4162" y1="159.9" x2="4162" y2="145.8"/>
	<circle cx="4162" cy="137.1" r="8.6"/>
	<polyline points="4153.7,139.2 4158.6,135.1 4162,138.5 4166,135.1 4170.3,139.6 	"/>
	<line class="st0" x1="3837.2" y1="159.9" x2="3837.2" y2="145.8"/>
	<circle cx="3837.2" cy="137.1" r="8.6"/>
	<polyline points="3828.8,139.2 3833.7,135.1 3837.2,138.5 3841.2,135.1 3845.5,139.6 	"/>
	<line class="st0" x1="3859.6" y1="138.5" x2="3868.4" y2="138.5"/>
	<line class="st0" x1="3877.7" y1="138.5" x2="3886.6" y2="138.5"/>
	<line class="st0" x1="3859.6" y1="144.5" x2="3886.6" y2="144.5"/>
	<line class="st0" x1="3896.2" y1="138.5" x2="3905.1" y2="138.5"/>
	<line class="st0" x1="3914.4" y1="138.5" x2="3923.3" y2="138.5"/>
	<line class="st0" x1="3896.3" y1="144.5" x2="3923.3" y2="144.5"/>
	<line class="st0" x1="3859.6" y1="93.8" x2="3868.4" y2="93.8"/>
	<line class="st0" x1="3859.6" y1="105.9" x2="3868.5" y2="105.9"/>
	<line class="st0" x1="3877.7" y1="93.8" x2="3886.6" y2="93.8"/>
	<line class="st0" x1="3877.8" y1="105.9" x2="3886.7" y2="105.9"/>
	<line class="st0" x1="3859.6" y1="99.9" x2="3886.6" y2="99.9"/>
	<line class="st0" x1="3985.8" y1="72.3" x2="4004" y2="72.3"/>
	<line class="st0" x1="3985.8" y1="65.1" x2="4004" y2="65.1"/>
	<line class="st0" x1="3985.8" y1="57.6" x2="4004" y2="57.6"/>
	<line class="st0" x1="3985.8" y1="50.2" x2="4004" y2="50.2"/>
	<line class="st0" x1="3896.2" y1="93.8" x2="3905.1" y2="93.8"/>
	<line class="st0" x1="3896.3" y1="105.9" x2="3905.2" y2="105.9"/>
	<line class="st0" x1="3914.4" y1="93.8" x2="3923.3" y2="93.8"/>
	<line class="st0" x1="3914.5" y1="105.9" x2="3923.4" y2="105.9"/>
	<line class="st0" x1="3896.3" y1="99.9" x2="3923.3" y2="99.9"/>
	<line class="st0" x1="3859.6" y1="71.3" x2="3868.4" y2="71.3"/>
	<line class="st0" x1="3859.6" y1="83.4" x2="3868.5" y2="83.4"/>
	<line class="st0" x1="3877.7" y1="71.3" x2="3886.6" y2="71.3"/>
	<line class="st0" x1="3877.8" y1="83.4" x2="3886.7" y2="83.4"/>
	<line class="st0" x1="3859.6" y1="77.4" x2="3886.6" y2="77.4"/>
	<line class="st0" x1="3896.2" y1="71.3" x2="3905.1" y2="71.3"/>
	<line class="st0" x1="3896.3" y1="83.4" x2="3905.2" y2="83.4"/>
	<line class="st0" x1="3914.4" y1="71.3" x2="3923.3" y2="71.3"/>
	<line class="st0" x1="3914.5" y1="83.4" x2="3923.4" y2="83.4"/>
	<line class="st0" x1="3896.3" y1="77.4" x2="3923.3" y2="77.4"/>
	<line class="st0" x1="3859.6" y1="56.6" x2="3923.4" y2="56.6"/>
	<line class="st0" x1="3859.6" y1="119.3" x2="3923.4" y2="119.3"/>
	<line class="st0" x1="3963" y1="83.8" x2="4008" y2="83.8"/>
	<polyline points="3859.6,33.9 3859.6,15.9 3877.8,15.9 3877.8,33.9 	"/>
	<path d="M3931.3,96.8c0,0,16.2,3.4,27.5-8.6"/>
	<line class="st0" x1="3958.8" y1="114.6" x2="3931.4" y2="114.6"/>
	<line class="st0" x1="3940.7" y1="143.4" x2="3949.5" y2="143.4"/>
	<line class="st0" x1="3940.7" y1="122.2" x2="3949.5" y2="122.2"/>
	<line class="st0" x1="3940.7" y1="129.2" x2="3949.5" y2="129.2"/>
	<line class="st0" x1="3940.7" y1="136.3" x2="3949.5" y2="136.3"/>
	<line class="st0" x1="3967.7" y1="143.4" x2="3976.5" y2="143.4"/>
	<line class="st0" x1="3967.7" y1="122.2" x2="3976.5" y2="122.2"/>
	<line class="st0" x1="3967.7" y1="129.2" x2="3976.5" y2="129.2"/>
	<line class="st0" x1="3967.7" y1="136.3" x2="3976.5" y2="136.3"/>
	<line class="st0" x1="3967.7" y1="101.6" x2="3976.5" y2="101.6"/>
	<line class="st0" x1="3967.7" y1="108.7" x2="3976.5" y2="108.7"/>
	<line class="st0" x1="3967.7" y1="115.7" x2="3976.5" y2="115.7"/>
	<line class="st0" x1="4027.1" y1="143.4" x2="4035.9" y2="143.4"/>
	<line class="st0" x1="4027.1" y1="122.2" x2="4035.9" y2="122.2"/>
	<line class="st0" x1="4027.1" y1="129.2" x2="4035.9" y2="129.2"/>
	<line class="st0" x1="4027.1" y1="136.3" x2="4035.9" y2="136.3"/>
	<line class="st0" x1="4027.1" y1="115.7" x2="4035.9" y2="115.7"/>
	<line class="st0" x1="4045.1" y1="143.4" x2="4053.9" y2="143.4"/>
	<line class="st0" x1="4045.1" y1="122.2" x2="4053.9" y2="122.2"/>
	<line class="st0" x1="4045.1" y1="129.2" x2="4053.9" y2="129.2"/>
	<line class="st0" x1="4045.1" y1="136.3" x2="4053.9" y2="136.3"/>
	<line class="st0" x1="4045.1" y1="115.7" x2="4053.9" y2="115.7"/>
	<line class="st0" x1="4063.1" y1="143.4" x2="4071.9" y2="143.4"/>
	<line class="st0" x1="4063.1" y1="122.2" x2="4071.9" y2="122.2"/>
	<line class="st0" x1="4063.1" y1="129.2" x2="4071.9" y2="129.2"/>
	<line class="st0" x1="4063.1" y1="136.3" x2="4071.9" y2="136.3"/>
	<line class="st0" x1="4063.1" y1="115.7" x2="4071.9" y2="115.7"/>
	<line class="st0" x1="4081" y1="143.4" x2="4089.8" y2="143.4"/>
	<line class="st0" x1="4081" y1="122.2" x2="4089.8" y2="122.2"/>
	<line class="st0" x1="4081" y1="129.2" x2="4089.8" y2="129.2"/>
	<line class="st0" x1="4081" y1="136.3" x2="4089.8" y2="136.3"/>
	<line class="st0" x1="4081" y1="115.7" x2="4089.8" y2="115.7"/>
	<line class="st0" x1="4099.2" y1="143.4" x2="4108" y2="143.4"/>
	<line class="st0" x1="4099.2" y1="122.2" x2="4108" y2="122.2"/>
	<line class="st0" x1="4099.2" y1="129.2" x2="4108" y2="129.2"/>
	<line class="st0" x1="4099.2" y1="136.3" x2="4108" y2="136.3"/>
	<line class="st0" x1="4099.2" y1="115.7" x2="4108" y2="115.7"/>
	<line class="st0" x1="4125.9" y1="143.4" x2="4134.7" y2="143.4"/>
	<line class="st0" x1="4125.9" y1="122.2" x2="4134.7" y2="122.2"/>
	<line class="st0" x1="4125.9" y1="129.2" x2="4134.7" y2="129.2"/>
	<line class="st0" x1="4125.9" y1="136.3" x2="4134.7" y2="136.3"/>
	<line class="st0" x1="4125.9" y1="115.7" x2="4134.7" y2="115.7"/>
	<line class="st0" x1="4125.9" y1="78.7" x2="4134.7" y2="78.7"/>
	<line class="st0" x1="4125.9" y1="85.8" x2="4134.7" y2="85.8"/>
	<line class="st0" x1="4125.9" y1="72.3" x2="4134.7" y2="72.3"/>
	<line class="st0" x1="3985.9" y1="101.6" x2="3994.7" y2="101.6"/>
	<line class="st0" x1="3985.9" y1="108.7" x2="3994.7" y2="108.7"/>
	<line class="st0" x1="3985.9" y1="115.7" x2="3994.7" y2="115.7"/>
	<line class="st0" x1="3986" y1="143.4" x2="3994.8" y2="143.4"/>
	<line class="st0" x1="3986" y1="122.2" x2="3994.8" y2="122.2"/>
	<line class="st0" x1="3986" y1="129.2" x2="3994.8" y2="129.2"/>
	<line class="st0" x1="3986" y1="136.3" x2="3994.8" y2="136.3"/>
	<path d="M3945,114.6"/>
	<line class="st0" x1="3986" y1="43" x2="4012.5" y2="43"/>
	<line class="st0" x1="4012.5" y1="60.9" x2="4143.7" y2="60.9"/>
	<polyline points="4012.5,97.2 4143.7,97.2 4143.7,106.2 4012.5,106.2 	"/>
	<polyline points="4066.2,51.9 4066.2,34.1 4039.5,34.1 4039.5,51.9 	"/>
	<polyline points="4039.5,43 4012.5,43 4012.5,51.9 	"/>
	<line class="st0" x1="4117" y1="160.5" x2="4117" y2="106.2"/>
	<line class="st0" x1="4117" y1="97.2" x2="4117" y2="60.9"/>
	<line class="st0" x1="4026.8" y1="69.9" x2="4026.8" y2="88.1"/>
	<line class="st0" x1="4035.7" y1="69.9" x2="4035.7" y2="88.1"/>
	<line class="st0" x1="4031.2" y1="69.9" x2="4031.2" y2="88.1"/>
	<line class="st0" x1="4040.4" y1="69.9" x2="4040.4" y2="88.1"/>
	<line class="st0" x1="4049.4" y1="69.9" x2="4049.4" y2="88.1"/>
	<line class="st0" x1="4045" y1="69.9" x2="4045" y2="88.1"/>
	<line class="st0" x1="4053.9" y1="69.9" x2="4053.9" y2="88.1"/>
	<line class="st0" x1="4058.8" y1="69.9" x2="4058.8" y2="88.1"/>
	<line class="st0" x1="4063.4" y1="69.9" x2="4063.4" y2="88.1"/>
	<line class="st0" x1="4067.2" y1="69.9" x2="4067.2" y2="88.1"/>
	<line class="st0" x1="4076.1" y1="69.9" x2="4076.1" y2="88.1"/>
	<line class="st0" x1="4071.6" y1="69.9" x2="4071.6" y2="88.1"/>
	<line class="st0" x1="4080.7" y1="69.9" x2="4080.7" y2="88.1"/>
	<line class="st0" x1="4089.8" y1="69.9" x2="4089.8" y2="88.1"/>
	<line class="st0" x1="4085.3" y1="69.9" x2="4085.3" y2="88.1"/>
	<line class="st0" x1="4094.3" y1="69.9" x2="4094.3" y2="88.1"/>
	<line class="st0" x1="4099.2" y1="69.9" x2="4099.2" y2="88.1"/>
	<line class="st0" x1="4103.8" y1="69.9" x2="4103.8" y2="88.1"/>
	<line class="st0" x1="4107.8" y1="69.9" x2="4107.8" y2="88.1"/>
	<line class="st0" x1="3859.6" y1="150.5" x2="3868.5" y2="150.5"/>
	<line class="st0" x1="3877.8" y1="150.5" x2="3886.7" y2="150.5"/>
	<line class="st0" x1="3896.3" y1="150.5" x2="3905.2" y2="150.5"/>
	<line class="st0" x1="3914.5" y1="150.5" x2="3923.4" y2="150.5"/>
	<line class="st0" x1="3940.7" y1="150.4" x2="3949.3" y2="150.4"/>
	<line class="st0" x1="3967.7" y1="150.4" x2="3976.3" y2="150.4"/>
	<line class="st0" x1="4027.1" y1="150.4" x2="4035.7" y2="150.4"/>
	<line class="st0" x1="4045.1" y1="150.4" x2="4053.7" y2="150.4"/>
	<line class="st0" x1="4063.1" y1="150.4" x2="4071.7" y2="150.4"/>
	<line class="st0" x1="4081" y1="150.4" x2="4089.6" y2="150.4"/>
	<line class="st0" x1="4099.2" y1="150.4" x2="4107.8" y2="150.4"/>
	<line class="st0" x1="4125.9" y1="150.4" x2="4134.5" y2="150.4"/>
	<line class="st0" x1="3986" y1="150.4" x2="3994.6" y2="150.4"/>
	<line class="st0" x1="4012.5" y1="159.9" x2="4012.5" y2="240.4"/>
	<circle cx="4012.5" cy="252.9" r="12.5"/>
</g>
<g id="building-8">
	<g id="shadows-8">
		<polygon points="4507.9,160.5 4453.1,160.5 4453.1,61.2 4462.9,61.2 4471.4,78.5 4471.4,91.4 4480.7,91.4 4480.7,97.2 4499,97.2 
			4507.9,115 		"/>
		<polygon points="4364.1,160.5 4296.9,160.5 4296.9,43 4322,79.5 4346,79.5 4363.7,105.7 		"/>
		<polygon points="4408.7,105.4 4408.7,160.1 4426.6,160.1 4426.6,123.5 		"/>
	</g>
	<polyline points="4363.7,159.9 4363.7,105.7 4328,105.7 4264.7,105.7 	"/>
	<polyline points="4390.7,140.2 4390.7,160.1 4390.7,123.5 4426.6,123.5 4426.6,159.7 	"/>
	<polyline points="4480.7,115 4507.9,115 4507.9,160.5 	"/>
	<line class="st0" x1="4522.7" y1="159.9" x2="4522.7" y2="145.8"/>
	<circle cx="4522.7" cy="137.1" r="8.6"/>
	<polyline points="4514.3,139.2 4519.2,135.1 4522.7,138.5 4526.7,135.1 4530.9,139.6 	"/>
	<line class="st0" x1="4539.6" y1="159.9" x2="4539.6" y2="145.8"/>
	<circle cx="4539.6" cy="137.1" r="8.6"/>
	<polyline points="4531.2,139.2 4536.1,135.1 4539.6,138.5 4543.6,135.1 4547.8,139.6 	"/>
	<line class="st0" x1="4377.4" y1="159.9" x2="4377.4" y2="145.8"/>
	<polyline points="4369.2,129.2 4374,124.8 4377.5,128.2 4381.5,124.8 4385.7,129.3 	"/>
	<path d="M4385.6,129.3c1-1.6,1.6-3.4,1.6-5.4c0-5.4-4.4-9.8-9.8-9.8s-9.8,4.4-9.8,9.8c0,2,0.6,3.9,1.6,5.4c-3,1.3-5.1,4.4-5.1,7.9
		c0,4.8,3.9,8.6,8.6,8.6c1.7,0,3.4-0.5,4.7-1.4c1.4,0.9,3,1.4,4.7,1.4c4.8,0,8.6-3.9,8.6-8.6
		C4390.7,133.6,4388.6,130.6,4385.6,129.3z"/>
	<line class="st0" x1="4273.9" y1="97.2" x2="4318.8" y2="97.2"/>
	<polyline points="4264.7,159.9 4264.7,88.1 4328,88.1 4328,160.5 	"/>
	<polyline points="4264.7,88.1 4296.4,43 4328,88.1 	"/>
	<polyline points="4363.7,105.7 4346,79.5 4322,79.5 	"/>
	<line class="st0" x1="4283" y1="147.5" x2="4291.9" y2="147.5"/>
	<line class="st0" x1="4283" y1="129.2" x2="4291.9" y2="129.2"/>
	<line class="st0" x1="4283" y1="122.6" x2="4291.9" y2="122.6"/>
	<line class="st0" x1="4283.1" y1="141.2" x2="4292" y2="141.2"/>
	<line class="st0" x1="4283" y1="135.2" x2="4291.9" y2="135.2"/>
	<line class="st0" x1="4489.8" y1="147.5" x2="4498.7" y2="147.5"/>
	<line class="st0" x1="4489.8" y1="129.2" x2="4498.7" y2="129.2"/>
	<line class="st0" x1="4489.8" y1="122.6" x2="4498.7" y2="122.6"/>
	<line class="st0" x1="4489.9" y1="141.2" x2="4498.8" y2="141.2"/>
	<line class="st0" x1="4489.8" y1="135.2" x2="4498.7" y2="135.2"/>
	<line class="st0" x1="4301" y1="147.5" x2="4309.9" y2="147.5"/>
	<line class="st0" x1="4301" y1="129.2" x2="4309.9" y2="129.2"/>
	<line class="st0" x1="4301" y1="122.6" x2="4309.9" y2="122.6"/>
	<line class="st0" x1="4283" y1="115.7" x2="4291.9" y2="115.7"/>
	<line class="st0" x1="4336.7" y1="147.5" x2="4354.5" y2="147.5"/>
	<line class="st0" x1="4336.7" y1="129.2" x2="4354.5" y2="129.2"/>
	<line class="st0" x1="4336.7" y1="122.6" x2="4354.5" y2="122.6"/>
	<line class="st0" x1="4336.9" y1="141.2" x2="4354.7" y2="141.2"/>
	<line class="st0" x1="4336.7" y1="135.2" x2="4354.5" y2="135.2"/>
	<line class="st0" x1="4336.7" y1="115.7" x2="4354.5" y2="115.7"/>
	<line class="st0" x1="4301" y1="115.7" x2="4309.9" y2="115.7"/>
	<line class="st0" x1="4301.1" y1="141.2" x2="4310" y2="141.2"/>
	<line class="st0" x1="4301" y1="135.2" x2="4309.9" y2="135.2"/>
	<line class="st0" x1="4400" y1="147.5" x2="4417.3" y2="147.5"/>
	<line class="st0" x1="4400" y1="141.5" x2="4417.3" y2="141.5"/>
	<line class="st0" x1="4445" y1="147.5" x2="4462.3" y2="147.5"/>
	<line class="st0" x1="4445" y1="141.5" x2="4462.3" y2="141.5"/>
	<line class="st0" x1="4445" y1="135.7" x2="4462.3" y2="135.7"/>
	<line class="st0" x1="4445" y1="129.6" x2="4462.3" y2="129.6"/>
	<line class="st0" x1="4445" y1="122.9" x2="4462.3" y2="122.9"/>
	<line class="st0" x1="4445" y1="116.9" x2="4462.3" y2="116.9"/>
	<line class="st0" x1="4445" y1="85.8" x2="4462.3" y2="85.8"/>
	<polyline points="4390.7,123.5 4408.7,105.4 4426.6,123.5 4426.6,106.2 4435.7,106.2 4480.7,106.2 4480.7,159.9 	"/>
	<line class="st0" x1="4390.7" y1="132.9" x2="4426.6" y2="132.9"/>
	<line class="st0" x1="4395.9" y1="118.3" x2="4395.9" y2="110"/>
	<polyline points="4435.7,159.9 4435.7,106.2 4435.7,78.5 4471.4,78.5 4471.4,106.2 4471.4,160.5 	"/>
	<polyline points="4507.9,115 4499,97.2 4480.7,97.2 	"/>
	<polyline points="4480.7,106.2 4480.7,91.4 4426.6,91.4 4426.6,106.1 	"/>
	<polyline points="4435.7,78.5 4445,61.2 4462.9,61.2 4471.4,78.5 	"/>
	<line class="st0" x1="4429.7" y1="92.6" x2="4429.7" y2="104.9"/>
	<line class="st0" x1="4432.6" y1="92.6" x2="4432.6" y2="104.9"/>
	<line class="st0" x1="4435.6" y1="92.6" x2="4435.6" y2="104.9"/>
	<line class="st0" x1="4438.6" y1="92.6" x2="4438.6" y2="104.9"/>
	<line class="st0" x1="4441.5" y1="92.6" x2="4441.5" y2="104.9"/>
	<line class="st0" x1="4444.5" y1="92.6" x2="4444.5" y2="104.9"/>
	<line class="st0" x1="4447.4" y1="92.6" x2="4447.4" y2="104.9"/>
	<line class="st0" x1="4450.4" y1="92.6" x2="4450.4" y2="104.9"/>
	<line class="st0" x1="4453.4" y1="92.6" x2="4453.4" y2="104.9"/>
	<line class="st0" x1="4456.3" y1="92.6" x2="4456.3" y2="104.9"/>
	<line class="st0" x1="4459.3" y1="92.6" x2="4459.3" y2="104.9"/>
	<line class="st0" x1="4462.2" y1="92.6" x2="4462.2" y2="104.9"/>
	<line class="st0" x1="4465.2" y1="92.6" x2="4465.2" y2="104.9"/>
	<line class="st0" x1="4468.1" y1="92.6" x2="4468.1" y2="104.9"/>
	<line class="st0" x1="4474.5" y1="92.6" x2="4474.5" y2="104.9"/>
	<line class="st0" x1="4477.5" y1="92.6" x2="4477.5" y2="104.9"/>
	<line class="st0" x1="4390.7" y1="159.9" x2="4390.7" y2="240.4"/>
	<circle cx="4390.7" cy="252.9" r="12.5"/>
</g>
</svg>
