<?xml version="1.0" encoding="utf-8"?>
<!-- Generator: Adobe Illustrator 19.1.0, SVG Export Plug-In . SVG Version: 6.00 Build 0)  -->
<svg version="1.1" id="Layer_1" xmlns="http://www.w3.org/2000/svg" xmlns:xlink="http://www.w3.org/1999/xlink" x="0px" y="0px"
	 viewBox="-36 37 27 27" style="enable-background:new -36 37 27 27;" xml:space="preserve">
<style type="text/css">
	.st0{fill:#D51632;}
	.st1{fill:#FEFEFE;}
</style>
<g id="Group-2-Copy" transform="translate(166.126421, 748.029863)">
	<path id="Fill-63" class="st0" d="M-202.1-698.4c0,7,5.7,12.7,12.9,12.8c7.2,0,13-5.6,13-12.6c0-7-5.7-12.7-12.9-12.8h-0.1
		C-196.3-711-202.1-705.4-202.1-698.4"/>
	<path id="Fill-65" class="st1" d="M-184.9-699.2v6.8h-8.5v-6.8h-2.2l6.5-6.3l6.5,6.3H-184.9z M-180.7-700.1L-180.7-700.1l-7.7-7.5
		c-0.2-0.2-0.5-0.3-0.8-0.3h0c-0.3,0-0.6,0.1-0.8,0.3l-7.7,7.5v0c-0.3,0.3-0.5,0.7-0.5,1.1c0,0.9,0.7,1.6,1.7,1.6l1.1,0
		c0,0,0,5.7,0,5.7c0,0.6,0.5,1.1,1.1,1.1h10.4c0.6,0,1.1-0.5,1.1-1.1c0,0,0-5.7,0-5.7l1.1,0c0.9,0,1.7-0.7,1.7-1.6
		C-180.2-699.4-180.4-699.8-180.7-700.1L-180.7-700.1z"/>
</g>
</svg>
