<?xml version="1.0" encoding="utf-8"?>
<!-- Generator: Adobe Illustrator 19.1.0, SVG Export Plug-In . SVG Version: 6.00 Build 0)  -->
<svg version="1.1" id="clouds" xmlns="http://www.w3.org/2000/svg" xmlns:xlink="http://www.w3.org/1999/xlink" x="0px" y="0px"
	 viewBox="1500 -200 3100 500" style="enable-background:new 1500 -200 3100 500;" xml:space="preserve">
<style type="text/css">
	.st0{opacity:0.2;}
	.st1{clip-path:url(#SVGID_2_);}
	.st2{clip-path:url(#SVGID_4_);fill:none;stroke:#2A3E4C;stroke-miterlimit:10;}
	.st3{clip-path:url(#SVGID_6_);}
	.st4{clip-path:url(#SVGID_8_);fill:none;stroke:#2A3E4C;stroke-miterlimit:10;}
	.st5{clip-path:url(#SVGID_10_);}
	.st6{clip-path:url(#SVGID_12_);fill:none;stroke:#2A3E4C;stroke-miterlimit:10;}
	.st7{clip-path:url(#SVGID_14_);}
	.st8{clip-path:url(#SVGID_16_);fill:none;stroke:#2A3E4C;stroke-miterlimit:10;}
	.st9{clip-path:url(#SVGID_18_);}
	.st10{clip-path:url(#SVGID_20_);fill:none;stroke:#2A3E4C;stroke-miterlimit:10;}
	.st11{clip-path:url(#SVGID_22_);}
	.st12{clip-path:url(#SVGID_24_);fill:none;stroke:#2A3E4C;stroke-miterlimit:10;}
	.st13{clip-path:url(#SVGID_26_);}
	.st14{clip-path:url(#SVGID_28_);fill:none;stroke:#2A3E4C;stroke-miterlimit:10;}
	.st15{clip-path:url(#SVGID_30_);}
	.st16{clip-path:url(#SVGID_32_);fill:none;stroke:#2A3E4C;stroke-miterlimit:10;}
	.st17{clip-path:url(#SVGID_34_);}
	.st18{clip-path:url(#SVGID_36_);fill:none;stroke:#2A3E4C;stroke-miterlimit:10;}
	.st19{clip-path:url(#SVGID_38_);}
	.st20{clip-path:url(#SVGID_40_);fill:none;stroke:#2A3E4C;stroke-miterlimit:10;}
	.st21{clip-path:url(#SVGID_42_);}
	.st22{clip-path:url(#SVGID_44_);fill:none;stroke:#2A3E4C;stroke-miterlimit:10;}
	.st23{clip-path:url(#SVGID_46_);}
	.st24{clip-path:url(#SVGID_48_);fill:none;stroke:#2A3E4C;stroke-miterlimit:10;}
	.st25{clip-path:url(#SVGID_50_);}
	.st26{clip-path:url(#SVGID_52_);fill:none;stroke:#2A3E4C;stroke-miterlimit:10;}
	.st27{clip-path:url(#SVGID_54_);}
	.st28{clip-path:url(#SVGID_56_);fill:none;stroke:#2A3E4C;stroke-miterlimit:10;}
	.st29{clip-path:url(#SVGID_58_);}
	.st30{clip-path:url(#SVGID_60_);fill:none;stroke:#2A3E4C;stroke-miterlimit:10;}
	.st31{clip-path:url(#SVGID_62_);}
	.st32{clip-path:url(#SVGID_64_);fill:none;stroke:#2A3E4C;stroke-miterlimit:10;}
	.st33{clip-path:url(#SVGID_66_);}
	.st34{clip-path:url(#SVGID_68_);fill:none;stroke:#2A3E4C;stroke-miterlimit:10;}
	.st35{clip-path:url(#SVGID_70_);}
	.st36{clip-path:url(#SVGID_72_);fill:none;stroke:#2A3E4C;stroke-miterlimit:10;}
	.st37{clip-path:url(#SVGID_74_);}
	.st38{clip-path:url(#SVGID_76_);fill:none;stroke:#2A3E4C;stroke-miterlimit:10;}
	.st39{clip-path:url(#SVGID_78_);}
	.st40{clip-path:url(#SVGID_80_);fill:none;stroke:#2A3E4C;stroke-miterlimit:10;}
	.st41{clip-path:url(#SVGID_82_);}
	.st42{clip-path:url(#SVGID_84_);fill:none;stroke:#2A3E4C;stroke-miterlimit:10;}
	.st43{clip-path:url(#SVGID_86_);}
	.st44{clip-path:url(#SVGID_88_);fill:none;stroke:#2A3E4C;stroke-miterlimit:10;}
</style>
<g class="st0">
	<defs>
		<path id="SVGID_1_" class="st0" d="M1864.6-27.2v-2h45c2.8,0,5-2.2,5-5c0-2.8-2.2-5-5-5h-79c-2.8,0-5,2.2-5,5c0,2.8,2.2,5,5,5h30
			v2h-4c-2.8,0-5,2.2-5,5c0,2.8,2.2,5,5,5h79c2.8,0,5-2.2,5-5c0-2.8-2.2-5-5-5H1864.6z"/>
	</defs>
	<clipPath id="SVGID_2_">
		<use xlink:href="#SVGID_1_"  style="overflow:visible;"/>
	</clipPath>
	<g class="st1">
		<defs>
			<rect id="SVGID_3_" x="1825.2" y="-39.4" width="116" height="23"/>
		</defs>
		<clipPath id="SVGID_4_">
			<use xlink:href="#SVGID_3_"  style="overflow:visible;"/>
		</clipPath>
		<path class="st2" d="M1864.6-27.2v-2h45c2.8,0,5-2.2,5-5c0-2.8-2.2-5-5-5h-79c-2.8,0-5,2.2-5,5c0,2.8,2.2,5,5,5h30v2h-4
			c-2.8,0-5,2.2-5,5c0,2.8,2.2,5,5,5h79c2.8,0,5-2.2,5-5c0-2.8-2.2-5-5-5H1864.6z"/>
		<use xlink:href="#SVGID_3_"  style="overflow:visible;fill:none;stroke:#2A3E4C;stroke-miterlimit:10;"/>
	</g>
	
		<use xlink:href="#SVGID_1_"  style="overflow:visible;fill-rule:evenodd;clip-rule:evenodd;fill:none;stroke:#2A3E4C;stroke-miterlimit:10;"/>
</g>
<g class="st0">
	<defs>
		<path id="SVGID_5_" class="st0" d="M1725.9-66.2c0.2-0.7,0.4-1.4,0.4-2.2c0-3.6-2.9-6.6-6.6-6.6h-40.9c-3.6,0-6.6,2.9-6.6,6.6
			c0,3.6,2.9,6.6,6.6,6.6h8c0,2.4,2,4.4,4.4,4.4h45.2c2.4,0,4.4-2,4.4-4.4c0-2.4-2-4.4-4.4-4.4H1725.9z"/>
	</defs>
	<clipPath id="SVGID_6_">
		<use xlink:href="#SVGID_5_"  style="overflow:visible;"/>
	</clipPath>
	<g class="st3">
		<defs>
			<rect id="SVGID_7_" x="1672.2" y="-75.4" width="69" height="18"/>
		</defs>
		<clipPath id="SVGID_8_">
			<use xlink:href="#SVGID_7_"  style="overflow:visible;"/>
		</clipPath>
		<path class="st4" d="M1725.9-66.2c0.2-0.7,0.4-1.4,0.4-2.2c0-3.6-2.9-6.6-6.6-6.6h-40.9c-3.6,0-6.6,2.9-6.6,6.6
			c0,3.6,2.9,6.6,6.6,6.6h8c0,2.4,2,4.4,4.4,4.4h45.2c2.4,0,4.4-2,4.4-4.4c0-2.4-2-4.4-4.4-4.4H1725.9z"/>
		<use xlink:href="#SVGID_7_"  style="overflow:visible;fill:none;stroke:#2A3E4C;stroke-miterlimit:10;"/>
	</g>
	
		<use xlink:href="#SVGID_5_"  style="overflow:visible;fill-rule:evenodd;clip-rule:evenodd;fill:none;stroke:#2A3E4C;stroke-miterlimit:10;"/>
</g>
<g class="st0">
	<defs>
		<path id="SVGID_9_" class="st0" d="M2100,29.5c0.2-0.5,0.3-1.1,0.3-1.7c0-2.9-2.4-5.3-5.3-5.3h-32.7c-2.9,0-5.3,2.4-5.3,5.3
			c0,2.9,2.4,5.3,5.3,5.3h6.4c0,1.9,1.6,3.5,3.5,3.5h36.2c1.9,0,3.5-1.6,3.5-3.5c0-1.9-1.6-3.5-3.5-3.5H2100z"/>
	</defs>
	<clipPath id="SVGID_10_">
		<use xlink:href="#SVGID_9_"  style="overflow:visible;"/>
	</clipPath>
	<g class="st5">
		<defs>
			<rect id="SVGID_11_" x="2056.2" y="21.6" width="56" height="15"/>
		</defs>
		<clipPath id="SVGID_12_">
			<use xlink:href="#SVGID_11_"  style="overflow:visible;"/>
		</clipPath>
		<path class="st6" d="M2100,29.5c0.2-0.5,0.3-1.1,0.3-1.7c0-2.9-2.4-5.3-5.3-5.3h-32.7c-2.9,0-5.3,2.4-5.3,5.3
			c0,2.9,2.4,5.3,5.3,5.3h6.4c0,1.9,1.6,3.5,3.5,3.5h36.2c1.9,0,3.5-1.6,3.5-3.5c0-1.9-1.6-3.5-3.5-3.5H2100z"/>
		<use xlink:href="#SVGID_11_"  style="overflow:visible;fill:none;stroke:#2A3E4C;stroke-miterlimit:10;"/>
	</g>
	
		<use xlink:href="#SVGID_9_"  style="overflow:visible;fill-rule:evenodd;clip-rule:evenodd;fill:none;stroke:#2A3E4C;stroke-miterlimit:10;"/>
</g>
<g class="st0">
	<defs>
		<path id="SVGID_13_" class="st0" d="M2120.6-22.9c-0.2-0.5-0.3-1-0.3-1.5h-27.6c-1.9,0-3.5-1.6-3.5-3.5c0-1.9,1.6-3.5,3.5-3.5h49
			c1.9,0,3.5,1.6,3.5,3.5h27.6c1.9,0,3.5,1.6,3.5,3.5c0,1.9-1.6,3.5-3.5,3.5h-44.4c0.2,0.5,0.3,1,0.3,1.5c0,1.9-1.6,3.5-3.5,3.5h-49
			c-1.9,0-3.5-1.6-3.5-3.5c0-1.9,1.6-3.5,3.5-3.5H2120.6z"/>
	</defs>
	<clipPath id="SVGID_14_">
		<use xlink:href="#SVGID_13_"  style="overflow:visible;"/>
	</clipPath>
	<g class="st7">
		<defs>
			<rect id="SVGID_15_" x="2072.2" y="-31.4" width="105" height="16"/>
		</defs>
		<clipPath id="SVGID_16_">
			<use xlink:href="#SVGID_15_"  style="overflow:visible;"/>
		</clipPath>
		<path class="st8" d="M2120.6-22.9c-0.2-0.5-0.3-1-0.3-1.5h-27.6c-1.9,0-3.5-1.6-3.5-3.5c0-1.9,1.6-3.5,3.5-3.5h49
			c1.9,0,3.5,1.6,3.5,3.5h27.6c1.9,0,3.5,1.6,3.5,3.5c0,1.9-1.6,3.5-3.5,3.5h-44.4c0.2,0.5,0.3,1,0.3,1.5c0,1.9-1.6,3.5-3.5,3.5h-49
			c-1.9,0-3.5-1.6-3.5-3.5c0-1.9,1.6-3.5,3.5-3.5H2120.6z"/>
		<use xlink:href="#SVGID_15_"  style="overflow:visible;fill:none;stroke:#2A3E4C;stroke-miterlimit:10;"/>
	</g>
	
		<use xlink:href="#SVGID_13_"  style="overflow:visible;fill-rule:evenodd;clip-rule:evenodd;fill:none;stroke:#2A3E4C;stroke-miterlimit:10;"/>
</g>
<g class="st0">
	<defs>
		<path id="SVGID_17_" class="st0" d="M2180.2,3.6c0-2.2,1.8-4,4-4h14c2.2,0,4,1.8,4,4c0,2.2-1.8,4-4,4h-14
			C2182,7.6,2180.2,5.8,2180.2,3.6z"/>
	</defs>
	<clipPath id="SVGID_18_">
		<use xlink:href="#SVGID_17_"  style="overflow:visible;"/>
	</clipPath>
	<g class="st9">
		<defs>
			<rect id="SVGID_19_" x="2180.2" y="-0.4" width="22" height="8"/>
		</defs>
		<clipPath id="SVGID_20_">
			<use xlink:href="#SVGID_19_"  style="overflow:visible;"/>
		</clipPath>
		<path class="st10" d="M2180.2,3.6c0-2.2,1.8-4,4-4h14c2.2,0,4,1.8,4,4c0,2.2-1.8,4-4,4h-14C2182,7.6,2180.2,5.8,2180.2,3.6z"/>
		<use xlink:href="#SVGID_19_"  style="overflow:visible;fill:none;stroke:#2A3E4C;stroke-miterlimit:10;"/>
	</g>
	
		<use xlink:href="#SVGID_17_"  style="overflow:visible;fill-rule:evenodd;clip-rule:evenodd;fill:none;stroke:#2A3E4C;stroke-miterlimit:10;"/>
</g>
<g class="st0">
	<defs>
		<path id="SVGID_21_" class="st0" d="M1973.2-72.2c0-1.1,0.9-2,2-2h75.9c1.1,0,2,0.9,2,2c0,1.1-0.9,2-2,2h-75.9
			C1974.1-70.1,1973.2-71,1973.2-72.2z"/>
	</defs>
	<clipPath id="SVGID_22_">
		<use xlink:href="#SVGID_21_"  style="overflow:visible;"/>
	</clipPath>
	<g class="st11">
		<defs>
			<rect id="SVGID_23_" x="1973.2" y="-74.4" width="80" height="5"/>
		</defs>
		<clipPath id="SVGID_24_">
			<use xlink:href="#SVGID_23_"  style="overflow:visible;"/>
		</clipPath>
		<path class="st12" d="M1973.2-72.2c0-1.1,0.9-2,2-2h75.9c1.1,0,2,0.9,2,2c0,1.1-0.9,2-2,2h-75.9
			C1974.1-70.1,1973.2-71,1973.2-72.2z"/>
		<use xlink:href="#SVGID_23_"  style="overflow:visible;fill:none;stroke:#2A3E4C;stroke-miterlimit:10;"/>
	</g>
	
		<use xlink:href="#SVGID_21_"  style="overflow:visible;fill-rule:evenodd;clip-rule:evenodd;fill:none;stroke:#2A3E4C;stroke-miterlimit:10;"/>
</g>
<g class="st0">
	<defs>
		<path id="SVGID_25_" class="st0" d="M2791.2-4.4v-2h45c2.8,0,5-2.2,5-5c0-2.8-2.2-5-5-5h-79c-2.8,0-5,2.2-5,5c0,2.8,2.2,5,5,5h30
			v2h-4c-2.8,0-5,2.2-5,5c0,2.8,2.2,5,5,5h79c2.8,0,5-2.2,5-5c0-2.8-2.2-5-5-5H2791.2z"/>
	</defs>
	<clipPath id="SVGID_26_">
		<use xlink:href="#SVGID_25_"  style="overflow:visible;"/>
	</clipPath>
	<g class="st13">
		<defs>
			<rect id="SVGID_27_" x="2751.8" y="-16.6" width="116" height="23"/>
		</defs>
		<clipPath id="SVGID_28_">
			<use xlink:href="#SVGID_27_"  style="overflow:visible;"/>
		</clipPath>
		<path class="st14" d="M2791.2-4.4v-2h45c2.8,0,5-2.2,5-5c0-2.8-2.2-5-5-5h-79c-2.8,0-5,2.2-5,5c0,2.8,2.2,5,5,5h30v2h-4
			c-2.8,0-5,2.2-5,5c0,2.8,2.2,5,5,5h79c2.8,0,5-2.2,5-5c0-2.8-2.2-5-5-5H2791.2z"/>
		<use xlink:href="#SVGID_27_"  style="overflow:visible;fill:none;stroke:#2A3E4C;stroke-miterlimit:10;"/>
	</g>
	
		<use xlink:href="#SVGID_25_"  style="overflow:visible;fill-rule:evenodd;clip-rule:evenodd;fill:none;stroke:#2A3E4C;stroke-miterlimit:10;"/>
</g>
<g class="st0">
	<defs>
		<path id="SVGID_29_" class="st0" d="M2341.9,41.9c-0.2-0.5-0.3-1-0.3-1.5h-27.6c-1.9,0-3.5-1.6-3.5-3.5c0-1.9,1.6-3.5,3.5-3.5h49
			c1.9,0,3.5,1.6,3.5,3.5h27.6c1.9,0,3.5,1.6,3.5,3.5c0,1.9-1.6,3.5-3.5,3.5h-44.4c0.2,0.5,0.3,1,0.3,1.5c0,1.9-1.6,3.5-3.5,3.5h-49
			c-1.9,0-3.5-1.6-3.5-3.5c0-1.9,1.6-3.5,3.5-3.5H2341.9z"/>
	</defs>
	<clipPath id="SVGID_30_">
		<use xlink:href="#SVGID_29_"  style="overflow:visible;"/>
	</clipPath>
	<g class="st15">
		<defs>
			<rect id="SVGID_31_" x="2293.4" y="33.4" width="105" height="16"/>
		</defs>
		<clipPath id="SVGID_32_">
			<use xlink:href="#SVGID_31_"  style="overflow:visible;"/>
		</clipPath>
		<path class="st16" d="M2341.9,41.9c-0.2-0.5-0.3-1-0.3-1.5h-27.6c-1.9,0-3.5-1.6-3.5-3.5c0-1.9,1.6-3.5,3.5-3.5h49
			c1.9,0,3.5,1.6,3.5,3.5h27.6c1.9,0,3.5,1.6,3.5,3.5c0,1.9-1.6,3.5-3.5,3.5h-44.4c0.2,0.5,0.3,1,0.3,1.5c0,1.9-1.6,3.5-3.5,3.5h-49
			c-1.9,0-3.5-1.6-3.5-3.5c0-1.9,1.6-3.5,3.5-3.5H2341.9z"/>
		<use xlink:href="#SVGID_31_"  style="overflow:visible;fill:none;stroke:#2A3E4C;stroke-miterlimit:10;"/>
	</g>
	
		<use xlink:href="#SVGID_29_"  style="overflow:visible;fill-rule:evenodd;clip-rule:evenodd;fill:none;stroke:#2A3E4C;stroke-miterlimit:10;"/>
</g>
<g class="st0">
	<defs>
		<path id="SVGID_33_" class="st0" d="M2577.3,68.4c0-2.2,1.8-4,4-4h14c2.2,0,4,1.8,4,4c0,2.2-1.8,4-4,4h-14
			C2579.1,72.4,2577.3,70.6,2577.3,68.4z"/>
	</defs>
	<clipPath id="SVGID_34_">
		<use xlink:href="#SVGID_33_"  style="overflow:visible;"/>
	</clipPath>
	<g class="st17">
		<defs>
			<rect id="SVGID_35_" x="2577.3" y="64.4" width="22" height="8"/>
		</defs>
		<clipPath id="SVGID_36_">
			<use xlink:href="#SVGID_35_"  style="overflow:visible;"/>
		</clipPath>
		<path class="st18" d="M2577.3,68.4c0-2.2,1.8-4,4-4h14c2.2,0,4,1.8,4,4c0,2.2-1.8,4-4,4h-14C2579.1,72.4,2577.3,70.6,2577.3,68.4z
			"/>
		<use xlink:href="#SVGID_35_"  style="overflow:visible;fill:none;stroke:#2A3E4C;stroke-miterlimit:10;"/>
	</g>
	
		<use xlink:href="#SVGID_33_"  style="overflow:visible;fill-rule:evenodd;clip-rule:evenodd;fill:none;stroke:#2A3E4C;stroke-miterlimit:10;"/>
</g>
<g class="st0">
	<defs>
		<path id="SVGID_37_" class="st0" d="M2641.2,10.9c0-2.2,1.8-4,4-4h14c2.2,0,4,1.8,4,4c0,2.2-1.8,4-4,4h-14
			C2643,14.9,2641.2,13.1,2641.2,10.9z"/>
	</defs>
	<clipPath id="SVGID_38_">
		<use xlink:href="#SVGID_37_"  style="overflow:visible;"/>
	</clipPath>
	<g class="st19">
		<defs>
			<rect id="SVGID_39_" x="2641.2" y="6.9" width="22" height="8"/>
		</defs>
		<clipPath id="SVGID_40_">
			<use xlink:href="#SVGID_39_"  style="overflow:visible;"/>
		</clipPath>
		<path class="st20" d="M2641.2,10.9c0-2.2,1.8-4,4-4h14c2.2,0,4,1.8,4,4c0,2.2-1.8,4-4,4h-14C2643,14.9,2641.2,13.1,2641.2,10.9z"
			/>
		<use xlink:href="#SVGID_39_"  style="overflow:visible;fill:none;stroke:#2A3E4C;stroke-miterlimit:10;"/>
	</g>
	
		<use xlink:href="#SVGID_37_"  style="overflow:visible;fill-rule:evenodd;clip-rule:evenodd;fill:none;stroke:#2A3E4C;stroke-miterlimit:10;"/>
</g>
<g class="st0">
	<defs>
		<path id="SVGID_41_" class="st0" d="M2440.2-7.4c0-1.1,0.9-2,2-2h75.9c1.1,0,2,0.9,2,2c0,1.1-0.9,2-2,2h-75.9
			C2441.1-5.4,2440.2-6.3,2440.2-7.4z"/>
	</defs>
	<clipPath id="SVGID_42_">
		<use xlink:href="#SVGID_41_"  style="overflow:visible;"/>
	</clipPath>
	<g class="st21">
		<defs>
			<rect id="SVGID_43_" x="2440.2" y="-9.6" width="80" height="5"/>
		</defs>
		<clipPath id="SVGID_44_">
			<use xlink:href="#SVGID_43_"  style="overflow:visible;"/>
		</clipPath>
		<path class="st22" d="M2440.2-7.4c0-1.1,0.9-2,2-2h75.9c1.1,0,2,0.9,2,2c0,1.1-0.9,2-2,2h-75.9C2441.1-5.4,2440.2-6.3,2440.2-7.4z
			"/>
		<use xlink:href="#SVGID_43_"  style="overflow:visible;fill:none;stroke:#2A3E4C;stroke-miterlimit:10;"/>
	</g>
	
		<use xlink:href="#SVGID_41_"  style="overflow:visible;fill-rule:evenodd;clip-rule:evenodd;fill:none;stroke:#2A3E4C;stroke-miterlimit:10;"/>
</g>
<g class="st0">
	<defs>
		<path id="SVGID_45_" class="st0" d="M3156.4-27.2v-2h45c2.8,0,5-2.2,5-5c0-2.8-2.2-5-5-5h-79c-2.8,0-5,2.2-5,5c0,2.8,2.2,5,5,5h30
			v2h-4c-2.8,0-5,2.2-5,5c0,2.8,2.2,5,5,5h79c2.8,0,5-2.2,5-5c0-2.8-2.2-5-5-5H3156.4z"/>
	</defs>
	<clipPath id="SVGID_46_">
		<use xlink:href="#SVGID_45_"  style="overflow:visible;"/>
	</clipPath>
	<g class="st23">
		<defs>
			<rect id="SVGID_47_" x="3117" y="-39.4" width="116" height="23"/>
		</defs>
		<clipPath id="SVGID_48_">
			<use xlink:href="#SVGID_47_"  style="overflow:visible;"/>
		</clipPath>
		<path class="st24" d="M3156.4-27.2v-2h45c2.8,0,5-2.2,5-5c0-2.8-2.2-5-5-5h-79c-2.8,0-5,2.2-5,5c0,2.8,2.2,5,5,5h30v2h-4
			c-2.8,0-5,2.2-5,5c0,2.8,2.2,5,5,5h79c2.8,0,5-2.2,5-5c0-2.8-2.2-5-5-5H3156.4z"/>
		<use xlink:href="#SVGID_47_"  style="overflow:visible;fill:none;stroke:#2A3E4C;stroke-miterlimit:10;"/>
	</g>
	
		<use xlink:href="#SVGID_45_"  style="overflow:visible;fill-rule:evenodd;clip-rule:evenodd;fill:none;stroke:#2A3E4C;stroke-miterlimit:10;"/>
</g>
<g class="st0">
	<defs>
		<path id="SVGID_49_" class="st0" d="M3017.7-66.2c0.2-0.7,0.4-1.4,0.4-2.2c0-3.6-2.9-6.6-6.6-6.6h-40.9c-3.6,0-6.6,2.9-6.6,6.6
			c0,3.6,2.9,6.6,6.6,6.6h8c0,2.4,2,4.4,4.4,4.4h45.2c2.4,0,4.4-2,4.4-4.4c0-2.4-2-4.4-4.4-4.4H3017.7z"/>
	</defs>
	<clipPath id="SVGID_50_">
		<use xlink:href="#SVGID_49_"  style="overflow:visible;"/>
	</clipPath>
	<g class="st25">
		<defs>
			<rect id="SVGID_51_" x="2964" y="-75.4" width="69" height="18"/>
		</defs>
		<clipPath id="SVGID_52_">
			<use xlink:href="#SVGID_51_"  style="overflow:visible;"/>
		</clipPath>
		<path class="st26" d="M3017.7-66.2c0.2-0.7,0.4-1.4,0.4-2.2c0-3.6-2.9-6.6-6.6-6.6h-40.9c-3.6,0-6.6,2.9-6.6,6.6
			c0,3.6,2.9,6.6,6.6,6.6h8c0,2.4,2,4.4,4.4,4.4h45.2c2.4,0,4.4-2,4.4-4.4c0-2.4-2-4.4-4.4-4.4H3017.7z"/>
		<use xlink:href="#SVGID_51_"  style="overflow:visible;fill:none;stroke:#2A3E4C;stroke-miterlimit:10;"/>
	</g>
	
		<use xlink:href="#SVGID_49_"  style="overflow:visible;fill-rule:evenodd;clip-rule:evenodd;fill:none;stroke:#2A3E4C;stroke-miterlimit:10;"/>
</g>
<g class="st0">
	<defs>
		<path id="SVGID_53_" class="st0" d="M3391.8,29.5c0.2-0.5,0.3-1.1,0.3-1.7c0-2.9-2.4-5.3-5.3-5.3h-32.7c-2.9,0-5.3,2.4-5.3,5.3
			c0,2.9,2.4,5.3,5.3,5.3h6.4c0,1.9,1.6,3.5,3.5,3.5h36.2c1.9,0,3.5-1.6,3.5-3.5c0-1.9-1.6-3.5-3.5-3.5H3391.8z"/>
	</defs>
	<clipPath id="SVGID_54_">
		<use xlink:href="#SVGID_53_"  style="overflow:visible;"/>
	</clipPath>
	<g class="st27">
		<defs>
			<rect id="SVGID_55_" x="3348" y="21.6" width="56" height="15"/>
		</defs>
		<clipPath id="SVGID_56_">
			<use xlink:href="#SVGID_55_"  style="overflow:visible;"/>
		</clipPath>
		<path class="st28" d="M3391.8,29.5c0.2-0.5,0.3-1.1,0.3-1.7c0-2.9-2.4-5.3-5.3-5.3h-32.7c-2.9,0-5.3,2.4-5.3,5.3
			c0,2.9,2.4,5.3,5.3,5.3h6.4c0,1.9,1.6,3.5,3.5,3.5h36.2c1.9,0,3.5-1.6,3.5-3.5c0-1.9-1.6-3.5-3.5-3.5H3391.8z"/>
		<use xlink:href="#SVGID_55_"  style="overflow:visible;fill:none;stroke:#2A3E4C;stroke-miterlimit:10;"/>
	</g>
	
		<use xlink:href="#SVGID_53_"  style="overflow:visible;fill-rule:evenodd;clip-rule:evenodd;fill:none;stroke:#2A3E4C;stroke-miterlimit:10;"/>
</g>
<g class="st0">
	<defs>
		<path id="SVGID_57_" class="st0" d="M3412.4-22.9c-0.2-0.5-0.3-1-0.3-1.5h-27.6c-1.9,0-3.5-1.6-3.5-3.5c0-1.9,1.6-3.5,3.5-3.5h49
			c1.9,0,3.5,1.6,3.5,3.5h27.6c1.9,0,3.5,1.6,3.5,3.5c0,1.9-1.6,3.5-3.5,3.5h-44.4c0.2,0.5,0.3,1,0.3,1.5c0,1.9-1.6,3.5-3.5,3.5h-49
			c-1.9,0-3.5-1.6-3.5-3.5c0-1.9,1.6-3.5,3.5-3.5H3412.4z"/>
	</defs>
	<clipPath id="SVGID_58_">
		<use xlink:href="#SVGID_57_"  style="overflow:visible;"/>
	</clipPath>
	<g class="st29">
		<defs>
			<rect id="SVGID_59_" x="3364" y="-31.4" width="105" height="16"/>
		</defs>
		<clipPath id="SVGID_60_">
			<use xlink:href="#SVGID_59_"  style="overflow:visible;"/>
		</clipPath>
		<path class="st30" d="M3412.4-22.9c-0.2-0.5-0.3-1-0.3-1.5h-27.6c-1.9,0-3.5-1.6-3.5-3.5c0-1.9,1.6-3.5,3.5-3.5h49
			c1.9,0,3.5,1.6,3.5,3.5h27.6c1.9,0,3.5,1.6,3.5,3.5c0,1.9-1.6,3.5-3.5,3.5h-44.4c0.2,0.5,0.3,1,0.3,1.5c0,1.9-1.6,3.5-3.5,3.5h-49
			c-1.9,0-3.5-1.6-3.5-3.5c0-1.9,1.6-3.5,3.5-3.5H3412.4z"/>
		<use xlink:href="#SVGID_59_"  style="overflow:visible;fill:none;stroke:#2A3E4C;stroke-miterlimit:10;"/>
	</g>
	
		<use xlink:href="#SVGID_57_"  style="overflow:visible;fill-rule:evenodd;clip-rule:evenodd;fill:none;stroke:#2A3E4C;stroke-miterlimit:10;"/>
</g>
<g class="st0">
	<defs>
		<path id="SVGID_61_" class="st0" d="M3472,3.6c0-2.2,1.8-4,4-4h14c2.2,0,4,1.8,4,4c0,2.2-1.8,4-4,4h-14
			C3473.8,7.6,3472,5.8,3472,3.6z"/>
	</defs>
	<clipPath id="SVGID_62_">
		<use xlink:href="#SVGID_61_"  style="overflow:visible;"/>
	</clipPath>
	<g class="st31">
		<defs>
			<rect id="SVGID_63_" x="3472" y="-0.4" width="22" height="8"/>
		</defs>
		<clipPath id="SVGID_64_">
			<use xlink:href="#SVGID_63_"  style="overflow:visible;"/>
		</clipPath>
		<path class="st32" d="M3472,3.6c0-2.2,1.8-4,4-4h14c2.2,0,4,1.8,4,4c0,2.2-1.8,4-4,4h-14C3473.8,7.6,3472,5.8,3472,3.6z"/>
		<use xlink:href="#SVGID_63_"  style="overflow:visible;fill:none;stroke:#2A3E4C;stroke-miterlimit:10;"/>
	</g>
	
		<use xlink:href="#SVGID_61_"  style="overflow:visible;fill-rule:evenodd;clip-rule:evenodd;fill:none;stroke:#2A3E4C;stroke-miterlimit:10;"/>
</g>
<g class="st0">
	<defs>
		<path id="SVGID_65_" class="st0" d="M3265-72.2c0-1.1,0.9-2,2-2h75.9c1.1,0,2,0.9,2,2c0,1.1-0.9,2-2,2H3267
			C3265.9-70.1,3265-71,3265-72.2z"/>
	</defs>
	<clipPath id="SVGID_66_">
		<use xlink:href="#SVGID_65_"  style="overflow:visible;"/>
	</clipPath>
	<g class="st33">
		<defs>
			<rect id="SVGID_67_" x="3265" y="-74.4" width="80" height="5"/>
		</defs>
		<clipPath id="SVGID_68_">
			<use xlink:href="#SVGID_67_"  style="overflow:visible;"/>
		</clipPath>
		<path class="st34" d="M3265-72.2c0-1.1,0.9-2,2-2h75.9c1.1,0,2,0.9,2,2c0,1.1-0.9,2-2,2H3267C3265.9-70.1,3265-71,3265-72.2z"/>
		<use xlink:href="#SVGID_67_"  style="overflow:visible;fill:none;stroke:#2A3E4C;stroke-miterlimit:10;"/>
	</g>
	
		<use xlink:href="#SVGID_65_"  style="overflow:visible;fill-rule:evenodd;clip-rule:evenodd;fill:none;stroke:#2A3E4C;stroke-miterlimit:10;"/>
</g>
<g class="st0">
	<defs>
		<path id="SVGID_69_" class="st0" d="M4083-4.4v-2h45c2.8,0,5-2.2,5-5c0-2.8-2.2-5-5-5h-79c-2.8,0-5,2.2-5,5c0,2.8,2.2,5,5,5h30v2
			h-4c-2.8,0-5,2.2-5,5c0,2.8,2.2,5,5,5h79c2.8,0,5-2.2,5-5c0-2.8-2.2-5-5-5H4083z"/>
	</defs>
	<clipPath id="SVGID_70_">
		<use xlink:href="#SVGID_69_"  style="overflow:visible;"/>
	</clipPath>
	<g class="st35">
		<defs>
			<rect id="SVGID_71_" x="4043.6" y="-16.6" width="116" height="23"/>
		</defs>
		<clipPath id="SVGID_72_">
			<use xlink:href="#SVGID_71_"  style="overflow:visible;"/>
		</clipPath>
		<path class="st36" d="M4083-4.4v-2h45c2.8,0,5-2.2,5-5c0-2.8-2.2-5-5-5h-79c-2.8,0-5,2.2-5,5c0,2.8,2.2,5,5,5h30v2h-4
			c-2.8,0-5,2.2-5,5c0,2.8,2.2,5,5,5h79c2.8,0,5-2.2,5-5c0-2.8-2.2-5-5-5H4083z"/>
		<use xlink:href="#SVGID_71_"  style="overflow:visible;fill:none;stroke:#2A3E4C;stroke-miterlimit:10;"/>
	</g>
	
		<use xlink:href="#SVGID_69_"  style="overflow:visible;fill-rule:evenodd;clip-rule:evenodd;fill:none;stroke:#2A3E4C;stroke-miterlimit:10;"/>
</g>
<g class="st0">
	<defs>
		<path id="SVGID_73_" class="st0" d="M3633.7,41.9c-0.2-0.5-0.3-1-0.3-1.5h-27.6c-1.9,0-3.5-1.6-3.5-3.5c0-1.9,1.6-3.5,3.5-3.5h49
			c1.9,0,3.5,1.6,3.5,3.5h27.6c1.9,0,3.5,1.6,3.5,3.5c0,1.9-1.6,3.5-3.5,3.5h-44.4c0.2,0.5,0.3,1,0.3,1.5c0,1.9-1.6,3.5-3.5,3.5h-49
			c-1.9,0-3.5-1.6-3.5-3.5c0-1.9,1.6-3.5,3.5-3.5H3633.7z"/>
	</defs>
	<clipPath id="SVGID_74_">
		<use xlink:href="#SVGID_73_"  style="overflow:visible;"/>
	</clipPath>
	<g class="st37">
		<defs>
			<rect id="SVGID_75_" x="3585.2" y="33.4" width="105" height="16"/>
		</defs>
		<clipPath id="SVGID_76_">
			<use xlink:href="#SVGID_75_"  style="overflow:visible;"/>
		</clipPath>
		<path class="st38" d="M3633.7,41.9c-0.2-0.5-0.3-1-0.3-1.5h-27.6c-1.9,0-3.5-1.6-3.5-3.5c0-1.9,1.6-3.5,3.5-3.5h49
			c1.9,0,3.5,1.6,3.5,3.5h27.6c1.9,0,3.5,1.6,3.5,3.5c0,1.9-1.6,3.5-3.5,3.5h-44.4c0.2,0.5,0.3,1,0.3,1.5c0,1.9-1.6,3.5-3.5,3.5h-49
			c-1.9,0-3.5-1.6-3.5-3.5c0-1.9,1.6-3.5,3.5-3.5H3633.7z"/>
		<use xlink:href="#SVGID_75_"  style="overflow:visible;fill:none;stroke:#2A3E4C;stroke-miterlimit:10;"/>
	</g>
	
		<use xlink:href="#SVGID_73_"  style="overflow:visible;fill-rule:evenodd;clip-rule:evenodd;fill:none;stroke:#2A3E4C;stroke-miterlimit:10;"/>
</g>
<g class="st0">
	<defs>
		<path id="SVGID_77_" class="st0" d="M3869.1,68.4c0-2.2,1.8-4,4-4h14c2.2,0,4,1.8,4,4c0,2.2-1.8,4-4,4h-14
			C3870.9,72.4,3869.1,70.6,3869.1,68.4z"/>
	</defs>
	<clipPath id="SVGID_78_">
		<use xlink:href="#SVGID_77_"  style="overflow:visible;"/>
	</clipPath>
	<g class="st39">
		<defs>
			<rect id="SVGID_79_" x="3869.1" y="64.4" width="22" height="8"/>
		</defs>
		<clipPath id="SVGID_80_">
			<use xlink:href="#SVGID_79_"  style="overflow:visible;"/>
		</clipPath>
		<path class="st40" d="M3869.1,68.4c0-2.2,1.8-4,4-4h14c2.2,0,4,1.8,4,4c0,2.2-1.8,4-4,4h-14C3870.9,72.4,3869.1,70.6,3869.1,68.4z
			"/>
		<use xlink:href="#SVGID_79_"  style="overflow:visible;fill:none;stroke:#2A3E4C;stroke-miterlimit:10;"/>
	</g>
	
		<use xlink:href="#SVGID_77_"  style="overflow:visible;fill-rule:evenodd;clip-rule:evenodd;fill:none;stroke:#2A3E4C;stroke-miterlimit:10;"/>
</g>
<g class="st0">
	<defs>
		<path id="SVGID_81_" class="st0" d="M3933,10.9c0-2.2,1.8-4,4-4h14c2.2,0,4,1.8,4,4c0,2.2-1.8,4-4,4h-14
			C3934.8,14.9,3933,13.1,3933,10.9z"/>
	</defs>
	<clipPath id="SVGID_82_">
		<use xlink:href="#SVGID_81_"  style="overflow:visible;"/>
	</clipPath>
	<g class="st41">
		<defs>
			<rect id="SVGID_83_" x="3933" y="6.9" width="22" height="8"/>
		</defs>
		<clipPath id="SVGID_84_">
			<use xlink:href="#SVGID_83_"  style="overflow:visible;"/>
		</clipPath>
		<path class="st42" d="M3933,10.9c0-2.2,1.8-4,4-4h14c2.2,0,4,1.8,4,4c0,2.2-1.8,4-4,4h-14C3934.8,14.9,3933,13.1,3933,10.9z"/>
		<use xlink:href="#SVGID_83_"  style="overflow:visible;fill:none;stroke:#2A3E4C;stroke-miterlimit:10;"/>
	</g>
	
		<use xlink:href="#SVGID_81_"  style="overflow:visible;fill-rule:evenodd;clip-rule:evenodd;fill:none;stroke:#2A3E4C;stroke-miterlimit:10;"/>
</g>
<g class="st0">
	<defs>
		<path id="SVGID_85_" class="st0" d="M3732-7.4c0-1.1,0.9-2,2-2h75.9c1.1,0,2,0.9,2,2c0,1.1-0.9,2-2,2h-75.9
			C3732.9-5.4,3732-6.3,3732-7.4z"/>
	</defs>
	<clipPath id="SVGID_86_">
		<use xlink:href="#SVGID_85_"  style="overflow:visible;"/>
	</clipPath>
	<g class="st43">
		<defs>
			<rect id="SVGID_87_" x="3732" y="-9.6" width="80" height="5"/>
		</defs>
		<clipPath id="SVGID_88_">
			<use xlink:href="#SVGID_87_"  style="overflow:visible;"/>
		</clipPath>
		<path class="st44" d="M3732-7.4c0-1.1,0.9-2,2-2h75.9c1.1,0,2,0.9,2,2c0,1.1-0.9,2-2,2h-75.9C3732.9-5.4,3732-6.3,3732-7.4z"/>
		<use xlink:href="#SVGID_87_"  style="overflow:visible;fill:none;stroke:#2A3E4C;stroke-miterlimit:10;"/>
	</g>
	
		<use xlink:href="#SVGID_85_"  style="overflow:visible;fill-rule:evenodd;clip-rule:evenodd;fill:none;stroke:#2A3E4C;stroke-miterlimit:10;"/>
</g>
</svg>
