
<svg width="87px" height="87px" viewBox="340 40 87 87" version="1.1" xmlns="http://www.w3.org/2000/svg" xmlns:xlink="http://www.w3.org/1999/xlink">
    <!-- Generator: Sketch 3.7.2 (28276) - http://www.bohemiancoding.com/sketch -->
    <desc>Created with Sketch.</desc>
    <defs></defs>
    <g id="Community-Icon" stroke="none" stroke-width="1" fill="none" fill-rule="evenodd" transform="translate(340.800000, 40.591406)">
        <g transform="translate(0.675586, 0.370266)">
            <circle id="Oval-2-Copy" fill="#080F16" cx="42.6" cy="42.24" r="42.24"></circle>
            <path d="M59.3519508,63.9483993 C58.4288068,63.9483993 57.5818485,63.6170845 56.9229265,63.0675414 C56.5585066,62.7635051 56.2516454,62.3928174 56.0214994,61.9741053 C55.7236426,61.4324192 55.5537919,60.8108397 55.5537919,60.1502404 C55.5537919,58.0557973 57.257596,56.351905 59.3519508,56.351905 C60.0732867,56.351905 60.7482757,56.5541544 61.3233316,56.9047143 C61.7307438,57.1531343 62.0875716,57.4763274 62.375541,57.8546955 C62.8611693,58.4927833 63.150198,59.2882745 63.150198,60.1502404 C63.150198,62.244507 61.4463939,63.9483993 59.3519508,63.9483993 M54.8395184,62.7507045 C51.0917674,65.0614336 46.7689604,66.2983248 42.2553803,66.2983248 C37.7625461,66.2983248 33.458631,65.0728217 29.7228861,62.7824853 C30.1774398,62.0094173 30.4393666,61.1100206 30.4393666,60.1502404 C30.4393666,58.975675 30.0484627,57.8909785 29.3903353,57.0185955 L31.0078898,55.3412755 C34.0313034,57.9435934 37.9626769,59.5189501 42.2553803,59.5189501 C46.5415511,59.5189501 50.4673629,57.9483606 53.4889226,55.353105 L55.1492047,57.0747416 C54.516237,57.9374138 54.1413118,59.0006582 54.1413118,60.1502404 C54.1413118,61.0969552 54.3963528,61.9847872 54.8395184,62.7507045 M28.5394044,62.0085345 C28.3044913,62.4253927 27.9936574,62.7937851 27.6250001,63.0943786 C26.9708452,63.6277664 26.1365992,63.9483993 25.2286393,63.9483993 C23.1342845,63.9483993 21.4303922,62.244507 21.4303922,60.1502404 C21.4303922,59.3088437 21.7058258,58.5307437 22.1707083,57.9006011 C22.4533809,57.5172893 22.8064126,57.1893291 23.2103819,56.9348178 C23.79559,56.5661605 24.4874404,56.351905 25.2286393,56.351905 C27.3229942,56.351905 29.0268865,58.0557973 29.0268865,60.1502404 C29.0268865,60.8249645 28.8492672,61.4587266 28.5394044,62.0085345 M18.2124977,42.2554421 C18.2124977,37.3206782 19.6905698,32.6138532 22.4348421,28.6376335 C23.2429572,29.1531005 24.2011484,29.4533408 25.2286393,29.4533408 C26.434809,29.4533408 27.5455481,29.0402786 28.429584,28.3497524 L30.0637352,30.0443754 C26.9320903,33.1711649 24.9918724,37.490882 24.9918724,42.2554421 C24.9918724,46.9748029 26.8960721,51.2572659 29.97572,54.3767281 L28.3949783,56.015823 C27.5166805,55.3415403 26.4190069,54.9394249 25.2286393,54.9394249 C24.1772245,54.9394249 23.1981993,55.2535251 22.3785194,55.7912386 C19.670442,51.8324101 18.2124977,47.1563066 18.2124977,42.2554421 M25.2286393,20.4444546 C26.172794,20.4444546 27.0367904,20.791395 27.701892,21.363626 C28.0613681,21.6728709 28.3625795,22.0477077 28.5864576,22.469951 C28.867188,22.9995428 29.0268865,23.6026717 29.0268865,24.2426135 C29.0268865,26.3369683 27.3229942,28.0408607 25.2286393,28.0408607 C24.5130416,28.0408607 23.843173,27.841701 23.2711185,27.4962613 C22.8633532,27.2499601 22.5059075,26.928974 22.2167022,26.5528129 C21.724188,25.9121649 21.4303922,25.1112887 21.4303922,24.2426135 C21.4303922,22.1482587 23.1342845,20.4444546 25.2286393,20.4444546 M29.7729409,21.6974127 C33.4970328,19.426851 37.7826739,18.2124712 42.2553803,18.2124712 C46.7488326,18.2124712 51.0532773,19.4383274 54.7893754,21.7291935 C54.3769312,22.474983 54.1413118,23.3317404 54.1413118,24.2426135 C54.1413118,25.3763053 54.5062614,26.4256897 55.1234269,27.2818292 L53.3927857,29.0763851 C50.3842914,26.5299484 46.4963518,24.9918459 42.2553803,24.9918459 C38.0078762,24.9918459 34.1144632,26.5347155 31.1039385,29.0883029 L29.4168193,27.3386815 C30.0588798,26.4724781 30.4393666,25.4012886 30.4393666,24.2426135 C30.4393666,23.3185867 30.1965966,22.450706 29.7729409,21.6974127 M55.9760352,22.5054396 C56.1953227,22.0809893 56.4921201,21.7030626 56.8478885,21.3903748 C57.5169627,20.8022534 58.39323,20.4444546 59.3519508,20.4444546 C61.4463939,20.4444546 63.150198,22.1482587 63.150198,24.2426135 C63.150198,25.1313283 62.8426305,25.949066 62.3293705,26.5967764 C62.0347802,26.9685235 61.6725673,27.2838596 61.2610059,27.5241578 C60.6996334,27.8520298 60.0475973,28.0408607 59.3519508,28.0408607 C57.257596,28.0408607 55.5537919,26.3369683 55.5537919,24.2426135 C55.5537919,23.6168848 55.7068694,23.0264682 55.9760352,22.5054396 M36.1411072,56.8792014 C35.7980511,56.735305 35.4618809,56.5784314 35.1315371,56.411494 C35.1007274,56.3959567 35.0696528,56.3808608 35.0389314,56.3650587 C34.9601856,56.3246264 34.8821461,56.28287 34.8041066,56.2412018 C34.7635861,56.2194849 34.7228007,56.1980329 34.6824567,56.1759629 C34.6085664,56.1356189 34.535294,56.0943039 34.4621098,56.0528123 C34.4187644,56.0282705 34.3754189,56.0037286 34.3323382,55.9787454 C34.2609197,55.9373421 34.1899426,55.8952325 34.1192303,55.8527698 C34.0757083,55.8266389 34.0323628,55.8004198 33.9891056,55.7738475 C33.9187464,55.7306786 33.8487404,55.68698 33.7790874,55.6427517 C33.737331,55.6161794 33.6958394,55.5893423 33.6543478,55.5624169 C33.583459,55.5165113 33.512835,55.4702525 33.4428289,55.4231993 C33.4053982,55.3981278 33.3683206,55.3725266 33.3311547,55.3471019 C33.2575292,55.2967823 33.1840802,55.2462862 33.1113375,55.1947307 C33.0832645,55.1748677 33.0556328,55.154475 33.0277363,55.1344354 C32.946607,55.0760823 32.865566,55.0175527 32.785496,54.9577871 C32.7842601,54.956816 32.7830242,54.955845 32.7817882,54.9548739 C30.2081613,53.0299284 28.2363391,50.3427733 27.2048755,47.2303735 C27.2090247,47.2324039 27.2131738,47.2342578 27.2174113,47.2362883 C27.0201938,46.6400451 26.856964,46.0282647 26.7309885,45.4029774 C26.7264862,45.4005939 26.7218956,45.3983869 26.7173051,45.395915 C26.5124072,44.3804301 26.4043524,43.3303395 26.4043524,42.2554421 C26.4043524,41.2346605 26.5025198,40.2365667 26.6877313,39.2691062 C26.6923218,39.2664578 26.6970007,39.2639859 26.7015912,39.2614258 C26.8227114,38.6276636 26.9815271,38.0073201 27.1757431,37.4028669 C27.1715057,37.4049856 27.16718,37.407016 27.1629425,37.409223 C28.0187289,34.7504941 29.5595681,32.3970375 31.5755303,30.5552518 C31.5911558,30.5409504 31.6066048,30.5264725 31.6223187,30.5122594 C31.6918833,30.4491392 31.762419,30.3870784 31.8331313,30.3251941 C31.8642942,30.2978273 31.8953687,30.2703722 31.9267964,30.2433585 C31.9892986,30.1895077 32.0523306,30.1364514 32.1157156,30.08366 C32.156501,30.0494956 32.1973746,30.0155078 32.2386014,29.9817849 C32.2964248,29.9345551 32.3546013,29.8876784 32.4131309,29.8412431 C32.4612435,29.8030179 32.5095327,29.7651457 32.5579984,29.7274502 C32.6122906,29.6853406 32.6666711,29.6434959 32.721493,29.6020926 C32.7757852,29.5610424 32.8305188,29.5206101 32.885429,29.4801779 C32.9364548,29.4426589 32.9874807,29.4051399 33.0390362,29.3681505 C33.0996845,29.3246285 33.1609509,29.281901 33.2223055,29.2391735 C33.2695353,29.206245 33.3166768,29.17314 33.3642597,29.1407413 C33.4335595,29.0935997 33.5035656,29.0475176 33.5735716,29.0014354 C33.6147101,28.97451 33.6554954,28.9469666 33.6968105,28.9203944 C33.7834132,28.8646014 33.8709869,28.8100444 33.9587373,28.7559287 C33.9846033,28.73995 34.0101162,28.7234417 34.0361588,28.7075513 C34.1521587,28.6369273 34.2690415,28.5677157 34.3869836,28.500005 C34.3969592,28.4942668 34.4071114,28.4887934 34.4171753,28.4831435 C34.523641,28.4222303 34.6308129,28.3624647 34.7388677,28.3041117 C34.7755039,28.2842487 34.8126697,28.2652685 34.8495708,28.2456703 C34.9311415,28.2023248 35.0128888,28.1591559 35.0953423,28.1173112 C35.1412479,28.093917 35.1875949,28.0714056 35.2337654,28.048541 C35.3079206,28.0117283 35.382164,27.9750038 35.4569372,27.9393387 C35.5078748,27.91515 35.5590772,27.8914909 35.6102796,27.8678319 C35.6809919,27.8349917 35.7518807,27.8025047 35.8231227,27.7707239 C35.8458989,27.7605717 35.8684103,27.7497132 35.8912748,27.7396493 C35.8909217,27.740179 35.8906569,27.7407087 35.890392,27.7412383 C36.5440172,27.4536221 37.220242,27.2079388 37.9164181,27.0095737 C37.916683,27.0091323 37.9173892,27.0079846 37.9176541,27.0076315 C38.0160863,26.9795585 38.1157544,26.9545752 38.2149811,26.9284443 C38.2516173,26.9187335 38.288077,26.9085813 38.3248897,26.8991354 C38.4225274,26.8741521 38.5206948,26.8505814 38.6190387,26.8273637 C38.66927,26.8155342 38.7196779,26.8039695 38.7700858,26.7925814 C38.8686063,26.7704231 38.9673033,26.7484414 39.06653,26.7280487 C39.0966335,26.7218691 39.1270018,26.7164841 39.1571936,26.710481 C39.347437,26.6726089 39.5390046,26.6383563 39.7316316,26.60737 C39.7896315,26.5981006 39.8475432,26.5885663 39.905808,26.5798266 C39.9977958,26.5661432 40.0901367,26.5532543 40.1826541,26.54116 C40.2506297,26.5321554 40.3188702,26.5241219 40.3871106,26.5160002 C40.4767148,26.5054066 40.5661425,26.4945481 40.6561881,26.4854553 C40.7935518,26.4715953 40.9314451,26.4595892 41.0697799,26.4492605 C41.1420812,26.4438754 41.2146474,26.4399028 41.2871253,26.4354888 C41.3840567,26.429574 41.4810764,26.4243655 41.578361,26.4202164 C41.6440413,26.4173914 41.7096334,26.4146547 41.7754902,26.4127126 C41.9230061,26.4082103 42.0710517,26.4053853 42.2196269,26.4049439 C42.2315447,26.4049439 42.2434625,26.404326 42.2553803,26.404326 C42.2573225,26.404326 42.2592647,26.4044142 42.2612068,26.4044142 C42.2638552,26.4044142 42.2664153,26.404326 42.2690637,26.404326 C42.4391793,26.404326 42.6085004,26.4079454 42.7772917,26.4132422 C42.800068,26.4140368 42.8227559,26.4150078 42.8455322,26.4158024 C51.3326835,26.7193973 58.1201799,33.6941356 58.1201799,42.2554421 C58.1201799,50.6835342 51.5419954,57.5741416 43.2400555,58.0760134 C43.2374954,58.07619 43.2349353,58.0763666 43.2322869,58.0765431 C43.0807101,58.085636 42.9286919,58.0927866 42.7759675,58.0975538 C42.7629904,58.0979952 42.7501015,58.0987014 42.7371243,58.0990545 C42.581575,58.1035568 42.4256725,58.10647 42.2690637,58.10647 C42.2665919,58.10647 42.2640318,58.1063818 42.2615599,58.1063818 C42.2595295,58.1063818 42.2574991,58.10647 42.2553803,58.10647 C42.2368415,58.10647 42.218391,58.1056755 42.1998522,58.1055872 C42.0703455,58.1050576 41.9411918,58.1031154 41.8124796,58.0994959 C41.7413259,58.0975538 41.6705253,58.0942874 41.5996365,58.0914624 C41.5223032,58.0881961 41.4450582,58.0847532 41.3679897,58.0804274 C41.2863307,58.0759252 41.2048483,58.0707166 41.1234541,58.0649784 C41.0596277,58.0603879 40.9959778,58.0551794 40.9323279,58.0498826 C40.8437831,58.042467 40.7553265,58.0351398 40.6672231,58.0263118 C40.6234362,58.0218978 40.5800024,58.016601 40.5363921,58.0118339 C40.3266388,57.9890576 40.1181214,57.9625736 39.9109283,57.9316756 C39.8902707,57.9285858 39.8695249,57.9260257 39.8489557,57.9228476 C39.7494641,57.9075752 39.6505023,57.8906254 39.5516287,57.8735874 C39.506959,57.8658187 39.462201,57.8583149 39.4177079,57.8501932 C39.3218358,57.832802 39.2264051,57.8144398 39.1312393,57.795283 C39.0862165,57.7862785 39.0413702,57.7769208 38.9964357,57.7674748 C38.8995043,57.7470821 38.8026611,57.7264246 38.7064359,57.7043546 C38.6748316,57.6970274 38.6435805,57.6891705 38.6120646,57.6817549 C38.5182229,57.6595967 38.4239399,57.6382329 38.3308045,57.6144856 C38.3303631,57.6138676 38.33001,57.6133379 38.3296568,57.6128083 C37.5767167,57.4202696 36.8454934,57.1736152 36.1401362,56.8776124 C36.140401,56.8781421 36.1407541,56.8786717 36.1411072,56.8792014 M66.2983512,42.2554421 C66.2983512,47.1434177 64.8480873,51.8079566 62.153605,55.7601641 C61.3439008,55.2416073 60.3827964,54.9394249 59.3519508,54.9394249 C58.1369531,54.9394249 57.018622,55.3585783 56.1314963,56.0583739 L54.5223283,54.3897936 C57.6094801,51.269272 59.5189766,46.9813356 59.5189766,42.2554421 C59.5189766,37.4843493 57.5732853,33.1594236 54.4339601,30.0315748 L56.0968905,28.3072015 C56.9894896,29.0234171 58.121151,29.4533408 59.3519508,29.4533408 C60.3589608,29.4533408 61.2995843,29.1653714 62.0973707,28.6687081 C64.8277829,32.638395 66.2983512,37.3335671 66.2983512,42.2554421 M67.7108313,42.2554421 C67.7108313,37.0001335 66.127706,31.9886542 63.1893943,27.7633084 C64.0414729,26.8353089 64.5626781,25.5988592 64.5626781,24.2426135 C64.5626781,21.3694525 62.2252001,19.0319745 59.3519508,19.0319745 C57.8991268,19.0319745 56.5839313,19.6302481 55.638011,20.5925884 C51.6564946,18.1225139 47.0579009,16.7999912 42.2553803,16.7999912 C37.4706041,16.7999912 32.8881656,18.1128914 28.9168014,20.5653982 C27.9728233,19.6186834 26.6680448,19.0319745 25.2286393,19.0319745 C22.3554783,19.0319745 20.0179121,21.3694525 20.0179121,24.2426135 C20.0179121,25.5775837 20.5230503,26.7964657 21.3515581,27.7194332 C18.3937366,31.9538719 16.8000177,36.9819478 16.8000177,42.2554421 C16.8000177,47.501658 18.3777579,52.5047506 21.3063588,56.7255942 C20.5051294,57.6421172 20.0179121,58.8399886 20.0179121,60.1502404 C20.0179121,63.0233132 22.3554783,65.3608794 25.2286393,65.3608794 C26.6307907,65.3608794 27.9044063,64.8032146 28.8419399,63.8992274 C32.8305188,66.3815728 37.4405006,67.7108048 42.2553803,67.7108048 C47.0872981,67.7108048 51.7129938,66.3723917 55.7112834,63.8730965 C56.6512889,64.792621 57.9362044,65.3608794 59.3519508,65.3608794 C62.2252001,65.3608794 64.5626781,63.0233132 64.5626781,60.1502404 C64.5626781,58.8186248 64.0601,57.6027443 63.2353882,56.6806597 C66.1440378,52.4692621 67.7108313,47.4830309 67.7108313,42.2554421" id="Fill-1" fill="#FFFFFF"></path>
            <path d="M37.5740065,49.5858694 C37.2915105,49.5858694 37.0617176,49.3560766 37.0617176,49.0735805 L37.0617176,42.4566411 L34.6353417,42.4566411 C34.5416766,42.4566411 34.5018623,42.3943154 34.4865016,42.3571495 C34.4711409,42.3199837 34.4551622,42.2477706 34.5214605,42.1815606 L41.9648773,34.7381438 C42.0519214,34.6510997 42.1676565,34.6030754 42.2908071,34.6030754 L42.2915134,34.6030754 C42.4149288,34.6032519 42.5308404,34.6515411 42.6178845,34.7391148 L49.8974537,42.0611467 C49.9959742,42.1601968 49.9650762,42.2708117 49.9471553,42.3137158 C49.9293228,42.3567081 49.872647,42.4566411 49.7330763,42.4566411 L47.3428952,42.4566411 L47.3428952,48.9386004 C47.3428952,49.2955165 47.052454,49.5858694 46.6955379,49.5858694 L37.5740065,49.5858694 Z M48.4850619,49.3014312 L48.4850619,43.4960499 L50.034376,43.4960499 C50.5117942,43.4960499 50.9386281,43.2112586 51.1219856,42.7705648 C51.3052549,42.3297827 51.206293,41.8262336 50.8696814,41.4876798 L43.298082,33.8719404 C43.0307701,33.6031277 42.6748251,33.4548173 42.2957508,33.4542877 C42.2950446,33.4542877 42.2943383,33.4541994 42.2936321,33.4541994 C41.9153523,33.4541994 41.5598487,33.6015387 41.292272,33.8690271 L33.5503804,41.6110069 C33.2333669,41.9279322 33.139437,42.4002302 33.3109651,42.8143517 C33.4824931,43.2284732 33.8829312,43.4960499 34.3311288,43.4960499 L35.9181384,43.4960499 L35.9181384,49.4417964 C35.9181384,50.2521186 36.5773252,50.9113054 37.3876474,50.9113054 L46.8750995,50.9113054 C47.7628432,50.9113054 48.4850619,50.1890867 48.4850619,49.3014312 L48.4850619,49.3014312 Z" id="Fill-4" stroke="#FFFFFF" stroke-width="0.6" fill="#FFFFFF"></path>
        </g>
    </g>
</svg>