
<svg width="88px" height="87px" viewBox="530 40 88 87" version="1.1" xmlns="http://www.w3.org/2000/svg" xmlns:xlink="http://www.w3.org/1999/xlink">
    <!-- Generator: Sketch 3.7.2 (28276) - http://www.bohemiancoding.com/sketch -->
    <desc>Created with Sketch.</desc>
    <defs></defs>
    <g id="Service-&amp;-Marketing-Excellence-Icon" stroke="none" stroke-width="1" fill="none" fill-rule="evenodd" transform="translate(530.629688, 40.040625)">
        <g transform="translate(0.075586, 0.810844)">
            <circle id="Oval-2-Copy-2" fill="#080F16" cx="43.2" cy="42.24" r="42.24"></circle>
            <path d="M44.4928603,63.23003 C43.9223236,63.23003 43.3492329,63.1122962 42.8101089,62.8737638 L32.2140612,58.1902035 C30.8485016,57.5862109 29.2768439,57.6993477 28.011141,58.4918167 L25.0070121,60.3730046 C24.7079528,60.5596932 24.3141445,60.4697967 24.1269451,60.1707373 C23.9400011,59.8719334 24.0304084,59.4778697 24.3292124,59.2909257 L27.3333413,57.4097378 C28.9586305,56.3917612 30.976451,56.2469562 32.7304557,57.0223142 L43.3265034,61.7058745 C44.2098904,62.0966181 45.2235254,62.0202571 46.0387238,61.5015641 L65.3023845,49.2470268 C65.8103512,48.9237056 65.977375,48.2594415 65.6821465,47.7343638 L64.9818726,46.4893473 C64.8306829,46.2206792 64.5832119,46.0288828 64.2851742,45.9497125 C63.9866256,45.8705422 63.6773507,45.9137028 63.4125134,46.071788 L62.128678,46.8379519 C61.5693783,47.1712332 60.8435656,47.0118711 60.4758069,46.4745348 L59.6756763,45.3051132 C59.3257948,44.7933157 58.6436535,44.6564277 58.1234281,44.9937952 L56.2297262,46.2206792 C55.6780881,46.5774562 54.9517647,46.4354605 54.5753228,45.8971026 L53.9131017,44.9483362 C53.5581124,44.4401141 52.8540077,44.3113985 52.3424656,44.6617909 L47.6583945,47.8702302 L49.6210512,47.8702302 C51.6598135,47.8702302 53.3185585,49.5289752 53.3185585,51.5674821 C53.3185585,53.605989 51.6600689,55.264734 49.6210512,55.264734 L42.3828448,55.264734 C41.6493705,55.264734 40.9141084,55.0928579 40.2564844,54.7674936 L36.1370761,52.7300082 C35.8211611,52.5737108 35.6916794,52.1908842 35.8477215,51.8747139 C36.0040189,51.5587989 36.3865902,51.4290618 36.7032713,51.5856147 L40.8226795,53.6231 C41.3053628,53.8616324 41.8447423,53.9877941 42.3828448,53.9877941 L49.6210512,53.9877941 C50.9557088,53.9877941 52.0416185,52.9021397 52.0416185,51.5674821 C52.0416185,50.2328245 50.9557088,49.1471701 49.6210512,49.1471701 L45.5963918,49.1471701 L45.5856655,49.1471701 L41.5633047,49.093794 C41.454254,49.0922617 41.3472465,49.0628921 41.2527529,49.0084944 L34.6496964,45.2016811 C32.3803188,43.893073 29.6114022,43.7814685 27.2437001,44.9028771 L20.1119905,48.2814048 C19.7932663,48.4323391 19.4127382,48.2962173 19.2615485,47.9777485 C19.1106142,47.6590243 19.2464806,47.2782408 19.5652048,47.1273065 L26.6969144,43.7490342 C29.4431015,42.4478324 32.6546055,42.5775695 35.2876556,44.0953403 L41.7466733,47.8191526 L45.4025524,47.8679317 L51.6209945,43.6085708 C52.7079258,42.8638594 54.2057764,43.1371246 54.9601925,44.2176711 L55.58717,45.1158707 L57.4290282,43.9224426 C58.5346028,43.2060793 59.9846958,43.4962001 60.7296626,44.5844083 L61.5078298,45.721651 L62.7582094,44.9754073 C63.3208291,44.6395721 63.9797301,44.547377 64.6138585,44.7159331 C65.2472207,44.8847446 65.77332,45.2920884 66.0948535,45.8636467 L66.7951273,47.1086632 C67.4226156,48.2249641 67.0678817,49.6375151 65.9878459,50.3245088 L46.7241852,62.5790461 C46.0456193,63.0109072 45.2712829,63.23003 44.4928603,63.23003 L44.4928603,63.23003 Z M51.4389029,37.9024369 C48.2304636,37.9024369 45.3887614,36.0547048 44.0804087,33.1588604 L42.169085,33.1588604 C41.9997628,33.1588604 41.837336,33.0916934 41.7175591,32.9719164 L41.2701193,32.524732 L40.8226795,32.9719164 C40.7029026,33.0916934 40.5407312,33.1588604 40.3711536,33.1588604 L38.7047469,33.1588604 C38.5354247,33.1588604 38.3729979,33.091438 38.253221,32.9719164 L37.9896606,32.708356 L37.7258448,32.9721718 C37.6060678,33.0919488 37.4438964,33.1591158 37.2743188,33.1591158 L35.4766428,33.1591158 C35.3073205,33.1591158 35.1448938,33.0919488 35.0251168,32.9721718 L33.8429258,31.7899808 L32.6604794,32.9721718 C32.5407024,33.0919488 32.378531,33.1591158 32.2089534,33.1591158 L31.6971559,33.1591158 C31.5278337,33.1591158 31.3654069,33.0916934 31.2456299,32.9721718 L30.929715,32.6560015 L30.6135446,32.9721718 C30.4937677,33.0919488 30.3315963,33.1591158 30.1620187,33.1591158 L27.5624243,33.1591158 C27.3726711,33.1591158 27.1928779,33.0745824 27.0713132,32.9287558 L26.4239047,32.1498225 C26.328645,32.0351533 26.2765458,31.890859 26.2765458,31.7417125 L26.2765458,28.3649725 C26.2765458,28.1739422 26.3621008,27.9928722 26.509715,27.8715629 L28.0162488,26.6336973 C28.1304072,26.5397145 28.2736799,26.4886369 28.4215495,26.4886369 L44.0804087,26.4886369 C45.388506,23.5927925 48.2304636,21.7450604 51.4389029,21.7450604 C55.8933802,21.7450604 59.5175912,25.369016 59.5175912,29.8237487 C59.5175912,34.2784814 55.8936356,37.9024369 51.4389029,37.9024369 L51.4389029,37.9024369 Z M42.433667,31.8819205 L44.5048636,31.8819205 C44.7681686,31.8819205 45.0044025,32.0435811 45.0999176,32.2887535 C46.125045,34.9230806 48.6132902,36.625497 51.4389029,36.625497 C55.1895309,36.625497 58.2406512,33.5743767 58.2406512,29.8237487 C58.2406512,26.0731206 55.1895309,23.0220003 51.4389029,23.0220003 C48.6132902,23.0220003 46.1247896,24.7244167 45.0999176,27.3587438 C45.0044025,27.6039163 44.7681686,27.7655768 44.5048636,27.7655768 L28.6503772,27.7655768 L28.1679493,28.1616836 L44.2752698,28.1616836 C44.6279606,28.1616836 44.9137397,28.4474628 44.9137397,28.8001536 C44.9137397,29.1528444 44.6279606,29.4386236 44.2752698,29.4386236 L27.5534858,29.4386236 L27.5534858,31.5105863 L27.8619944,31.8816651 L29.8984583,31.8816651 L30.4789552,31.3011682 C30.5987321,31.1813912 30.7609035,31.1142242 30.9304811,31.1142242 L30.9304811,31.1142242 C31.0998034,31.1142242 31.2622301,31.1816466 31.3820071,31.3011682 L31.9538208,31.8732373 L33.392166,30.4351475 C33.5119429,30.3153705 33.6741143,30.2482035 33.8436919,30.2482035 L33.8436919,30.2482035 C34.0130142,30.2482035 34.1754409,30.3156259 34.2952179,30.4351475 L35.7417355,31.8819205 L37.0107584,31.8819205 L37.5389008,31.3537781 C37.6586777,31.2340011 37.8208491,31.1668341 37.9904267,31.1668341 L37.9904267,31.1668341 C38.159749,31.1668341 38.3221757,31.2342565 38.4419527,31.3537781 L38.9700951,31.8819205 L40.1075932,31.8819205 L40.8193595,31.1701541 C41.0688736,30.9206401 41.4728974,30.9206401 41.722156,31.1701541 L42.433667,31.8819205 L42.433667,31.8819205 Z M55.0618369,31.8793666 C53.928425,31.8793666 53.0059636,30.9571606 53.0059636,29.8237487 C53.0059636,28.6903368 53.9281696,27.7681307 55.0618369,27.7681307 C56.1955042,27.7681307 57.1174548,28.6903368 57.1174548,29.8237487 C57.1174548,30.9574159 56.1952488,31.8793666 55.0618369,31.8793666 L55.0618369,31.8793666 Z M55.0618369,29.0450707 C54.6322743,29.0450707 54.2829035,29.3944414 54.2829035,29.8237487 C54.2829035,30.2530559 54.6322743,30.6024266 55.0618369,30.6024266 C55.4911441,30.6024266 55.8405149,30.2530559 55.8405149,29.8237487 C55.8405149,29.3944414 55.4908887,29.0450707 55.0618369,29.0450707 L55.0618369,29.0450707 Z" id="Shape" fill="#FFFFFF"></path>
        </g>
    </g>
</svg>