<?xml version="1.0" encoding="utf-8"?>
<!-- Generator: Adobe Illustrator 19.1.0, SVG Export Plug-In . SVG Version: 6.00 Build 0)  -->
<svg version="1.1" id="rea-logo" xmlns="http://www.w3.org/2000/svg" xmlns:xlink="http://www.w3.org/1999/xlink" x="0px" y="0px"
	 viewBox="160 -45 420 191" style="enable-background:new 160 -45 420 191;" xml:space="preserve">
<g id="excellence-awards">
	<path d="M570.3,139.6c0,0,1.6,1.5,3.5,1.5c0.7,0,1.5-0.3,1.5-1.2c0-1.7-6.5-1.7-6.5-6.1c0-2.7,2.3-4.5,5.1-4.5
		c3.1,0,4.7,1.6,4.7,1.6l-1.5,2.9c0,0-1.5-1.3-3.2-1.3c-0.7,0-1.5,0.3-1.5,1.1c0,1.8,6.6,1.5,6.6,6.1c0,2.4-1.9,4.5-5.1,4.5
		c-3.4,0-5.3-2.1-5.3-2.1L570.3,139.6z"/>
</g>
</svg>
