<?xml version="1.0" encoding="utf-8"?>
<!-- Generator: Adobe Illustrator 19.1.0, SVG Export Plug-In . SVG Version: 6.00 Build 0)  -->
<svg version="1.1" id="rea-logo" xmlns="http://www.w3.org/2000/svg" xmlns:xlink="http://www.w3.org/1999/xlink" x="0px" y="0px"
	 viewBox="160 -45 420 191" style="enable-background:new 160 -45 420 191;" xml:space="preserve">
	<path id="shape" d="M345-7.1V-25c0-6.6-5.4-12-12-12H178.7c-6.6,0-12,5.4-12,12v151.8c0,6.6,5.4,12,12,12H333
		c6.6,0,12-5.4,12-12v-16.5"/>
	
	<g class="house-logo" transform="translate(0,0)">
		<path id="circle" class="rea-red" d="M211,50.9c-0.1,24.3,19.9,44.1,44.6,44.2c24.8,0.1,45-19.5,45.1-43.7c0.1-24.3-19.8-44.1-44.6-44.2
		h-0.3C231.2,7.2,211.2,26.7,211,50.9"/>
		<path id="house" class="rea-white" d="M270.6,48v23.4h-29.3V48h-7.7l22.4-21.8L278.3,48H270.6z M285.3,45.1L285.3,45.1l-26.7-26
		c-0.7-0.7-1.7-1.2-2.8-1.2h0c-1.1,0-2.1,0.5-2.8,1.2l-26.7,26v0c-1,1-1.7,2.4-1.7,4c0,3.1,2.6,5.6,5.7,5.6l3.7,0c0,0,0,19.8,0,19.8
		c0,2,1.7,3.7,3.7,3.7h35.9c2.1,0,3.7-1.7,3.7-3.7c0,0,0-19.8,0-19.8l3.7,0c3.2,0,5.7-2.5,5.7-5.6C287,47.6,286.4,46.2,285.3,45.1
		L285.3,45.1z"/>
	</g>
	
	<g id="area">
		<path class="rea-white area-a1" d="M347.6,25c-0.3-1.3-0.7-1.8-1.8-1.8c-1.1,0-1.5,0.5-1.8,1.8l-8.1,33.3h19.8L347.6,25z M377.9,94.4H366
			c-1,0-1.9-0.9-2.1-1.9l-5.2-21.3h-25.8l-5.2,21.3c-0.2,1-1.1,1.9-2.1,1.9h-11.9c-1.1,0-2-0.8-2-1.9c0-0.1,0.1-0.3,0.1-0.6
			l18.4-70.4c2.7-10.4,10.8-11.4,15.6-11.4c4.8,0,12.9,1,15.6,11.4l18.4,70.4c0,0.2,0.1,0.5,0.1,0.6C379.9,93.6,379,94.4,377.9,94.4
			L377.9,94.4z"/>
		<path class="rea-white area-r" d="M428.2,35.5c0-8.4-5.6-12-16.9-12c-2.4,0-8,0.2-10,0.4v25.2c1.8,0.1,8.1,0.3,10,0.3
			c11.6,0,16.9-3.1,16.9-13V35.5z M445.1,94.4h-13.7c-1.2,0-1.7-1.1-2.2-2.3l-16.2-30h-1.6c-2.9,0-7.4-0.3-10-0.5v30.4
			c0,1.2-0.9,2.3-2.1,2.3H388c-1.2,0-2.2-1-2.2-2.3V14.9c0-2.2,1.3-3,3.6-3.4c5.8-0.9,13.8-1.5,22-1.5c17.3,0,32.4,6.2,32.4,25.4v1
			c0,11.9-6,19.3-15.2,22.9l17.6,32.8c0.2,0.3,0.2,0.7,0.2,0.9C446.4,93.8,446,94.4,445.1,94.4L445.1,94.4z"/>
		<path class="rea-white area-e" d="M500.2,93.7c-3.6,0.6-8,1.6-21.3,1.6c-14.6,0-26-3.9-26-23V33.1c0-19.1,11.3-23,26-23
			c13.4,0,17.7,1,21.3,1.6c1.7,0.2,2.2,0.8,2.2,2.4v7.2c0,1.2-1,2.2-2.2,2.2h-22.9c-6.5,0-8.9,2.2-8.9,9.7v12.1h30.4
			c1.2,0,2.2,1,2.2,2.3v8.1c0,1.2-1,2.2-2.2,2.2h-30.4v14.5c0,7.4,2.4,9.6,8.9,9.6h22.9c1.2,0,2.2,1,2.2,2.3v7.2
			C502.5,92.9,501.9,93.5,500.2,93.7"/>
		<path class="rea-white area-a2" d="M543.9,25c-0.3-1.3-0.7-1.8-1.8-1.8s-1.5,0.5-1.8,1.8l-8.1,33.3H552L543.9,25z M574.2,94.4h-11.9
			c-1,0-1.9-0.9-2.1-1.9L555,71.2h-25.8L524,92.5c-0.2,1-1.1,1.9-2.1,1.9H510c-1.1,0-2-0.8-2-1.9c0-0.1,0.1-0.3,0.1-0.6l18.4-70.4
			c2.7-10.4,10.8-11.4,15.6-11.4c4.8,0,12.9,1,15.6,11.4l18.4,70.4c0,0.2,0.1,0.5,0.1,0.6C576.3,93.6,575.4,94.4,574.2,94.4
			L574.2,94.4z"/>
	</g>
	<g class="annual-rea-excellence-awards">
		<g id="excellence-awards">
			<g class="excellence">
				<polygon class="rea-white" points="359.2,129.6 368.3,129.6 368.3,132.6 362.7,132.6 362.7,135.2 367.2,135.2 367.2,138.3 
				362.7,138.3 362.7,141 368.6,141 368.6,144.1 359.2,144.1 	"/>
				<path class="rea-white" d="M374.2,136.9l-4.4-7.3h4l1.6,3c0.5,0.9,0.9,1.9,0.9,1.9h0c0,0,0.4-0.9,0.9-1.9l1.6-3h4l-4.5,7.3
				l4.4,7.2h-4l-1.7-3c-0.5-0.9-0.9-1.8-0.9-1.8h0c0,0-0.4,0.9-0.9,1.8l-1.7,3h-3.9L374.2,136.9z"/>
				<path class="rea-white" d="M391.5,129.3c3.6,0,5.5,2.1,5.5,2.1l-1.6,2.7c0,0-1.6-1.5-3.6-1.5c-2.8,0-4.1,2.1-4.1,4.1
				c0,2.2,1.4,4.4,4.1,4.4c2.2,0,3.9-1.8,3.9-1.8l1.8,2.6c0,0-2.1,2.4-5.9,2.4c-4.6,0-7.6-3.2-7.6-7.5
				C383.9,132.6,387.1,129.3,391.5,129.3"/>
				<polygon class="rea-white" points="399.5,129.6 408.6,129.6 408.6,132.6 403.1,132.6 403.1,135.2 407.5,135.2 407.5,138.3 
				403.1,138.3 403.1,141 408.9,141 408.9,144.1 399.5,144.1 	"/>
				<polygon class="rea-white" points="411.5,129.6 415,129.6 415,141 421,141 421,144.1 411.5,144.1 	"/>
				<polygon class="rea-white" points="422.9,129.6 426.5,129.6 426.5,141 432.4,141 432.4,144.1 422.9,144.1 	"/>
				<polygon class="rea-white" points="434.4,129.6 443.5,129.6 443.5,132.6 437.9,132.6 437.9,135.2 442.4,135.2 442.4,138.3 
				437.9,138.3 437.9,141 443.8,141 443.8,144.1 434.4,144.1 	"/>
				<path class="rea-white" d="M446.3,129.6h3.6l4,6.8c0.6,1,1.2,2.5,1.2,2.5h0c0,0-0.2-1.6-0.2-2.5v-6.8h3.6v14.5H455l-4-6.8
				c-0.6-1-1.2-2.5-1.2-2.5h0c0,0,0.2,1.6,0.2,2.5v6.8h-3.6V129.6z"/>
				<path class="rea-white" d="M468.7,129.3c3.6,0,5.5,2.1,5.5,2.1l-1.6,2.7c0,0-1.6-1.5-3.6-1.5c-2.8,0-4.1,2.1-4.1,4.1
				c0,2.2,1.4,4.4,4.1,4.4c2.2,0,3.9-1.8,3.9-1.8l1.8,2.6c0,0-2.1,2.4-5.9,2.4c-4.6,0-7.6-3.2-7.6-7.5
				C461,132.6,464.3,129.3,468.7,129.3"/>
				<polygon class="rea-white" points="476.7,129.6 485.8,129.6 485.8,132.6 480.2,132.6 480.2,135.2 484.7,135.2 484.7,138.3 
				480.2,138.3 480.2,141 486.1,141 486.1,144.1 476.7,144.1 	"/>
			</g>
			<g class="awards">
				<path class="rea-red" d="M498.3,132.9c0,0-0.3,1.6-0.6,2.5l-0.8,2.8h2.9l-0.8-2.8C498.7,134.4,498.3,132.9,498.3,132.9
				L498.3,132.9z M500.6,141H496l-0.9,3h-3.7l4.9-14.5h3.7l4.9,14.5h-3.7L500.6,141z"/>
				<path class="rea-red" d="M505.5,129.6h3.7l1.8,9.1c0.2,0.9,0.2,1.5,0.2,1.5h0c0,0,0-0.6,0.2-1.5l2.2-9.1h2.9l2.2,9.1
				c0.2,0.9,0.2,1.5,0.2,1.5h0c0,0,0-0.6,0.2-1.5l2-9.1h3.7l-3.7,14.5h-4l-1.8-7.3c-0.2-0.9-0.3-1.7-0.3-1.7h0c0,0-0.1,0.8-0.3,1.7
				l-1.8,7.3h-4L505.5,129.6z"/>
				<path class="rea-red" d="M532.1,132.9c0,0-0.3,1.6-0.6,2.5l-0.8,2.8h2.9l-0.8-2.8C532.4,134.4,532.1,132.9,532.1,132.9
				L532.1,132.9z M534.3,141h-4.5l-0.9,3h-3.7l4.9-14.5h3.7l4.9,14.5h-3.7L534.3,141z"/>
				<path class="rea-red" d="M545.6,136.1c1.1,0,1.9-0.6,1.9-1.8c0-1.1-0.4-1.7-2.2-1.7h-1.2v3.5H545.6z M540.5,129.6h5.1
				c1.5,0,2.2,0.1,2.8,0.3c1.6,0.6,2.7,2.1,2.7,4.2c0,1.5-0.7,3.2-2.2,4v0c0,0,0.2,0.3,0.5,0.9l2.8,5.1h-4l-2.6-4.9h-1.7v4.9h-3.6
				V129.6z"/>
				<path class="rea-red" d="M559.5,141c2.5,0,4-1.5,4-4.2c0-2.8-1.6-4.2-4-4.2H558v8.4H559.5z M554.5,129.6h5.2
				c4.6,0,7.5,2.7,7.5,7.2s-2.9,7.3-7.5,7.3h-5.2V129.6z"/>
				<path class="rea-red" d="M570.3,139.6c0,0,1.6,1.5,3.5,1.5c0.7,0,1.5-0.3,1.5-1.2c0-1.7-6.5-1.7-6.5-6.1c0-2.7,2.3-4.5,5.1-4.5		c3.1,0,4.7,1.6,4.7,1.6l-1.5,2.9c0,0-1.5-1.3-3.2-1.3c-0.7,0-1.5,0.3-1.5,1.1c0,1.8,6.6,1.5,6.6,6.1c0,2.4-1.9,4.5-5.1,4.5		c-3.4,0-5.3-2.1-5.3-2.1L570.3,139.6z"/>
			</g>

		</g>
		<g id="annual-rea">
			<g class="annual">
				<path class="rea-white" d="M364.2,113.3c0,0-0.3,1.6-0.6,2.5l-0.8,2.8h2.9l-0.8-2.8C364.5,114.9,364.2,113.3,364.2,113.3
				L364.2,113.3z M366.5,121.5h-4.5l-0.9,3h-3.7l4.9-14.5h3.7l4.9,14.5h-3.7L366.5,121.5z"/>
				<path class="rea-white" d="M372.6,110h3.6l4,6.8c0.6,1,1.2,2.5,1.2,2.5h0c0,0-0.2-1.6-0.2-2.5V110h3.6v14.5h-3.6l-4-6.8
				c-0.6-1-1.2-2.5-1.2-2.5h0c0,0,0.2,1.6,0.2,2.5v6.8h-3.6V110z"/>
				<path class="rea-white" d="M388.3,110h3.6l4,6.8c0.6,1,1.2,2.5,1.2,2.5h0c0,0-0.2-1.6-0.2-2.5V110h3.6v14.5H397l-4-6.8
				c-0.6-1-1.2-2.5-1.2-2.5h0c0,0,0.2,1.6,0.2,2.5v6.8h-3.6V110z"/>
				<path class="rea-white" d="M403.8,110h3.6v9.2c0,1.5,1,2.3,2.5,2.3s2.5-0.8,2.5-2.3V110h3.6v9.2c0,3.3-2.4,5.6-6.1,5.6
				c-3.7,0-6.1-2.3-6.1-5.6V110z"/>
				<path class="rea-white" d="M424.2,113.3c0,0-0.3,1.6-0.6,2.5l-0.8,2.8h2.9l-0.8-2.8C424.6,114.9,424.3,113.3,424.2,113.3
				L424.2,113.3z M426.5,121.5H422l-0.9,3h-3.7l4.9-14.5h3.7l4.9,14.5h-3.7L426.5,121.5z"/>
				<polygon class="rea-white" points="432.7,110 436.2,110 436.2,121.5 442.2,121.5 442.2,124.5 432.7,124.5 	"/>
			</g>
			<g class="rea">
				<path class="rea-white" d="M453.9,116.6c1.1,0,1.9-0.6,1.9-1.8c0-1.1-0.4-1.7-2.2-1.7h-1.2v3.5H453.9z M448.8,110h5.1
				c1.5,0,2.2,0.1,2.8,0.3c1.6,0.6,2.7,2.1,2.7,4.2c0,1.5-0.7,3.2-2.2,4v0c0,0,0.2,0.3,0.5,0.9l2.8,5.1h-4l-2.6-4.9h-1.7v4.9h-3.6V110
				z"/>
				<polygon class="rea-white" points="462.7,110 471.8,110 471.8,113 466.3,113 466.3,115.7 470.7,115.7 470.7,118.7 
				466.3,118.7 466.3,121.5 472.1,121.5 472.1,124.5 462.7,124.5 	"/>
				<path class="rea-white" d="M479.7,113.3c0,0-0.3,1.6-0.6,2.5l-0.8,2.8h2.9l-0.8-2.8C480.1,114.9,479.7,113.3,479.7,113.3
				L479.7,113.3z M482,121.5h-4.5l-0.9,3h-3.7l4.9-14.5h3.7l4.9,14.5h-3.7L482,121.5z"/>
			</g>
		</g>
	</g>
</svg>
