<?xml version="1.0" encoding="utf-8"?>
<!-- Generator: Adobe Illustrator 19.1.0, SVG Export Plug-In . SVG Version: 6.00 Build 0)  -->
<svg version="1.1" id="rea-logo" xmlns="http://www.w3.org/2000/svg" xmlns:xlink="http://www.w3.org/1999/xlink" x="0px" y="0px"
	 viewBox="160 -45 420 191" style="enable-background:new 160 -45 420 191;" xml:space="preserve">
<path id="shape" d="M340.2-9.1V-27c0-6.6-5.4-12-12-12H174c-6.6,0-12,5.4-12,12v151.7c0,6.6,5.4,12,12,12h154.2c6.6,0,12-5.4,12-12
	v-16.5"/>
<g>
	<path id="circle" d="M200.9,50.1c-0.1,24.1,19.7,43.8,44.3,43.9c24.6,0.1,44.6-19.3,44.7-43.4c0.1-24.1-19.6-43.8-44.3-43.9h-0.3
		C221,6.7,201.1,26.1,200.9,50.1"/>
	<path id="house" d="M260.1,47.2v23.2H231V47.2h-7.6l22.2-21.6l22.1,21.6H260.1z M274.6,44.3L274.6,44.3l-26.5-25.8
		c-0.7-0.7-1.7-1.2-2.8-1.2l0,0c-1.1,0-2.1,0.5-2.8,1.2l-26.5,25.8l0,0c-1,1-1.7,2.4-1.7,4c0,3.1,2.6,5.6,5.7,5.6h3.7v19.6
		c0,2,1.7,3.7,3.7,3.7H263c2.1,0,3.7-1.7,3.7-3.7V53.9h3.7c3.2,0,5.7-2.5,5.7-5.6C276.3,46.8,275.7,45.4,274.6,44.3L274.6,44.3z"/>
</g>
<g id="area">
	<path d="M342.8,23c-0.3-1.3-0.7-1.8-1.8-1.8c-1.1,0-1.5,0.5-1.8,1.8l-8.1,33.3h19.8L342.8,23z M373,92.3h-11.9
		c-1,0-1.9-0.9-2.1-1.9l-5.2-21.3h-25.8l-5.2,21.3c-0.2,1-1.1,1.9-2.1,1.9h-11.9c-1.1,0-2-0.8-2-1.9c0-0.1,0.1-0.3,0.1-0.6
		l18.4-70.3C328.1,9.1,336.2,8.1,341,8.1c4.8,0,12.9,1,15.6,11.4l18.4,70.3c0,0.2,0.1,0.5,0.1,0.6C375,91.5,374.1,92.3,373,92.3
		L373,92.3z"/>
	<path d="M423.3,33.4c0-8.4-5.6-12-16.9-12c-2.4,0-8,0.2-10,0.4V47c1.8,0.1,8.1,0.3,10,0.3c11.6,0,16.9-3.1,16.9-13V33.4z
		 M440.2,92.3h-13.7c-1.2,0-1.7-1.1-2.2-2.3l-16.2-30h-1.6c-2.9,0-7.4-0.3-10-0.5v30.4c0,1.2-0.9,2.3-2.1,2.3h-11.3
		c-1.2,0-2.2-1-2.2-2.3v-77c0-2.2,1.3-3,3.6-3.4c5.8-0.9,13.8-1.5,22-1.5c17.3,0,32.4,6.2,32.4,25.4v1c0,11.9-6,19.3-15.2,22.9
		L441.3,90c0.2,0.3,0.2,0.7,0.2,0.9C441.5,91.7,441.1,92.3,440.2,92.3L440.2,92.3z"/>
	<path d="M495.3,91.6c-3.6,0.6-8,1.6-21.3,1.6c-14.6,0-26-3.9-26-23V31c0-19.1,11.3-23,26-23c13.4,0,17.7,1,21.3,1.6
		c1.7,0.2,2.2,0.8,2.2,2.4v7.2c0,1.2-1,2.2-2.2,2.2h-22.9c-6.5,0-8.9,2.2-8.9,9.7v12.1h30.4c1.2,0,2.2,1,2.2,2.3v8.1
		c0,1.2-1,2.2-2.2,2.2h-30.4v14.5c0,7.4,2.4,9.6,8.9,9.6h22.9c1.2,0,2.2,1,2.2,2.3v7.2C497.6,90.8,497,91.4,495.3,91.6"/>
	<path d="M538.9,23c-0.3-1.3-0.7-1.8-1.8-1.8s-1.5,0.5-1.8,1.8l-8.1,33.3H547L538.9,23z M569.2,92.3h-11.9c-1,0-1.9-0.9-2.1-1.9
		L550,69.1h-25.8L519,90.4c-0.2,1-1.1,1.9-2.1,1.9h-11.9c-1.1,0-2-0.8-2-1.9c0-0.1,0.1-0.3,0.1-0.6l18.4-70.3
		c2.7-10.4,10.8-11.4,15.6-11.4s12.9,1,15.6,11.4l18.4,70.3c0,0.2,0.1,0.5,0.1,0.6C571.3,91.5,570.4,92.3,569.2,92.3L569.2,92.3z"/>
</g>
<g>
	<g id="excellence-awards">
		<g>
			<polygon points="354.4,127.5 363.5,127.5 363.5,130.5 357.9,130.5 357.9,133.1 362.4,133.1 362.4,136.2 357.9,136.2 357.9,138.9 
				363.8,138.9 363.8,142 354.4,142 			"/>
			<path d="M369.3,134.8l-4.4-7.3h4l1.6,3c0.5,0.9,0.9,1.9,0.9,1.9l0,0c0,0,0.4-0.9,0.9-1.9l1.6-3h4l-4.5,7.3l4.4,7.2h-4l-1.7-3
				c-0.5-0.9-0.9-1.8-0.9-1.8l0,0c0,0-0.4,0.9-0.9,1.8l-1.7,3h-3.9L369.3,134.8z"/>
			<path d="M386.6,127.2c3.6,0,5.5,2.1,5.5,2.1l-1.6,2.7c0,0-1.6-1.5-3.6-1.5c-2.8,0-4.1,2.1-4.1,4.1c0,2.2,1.4,4.4,4.1,4.4
				c2.2,0,3.9-1.8,3.9-1.8l1.8,2.6c0,0-2.1,2.4-5.9,2.4c-4.6,0-7.6-3.2-7.6-7.5C379,130.5,382.2,127.2,386.6,127.2"/>
			<polygon points="394.6,127.5 403.7,127.5 403.7,130.5 398.2,130.5 398.2,133.1 402.6,133.1 402.6,136.2 398.2,136.2 398.2,138.9 
				404,138.9 404,142 394.6,142 			"/>
			<polygon points="406.6,127.5 410.1,127.5 410.1,138.9 416.1,138.9 416.1,142 406.6,142 			"/>
			<polygon points="418,127.5 421.6,127.5 421.6,138.9 427.5,138.9 427.5,142 418,142 			"/>
			<polygon points="429.5,127.5 438.6,127.5 438.6,130.5 433,130.5 433,133.1 437.5,133.1 437.5,136.2 433,136.2 433,138.9 
				438.9,138.9 438.9,142 429.5,142 			"/>
			<path d="M441.4,127.5h3.6l4,6.8c0.6,1,1.2,2.5,1.2,2.5l0,0c0,0-0.2-1.6-0.2-2.5v-6.8h3.6V142h-3.5l-4-6.8c-0.6-1-1.2-2.5-1.2-2.5
				l0,0c0,0,0.2,1.6,0.2,2.5v6.8h-3.6L441.4,127.5L441.4,127.5z"/>
			<path d="M463.8,127.2c3.6,0,5.5,2.1,5.5,2.1l-1.6,2.7c0,0-1.6-1.5-3.6-1.5c-2.8,0-4.1,2.1-4.1,4.1c0,2.2,1.4,4.4,4.1,4.4
				c2.2,0,3.9-1.8,3.9-1.8l1.8,2.6c0,0-2.1,2.4-5.9,2.4c-4.6,0-7.6-3.2-7.6-7.5C456.1,130.5,459.4,127.2,463.8,127.2"/>
			<polygon points="471.8,127.5 480.9,127.5 480.9,130.5 475.3,130.5 475.3,133.1 479.8,133.1 479.8,136.2 475.3,136.2 475.3,138.9 
				481.2,138.9 481.2,142 471.8,142 			"/>
		</g>
		<g>
			<path d="M493.4,130.8c0,0-0.3,1.6-0.6,2.5l-0.8,2.8h2.9l-0.8-2.8C493.8,132.3,493.4,130.8,493.4,130.8L493.4,130.8z M495.7,138.9
				h-4.6l-0.9,3h-3.7l4.9-14.5h3.7l4.9,14.5h-3.7L495.7,138.9z"/>
			<path d="M500.6,127.5h3.7l1.8,9.1c0.2,0.9,0.2,1.5,0.2,1.5l0,0c0,0,0-0.6,0.2-1.5l2.2-9.1h2.9l2.2,9.1c0.2,0.9,0.2,1.5,0.2,1.5
				l0,0c0,0,0-0.6,0.2-1.5l2-9.1h3.7l-3.7,14.5h-4l-1.8-7.3c-0.2-0.9-0.3-1.7-0.3-1.7l0,0c0,0-0.1,0.8-0.3,1.7l-1.8,7.3h-4
				L500.6,127.5z"/>
			<path d="M527.1,130.8c0,0-0.3,1.6-0.6,2.5l-0.8,2.8h2.9l-0.8-2.8C527.4,132.3,527.1,130.8,527.1,130.8L527.1,130.8z M529.3,138.9
				h-4.5l-0.9,3h-3.7l4.9-14.5h3.7l4.9,14.5H530L529.3,138.9z"/>
			<path d="M540.6,134c1.1,0,1.9-0.6,1.9-1.8c0-1.1-0.4-1.7-2.2-1.7h-1.2v3.5H540.6z M535.5,127.5h5.1c1.5,0,2.2,0.1,2.8,0.3
				c1.6,0.6,2.7,2.1,2.7,4.2c0,1.5-0.7,3.2-2.2,4l0,0c0,0,0.2,0.3,0.5,0.9l2.8,5.1h-4l-2.6-4.9h-1.7v4.9h-3.6v-14.5H535.5z"/>
			<path d="M554.5,138.9c2.5,0,4-1.5,4-4.2c0-2.8-1.6-4.2-4-4.2H553v8.4H554.5z M549.5,127.5h5.2c4.6,0,7.5,2.7,7.5,7.2
				c0,4.5-2.9,7.3-7.5,7.3h-5.2V127.5z"/>
			<path d="M565.3,137.5c0,0,1.6,1.5,3.5,1.5c0.7,0,1.5-0.3,1.5-1.2c0-1.7-6.5-1.7-6.5-6.1c0-2.7,2.3-4.5,5.1-4.5
				c3.1,0,4.7,1.6,4.7,1.6l-1.5,2.9c0,0-1.5-1.3-3.2-1.3c-0.7,0-1.5,0.3-1.5,1.1c0,1.8,6.6,1.5,6.6,6.1c0,2.4-1.9,4.5-5.1,4.5
				c-3.4,0-5.3-2.1-5.3-2.1L565.3,137.5z"/>
		</g>
	</g>
	<g id="annual-rea">
		<g>
			<path d="M359.4,111.2c0,0-0.3,1.6-0.6,2.5l-0.8,2.8h2.9l-0.8-2.8C359.7,112.8,359.4,111.2,359.4,111.2L359.4,111.2z M361.7,119.4
				h-4.5l-0.9,3h-3.7l4.9-14.5h3.7l4.9,14.5h-3.7L361.7,119.4z"/>
			<path d="M367.8,107.9h3.6l4,6.8c0.6,1,1.2,2.5,1.2,2.5l0,0c0,0-0.2-1.6-0.2-2.5v-6.8h3.6v14.5h-3.6l-4-6.8
				c-0.6-1-1.2-2.5-1.2-2.5l0,0c0,0,0.2,1.6,0.2,2.5v6.8h-3.6V107.9z"/>
			<path d="M383.4,107.9h3.6l4,6.8c0.6,1,1.2,2.5,1.2,2.5l0,0c0,0-0.2-1.6-0.2-2.5v-6.8h3.6v14.5h-3.5l-4-6.8
				c-0.6-1-1.2-2.5-1.2-2.5l0,0c0,0,0.2,1.6,0.2,2.5v6.8h-3.6L383.4,107.9L383.4,107.9z"/>
			<path d="M398.9,107.9h3.6v9.2c0,1.5,1,2.3,2.5,2.3s2.5-0.8,2.5-2.3v-9.2h3.6v9.2c0,3.3-2.4,5.6-6.1,5.6s-6.1-2.3-6.1-5.6V107.9z"
				/>
			<path d="M419.3,111.2c0,0-0.3,1.6-0.6,2.5l-0.8,2.8h2.9l-0.8-2.8C419.7,112.8,419.4,111.2,419.3,111.2L419.3,111.2z M421.6,119.4
				h-4.5l-0.9,3h-3.7l4.9-14.5h3.7l4.9,14.5h-3.7L421.6,119.4z"/>
			<polygon points="427.8,107.9 431.3,107.9 431.3,119.4 437.3,119.4 437.3,122.4 427.8,122.4 			"/>
		</g>
		<g>
			<path d="M449,114.5c1.1,0,1.9-0.6,1.9-1.8c0-1.1-0.4-1.7-2.2-1.7h-1.2v3.5H449z M443.9,107.9h5.1c1.5,0,2.2,0.1,2.8,0.3
				c1.6,0.6,2.7,2.1,2.7,4.2c0,1.5-0.7,3.2-2.2,4l0,0c0,0,0.2,0.3,0.5,0.9l2.8,5.1h-4l-2.6-4.9h-1.7v4.9h-3.6v-14.5H443.9z"/>
			<polygon points="457.8,107.9 466.9,107.9 466.9,110.9 461.4,110.9 461.4,113.6 465.8,113.6 465.8,116.6 461.4,116.6 461.4,119.4 
				467.2,119.4 467.2,122.4 457.8,122.4 			"/>
			<path d="M474.8,111.2c0,0-0.3,1.6-0.6,2.5l-0.8,2.8h2.9l-0.8-2.8C475.2,112.8,474.8,111.2,474.8,111.2L474.8,111.2z M477.1,119.4
				h-4.5l-0.9,3H468l4.9-14.5h3.7l4.9,14.5h-3.7L477.1,119.4z"/>
		</g>
	</g>
</g>
</svg>
