<?xml version="1.0" encoding="utf-8"?>
<!-- Generator: Adobe Illustrator 19.1.0, SVG Export Plug-In . SVG Version: 6.00 Build 0)  -->
<svg version="1.1" id="Layer_1" xmlns="http://www.w3.org/2000/svg" xmlns:xlink="http://www.w3.org/1999/xlink" x="0px" y="0px"
	 viewBox="1500 -200 3100 500" style="enable-background:new 1500 -200 3100 500;" xml:space="preserve">
<g id="baseline">
	<line x1="1503" y1="159.8" x2="4597" y2="159.8"/>
	<line x1="1691.5" y1="159.2" x2="1691.5" y2="239.7"/>
	<circle cx="1691.5" cy="252.2" r="12.5"/>
</g>
<g id="building-1">
	<path d="M1746,159.2v-197l45,17.3l36,179.7"/>
	<path d="M1696.4-92.9v-21.4h18.2v21.4"/>
	<path d="M1691.7,159.2V-92.9h54.3v55.1"/>
	<path d="M1650.8-49.1v-12.6h18.3v12.6"/>
	<path d="M1646.5,159.8V-49.1h27v28.3h18.2"/>
	<path d="M1619.7,6.7v-9.8h26.8"/>
	<path d="M1610.3,98.8V6.7h36.2"/>
	<path d="M1548,159.2l31.3-197h9.1l31.3,197"/>
	<g>
		<line x1="1701.1" y1="63.2" x2="1701.1" y2="54.3"/>
		<line x1="1709.9" y1="63.2" x2="1709.9" y2="54.3"/>
		<line x1="1718.8" y1="63.2" x2="1718.8" y2="54.3"/>
		<line x1="1701.1" y1="78.4" x2="1701.1" y2="69.5"/>
		<line x1="1709.9" y1="78.4" x2="1709.9" y2="69.5"/>
		<line x1="1718.8" y1="78.4" x2="1718.8" y2="69.5"/>
		<line x1="1701.1" y1="92.5" x2="1701.1" y2="83.6"/>
		<line x1="1709.9" y1="92.5" x2="1709.9" y2="83.6"/>
		<line x1="1718.8" y1="92.5" x2="1718.8" y2="83.6"/>
		<line x1="1701.1" y1="107.7" x2="1701.1" y2="98.8"/>
		<line x1="1709.9" y1="107.7" x2="1709.9" y2="98.8"/>
		<line x1="1718.8" y1="107.7" x2="1718.8" y2="98.8"/>
		<line x1="1701.1" y1="122.4" x2="1701.1" y2="113.5"/>
		<line x1="1709.9" y1="122.4" x2="1709.9" y2="113.5"/>
		<line x1="1718.8" y1="122.4" x2="1718.8" y2="113.5"/>
		<line x1="1701.1" y1="136.8" x2="1701.1" y2="127.9"/>
		<line x1="1709.9" y1="136.8" x2="1709.9" y2="127.9"/>
		<line x1="1718.8" y1="136.8" x2="1718.8" y2="127.9"/>
		<line x1="1701.1" y1="151.5" x2="1701.1" y2="142.6"/>
		<line x1="1709.9" y1="151.5" x2="1709.9" y2="142.6"/>
		<line x1="1718.8" y1="151.5" x2="1718.8" y2="142.6"/>
		<line x1="1701.1" y1="-40.8" x2="1701.1" y2="-49.7"/>
		<line x1="1709.9" y1="-40.8" x2="1709.9" y2="-49.7"/>
		<line x1="1718.8" y1="-40.8" x2="1718.8" y2="-49.7"/>
		<line x1="1701.1" y1="-25.6" x2="1701.1" y2="-34.4"/>
		<line x1="1709.9" y1="-25.6" x2="1709.9" y2="-34.4"/>
		<line x1="1718.8" y1="-25.6" x2="1718.8" y2="-34.4"/>
		<line x1="1701.1" y1="-71.3" x2="1701.1" y2="-80.2"/>
		<line x1="1709.9" y1="-71.3" x2="1709.9" y2="-80.2"/>
		<line x1="1718.8" y1="-71.3" x2="1718.8" y2="-80.2"/>
		<line x1="1701.1" y1="-56.1" x2="1701.1" y2="-65"/>
		<line x1="1709.9" y1="-56.1" x2="1709.9" y2="-65"/>
		<line x1="1718.8" y1="-56.1" x2="1718.8" y2="-65"/>
		<line x1="1701.1" y1="-11.5" x2="1701.1" y2="-20.4"/>
		<line x1="1709.9" y1="-11.5" x2="1709.9" y2="-20.4"/>
		<line x1="1718.8" y1="-11.5" x2="1718.8" y2="-20.4"/>
		<line x1="1701.1" y1="3.7" x2="1701.1" y2="-5.1"/>
		<line x1="1709.9" y1="3.7" x2="1709.9" y2="-5.1"/>
		<line x1="1718.8" y1="3.7" x2="1718.8" y2="-5.1"/>
		<line x1="1701.1" y1="18.4" x2="1701.1" y2="9.5"/>
		<line x1="1709.9" y1="18.4" x2="1709.9" y2="9.5"/>
		<line x1="1718.8" y1="18.4" x2="1718.8" y2="9.5"/>
		<line x1="1701.1" y1="32.8" x2="1701.1" y2="24"/>
		<line x1="1709.9" y1="32.8" x2="1709.9" y2="24"/>
		<line x1="1718.8" y1="32.8" x2="1718.8" y2="24"/>
		<line x1="1701.1" y1="47.5" x2="1701.1" y2="38.6"/>
		<line x1="1709.9" y1="47.5" x2="1709.9" y2="38.6"/>
		<line x1="1718.8" y1="47.5" x2="1718.8" y2="38.6"/>
		<line x1="1754.4" y1="60.4" x2="1799" y2="60.4"/>
		<line x1="1754.4" y1="67.4" x2="1800.1" y2="67.4"/>
		<line x1="1754.5" y1="53.3" x2="1797.7" y2="53.3"/>
		<line x1="1754.4" y1="46.3" x2="1796.5" y2="46.3"/>
		<line x1="1754.4" y1="39.2" x2="1794.1" y2="39.2"/>
		<line x1="1754.3" y1="74.5" x2="1801.3" y2="74.5"/>
		<line x1="1754.3" y1="81.5" x2="1802.5" y2="81.5"/>
		<line x1="1754.4" y1="18.1" x2="1789.5" y2="18.1"/>
		<line x1="1754.4" y1="-3.1" x2="1785.8" y2="-3.1"/>
		<line x1="1754.5" y1="11" x2="1788.2" y2="11"/>
		<line x1="1754.4" y1="3.9" x2="1787" y2="3.9"/>
		<line x1="1754.4" y1="-10.2" x2="1784.6" y2="-10.2"/>
		<line x1="1754.3" y1="25.1" x2="1791.8" y2="25.1"/>
		<line x1="1754.3" y1="32.2" x2="1793" y2="32.2"/>
		<line x1="1754.5" y1="152.1" x2="1816.9" y2="152.1"/>
		<line x1="1754.4" y1="145" x2="1815.5" y2="145"/>
		<line x1="1754.4" y1="138" x2="1814.1" y2="138"/>
		<line x1="1754.4" y1="116.8" x2="1809.9" y2="116.8"/>
		<line x1="1754.4" y1="95.6" x2="1805.7" y2="95.6"/>
		<line x1="1754.5" y1="109.8" x2="1808.4" y2="109.8"/>
		<line x1="1754.4" y1="102.7" x2="1807.1" y2="102.7"/>
		<line x1="1754.4" y1="88.6" x2="1804.3" y2="88.6"/>
		<line x1="1754.3" y1="123.9" x2="1811.3" y2="123.9"/>
		<line x1="1754.3" y1="130.9" x2="1812.6" y2="130.9"/>
		<line x1="1656.2" y1="60.4" x2="1665" y2="60.4"/>
		<line x1="1656.2" y1="67.4" x2="1665" y2="67.4"/>
		<line x1="1656.2" y1="53.3" x2="1665" y2="53.3"/>
		<line x1="1656.2" y1="46.3" x2="1665" y2="46.3"/>
		<line x1="1656.2" y1="39.2" x2="1665" y2="39.2"/>
		<line x1="1656.2" y1="74.5" x2="1665" y2="74.5"/>
		<line x1="1656.2" y1="81.5" x2="1665" y2="81.5"/>
		<line x1="1656.2" y1="18.3" x2="1665" y2="18.3"/>
		<line x1="1656.2" y1="-3.1" x2="1665" y2="-3.1"/>
		<line x1="1656.2" y1="11.2" x2="1665" y2="11.2"/>
		<line x1="1656.2" y1="4.2" x2="1665" y2="4.2"/>
		<line x1="1656.2" y1="-10.2" x2="1664.8" y2="-10.2"/>
		<line x1="1656.2" y1="25.3" x2="1665" y2="25.3"/>
		<line x1="1656.2" y1="32.2" x2="1665" y2="32.2"/>
		<line x1="1656.2" y1="152.1" x2="1664.8" y2="152.1"/>
		<line x1="1656.2" y1="145" x2="1664.8" y2="145"/>
		<line x1="1656.2" y1="138" x2="1665" y2="138"/>
		<line x1="1656.2" y1="116.8" x2="1665" y2="116.8"/>
		<line x1="1656.2" y1="95.6" x2="1665" y2="95.6"/>
		<line x1="1656.2" y1="109.8" x2="1665" y2="109.8"/>
		<line x1="1656.2" y1="102.7" x2="1665" y2="102.7"/>
		<line x1="1656.2" y1="88.6" x2="1665" y2="88.6"/>
		<line x1="1656.2" y1="123.9" x2="1665" y2="123.9"/>
		<line x1="1656.2" y1="130.9" x2="1665" y2="130.9"/>
		<line x1="1571" y1="60.4" x2="1597.3" y2="60.4"/>
		<line x1="1569.8" y1="67.4" x2="1598.4" y2="67.4"/>
		<line x1="1572.1" y1="53.3" x2="1596.2" y2="53.3"/>
		<line x1="1573.2" y1="46.3" x2="1595.1" y2="46.3"/>
		<line x1="1574.3" y1="39.2" x2="1594" y2="39.2"/>
		<line x1="1568.7" y1="74.5" x2="1599.5" y2="74.5"/>
		<line x1="1567.7" y1="81.5" x2="1600.6" y2="81.5"/>
		<line x1="1577.6" y1="18.3" x2="1590.7" y2="18.3"/>
		<line x1="1581.1" y1="-3.1" x2="1587.3" y2="-3.1"/>
		<line x1="1578.7" y1="11.2" x2="1589.6" y2="11.2"/>
		<line x1="1579.8" y1="4.2" x2="1588.5" y2="4.2"/>
		<line x1="1582.1" y1="-10.2" x2="1586.2" y2="-10.2"/>
		<line x1="1576.5" y1="25.3" x2="1591.8" y2="25.3"/>
		<line x1="1575.4" y1="32.2" x2="1592.9" y2="32.2"/>
		<line x1="1556.5" y1="152.1" x2="1611.7" y2="152.1"/>
		<line x1="1557.7" y1="145" x2="1610.6" y2="145"/>
		<line x1="1558.7" y1="138" x2="1609.5" y2="138"/>
		<line x1="1562.1" y1="116.8" x2="1606.2" y2="116.8"/>
		<line x1="1565.4" y1="95.6" x2="1602.8" y2="95.6"/>
		<line x1="1563.2" y1="109.8" x2="1605" y2="109.8"/>
		<line x1="1564.3" y1="102.7" x2="1603.9" y2="102.7"/>
		<line x1="1566.5" y1="88.6" x2="1601.7" y2="88.6"/>
		<line x1="1561" y1="123.9" x2="1607.2" y2="123.9"/>
		<line x1="1559.9" y1="130.9" x2="1608.4" y2="130.9"/>
		<line x1="1674" y1="60.4" x2="1682.7" y2="60.4"/>
		<line x1="1674" y1="67.4" x2="1682.7" y2="67.4"/>
		<line x1="1674" y1="53.3" x2="1682.7" y2="53.3"/>
		<line x1="1674" y1="46.3" x2="1682.7" y2="46.3"/>
		<line x1="1674" y1="39.2" x2="1682.7" y2="39.2"/>
		<line x1="1674" y1="74.5" x2="1682.7" y2="74.5"/>
		<line x1="1674" y1="81.5" x2="1682.7" y2="81.5"/>
		<line x1="1674" y1="18.3" x2="1682.7" y2="18.3"/>
		<line x1="1674" y1="-3.1" x2="1682.7" y2="-3.1"/>
		<line x1="1674" y1="11.2" x2="1682.7" y2="11.2"/>
		<line x1="1674" y1="4.2" x2="1682.7" y2="4.2"/>
		<line x1="1674" y1="-10.2" x2="1682.6" y2="-10.2"/>
		<line x1="1674" y1="25.3" x2="1682.7" y2="25.3"/>
		<line x1="1674" y1="32.2" x2="1682.7" y2="32.2"/>
		<line x1="1674" y1="152.1" x2="1682.6" y2="152.1"/>
		<line x1="1674" y1="145" x2="1682.5" y2="145"/>
		<line x1="1674" y1="138" x2="1682.7" y2="138"/>
		<line x1="1674" y1="116.8" x2="1682.7" y2="116.8"/>
		<line x1="1674" y1="95.6" x2="1682.7" y2="95.6"/>
		<line x1="1674" y1="109.8" x2="1682.7" y2="109.8"/>
		<line x1="1674" y1="102.7" x2="1682.7" y2="102.7"/>
		<line x1="1674" y1="88.6" x2="1682.7" y2="88.6"/>
		<line x1="1674" y1="123.9" x2="1682.7" y2="123.9"/>
		<line x1="1674" y1="130.9" x2="1682.7" y2="130.9"/>
		<line x1="1701" y1="-114.4" x2="1701" y2="-132.6"/>
		<line x1="1709.8" y1="-114.4" x2="1709.8" y2="-127.6"/>
		<line x1="1660" y1="-62.7" x2="1660" y2="-74.7"/>
		<line x1="1637.3" y1="14.6" x2="1637.3" y2="152.1"/>
		<line x1="1628.4" y1="14.6" x2="1628.4" y2="152.1"/>
		<line x1="1619.7" y1="14.6" x2="1619.7" y2="151.5"/>
	</g>
	<line x1="1650.8" y1="-56.1" x2="1669.1" y2="-56.1"/>
	<line x1="1691.5" y1="159.2" x2="1691.5" y2="239.7"/>
	<circle cx="1691.5" cy="252.2" r="12.5"/>
</g>
<g id="building-8">
	<line x1="4525.7" y1="159.2" x2="4525.7" y2="145.1"/>
	<circle cx="4525.7" cy="136.4" r="8.6"/>
	<polyline points="4517.3,138.5 4522.2,134.4 4525.7,137.8 4529.7,134.4 4533.9,138.9 	"/>
	<line x1="4542.6" y1="159.2" x2="4542.6" y2="145.1"/>
	<circle cx="4542.6" cy="136.4" r="8.6"/>
	<polyline points="4534.2,138.5 4539.1,134.4 4542.6,137.8 4546.6,134.4 4550.8,138.9 	"/>
	<line x1="4380.4" y1="159.2" x2="4380.4" y2="145.1"/>
	<polyline points="4372.2,128.5 4377,124.1 4380.5,127.5 4384.5,124.1 4388.7,128.6 	"/>
	<path d="M4388.6,128.6c1-1.6,1.6-3.4,1.6-5.4c0-5.4-4.4-9.8-9.8-9.8s-9.8,4.4-9.8,9.8c0,2,0.6,3.9,1.6,5.4
		c-3,1.3-5.1,4.4-5.1,7.9c0,4.8,3.9,8.6,8.6,8.6c1.7,0,3.4-0.5,4.7-1.4c1.4,0.9,3,1.4,4.7,1.4c4.8,0,8.6-3.9,8.6-8.6
		C4393.7,132.9,4391.6,129.9,4388.6,128.6z"/>
	<line x1="4276.9" y1="96.5" x2="4321.8" y2="96.5"/>
	<polygon points="4367.1,159.8 4299.9,159.8 4299.9,42.3 4325,78.8 4349,78.8 4366.7,105 	"/>
	<polygon points="4510.9,159.8 4456.1,159.8 4456.1,60.5 4465.9,60.5 4474.4,77.8 4474.4,90.7 4483.7,90.7 4483.7,96.5 
		4502,96.5 4510.9,114.3 	"/>
	<polyline points="4267.7,159.2 4267.7,87.4 4331,87.4 4331,159.8 	"/>
	<polyline points="4267.7,87.4 4299.4,42.3 4331,87.4 	"/>
	<polyline points="4366.7,159.2 4366.7,105 4331,105 4267.7,105 	"/>
	<polyline points="4366.7,105 4349,78.8 4325,78.8 	"/>
	<line x1="4286" y1="146.8" x2="4294.9" y2="146.8"/>
	<line x1="4286" y1="128.5" x2="4294.9" y2="128.5"/>
	<line x1="4286" y1="121.9" x2="4294.9" y2="121.9"/>
	<line x1="4286.1" y1="140.5" x2="4295" y2="140.5"/>
	<line x1="4286" y1="134.5" x2="4294.9" y2="134.5"/>
	<line x1="4492.8" y1="146.8" x2="4501.7" y2="146.8"/>
	<line x1="4492.8" y1="128.5" x2="4501.7" y2="128.5"/>
	<line x1="4492.8" y1="121.9" x2="4501.7" y2="121.9"/>
	<line x1="4492.9" y1="140.5" x2="4501.8" y2="140.5"/>
	<line x1="4492.8" y1="134.5" x2="4501.7" y2="134.5"/>
	<line x1="4304" y1="146.8" x2="4312.9" y2="146.8"/>
	<line x1="4304" y1="128.5" x2="4312.9" y2="128.5"/>
	<line x1="4304" y1="121.9" x2="4312.9" y2="121.9"/>
	<line x1="4286" y1="115" x2="4294.9" y2="115"/>
	<line x1="4339.7" y1="146.8" x2="4357.5" y2="146.8"/>
	<line x1="4339.7" y1="128.5" x2="4357.5" y2="128.5"/>
	<line x1="4339.7" y1="121.9" x2="4357.5" y2="121.9"/>
	<line x1="4339.9" y1="140.5" x2="4357.7" y2="140.5"/>
	<line x1="4339.7" y1="134.5" x2="4357.5" y2="134.5"/>
	<line x1="4339.7" y1="115" x2="4357.5" y2="115"/>
	<line x1="4304" y1="115" x2="4312.9" y2="115"/>
	<line x1="4304.1" y1="140.5" x2="4313" y2="140.5"/>
	<line x1="4304" y1="134.5" x2="4312.9" y2="134.5"/>
	<polygon points="4411.7,104.7 4411.7,159.4 4429.6,159.4 4429.6,122.8 	"/>
	<line x1="4403" y1="146.8" x2="4420.3" y2="146.8"/>
	<line x1="4403" y1="140.8" x2="4420.3" y2="140.8"/>
	<line x1="4448" y1="146.8" x2="4465.3" y2="146.8"/>
	<line x1="4448" y1="140.8" x2="4465.3" y2="140.8"/>
	<line x1="4448" y1="135" x2="4465.3" y2="135"/>
	<line x1="4448" y1="128.9" x2="4465.3" y2="128.9"/>
	<line x1="4448" y1="122.2" x2="4465.3" y2="122.2"/>
	<line x1="4448" y1="116.2" x2="4465.3" y2="116.2"/>
	<line x1="4448" y1="85.1" x2="4465.3" y2="85.1"/>
	<polyline points="4393.7,139.5 4393.7,159.4 4393.7,122.8 4429.6,122.8 4429.6,159 	"/>
	<polyline points="4393.7,122.8 4411.7,104.7 4429.6,122.8 4429.6,105.5 4438.7,105.5 4483.7,105.5 4483.7,159.2 	"/>
	<line x1="4393.7" y1="132.2" x2="4429.6" y2="132.2"/>
	<line x1="4398.9" y1="117.6" x2="4398.9" y2="109.3"/>
	<polyline points="4438.7,159.2 4438.7,105.5 4438.7,77.8 4474.4,77.8 4474.4,105.5 4474.4,159.8 	"/>
	<polyline points="4483.7,114.3 4510.9,114.3 4510.9,159.8 	"/>
	<polyline points="4510.9,114.3 4502,96.5 4483.7,96.5 	"/>
	<polyline points="4483.7,105.5 4483.7,90.7 4429.6,90.7 4429.6,105.4 	"/>
	<polyline points="4438.7,77.8 4448,60.5 4465.9,60.5 4474.4,77.8 	"/>
	<line x1="4432.7" y1="91.9" x2="4432.7" y2="104.2"/>
	<line x1="4435.6" y1="91.9" x2="4435.6" y2="104.2"/>
	<line x1="4438.6" y1="91.9" x2="4438.6" y2="104.2"/>
	<line x1="4441.6" y1="91.9" x2="4441.6" y2="104.2"/>
	<line x1="4444.5" y1="91.9" x2="4444.5" y2="104.2"/>
	<line x1="4447.5" y1="91.9" x2="4447.5" y2="104.2"/>
	<line x1="4450.4" y1="91.9" x2="4450.4" y2="104.2"/>
	<line x1="4453.4" y1="91.9" x2="4453.4" y2="104.2"/>
	<line x1="4456.4" y1="91.9" x2="4456.4" y2="104.2"/>
	<line x1="4459.3" y1="91.9" x2="4459.3" y2="104.2"/>
	<line x1="4462.3" y1="91.9" x2="4462.3" y2="104.2"/>
	<line x1="4465.2" y1="91.9" x2="4465.2" y2="104.2"/>
	<line x1="4468.2" y1="91.9" x2="4468.2" y2="104.2"/>
	<line x1="4471.1" y1="91.9" x2="4471.1" y2="104.2"/>
	<line x1="4477.5" y1="91.9" x2="4477.5" y2="104.2"/>
	<line x1="4480.5" y1="91.9" x2="4480.5" y2="104.2"/>
	<line x1="4393.7" y1="159.2" x2="4393.7" y2="239.7"/>
	<circle cx="4393.7" cy="252.2" r="12.5"/>
</g>
<g id="building-7">
	<rect x="3948" y="113.9" width="13.8" height="45.9"/>
	<polygon points="4015.5,159.8 3984.1,159.8 3984.1,42 3989,42 3989,33.2 4015.5,33.2 	"/>
	<polygon points="3935,33.1 3894.5,33.3 3894.5,159.8 3934.2,159.8 3934.2,123.5 3934.4,51.2 3943.7,51.2 3943.7,42.8 
		3934.4,42 	"/>
	<line x1="4165" y1="159.2" x2="4165" y2="145.1"/>
	<circle cx="4165" cy="136.4" r="8.6"/>
	<polyline points="4156.7,138.5 4161.6,134.4 4165,137.8 4169,134.4 4173.3,138.9 	"/>
	<line x1="3840.2" y1="159.2" x2="3840.2" y2="145.1"/>
	<circle cx="3840.2" cy="136.4" r="8.6"/>
	<polyline points="3831.8,138.5 3836.7,134.4 3840.2,137.8 3844.2,134.4 3848.5,138.9 	"/>
	<polyline points="3853,158.5 3853,51.2 3934.4,51.2 3934.4,158.8 	"/>
	<path d="M3853,60.2h81.4c0,0,27.6,8.5,45.1-9"/>
	<polyline points="3853,123.2 3934.4,123.2 3934.4,113.9 3853,113.9 	"/>
	<line x1="3862.6" y1="137.8" x2="3871.4" y2="137.8"/>
	<line x1="3880.7" y1="137.8" x2="3889.6" y2="137.8"/>
	<line x1="3862.6" y1="143.8" x2="3889.6" y2="143.8"/>
	<line x1="3899.2" y1="137.8" x2="3908.1" y2="137.8"/>
	<line x1="3917.4" y1="137.8" x2="3926.3" y2="137.8"/>
	<line x1="3899.3" y1="143.8" x2="3926.3" y2="143.8"/>
	<line x1="3862.6" y1="93.1" x2="3871.4" y2="93.1"/>
	<line x1="3862.6" y1="105.2" x2="3871.5" y2="105.2"/>
	<line x1="3880.7" y1="93.1" x2="3889.6" y2="93.1"/>
	<line x1="3880.8" y1="105.2" x2="3889.7" y2="105.2"/>
	<line x1="3862.6" y1="99.2" x2="3889.6" y2="99.2"/>
	<line x1="3988.8" y1="71.6" x2="4007" y2="71.6"/>
	<line x1="3988.8" y1="64.4" x2="4007" y2="64.4"/>
	<line x1="3988.8" y1="56.9" x2="4007" y2="56.9"/>
	<line x1="3988.8" y1="49.5" x2="4007" y2="49.5"/>
	<line x1="3899.2" y1="93.1" x2="3908.1" y2="93.1"/>
	<line x1="3899.3" y1="105.2" x2="3908.2" y2="105.2"/>
	<line x1="3917.4" y1="93.1" x2="3926.3" y2="93.1"/>
	<line x1="3917.5" y1="105.2" x2="3926.4" y2="105.2"/>
	<line x1="3899.3" y1="99.2" x2="3926.3" y2="99.2"/>
	<line x1="3862.6" y1="70.6" x2="3871.4" y2="70.6"/>
	<line x1="3862.6" y1="82.7" x2="3871.5" y2="82.7"/>
	<line x1="3880.7" y1="70.6" x2="3889.6" y2="70.6"/>
	<line x1="3880.8" y1="82.7" x2="3889.7" y2="82.7"/>
	<line x1="3862.6" y1="76.7" x2="3889.6" y2="76.7"/>
	<line x1="3899.2" y1="70.6" x2="3908.1" y2="70.6"/>
	<line x1="3899.3" y1="82.7" x2="3908.2" y2="82.7"/>
	<line x1="3917.4" y1="70.6" x2="3926.3" y2="70.6"/>
	<line x1="3917.5" y1="82.7" x2="3926.4" y2="82.7"/>
	<line x1="3899.3" y1="76.7" x2="3926.3" y2="76.7"/>
	<line x1="3862.6" y1="55.9" x2="3926.4" y2="55.9"/>
	<line x1="3862.6" y1="118.6" x2="3926.4" y2="118.6"/>
	<line x1="3966" y1="83.1" x2="4011" y2="83.1"/>
	<polyline points="3853,51.2 3844.7,51.2 3844.7,42.3 3943.7,42.3 3943.7,51.2 3933,51.2 	"/>
	<polyline points="3853,42 3853,33.2 3934.4,33.2 3934.4,42 	"/>
	<polyline points="3862.6,33.2 3862.6,15.2 3880.8,15.2 3880.8,33.2 	"/>
	<path d="M3934.3,96.1c0,0,16.2,3.4,27.5-8.6"/>
	<polyline points="3961.8,159.2 3961.8,78.8 3979.5,78.8 3979.5,42.3 3989,42.3 3989,33.2 4015.5,33.2 4015.5,159.8 	
		"/>
	<line x1="3961.8" y1="113.9" x2="3934.4" y2="113.9"/>
	<line x1="3943.7" y1="142.7" x2="3952.5" y2="142.7"/>
	<line x1="3943.7" y1="121.5" x2="3952.5" y2="121.5"/>
	<line x1="3943.7" y1="128.5" x2="3952.5" y2="128.5"/>
	<line x1="3943.7" y1="135.6" x2="3952.5" y2="135.6"/>
	<line x1="3970.7" y1="142.7" x2="3979.5" y2="142.7"/>
	<line x1="3970.7" y1="121.5" x2="3979.5" y2="121.5"/>
	<line x1="3970.7" y1="128.5" x2="3979.5" y2="128.5"/>
	<line x1="3970.7" y1="135.6" x2="3979.5" y2="135.6"/>
	<line x1="3970.7" y1="100.9" x2="3979.5" y2="100.9"/>
	<line x1="3970.7" y1="108" x2="3979.5" y2="108"/>
	<line x1="3970.7" y1="115" x2="3979.5" y2="115"/>
	<line x1="4030.1" y1="142.7" x2="4038.9" y2="142.7"/>
	<line x1="4030.1" y1="121.5" x2="4038.9" y2="121.5"/>
	<line x1="4030.1" y1="128.5" x2="4038.9" y2="128.5"/>
	<line x1="4030.1" y1="135.6" x2="4038.9" y2="135.6"/>
	<line x1="4030.1" y1="115" x2="4038.9" y2="115"/>
	<line x1="4048.1" y1="142.7" x2="4056.9" y2="142.7"/>
	<line x1="4048.1" y1="121.5" x2="4056.9" y2="121.5"/>
	<line x1="4048.1" y1="128.5" x2="4056.9" y2="128.5"/>
	<line x1="4048.1" y1="135.6" x2="4056.9" y2="135.6"/>
	<line x1="4048.1" y1="115" x2="4056.9" y2="115"/>
	<line x1="4066.1" y1="142.7" x2="4074.9" y2="142.7"/>
	<line x1="4066.1" y1="121.5" x2="4074.9" y2="121.5"/>
	<line x1="4066.1" y1="128.5" x2="4074.9" y2="128.5"/>
	<line x1="4066.1" y1="135.6" x2="4074.9" y2="135.6"/>
	<line x1="4066.1" y1="115" x2="4074.9" y2="115"/>
	<line x1="4084" y1="142.7" x2="4092.8" y2="142.7"/>
	<line x1="4084" y1="121.5" x2="4092.8" y2="121.5"/>
	<line x1="4084" y1="128.5" x2="4092.8" y2="128.5"/>
	<line x1="4084" y1="135.6" x2="4092.8" y2="135.6"/>
	<line x1="4084" y1="115" x2="4092.8" y2="115"/>
	<line x1="4102.2" y1="142.7" x2="4111" y2="142.7"/>
	<line x1="4102.2" y1="121.5" x2="4111" y2="121.5"/>
	<line x1="4102.2" y1="128.5" x2="4111" y2="128.5"/>
	<line x1="4102.2" y1="135.6" x2="4111" y2="135.6"/>
	<line x1="4102.2" y1="115" x2="4111" y2="115"/>
	<line x1="4128.9" y1="142.7" x2="4137.7" y2="142.7"/>
	<line x1="4128.9" y1="121.5" x2="4137.7" y2="121.5"/>
	<line x1="4128.9" y1="128.5" x2="4137.7" y2="128.5"/>
	<line x1="4128.9" y1="135.6" x2="4137.7" y2="135.6"/>
	<line x1="4128.9" y1="115" x2="4137.7" y2="115"/>
	<line x1="4128.9" y1="78" x2="4137.7" y2="78"/>
	<line x1="4128.9" y1="85.1" x2="4137.7" y2="85.1"/>
	<line x1="4128.9" y1="71.6" x2="4137.7" y2="71.6"/>
	<line x1="3988.9" y1="100.9" x2="3997.7" y2="100.9"/>
	<line x1="3988.9" y1="108" x2="3997.7" y2="108"/>
	<line x1="3988.9" y1="115" x2="3997.7" y2="115"/>
	<line x1="3989" y1="142.7" x2="3997.8" y2="142.7"/>
	<line x1="3989" y1="121.5" x2="3997.8" y2="121.5"/>
	<line x1="3989" y1="128.5" x2="3997.8" y2="128.5"/>
	<line x1="3989" y1="135.6" x2="3997.8" y2="135.6"/>
	<path d="M3948,113.9"/>
	<polyline points="3961.8,78.8 4015.5,78.8 4015.5,87.4 3961.8,87.4 	"/>
	<line x1="3989" y1="42.3" x2="4015.5" y2="42.3"/>
	<polyline points="4015.5,51.2 4146.7,51.2 4146.7,159.8 	"/>
	<line x1="4015.5" y1="60.2" x2="4146.7" y2="60.2"/>
	<polyline points="4015.5,96.5 4146.7,96.5 4146.7,105.5 4015.5,105.5 	"/>
	<polyline points="4069.2,51.2 4069.2,33.4 4042.5,33.4 4042.5,51.2 	"/>
	<polyline points="4042.5,42.3 4015.5,42.3 4015.5,51.2 	"/>
	<line x1="4120" y1="159.8" x2="4120" y2="105.5"/>
	<line x1="4120" y1="96.5" x2="4120" y2="60.2"/>
	<rect x="4079.5" y="51.2" width="67.2" height="108.6"/>
	<line x1="4029.8" y1="69.2" x2="4029.8" y2="87.4"/>
	<line x1="4038.7" y1="69.2" x2="4038.7" y2="87.4"/>
	<line x1="4034.2" y1="69.2" x2="4034.2" y2="87.4"/>
	<line x1="4043.4" y1="69.2" x2="4043.4" y2="87.4"/>
	<line x1="4052.4" y1="69.2" x2="4052.4" y2="87.4"/>
	<line x1="4048" y1="69.2" x2="4048" y2="87.4"/>
	<line x1="4056.9" y1="69.2" x2="4056.9" y2="87.4"/>
	<line x1="4061.8" y1="69.2" x2="4061.8" y2="87.4"/>
	<line x1="4066.4" y1="69.2" x2="4066.4" y2="87.4"/>
	<line x1="4070.2" y1="69.2" x2="4070.2" y2="87.4"/>
	<line x1="4079.1" y1="69.2" x2="4079.1" y2="87.4"/>
	<line x1="4074.6" y1="69.2" x2="4074.6" y2="87.4"/>
	<line x1="4083.7" y1="69.2" x2="4083.7" y2="87.4"/>
	<line x1="4092.8" y1="69.2" x2="4092.8" y2="87.4"/>
	<line x1="4088.3" y1="69.2" x2="4088.3" y2="87.4"/>
	<line x1="4097.3" y1="69.2" x2="4097.3" y2="87.4"/>
	<line x1="4102.2" y1="69.2" x2="4102.2" y2="87.4"/>
	<line x1="4106.8" y1="69.2" x2="4106.8" y2="87.4"/>
	<line x1="4110.8" y1="69.2" x2="4110.8" y2="87.4"/>
	<line x1="3862.6" y1="149.8" x2="3871.5" y2="149.8"/>
	<line x1="3880.8" y1="149.8" x2="3889.7" y2="149.8"/>
	<line x1="3899.3" y1="149.8" x2="3908.2" y2="149.8"/>
	<line x1="3917.5" y1="149.8" x2="3926.4" y2="149.8"/>
	<line x1="3943.7" y1="149.7" x2="3952.3" y2="149.7"/>
	<line x1="3970.7" y1="149.7" x2="3979.3" y2="149.7"/>
	<line x1="4030.1" y1="149.7" x2="4038.7" y2="149.7"/>
	<line x1="4048.1" y1="149.7" x2="4056.7" y2="149.7"/>
	<line x1="4066.1" y1="149.7" x2="4074.7" y2="149.7"/>
	<line x1="4084" y1="149.7" x2="4092.6" y2="149.7"/>
	<line x1="4102.2" y1="149.7" x2="4110.8" y2="149.7"/>
	<line x1="4128.9" y1="149.7" x2="4137.5" y2="149.7"/>
	<line x1="3989" y1="149.7" x2="3997.6" y2="149.7"/>
	<line x1="4015.5" y1="159.2" x2="4015.5" y2="239.7"/>
	<circle cx="4015.5" cy="252.2" r="12.5"/>
</g>
<g id="building-6">
	<path d="M3680.5,151c0,0-0.8,7.8-7.7,7.7c-6.9-0.1-7.7-7.7-7.7-7.7h-7.6l4-32.7h11.3l6.4,13.8l6.3,6.7V151H3680.5z"/>
	<rect x="3518.9" y="42.6" width="36" height="8.6"/>
	<polygon points="3555,105.5 3505.1,105.5 3505.1,159.8 3554.2,159.8 3554.2,144.2 	"/>
	<polygon points="3627.9,141.7 3608.9,141.7 3608.9,159.8 3636.1,159.8 3629.8,150.7 3627,150.4 	"/>
	<line x1="3712" y1="159.2" x2="3712" y2="145.1"/>
	<polyline points="3703.8,128.5 3708.6,124.1 3712,127.5 3716,124.1 3720.3,128.6 	"/>
	<path d="M3720.2,128.6c1-1.6,1.6-3.4,1.6-5.4c0-5.4-4.4-9.8-9.8-9.8s-9.8,4.4-9.8,9.8c0,2,0.6,3.9,1.6,5.4
		c-3,1.3-5.1,4.4-5.1,7.9c0,4.8,3.9,8.6,8.6,8.6c1.7,0,3.4-0.5,4.7-1.4c1.4,0.9,3,1.4,4.7,1.4c4.8,0,8.6-3.9,8.6-8.6
		C3725.3,132.9,3723.2,129.9,3720.2,128.6z"/>
	<line x1="3733.3" y1="159.2" x2="3733.3" y2="134.4"/>
	<polyline points="3719,105.4 3727.3,97.7 3733.4,103.7 3740.4,97.7 3747.9,105.6 	"/>
	<path d="M3725.1,134.4c3,0,5.9-0.9,8.2-2.5c2.4,1.5,5.2,2.5,8.2,2.5c8.3,0,15.1-6.8,15.1-15.1c0-6.2-3.7-11.4-9-13.8
		c1.8-2.7,2.8-6,2.8-9.5c0-9.5-7.7-17.2-17.2-17.2S3716,86.5,3716,96c0,3.5,1.1,6.8,2.8,9.5c-3.4,1.5-6.2,4.3-7.7,7.8"/>
	<polygon points="3672.8,131.8 3665.9,131.8 3666.6,124.7 3670.5,124.7 	"/>
	<polyline points="3456,159.8 3456,96.2 3491.4,96.2 3491.4,105.2 3554.7,105.2 3554.7,159.8 	"/>
	<line x1="3456" y1="105.2" x2="3491.4" y2="105.2"/>
	<line x1="3456" y1="114.2" x2="3554.7" y2="114.2"/>
	<line x1="3456" y1="122.8" x2="3554.7" y2="122.8"/>
	<line x1="3456" y1="141" x2="3554.7" y2="141"/>
	<line x1="3456" y1="149.8" x2="3554.7" y2="149.8"/>
	<line x1="3474.3" y1="96.3" x2="3474.3" y2="104.8"/>
	<line x1="3465" y1="105.5" x2="3465" y2="113.9"/>
	<line x1="3482.9" y1="105.5" x2="3482.9" y2="113.9"/>
	<polyline points="3518.8,113.9 3518.8,105.5 3518.8,78.6 3545.9,104.8 	"/>
	<line x1="3518.8" y1="105.5" x2="3518.8" y2="113.9"/>
	<polyline points="3554.8,113.9 3554.8,105.5 3554.8,78.5 3527.8,104.8 	"/>
	<line x1="3545.9" y1="114.4" x2="3545.9" y2="122.8"/>
	<line x1="3474" y1="114.8" x2="3474" y2="122.4"/>
	<line x1="3491.9" y1="114.8" x2="3491.9" y2="122.4"/>
	<line x1="3509.8" y1="114.8" x2="3509.8" y2="122.4"/>
	<line x1="3527.9" y1="114.8" x2="3527.9" y2="122.4"/>
	<line x1="3536.8" y1="123.2" x2="3536.8" y2="131.3"/>
	<line x1="3464.9" y1="123.7" x2="3464.9" y2="131.3"/>
	<line x1="3482.9" y1="123.7" x2="3482.9" y2="131.3"/>
	<line x1="3500.8" y1="123.7" x2="3500.8" y2="131.3"/>
	<line x1="3518.9" y1="123.7" x2="3518.9" y2="131.3"/>
	<line x1="3536.8" y1="141.4" x2="3536.8" y2="149.5"/>
	<line x1="3464.9" y1="141.8" x2="3464.9" y2="149.4"/>
	<line x1="3482.9" y1="141.8" x2="3482.9" y2="149.4"/>
	<line x1="3500.8" y1="141.8" x2="3500.8" y2="149.4"/>
	<line x1="3518.9" y1="141.8" x2="3518.9" y2="149.4"/>
	<line x1="3545.9" y1="132.1" x2="3545.9" y2="140.2"/>
	<line x1="3474" y1="132.6" x2="3474" y2="140.2"/>
	<line x1="3491.9" y1="132.6" x2="3491.9" y2="140.2"/>
	<line x1="3509.8" y1="132.6" x2="3509.8" y2="140.2"/>
	<line x1="3527.9" y1="132.6" x2="3527.9" y2="140.2"/>
	<line x1="3545.9" y1="150.4" x2="3545.9" y2="158.5"/>
	<line x1="3474" y1="150.9" x2="3474" y2="158.5"/>
	<line x1="3491.9" y1="150.9" x2="3491.9" y2="158.5"/>
	<line x1="3509.8" y1="150.9" x2="3509.8" y2="158.5"/>
	<line x1="3527.9" y1="150.9" x2="3527.9" y2="158.5"/>
	<polyline points="3456,96.2 3456,61 3482.9,95.2 	"/>
	<polyline points="3491.4,96.2 3491.4,60.8 3464.9,96.1 	"/>
	<polyline points="3580.5,159.2 3580.5,150.4 3630.4,150.4 	"/>
	<polyline points="3589.5,149.4 3589.5,141.8 3627,141.8 3627,150.4 	"/>
	<polyline points="3617.5,131.3 3617.1,-56.6 3599.1,-56.6 3599.5,140.7 	"/>
	<line x1="3617.5" y1="141.8" x2="3617.5" y2="131.7"/>
	<line x1="3617.5" y1="122.8" x2="3600.1" y2="122.8"/>
	<line x1="3600.1" y1="105.5" x2="3617.1" y2="105.5"/>
	<line x1="3600.1" y1="87.2" x2="3617.1" y2="87.2"/>
	<line x1="3600.1" y1="69.2" x2="3617.1" y2="69.2"/>
	<line x1="3600.1" y1="51.2" x2="3617.1" y2="51.2"/>
	<line x1="3600.1" y1="33.2" x2="3617.1" y2="33.2"/>
	<line x1="3600.1" y1="15.2" x2="3617.1" y2="15.2"/>
	<line x1="3600.1" y1="-2.5" x2="3617.1" y2="-2.5"/>
	<line x1="3600.1" y1="-21.1" x2="3617.1" y2="-21.1"/>
	<line x1="3600.1" y1="-39.1" x2="3617.1" y2="-39.1"/>
	<polyline points="3617.5,123.3 3600.5,105.2 3617.3,87.2 3600.5,69.2 3617.3,51.2 3600.5,33.2 3617.3,15.2 
		3600.5,-2.8 3617.2,-20.8 3599.5,-38.8 3616.9,-56.6 	"/>
	<line x1="3600.5" y1="141.2" x2="3617.5" y2="123.3"/>
	<polyline points="3617.1,141.2 3600.5,123.2 3617.1,105.2 3600.5,87.2 3617.1,69.2 3600.5,51.2 3617.1,33.2 
		3600.5,15.2 3617.1,-2.8 3599.2,-20.9 3617.1,-38.9 3599.1,-56.6 	"/>
	<polyline points="3617.1,-39.1 3500.8,-39.1 3509.8,-56.6 3616.9,-56.6 	"/>
	<polyline points="3599.1,-56.6 3581.8,-39.1 3563.5,-56.6 3545.9,-39.1 3527.8,-56.6 3509.8,-39.1 3509.8,-56.6 
		3527.8,-39.1 3545.9,-56.6 3563.5,-39.1 3581.5,-56.6 3599.1,-39.1 	"/>
	<line x1="3581.5" y1="-56.6" x2="3581.5" y2="-39.1"/>
	<line x1="3545.9" y1="-56.6" x2="3545.9" y2="-39.1"/>
	<line x1="3527.8" y1="-56.6" x2="3527.8" y2="-39.1"/>
	<polyline points="3563.5,-56.6 3563.5,-39.1 3563.5,-33.1 3509.8,-33.1 3509.8,-39.1 	"/>
	<line x1="3518.8" y1="-33.1" x2="3518.8" y2="4.9"/>
	<rect x="3513.8" y="5.9" width="10.5" height="9.2"/>
	<path d="M3518.8,15.2v3.5c0,0,4.8,0.8,4.8,5.4c0,4.5-4.5,4.5-4.5,4.5s-5.3,0.4-5.3-4.4"/>
	<polyline points="3509.8,42.3 3518.8,25.7 3527.9,42.6 	"/>
	<rect x="3482.9" y="42.6" width="72" height="8.6"/>
	<circle cx="3638.8" cy="151" r="7.7"/>
	<circle cx="3672.8" cy="151" r="7.7"/>
	<line x1="3646.5" y1="151" x2="3665.1" y2="151"/>
	<polyline points="3680.5,151 3685.6,151 3685.6,138.9 3679.3,132.1 3672.8,118.3 3661.5,118.3 3658.3,144.7 
		3643.2,144.7 	"/>
	<polyline points="3633.7,145.3 3617.8,132.1 3617.8,124.9 3645.4,124.9 3658.8,111.2 3666.4,111.2 3669.4,117.8 	"/>
	<polyline points="3619.6,124.7 3625.2,118.3 3631.1,118.3 3635.8,114.6 3642.1,113.5 3649.7,119.1 	"/>
	<polyline points="3635.8,114.6 3638.8,108.4 3646.5,105.8 3652.2,108.4 3656.5,113.5 	"/>
	<line x1="3651.8" y1="144.6" x2="3653.4" y2="131.8"/>
	<line x1="3644.8" y1="144.6" x2="3646.5" y2="131.8"/>
	<line x1="3638.8" y1="143.3" x2="3640.3" y2="131.8"/>
	<circle cx="3638.8" cy="151" r="3.6"/>
	<circle cx="3672.8" cy="151" r="3.6"/>
	<polyline points="3420,159.8 3420,15.2 3456,15.2 3456,117.2 	"/>
	<line x1="3420" y1="42.6" x2="3456" y2="42.6"/>
	<line x1="3420" y1="69.4" x2="3456" y2="69.4"/>
	<line x1="3420" y1="96.1" x2="3456" y2="96.1"/>
	<line x1="3420" y1="122.8" x2="3456" y2="122.8"/>
	<line x1="3420" y1="15.2" x2="3420" y2="-19.2"/>
	<line x1="3456" y1="15.2" x2="3456" y2="-19.2"/>
	<line x1="3420" y1="78.5" x2="3456" y2="78.5"/>
	<polyline points="3420,131.3 3456,131.3 3554.7,131.3 	"/>
	<line x1="3554.5" y1="159.2" x2="3554.5" y2="239.7"/>
	<circle cx="3554.5" cy="252.2" r="12.5"/>
</g>
<g id="building-5">
	<polygon points="3161,-2.8 3129.5,-2.7 3129.5,159.8 3160.5,159.8 3160.5,113.2 	"/>
	<polygon points="3341,-65.2 3314,-64.9 3314,159.8 3340.6,159.8 3340.6,95.3 	"/>
	<polygon points="3174.3,-137.4 3165.7,-137.2 3165.7,159.6 3169.9,159.6 3169.9,74.3 3170,-92.9 3179,-92.9 3179,-120 
		3174.3,-120 	"/>
	<polygon points="3223.5,-21.5 3223.5,-29.1 3201.3,-28.9 3201.3,159.8 3231.5,159.8 3231.5,105.6 3232,-21.5 	"/>
	<polygon points="3268.5,23.7 3268.5,43.2 3259.4,43.2 3259.4,159.8 3286.6,159.8 3286.6,105.6 3287,23.7 	"/>
	<g>
		<polygon points="3079.7,-55.7 3079.7,-21.5 3097.9,-21.5 3097.7,159.6 3066.3,159.6 3066.3,-55.7 3075.3,-55.7 		"/>
	</g>
	<line x1="3107.6" y1="60.8" x2="3116.4" y2="60.8"/>
	<line x1="3107.6" y1="67.8" x2="3116.4" y2="67.8"/>
	<line x1="3107.6" y1="53.7" x2="3116.4" y2="53.7"/>
	<line x1="3107.6" y1="46.7" x2="3116.4" y2="46.7"/>
	<line x1="3107.6" y1="39.6" x2="3116.4" y2="39.6"/>
	<line x1="3107.6" y1="74.9" x2="3116.4" y2="74.9"/>
	<line x1="3107.6" y1="82" x2="3116.4" y2="82"/>
	<line x1="3107.6" y1="18.7" x2="3116.4" y2="18.7"/>
	<line x1="3107.6" y1="-2.7" x2="3116.4" y2="-2.7"/>
	<line x1="3107.6" y1="11.6" x2="3116.4" y2="11.6"/>
	<line x1="3107.6" y1="25.7" x2="3116.4" y2="25.7"/>
	<line x1="3107.6" y1="32.6" x2="3116.4" y2="32.6"/>
	<line x1="3107.6" y1="145.4" x2="3116.2" y2="145.4"/>
	<line x1="3107.6" y1="138.4" x2="3116.4" y2="138.4"/>
	<line x1="3107.6" y1="117.2" x2="3116.4" y2="117.2"/>
	<line x1="3107.6" y1="96.1" x2="3116.4" y2="96.1"/>
	<line x1="3107.6" y1="110.2" x2="3116.4" y2="110.2"/>
	<line x1="3107.6" y1="103.1" x2="3116.4" y2="103.1"/>
	<line x1="3107.6" y1="89" x2="3116.4" y2="89"/>
	<line x1="3107.6" y1="124.3" x2="3116.4" y2="124.3"/>
	<line x1="3107.6" y1="131.3" x2="3116.4" y2="131.3"/>
	<line x1="3125.3" y1="60.8" x2="3134.1" y2="60.8"/>
	<line x1="3125.3" y1="67.8" x2="3134.1" y2="67.8"/>
	<line x1="3125.3" y1="53.7" x2="3134.1" y2="53.7"/>
	<line x1="3125.3" y1="46.7" x2="3134.1" y2="46.7"/>
	<line x1="3125.3" y1="39.6" x2="3134.1" y2="39.6"/>
	<line x1="3125.3" y1="74.9" x2="3134.1" y2="74.9"/>
	<line x1="3125.3" y1="82" x2="3134.1" y2="82"/>
	<line x1="3125.3" y1="18.7" x2="3134.1" y2="18.7"/>
	<line x1="3125.3" y1="-2.7" x2="3134.1" y2="-2.7"/>
	<line x1="3125.3" y1="11.6" x2="3134.1" y2="11.6"/>
	<line x1="3125.3" y1="25.7" x2="3134.1" y2="25.7"/>
	<line x1="3125.3" y1="32.6" x2="3134.1" y2="32.6"/>
	<line x1="3125.3" y1="145.4" x2="3133.9" y2="145.4"/>
	<line x1="3125.3" y1="138.4" x2="3134.1" y2="138.4"/>
	<line x1="3125.3" y1="117.2" x2="3134.1" y2="117.2"/>
	<line x1="3125.3" y1="96.1" x2="3134.1" y2="96.1"/>
	<line x1="3125.3" y1="110.2" x2="3134.1" y2="110.2"/>
	<line x1="3125.3" y1="103.1" x2="3134.1" y2="103.1"/>
	<line x1="3125.3" y1="89" x2="3134.1" y2="89"/>
	<line x1="3125.3" y1="124.3" x2="3134.1" y2="124.3"/>
	<line x1="3125.3" y1="131.3" x2="3134.1" y2="131.3"/>
	<line x1="3300.8" y1="60.8" x2="3309.6" y2="60.8"/>
	<line x1="3300.8" y1="67.8" x2="3309.6" y2="67.8"/>
	<line x1="3300.8" y1="53.7" x2="3309.6" y2="53.7"/>
	<line x1="3300.8" y1="46.7" x2="3309.6" y2="46.7"/>
	<line x1="3300.8" y1="39.6" x2="3309.6" y2="39.6"/>
	<line x1="3300.8" y1="74.9" x2="3309.6" y2="74.9"/>
	<line x1="3300.8" y1="82" x2="3309.6" y2="82"/>
	<line x1="3300.8" y1="18.7" x2="3309.6" y2="18.7"/>
	<line x1="3300.8" y1="11.6" x2="3309.6" y2="11.6"/>
	<line x1="3300.8" y1="25.7" x2="3309.6" y2="25.7"/>
	<line x1="3300.8" y1="32.6" x2="3309.6" y2="32.6"/>
	<line x1="3300.8" y1="145.4" x2="3309.4" y2="145.4"/>
	<line x1="3300.8" y1="138.4" x2="3309.6" y2="138.4"/>
	<line x1="3300.8" y1="117.2" x2="3309.6" y2="117.2"/>
	<line x1="3300.8" y1="96.1" x2="3309.6" y2="96.1"/>
	<line x1="3300.8" y1="110.2" x2="3309.6" y2="110.2"/>
	<line x1="3300.8" y1="103.1" x2="3309.6" y2="103.1"/>
	<line x1="3300.8" y1="89" x2="3309.6" y2="89"/>
	<line x1="3300.8" y1="124.3" x2="3309.6" y2="124.3"/>
	<line x1="3300.8" y1="131.3" x2="3309.6" y2="131.3"/>
	<line x1="3318.5" y1="60.8" x2="3327.3" y2="60.8"/>
	<line x1="3318.5" y1="67.8" x2="3327.3" y2="67.8"/>
	<line x1="3318.5" y1="53.7" x2="3327.3" y2="53.7"/>
	<line x1="3318.5" y1="46.7" x2="3327.3" y2="46.7"/>
	<line x1="3318.5" y1="39.6" x2="3327.3" y2="39.6"/>
	<line x1="3318.5" y1="74.9" x2="3327.3" y2="74.9"/>
	<line x1="3318.5" y1="82" x2="3327.3" y2="82"/>
	<line x1="3318.5" y1="18.7" x2="3327.3" y2="18.7"/>
	<line x1="3318.5" y1="11.6" x2="3327.3" y2="11.6"/>
	<line x1="3318.5" y1="25.7" x2="3327.3" y2="25.7"/>
	<line x1="3318.5" y1="32.6" x2="3327.3" y2="32.6"/>
	<line x1="3300.8" y1="4.9" x2="3309.6" y2="4.9"/>
	<line x1="3300.8" y1="-2.2" x2="3309.6" y2="-2.2"/>
	<line x1="3300.8" y1="-9.2" x2="3309.6" y2="-9.2"/>
	<line x1="3300.8" y1="-16.3" x2="3309.6" y2="-16.3"/>
	<line x1="3300.8" y1="-37.2" x2="3309.6" y2="-37.2"/>
	<line x1="3300.8" y1="-44.3" x2="3309.6" y2="-44.3"/>
	<line x1="3300.8" y1="-30.2" x2="3309.6" y2="-30.2"/>
	<line x1="3300.8" y1="-23.4" x2="3309.6" y2="-23.4"/>
	<line x1="3318.5" y1="4.9" x2="3327.3" y2="4.9"/>
	<line x1="3318.5" y1="-2.2" x2="3327.3" y2="-2.2"/>
	<line x1="3318.5" y1="-9.2" x2="3327.3" y2="-9.2"/>
	<line x1="3318.5" y1="-16.3" x2="3327.3" y2="-16.3"/>
	<line x1="3318.5" y1="-37.2" x2="3327.3" y2="-37.2"/>
	<line x1="3318.5" y1="-44.3" x2="3327.3" y2="-44.3"/>
	<line x1="3300.8" y1="-52.2" x2="3309.6" y2="-52.2"/>
	<line x1="3318.5" y1="-52.2" x2="3327.3" y2="-52.2"/>
	<line x1="3318.5" y1="-30.2" x2="3327.3" y2="-30.2"/>
	<line x1="3318.5" y1="-23.4" x2="3327.3" y2="-23.4"/>
	<line x1="3318.5" y1="145.4" x2="3327.1" y2="145.4"/>
	<line x1="3318.5" y1="138.4" x2="3327.3" y2="138.4"/>
	<line x1="3318.5" y1="117.2" x2="3327.3" y2="117.2"/>
	<line x1="3318.5" y1="96.1" x2="3327.3" y2="96.1"/>
	<line x1="3318.5" y1="110.2" x2="3327.3" y2="110.2"/>
	<line x1="3318.5" y1="103.1" x2="3327.3" y2="103.1"/>
	<line x1="3318.5" y1="89" x2="3327.3" y2="89"/>
	<line x1="3318.5" y1="124.3" x2="3327.3" y2="124.3"/>
	<line x1="3318.5" y1="131.3" x2="3327.3" y2="131.3"/>
	<line x1="3143" y1="60.8" x2="3151.8" y2="60.8"/>
	<line x1="3143" y1="67.8" x2="3151.8" y2="67.8"/>
	<line x1="3143" y1="53.7" x2="3151.8" y2="53.7"/>
	<line x1="3143" y1="46.7" x2="3151.8" y2="46.7"/>
	<line x1="3143" y1="39.6" x2="3151.8" y2="39.6"/>
	<line x1="3143" y1="74.9" x2="3151.8" y2="74.9"/>
	<line x1="3143" y1="82" x2="3151.8" y2="82"/>
	<line x1="3143" y1="18.7" x2="3151.8" y2="18.7"/>
	<line x1="3143" y1="11.6" x2="3151.8" y2="11.6"/>
	<line x1="3143" y1="25.7" x2="3151.8" y2="25.7"/>
	<line x1="3143" y1="32.6" x2="3151.8" y2="32.6"/>
	<line x1="3143" y1="145.4" x2="3151.6" y2="145.4"/>
	<line x1="3143" y1="138.4" x2="3151.8" y2="138.4"/>
	<line x1="3143" y1="117.2" x2="3151.8" y2="117.2"/>
	<line x1="3143" y1="96.1" x2="3151.8" y2="96.1"/>
	<line x1="3143" y1="110.2" x2="3151.8" y2="110.2"/>
	<line x1="3143" y1="103.1" x2="3151.8" y2="103.1"/>
	<line x1="3143" y1="89" x2="3151.8" y2="89"/>
	<line x1="3143" y1="124.3" x2="3151.8" y2="124.3"/>
	<line x1="3143" y1="131.3" x2="3151.8" y2="131.3"/>
	<polyline points="3044.3,159.8 3044.3,-48.6 3080,-48.6 3080,-21.5 3097.9,-21.5 3097.9,159.6 	"/>
	<polyline points="3044.3,-48.6 3044.3,-55.7 3080,-55.7 3080,-48.6 	"/>
	<line x1="3035" y1="-55.7" x2="3089" y2="-55.7"/>
	<line x1="3053" y1="-48.6" x2="3053" y2="159.2"/>
	<line x1="3062" y1="-48.6" x2="3062" y2="159.2"/>
	<line x1="3071.1" y1="-48.6" x2="3071.1" y2="159.2"/>
	<line x1="3080" y1="-21.5" x2="3080" y2="159.2"/>
	<line x1="3089" y1="-21.5" x2="3089" y2="159.2"/>
	<polyline points="3161.4,29.2 3161.4,-92.9 3170,-92.9 3170,158.8 	"/>
	<line x1="3165.7" y1="-87" x2="3165.7" y2="155.8"/>
	<polyline points="3097.9,-2.7 3161.2,-2.7 3161.2,159.2 	"/>
	<rect x="3151.8" y="-120" width="27.2" height="27.1"/>
	<line x1="3151.8" y1="-102.4" x2="3179" y2="-102.4"/>
	<line x1="3151.8" y1="-111" x2="3179" y2="-111"/>
	<polyline points="3156.7,-120 3156.7,-128.7 3156.7,-137.4 3174.3,-137.4 3174.3,-120 	"/>
	<line x1="3156.7" y1="-128.7" x2="3174.3" y2="-128.7"/>
	<line x1="3165.7" y1="-137.4" x2="3165.7" y2="-164.7"/>
	<polyline points="3170,-21.5 3179,-21.5 3179,-29.1 3223.5,-29.1 3223.5,-21.5 3232,-21.5 3232,159.8 	"/>
	<line x1="3179" y1="145.4" x2="3223.7" y2="145.4"/>
	<line x1="3179" y1="138.4" x2="3223.7" y2="138.4"/>
	<line x1="3179" y1="131.3" x2="3223.7" y2="131.3"/>
	<line x1="3179" y1="124.3" x2="3223.7" y2="124.3"/>
	<line x1="3179" y1="117.2" x2="3223.7" y2="117.2"/>
	<line x1="3179" y1="110.2" x2="3223.7" y2="110.2"/>
	<line x1="3179" y1="103.1" x2="3223.7" y2="103.1"/>
	<line x1="3179" y1="89" x2="3223.7" y2="89"/>
	<line x1="3179" y1="96.1" x2="3223.7" y2="96.1"/>
	<line x1="3179" y1="67.8" x2="3223.7" y2="67.8"/>
	<line x1="3179" y1="82" x2="3223.7" y2="82"/>
	<line x1="3179" y1="74.9" x2="3223.7" y2="74.9"/>
	<line x1="3179" y1="61" x2="3223.7" y2="61"/>
	<line x1="3179" y1="46.9" x2="3223.7" y2="46.9"/>
	<line x1="3179" y1="53.9" x2="3223.7" y2="53.9"/>
	<line x1="3179" y1="25.7" x2="3223.7" y2="25.7"/>
	<line x1="3179" y1="39.8" x2="3223.7" y2="39.8"/>
	<line x1="3179" y1="32.8" x2="3223.7" y2="32.8"/>
	<line x1="3179" y1="18.7" x2="3223.7" y2="18.7"/>
	<line x1="3179" y1="4.6" x2="3223.7" y2="4.6"/>
	<line x1="3179" y1="11.6" x2="3223.7" y2="11.6"/>
	<line x1="3179" y1="-2.5" x2="3223.7" y2="-2.5"/>
	<line x1="3179" y1="-9.5" x2="3223.7" y2="-9.5"/>
	<polyline points="3231.7,60.8 3250.5,60.8 3250.5,43.2 3268.5,43.2 3268.5,23.7 3287,23.7 3287,159.6 3287,-65.2 
		3340.7,-65.2 3340.7,159.6 	"/>
	<line x1="3250.5" y1="60.8" x2="3250.5" y2="158.8"/>
	<line x1="3268.5" y1="43.2" x2="3268.5" y2="159.2"/>
	<line x1="3278" y1="32.6" x2="3278" y2="152.1"/>
	<line x1="3259.4" y1="51.9" x2="3259.4" y2="152"/>
	<line x1="3241" y1="69.4" x2="3241" y2="152"/>
	<polyline points="3295.6,-65.2 3295.6,-84.3 3314.1,-84.3 3314.1,-65.2 	"/>
	<line x1="3304.8" y1="-84.3" x2="3304.8" y2="-111"/>
	<line x1="3170" y1="159.2" x2="3170" y2="239.7"/>
	<circle cx="3170" cy="252.2" r="12.5"/>
</g>
<g id="building-4">
	<polygon points="2767.7,114.2 2767.7,159.8 2790.2,159.8 2790.2,125.5 	"/>
	<polygon points="2727.5,103.5 2727.5,159.8 2745.7,159.8 2745.7,91.6 	"/>
	<polygon points="2817.1,69.4 2817.1,159.8 2843.4,159.8 2843.4,96.2 	"/>
	<polygon points="2897.8,78.3 2897.8,159.8 2942.5,159.8 2942.5,113.2 2952,113.2 2924.2,78.3 	"/>
	<line x1="2754.2" y1="133.7" x2="2763" y2="133.7"/>
	<line x1="2754.2" y1="145.7" x2="2763.1" y2="145.7"/>
	<line x1="2754.2" y1="139.7" x2="2763" y2="139.7"/>
	<line x1="2709" y1="133.7" x2="2717.9" y2="133.7"/>
	<line x1="2709" y1="127.1" x2="2717.9" y2="127.1"/>
	<line x1="2709.1" y1="145.7" x2="2718" y2="145.7"/>
	<line x1="2709" y1="139.7" x2="2717.9" y2="139.7"/>
	<line x1="2804.4" y1="152" x2="2813.3" y2="152"/>
	<line x1="2804.4" y1="133.7" x2="2813.3" y2="133.7"/>
	<line x1="2804.4" y1="127.1" x2="2813.3" y2="127.1"/>
	<line x1="2804.5" y1="145.7" x2="2813.4" y2="145.7"/>
	<line x1="2804.4" y1="139.7" x2="2813.3" y2="139.7"/>
	<line x1="2822.3" y1="152" x2="2831.1" y2="152"/>
	<line x1="2822.3" y1="133.7" x2="2831.1" y2="133.7"/>
	<line x1="2822.3" y1="127.1" x2="2831.1" y2="127.1"/>
	<line x1="2822.3" y1="145.7" x2="2831.2" y2="145.7"/>
	<line x1="2822.3" y1="139.7" x2="2831.1" y2="139.7"/>
	<line x1="2772.2" y1="133.7" x2="2781" y2="133.7"/>
	<line x1="2772.2" y1="145.7" x2="2781.1" y2="145.7"/>
	<line x1="2772.2" y1="139.7" x2="2781" y2="139.7"/>
	<line x1="2880.2" y1="145.7" x2="2889.1" y2="145.7"/>
	<line x1="2880.1" y1="139.7" x2="2889" y2="139.7"/>
	<line x1="2907.3" y1="145.7" x2="2916.2" y2="145.7"/>
	<line x1="2907.2" y1="139.7" x2="2916.1" y2="139.7"/>
	<polyline points="2700.6,135 2700.6,159.8 2700.6,121.3 2745.4,91.6 2745.4,159.3 	"/>
	<line x1="2682.1" y1="159.2" x2="2682.1" y2="145.1"/>
	<circle cx="2682.1" cy="136.4" r="8.6"/>
	<polyline points="2673.7,138.5 2678.6,134.4 2682.1,137.8 2686.1,134.4 2690.3,138.9 	"/>
	<line x1="2700.6" y1="121.3" x2="2692.1" y2="127.1"/>
	<polyline points="2745.4,103.5 2789.9,125.7 2789.9,159.8 2789.9,96.2 2843.8,96.2 2843.8,159.8 	"/>
	<line x1="2786.9" y1="124.2" x2="2797.8" y2="129.8"/>
	<line x1="2736" y1="97.8" x2="2736" y2="159.2"/>
	<line x1="2727.5" y1="103.5" x2="2727.5" y2="159.8"/>
	<line x1="2789.9" y1="125.7" x2="2745.4" y2="125.7"/>
	<polyline points="2789.9,96.2 2816.8,69.4 2843.8,96.2 	"/>
	<line x1="2789.9" y1="114.2" x2="2843.8" y2="114.2"/>
	<line x1="2799.1" y1="100.1" x2="2799.1" y2="110.2"/>
	<line x1="2808" y1="100.1" x2="2808" y2="110.2"/>
	<line x1="2803.5" y1="100.1" x2="2803.5" y2="110.2"/>
	<line x1="2812.6" y1="100.1" x2="2812.6" y2="110.2"/>
	<line x1="2821.7" y1="100.1" x2="2821.7" y2="110.2"/>
	<line x1="2817.2" y1="100.1" x2="2817.2" y2="110.2"/>
	<line x1="2826.2" y1="100.1" x2="2826.2" y2="110.2"/>
	<line x1="2831.1" y1="100.1" x2="2831.1" y2="110.2"/>
	<line x1="2835.7" y1="100.1" x2="2835.7" y2="110.2"/>
	<line x1="2879.6" y1="117" x2="2879.6" y2="127.1"/>
	<line x1="2888.5" y1="117" x2="2888.5" y2="127.1"/>
	<line x1="2884.1" y1="117" x2="2884.1" y2="127.1"/>
	<line x1="2893.2" y1="117" x2="2893.2" y2="127.1"/>
	<line x1="2902.3" y1="117" x2="2902.3" y2="127.1"/>
	<line x1="2897.8" y1="117" x2="2897.8" y2="127.1"/>
	<line x1="2906.8" y1="117" x2="2906.8" y2="127.1"/>
	<line x1="2911.7" y1="117" x2="2911.7" y2="127.1"/>
	<line x1="2916.2" y1="117" x2="2916.2" y2="127.1"/>
	<polyline points="2861.7,113.2 2853,113.2 2853,159.2 	"/>
	<path d="M2925.2,113.2"/>
	<polyline points="2933.3,113.2 2942.5,113.2 2942.5,159.8 	"/>
	<polygon points="2843.8,113.2 2952,113.2 2925,78.3 2870.8,78.3 	"/>
	<polygon points="2897.9,78.3 2870.7,113.2 2925.2,113.2 	"/>
	<polyline points="2870.7,159.8 2870.7,113.2 2925.2,113.2 2925.2,159.8 	"/>
	<line x1="2870.7" y1="131.7" x2="2925.2" y2="131.7"/>
	<line x1="2925.2" y1="123.2" x2="2942.5" y2="123.2"/>
	<line x1="2870.7" y1="123.2" x2="2853" y2="123.2"/>
	<line x1="2965.3" y1="159.2" x2="2965.3" y2="145.1"/>
	<polyline points="2957.2,128.5 2961.9,124.1 2965.4,127.5 2969.4,124.1 2973.6,128.6 	"/>
	<path d="M2973.6,128.6c1-1.6,1.6-3.4,1.6-5.4c0-5.4-4.4-9.8-9.8-9.8s-9.8,4.4-9.8,9.8c0,2,0.6,3.9,1.6,5.4
		c-3,1.3-5.1,4.4-5.1,7.9c0,4.8,3.9,8.6,8.6,8.6c1.7,0,3.4-0.5,4.7-1.4c1.4,0.9,3,1.4,4.7,1.4c4.8,0,8.6-3.9,8.6-8.6
		C2978.7,132.9,2976.6,129.9,2973.6,128.6z"/>
	<line x1="2981.6" y1="159.2" x2="2981.6" y2="145.1"/>
	<polyline points="2973.5,128.5 2978.2,124.1 2981.7,127.5 2985.7,124.1 2990,128.6 	"/>
	<path d="M2973.6,144.4c1,0.4,2.2,0.7,3.4,0.7c1.7,0,3.4-0.5,4.7-1.4c1.4,0.9,3,1.4,4.7,1.4c4.8,0,8.6-3.9,8.6-8.6
		c0-3.5-2.1-6.5-5.1-7.9c1-1.6,1.6-3.4,1.6-5.4c0-5.4-4.4-9.8-9.8-9.8c-3.4,0-6.4,1.7-8.1,4.3"/>
	<line x1="2754.2" y1="152" x2="2763" y2="152"/>
	<line x1="2709" y1="152" x2="2717.9" y2="152"/>
	<line x1="2772.2" y1="152" x2="2781" y2="152"/>
	<line x1="2880.1" y1="152" x2="2889" y2="152"/>
	<line x1="2907.2" y1="152" x2="2916.1" y2="152"/>
	<line x1="2843.4" y1="159.2" x2="2843.4" y2="239.7"/>
	<circle cx="2843.4" cy="252.2" r="12.5"/>
</g>
<g id="building-3">
	<path d="M2495.1,159.8c0,0,24.1-27.3,57-27.3c15.8,0,30.9,10.4,30.9,10.4s-10.3,2.1-23.9,16.9
		C2538.3,159.8,2495.1,159.8,2495.1,159.8z"/>
	<polygon points="2393.1,105.2 2393.1,159.8 2411,159.8 2411,123.2 	"/>
	<polygon points="2433.4,96.2 2433.4,159.8 2455.9,159.8 2455.9,114.2 	"/>
	<line x1="2419.9" y1="152" x2="2428.8" y2="152"/>
	<line x1="2384.5" y1="152" x2="2401.8" y2="152"/>
	<line x1="2384.5" y1="145.7" x2="2401.8" y2="145.7"/>
	<line x1="2384.5" y1="139.7" x2="2401.8" y2="139.7"/>
	<line x1="2419.8" y1="146" x2="2428.7" y2="146"/>
	<line x1="2438.1" y1="152" x2="2447" y2="152"/>
	<line x1="2438" y1="146" x2="2446.9" y2="146"/>
	<line x1="2419.8" y1="139.9" x2="2428.7" y2="139.9"/>
	<line x1="2438" y1="139.9" x2="2446.9" y2="139.9"/>
	<polyline points="2375.2,139.7 2277.1,139.7 2277.1,152 2375.2,152 	"/>
	<line x1="2326.1" y1="159.8" x2="2326.1" y2="139.9"/>
	<line x1="2351" y1="159.8" x2="2351" y2="139.9"/>
	<polyline points="2375.2,139.9 2375.2,159.8 2375.2,123.2 2411,123.2 2411,159.4 	"/>
	<line x1="2301.7" y1="159.8" x2="2301.7" y2="139.9"/>
	<line x1="2277.1" y1="159.8" x2="2277.1" y2="139.9"/>
	<line x1="2280.7" y1="139.7" x2="2280.7" y2="152"/>
	<line x1="2283.7" y1="139.7" x2="2283.7" y2="152"/>
	<line x1="2286.6" y1="139.7" x2="2286.6" y2="152"/>
	<line x1="2289.6" y1="139.7" x2="2289.6" y2="152"/>
	<line x1="2292.5" y1="139.7" x2="2292.5" y2="152"/>
	<line x1="2295.5" y1="139.7" x2="2295.5" y2="152"/>
	<line x1="2298.5" y1="139.7" x2="2298.5" y2="152"/>
	<line x1="2305" y1="139.7" x2="2305" y2="152"/>
	<line x1="2308" y1="139.7" x2="2308" y2="152"/>
	<line x1="2311" y1="139.7" x2="2311" y2="152"/>
	<line x1="2313.9" y1="139.7" x2="2313.9" y2="152"/>
	<line x1="2316.9" y1="139.7" x2="2316.9" y2="152"/>
	<line x1="2319.8" y1="139.7" x2="2319.8" y2="152"/>
	<line x1="2322.8" y1="139.7" x2="2322.8" y2="152"/>
	<line x1="2329.5" y1="139.7" x2="2329.5" y2="152"/>
	<line x1="2332.5" y1="139.7" x2="2332.5" y2="152"/>
	<line x1="2335.5" y1="139.7" x2="2335.5" y2="152"/>
	<line x1="2338.4" y1="139.7" x2="2338.4" y2="152"/>
	<line x1="2341.4" y1="139.7" x2="2341.4" y2="152"/>
	<line x1="2344.3" y1="139.7" x2="2344.3" y2="152"/>
	<line x1="2347.3" y1="139.7" x2="2347.3" y2="152"/>
	<line x1="2354.6" y1="139.7" x2="2354.6" y2="152"/>
	<line x1="2357.6" y1="139.7" x2="2357.6" y2="152"/>
	<line x1="2360.5" y1="139.7" x2="2360.5" y2="152"/>
	<line x1="2363.5" y1="139.7" x2="2363.5" y2="152"/>
	<line x1="2366.4" y1="139.7" x2="2366.4" y2="152"/>
	<line x1="2369.4" y1="139.7" x2="2369.4" y2="152"/>
	<line x1="2372.3" y1="139.7" x2="2372.3" y2="152"/>
	<polyline points="2482.4,139.7 2580.5,139.7 2580.5,152 2482.4,152 	"/>
	<line x1="2531.5" y1="159.8" x2="2531.5" y2="139.9"/>
	<line x1="2506.6" y1="159.8" x2="2506.6" y2="139.9"/>
	<path d="M2481.1,139.9v19.9c0,0,31.5-27.3,65.5-27.3c14.4,0,27.1,4.4,37.6,10"/>
	<path d="M2559.1,139.9v19.9c0,0,12.1-18.6,40.1-18.6s40.1,18.6,40.1,18.6"/>
	<path d="M2639.2,159.8c0,0-12.1-18.6-40.1-18.6c0,0-17.8,1-28.2,18.6C2570.9,159.8,2639.2,159.8,2639.2,159.8z"/>
	<line x1="2555.9" y1="159.8" x2="2555.9" y2="139.9"/>
	<line x1="2580.5" y1="159.8" x2="2580.5" y2="139.9"/>
	<line x1="2576.9" y1="139.7" x2="2576.9" y2="152"/>
	<line x1="2573.9" y1="139.7" x2="2573.9" y2="152"/>
	<line x1="2571" y1="139.7" x2="2571" y2="152"/>
	<line x1="2568" y1="139.7" x2="2568" y2="152"/>
	<line x1="2565" y1="139.7" x2="2565" y2="152"/>
	<line x1="2562.1" y1="139.7" x2="2562.1" y2="152"/>
	<line x1="2559.1" y1="139.7" x2="2559.1" y2="152"/>
	<line x1="2552.5" y1="139.7" x2="2552.5" y2="152"/>
	<line x1="2549.6" y1="139.7" x2="2549.6" y2="152"/>
	<line x1="2546.6" y1="139.7" x2="2546.6" y2="152"/>
	<line x1="2543.7" y1="139.7" x2="2543.7" y2="152"/>
	<line x1="2540.7" y1="139.7" x2="2540.7" y2="152"/>
	<line x1="2537.8" y1="139.7" x2="2537.8" y2="152"/>
	<line x1="2534.8" y1="139.7" x2="2534.8" y2="152"/>
	<line x1="2528" y1="139.7" x2="2528" y2="152"/>
	<line x1="2525.1" y1="139.7" x2="2525.1" y2="152"/>
	<line x1="2522.1" y1="139.7" x2="2522.1" y2="152"/>
	<line x1="2519.2" y1="139.7" x2="2519.2" y2="152"/>
	<line x1="2516.2" y1="139.7" x2="2516.2" y2="152"/>
	<line x1="2513.3" y1="139.7" x2="2513.3" y2="152"/>
	<line x1="2510.3" y1="139.7" x2="2510.3" y2="152"/>
	<line x1="2503" y1="139.7" x2="2503" y2="152"/>
	<line x1="2500" y1="139.7" x2="2500" y2="152"/>
	<line x1="2497.1" y1="139.7" x2="2497.1" y2="152"/>
	<line x1="2494.1" y1="139.7" x2="2494.1" y2="152"/>
	<line x1="2491.2" y1="139.7" x2="2491.2" y2="152"/>
	<line x1="2488.2" y1="139.7" x2="2488.2" y2="152"/>
	<line x1="2485.2" y1="139.7" x2="2485.2" y2="152"/>
	<polyline points="2375.2,123.2 2393.1,105.2 2411,123.2 	"/>
	<polyline points="2411,135 2411,159.8 2411,114.2 2455.8,114.2 2455.8,159.3 	"/>
	<polyline points="2411,114.2 2433.4,96.2 2455.8,114.2 	"/>
	<line x1="2411" y1="132.6" x2="2455.8" y2="132.6"/>
	<line x1="2375.2" y1="132.6" x2="2411" y2="132.6"/>
	<line x1="2419.8" y1="118" x2="2419.8" y2="128.2"/>
	<line x1="2428.7" y1="118" x2="2428.7" y2="128.2"/>
	<line x1="2424.3" y1="118" x2="2424.3" y2="128.2"/>
	<line x1="2433.4" y1="118" x2="2433.4" y2="128.2"/>
	<line x1="2442.4" y1="118" x2="2442.4" y2="128.2"/>
	<line x1="2438" y1="118" x2="2438" y2="128.2"/>
	<line x1="2447" y1="118" x2="2447" y2="128.2"/>
	<line x1="2380.4" y1="118" x2="2380.4" y2="109.8"/>
	<line x1="2418" y1="107.8" x2="2418" y2="95"/>
	<line x1="2473.1" y1="159.2" x2="2473.1" y2="145.1"/>
	<circle cx="2473.1" cy="136.4" r="8.6"/>
	<polyline points="2464.7,138.5 2469.6,134.4 2473.1,137.8 2477.1,134.4 2481.3,138.9 	"/>
	<line x1="2411" y1="159.2" x2="2411" y2="239.7"/>
	<circle cx="2411" cy="252.2" r="12.5"/>
</g>
<g id="building-2">
	<path d="M2079.9,25.6c0,0-14.4,21.8-45.1,7.5"/>
	<path d="M2079.9,25.6c0,0-20.1,16.5-45.1,0.7"/>
	<g>
		<polygon points="2034.8,14.6 2043.9,14.6 2043.9,19.6 2039.5,19.6 2039.5,24.6 2034.8,24.6 2034.8,159.8 
			2012.3,159.8 2012.3,14.6 		"/>
	</g>
	<polyline points="2034.8,159.4 2034.8,24.6 1990,24.6 1990,159.4 	"/>
	<polyline points="2034.8,24.6 2039.5,24.6 2039.5,19.6 1985.2,19.6 1985.2,24.6 1989.9,24.6 	"/>
	<polyline points="1985.2,19.6 1980.9,19.6 1980.9,14.6 2043.9,14.6 2043.9,19.6 2039.4,19.6 	"/>
	<polyline points="1989.9,14.6 1989.9,6.6 1999,6.6 1999,14.6 	"/>
	<polyline points="2000,9.5 2007.8,9.5 2007.8,14.6 	"/>
	<rect x="1990" y="87.4" width="44.9" height="9.3"/>
	<line x1="1993.6" y1="92" x2="2031.2" y2="92"/>
	<rect x="1990" y="123.4" width="44.9" height="9.3"/>
	<line x1="1993.6" y1="128" x2="2031.2" y2="128"/>
	<rect x="1990" y="51.3" width="44.9" height="9.3"/>
	<line x1="1993.6" y1="55.9" x2="2031.2" y2="55.9"/>
	<line x1="1999" y1="32.1" x2="2007.8" y2="32.1"/>
	<line x1="1999.1" y1="44.1" x2="2007.9" y2="44.1"/>
	<line x1="1999" y1="38.1" x2="2007.8" y2="38.1"/>
	<line x1="2017.1" y1="32.1" x2="2026" y2="32.1"/>
	<line x1="2017.2" y1="44.1" x2="2026.1" y2="44.1"/>
	<line x1="2017.1" y1="38.1" x2="2026" y2="38.1"/>
	<line x1="1999" y1="139.9" x2="2007.8" y2="139.9"/>
	<line x1="1999.1" y1="152" x2="2007.9" y2="152"/>
	<line x1="1999" y1="146" x2="2007.8" y2="146"/>
	<line x1="2017.1" y1="139.9" x2="2026" y2="139.9"/>
	<line x1="2017.2" y1="152" x2="2026.1" y2="152"/>
	<line x1="2017.1" y1="146" x2="2026" y2="146"/>
	<line x1="1999" y1="68" x2="2007.8" y2="68"/>
	<line x1="1999.1" y1="80" x2="2007.9" y2="80"/>
	<line x1="2017.1" y1="68" x2="2026" y2="68"/>
	<line x1="2017.2" y1="80" x2="2026.1" y2="80"/>
	<line x1="1999.1" y1="74" x2="2026" y2="74"/>
	<line x1="1999" y1="104" x2="2007.8" y2="104"/>
	<line x1="1999.1" y1="116" x2="2007.9" y2="116"/>
	<line x1="2017.1" y1="104" x2="2026" y2="104"/>
	<line x1="2017.2" y1="116" x2="2026.1" y2="116"/>
	<line x1="1999.1" y1="110" x2="2026" y2="110"/>
	<g>
		<rect x="2102.3" y="124.9" width="22.5" height="34.5"/>
	</g>
	<g>
		<rect x="2102.3" y="69.6" width="22.5" height="41.7"/>
	</g>
	<g class="shadow">
		<polygon points="2233.3,51.4 2233.3,159.1 2179.1,159.1 2179.1,42.1 2224,42.1 2224,51.4 		"/>
	</g>
	<g>
		<polygon points="2124.8,10.6 2124.8,19.6 2129.4,19.6 2129.4,24.6 2124.8,24.6 2124.8,56.4 2102.3,56.4 2102.3,10.6 
					"/>
	</g>
	<polyline points="2124.8,159.4 2124.8,24.6 2079.9,24.6 2079.9,159.4 	"/>
	<polyline points="2124.8,24.6 2129.4,24.6 2129.4,19.6 2075.1,19.6 2075.1,24.6 2079.9,24.6 	"/>
	<rect x="2079.9" y="51.3" width="44.9" height="4.8"/>
	<line x1="2088.9" y1="32.1" x2="2097.8" y2="32.1"/>
	<line x1="2089" y1="44.1" x2="2097.9" y2="44.1"/>
	<line x1="2088.9" y1="38.1" x2="2097.8" y2="38.1"/>
	<line x1="2152.1" y1="58.7" x2="2161" y2="58.7"/>
	<line x1="2152.2" y1="70.7" x2="2161.1" y2="70.7"/>
	<line x1="2152.1" y1="64.7" x2="2161" y2="64.7"/>
	<line x1="2152.1" y1="76.8" x2="2161" y2="76.8"/>
	<line x1="2152.2" y1="88.8" x2="2161.1" y2="88.8"/>
	<line x1="2152.1" y1="82.8" x2="2161" y2="82.8"/>
	<line x1="2152.1" y1="94.8" x2="2161" y2="94.8"/>
	<line x1="2152.2" y1="106.8" x2="2161.1" y2="106.8"/>
	<line x1="2152.1" y1="100.8" x2="2161" y2="100.8"/>
	<line x1="2152.1" y1="112.8" x2="2161" y2="112.8"/>
	<line x1="2152.2" y1="124.8" x2="2161.1" y2="124.8"/>
	<line x1="2152.1" y1="118.8" x2="2161" y2="118.8"/>
	<line x1="2152.2" y1="136.9" x2="2161.1" y2="136.9"/>
	<line x1="2152.1" y1="130.9" x2="2161" y2="130.9"/>
	<line x1="2152.1" y1="142.9" x2="2161" y2="142.9"/>
	<line x1="2152.1" y1="148.9" x2="2161" y2="148.9"/>
	<line x1="2197" y1="58.7" x2="2205.9" y2="58.7"/>
	<line x1="2197.1" y1="70.7" x2="2206" y2="70.7"/>
	<line x1="2197" y1="64.7" x2="2205.9" y2="64.7"/>
	<line x1="2197" y1="76.8" x2="2205.9" y2="76.8"/>
	<line x1="2197.1" y1="88.8" x2="2206" y2="88.8"/>
	<line x1="2197" y1="82.8" x2="2205.9" y2="82.8"/>
	<line x1="2197" y1="94.8" x2="2205.9" y2="94.8"/>
	<line x1="2197.1" y1="106.8" x2="2206" y2="106.8"/>
	<line x1="2197" y1="100.8" x2="2205.9" y2="100.8"/>
	<line x1="2197" y1="112.8" x2="2205.9" y2="112.8"/>
	<line x1="2197.1" y1="124.8" x2="2206" y2="124.8"/>
	<line x1="2197" y1="118.8" x2="2205.9" y2="118.8"/>
	<line x1="2197.1" y1="136.9" x2="2206" y2="136.9"/>
	<line x1="2197" y1="130.9" x2="2205.9" y2="130.9"/>
	<line x1="2197" y1="142.9" x2="2205.9" y2="142.9"/>
	<line x1="2197" y1="148.9" x2="2205.9" y2="148.9"/>
	<line x1="2174.6" y1="136.9" x2="2183.5" y2="136.9"/>
	<line x1="2174.5" y1="130.9" x2="2183.4" y2="130.9"/>
	<line x1="2174.5" y1="142.9" x2="2183.4" y2="142.9"/>
	<line x1="2174.5" y1="148.9" x2="2183.4" y2="148.9"/>
	<line x1="2107.1" y1="32.1" x2="2116" y2="32.1"/>
	<line x1="2107.2" y1="44.1" x2="2116.1" y2="44.1"/>
	<line x1="2107.1" y1="38.1" x2="2116" y2="38.1"/>
	<g>
		<rect x="2057.3" y="78.2" width="22.5" height="81.2"/>
	</g>
	<line x1="2044" y1="139.9" x2="2052.9" y2="139.9"/>
	<line x1="2044.1" y1="152" x2="2053" y2="152"/>
	<line x1="2044" y1="146" x2="2052.9" y2="146"/>
	<line x1="2044" y1="121.8" x2="2052.9" y2="121.8"/>
	<line x1="2044.1" y1="133.8" x2="2053" y2="133.8"/>
	<line x1="2044" y1="127.8" x2="2052.9" y2="127.8"/>
	<line x1="2044" y1="103.5" x2="2052.9" y2="103.5"/>
	<line x1="2044.1" y1="115.6" x2="2053" y2="115.6"/>
	<line x1="2044" y1="109.6" x2="2052.9" y2="109.6"/>
	<line x1="2044" y1="97.6" x2="2052.9" y2="97.6"/>
	<line x1="2062" y1="139.9" x2="2070.9" y2="139.9"/>
	<line x1="2062.1" y1="152" x2="2071" y2="152"/>
	<line x1="2062" y1="146" x2="2070.9" y2="146"/>
	<line x1="2062" y1="121.8" x2="2070.9" y2="121.8"/>
	<line x1="2062.1" y1="133.8" x2="2071" y2="133.8"/>
	<line x1="2062" y1="127.8" x2="2070.9" y2="127.8"/>
	<line x1="2062" y1="103.5" x2="2070.9" y2="103.5"/>
	<line x1="2062.1" y1="115.6" x2="2071" y2="115.6"/>
	<line x1="2062" y1="109.6" x2="2070.9" y2="109.6"/>
	<line x1="2062" y1="97.6" x2="2070.9" y2="97.6"/>
	<line x1="2089" y1="152" x2="2097.9" y2="152"/>
	<line x1="2089" y1="133.7" x2="2097.9" y2="133.7"/>
	<line x1="2089.1" y1="145.7" x2="2098" y2="145.7"/>
	<line x1="2089" y1="139.7" x2="2097.9" y2="139.7"/>
	<line x1="2107" y1="152" x2="2115.9" y2="152"/>
	<line x1="2107" y1="133.7" x2="2115.9" y2="133.7"/>
	<line x1="2107.1" y1="145.7" x2="2116" y2="145.7"/>
	<line x1="2107" y1="139.7" x2="2115.9" y2="139.7"/>
	<polyline points="2034.8,87.4 2079.8,87.4 2079.8,159.8 	"/>
	<polyline points="2079.8,87.4 2079.8,78 2034.8,78 	"/>
	<line x1="2034.8" y1="82.7" x2="2079.8" y2="82.7"/>
	<polyline points="2079.8,18.5 2079.8,10.6 2124.8,10.6 2124.8,19 	"/>
	<polyline points="2084.4,10.6 2084.4,1.8 2093.4,1.8 2093.4,10.6 	"/>
	<line x1="2079.9" y1="69.6" x2="2124.8" y2="69.6"/>
	<line x1="2084.4" y1="55.9" x2="2084.4" y2="69.6"/>
	<line x1="2088.9" y1="55.9" x2="2088.9" y2="69.6"/>
	<line x1="2093.3" y1="55.9" x2="2093.3" y2="69.6"/>
	<line x1="2097.8" y1="55.9" x2="2097.8" y2="69.6"/>
	<line x1="2106.8" y1="55.9" x2="2106.8" y2="69.6"/>
	<line x1="2102.3" y1="55.9" x2="2102.3" y2="69.6"/>
	<line x1="2111.3" y1="55.9" x2="2111.3" y2="69.6"/>
	<line x1="2115.8" y1="55.9" x2="2115.8" y2="69.6"/>
	<line x1="2120.3" y1="55.9" x2="2120.3" y2="69.6"/>
	<rect x="2079.9" y="106.4" width="44.9" height="4.8"/>
	<line x1="2079.9" y1="124.7" x2="2124.8" y2="124.7"/>
	<line x1="2084.4" y1="111.2" x2="2084.4" y2="124.9"/>
	<line x1="2088.9" y1="111.1" x2="2088.9" y2="124.7"/>
	<line x1="2093.3" y1="111.1" x2="2093.3" y2="124.7"/>
	<line x1="2097.8" y1="111.1" x2="2097.8" y2="124.7"/>
	<line x1="2106.8" y1="111.1" x2="2106.8" y2="124.7"/>
	<line x1="2102.3" y1="111.1" x2="2102.3" y2="124.7"/>
	<line x1="2111.3" y1="111.1" x2="2111.3" y2="124.7"/>
	<line x1="2115.8" y1="111.1" x2="2115.8" y2="124.7"/>
	<line x1="2120.3" y1="111.2" x2="2120.3" y2="124.9"/>
	<line x1="2088.9" y1="82.6" x2="2097.8" y2="82.6"/>
	<line x1="2089" y1="94.7" x2="2097.9" y2="94.7"/>
	<line x1="2088.9" y1="88.6" x2="2097.8" y2="88.6"/>
	<line x1="2088.9" y1="76.7" x2="2097.8" y2="76.7"/>
	<line x1="2106.9" y1="82.6" x2="2115.8" y2="82.6"/>
	<line x1="2107" y1="94.7" x2="2115.9" y2="94.7"/>
	<line x1="2106.9" y1="88.6" x2="2115.8" y2="88.6"/>
	<line x1="2106.9" y1="76.7" x2="2115.8" y2="76.7"/>
	<line x1="2079.8" y1="100.8" x2="2124.8" y2="100.8"/>
	<polyline class="st10" points="2125,51.1 2233,51.1 2232.8,159.8 	"/>
	<line x1="2143" y1="51.2" x2="2143" y2="159.2"/>
	<line x1="2215" y1="51.2" x2="2215" y2="159.2"/>
	<line x1="2188" y1="51.2" x2="2188" y2="159.2"/>
	<line x1="2170" y1="51.2" x2="2170" y2="159.2"/>
	<line x1="2128.6" y1="143.6" x2="2128.6" y2="156"/>
	<line x1="2133.9" y1="143.6" x2="2133.9" y2="156"/>
	<line x1="2139.2" y1="143.6" x2="2139.2" y2="156"/>
	<line x1="2136.5" y1="143.6" x2="2136.5" y2="156"/>
	<line x1="2131.3" y1="143.6" x2="2131.3" y2="156"/>
	<line x1="2128.6" y1="108" x2="2128.6" y2="120.4"/>
	<line x1="2133.9" y1="108" x2="2133.9" y2="120.4"/>
	<line x1="2139.2" y1="108" x2="2139.2" y2="120.4"/>
	<line x1="2136.5" y1="108" x2="2136.5" y2="120.4"/>
	<line x1="2131.3" y1="108" x2="2131.3" y2="120.4"/>
	<line x1="2128.6" y1="72.2" x2="2128.6" y2="84.5"/>
	<line x1="2133.9" y1="72.2" x2="2133.9" y2="84.5"/>
	<line x1="2139.2" y1="72.2" x2="2139.2" y2="84.5"/>
	<line x1="2136.5" y1="72.2" x2="2136.5" y2="84.5"/>
	<line x1="2131.3" y1="72.2" x2="2131.3" y2="84.5"/>
	<line x1="2139.2" y1="125.6" x2="2128.6" y2="125.6"/>
	<line x1="2139.2" y1="130.8" x2="2128.6" y2="130.8"/>
	<line x1="2139.2" y1="135.9" x2="2128.6" y2="135.9"/>
	<line x1="2139.2" y1="138.5" x2="2128.6" y2="138.5"/>
	<line x1="2139.2" y1="133.4" x2="2128.6" y2="133.4"/>
	<line x1="2139.2" y1="128.2" x2="2128.6" y2="128.2"/>
	<line x1="2139.2" y1="89.8" x2="2128.6" y2="89.8"/>
	<line x1="2139.2" y1="95" x2="2128.6" y2="95"/>
	<line x1="2139.2" y1="100.2" x2="2128.6" y2="100.2"/>
	<line x1="2139.2" y1="102.8" x2="2128.6" y2="102.8"/>
	<line x1="2139.2" y1="97.6" x2="2128.6" y2="97.6"/>
	<line x1="2139.2" y1="92.4" x2="2128.6" y2="92.4"/>
	<line x1="2139.2" y1="54.1" x2="2128.6" y2="54.1"/>
	<line x1="2139.2" y1="59.3" x2="2128.6" y2="59.3"/>
	<line x1="2139.2" y1="64.5" x2="2128.6" y2="64.5"/>
	<line x1="2139.2" y1="67" x2="2128.6" y2="67"/>
	<line x1="2139.2" y1="61.9" x2="2128.6" y2="61.9"/>
	<line x1="2139.2" y1="56.7" x2="2128.6" y2="56.7"/>
	<line x1="2124.8" y1="141.2" x2="2143" y2="141.2"/>
	<line x1="2124.8" y1="123.2" x2="2143" y2="123.2"/>
	<line x1="2124.8" y1="105.2" x2="2143" y2="105.2"/>
	<line x1="2124.8" y1="87.4" x2="2143" y2="87.4"/>
	<line x1="2124.8" y1="69.3" x2="2143" y2="69.3"/>
	<line x1="2173.7" y1="108" x2="2173.7" y2="120.4"/>
	<line x1="2179" y1="108" x2="2179" y2="120.4"/>
	<line x1="2184.3" y1="108" x2="2184.3" y2="120.4"/>
	<line x1="2181.6" y1="108" x2="2181.6" y2="120.4"/>
	<line x1="2176.4" y1="108" x2="2176.4" y2="120.4"/>
	<line x1="2173.7" y1="72.2" x2="2173.7" y2="84.5"/>
	<line x1="2179" y1="72.2" x2="2179" y2="84.5"/>
	<line x1="2184.3" y1="72.2" x2="2184.3" y2="84.5"/>
	<line x1="2181.6" y1="72.2" x2="2181.6" y2="84.5"/>
	<line x1="2176.4" y1="72.2" x2="2176.4" y2="84.5"/>
	<line x1="2169.9" y1="123.2" x2="2188.1" y2="123.2"/>
	<line x1="2169.9" y1="105.2" x2="2188.1" y2="105.2"/>
	<line x1="2169.9" y1="87.4" x2="2188.1" y2="87.4"/>
	<line x1="2169.9" y1="69.3" x2="2188.1" y2="69.3"/>
	<line x1="2170" y1="92.4" x2="2188" y2="92.4"/>
	<line x1="2170" y1="64.6" x2="2188" y2="64.6"/>
	<polyline points="2133.9,50.6 2133.9,42.1 2224,42.1 2224,51.2 	"/>
	<polyline points="1989.4,139.7 1891.3,139.7 1891.3,152 1989.4,152 	"/>
	<line x1="1940.3" y1="159.8" x2="1940.3" y2="139.9"/>
	<line x1="1965.2" y1="159.8" x2="1965.2" y2="139.9"/>
	<line x1="1915.9" y1="159.8" x2="1915.9" y2="139.9"/>
	<line x1="1891.3" y1="159.8" x2="1891.3" y2="139.9"/>
	<line x1="1894.9" y1="139.7" x2="1894.9" y2="152"/>
	<line x1="1897.9" y1="139.7" x2="1897.9" y2="152"/>
	<line x1="1900.8" y1="139.7" x2="1900.8" y2="152"/>
	<line x1="1903.8" y1="139.7" x2="1903.8" y2="152"/>
	<line x1="1906.8" y1="139.7" x2="1906.8" y2="152"/>
	<line x1="1909.7" y1="139.7" x2="1909.7" y2="152"/>
	<line x1="1912.7" y1="139.7" x2="1912.7" y2="152"/>
	<line x1="1919.3" y1="139.7" x2="1919.3" y2="152"/>
	<line x1="1922.2" y1="139.7" x2="1922.2" y2="152"/>
	<line x1="1925.2" y1="139.7" x2="1925.2" y2="152"/>
	<line x1="1928.1" y1="139.7" x2="1928.1" y2="152"/>
	<line x1="1931.1" y1="139.7" x2="1931.1" y2="152"/>
	<line x1="1934" y1="139.7" x2="1934" y2="152"/>
	<line x1="1937" y1="139.7" x2="1937" y2="152"/>
	<line x1="1943.8" y1="139.7" x2="1943.8" y2="152"/>
	<line x1="1946.7" y1="139.7" x2="1946.7" y2="152"/>
	<line x1="1949.7" y1="139.7" x2="1949.7" y2="152"/>
	<line x1="1952.6" y1="139.7" x2="1952.6" y2="152"/>
	<line x1="1955.6" y1="139.7" x2="1955.6" y2="152"/>
	<line x1="1958.5" y1="139.7" x2="1958.5" y2="152"/>
	<line x1="1961.5" y1="139.7" x2="1961.5" y2="152"/>
	<line x1="1968.8" y1="139.7" x2="1968.8" y2="152"/>
	<line x1="1971.8" y1="139.7" x2="1971.8" y2="152"/>
	<line x1="1974.7" y1="139.7" x2="1974.7" y2="152"/>
	<line x1="1977.7" y1="139.7" x2="1977.7" y2="152"/>
	<line x1="1980.6" y1="139.7" x2="1980.6" y2="152"/>
	<line x1="1983.6" y1="139.7" x2="1983.6" y2="152"/>
	<line x1="1986.6" y1="139.7" x2="1986.6" y2="152"/>
	<line x1="1872.7" y1="159.2" x2="1872.7" y2="141.5"/>
	<circle cx="1872.7" cy="130.8" r="10.8"/>
	<polyline points="1862.2,133.4 1868.3,128.2 1872.7,132.5 1877.7,128.2 1883,133.8 	"/>
	<line x1="2079.8" y1="159.2" x2="2079.8" y2="239.7"/>
	<circle cx="2079.8" cy="252.2" r="12.5"/>
</g>
</svg>
